<svg id="Layer_5" data-name="Layer 5" xmlns="http://www.w3.org/2000/svg" viewBox="0 0 32.29 32"><defs><style>.cls-1{fill:#cc342c;}.cls-2{fill:#fff;}</style></defs><title>PearlArtboard 1</title><path class="cls-1" d="M16.06,0h14a2,2,0,0,1,2,2V16a16,16,0,0,1-16,16h-14a2,2,0,0,1-2-2V16A16,16,0,0,1,16.06,0Z"/><path class="cls-2" d="M25.06,11.83A21.36,21.36,0,0,1,22.79,15a32.14,32.14,0,0,1-3.18,3.27,20.27,20.27,0,0,1-3.53,2.56,6.92,6.92,0,0,1-3.38,1,2.92,2.92,0,0,1-2-.62A2,2,0,0,1,10,19.64a3.78,3.78,0,0,1,.4-1.72l-.07-.07A12.68,12.68,0,0,1,9,19.33,11.54,11.54,0,0,1,7.4,20.61a8,8,0,0,1-1.81.89,5.87,5.87,0,0,1-1.94.33A4,4,0,0,1,1,21a2.8,2.8,0,0,1-1-2.23,2.42,2.42,0,0,1,.55-1.61,1.66,1.66,0,0,1,1.32-.66,1.2,1.2,0,0,1,1,.36,1.32,1.32,0,0,1,.29.84,1.21,1.21,0,0,1-.27.8,1,1,0,0,1-.79.33.89.89,0,0,1-.91-.51,1.18,1.18,0,0,0-.44.95,1.77,1.77,0,0,0,.82,1.57,3.71,3.71,0,0,0,2.1.55,4.39,4.39,0,0,0,2-.53,9.49,9.49,0,0,0,2-1.39,15,15,0,0,0,1.84-2A17.59,17.59,0,0,0,11,15.22a13.69,13.69,0,0,0,1-2.3,6.36,6.36,0,0,0,.38-2A2.52,2.52,0,0,0,12,9.43a1.47,1.47,0,0,0-1.3-.6,2.57,2.57,0,0,0-1.3.35,5.08,5.08,0,0,0-1.11.88,8.16,8.16,0,0,0-.89,1.1l-.68,1-.33-.22q.44-.7.89-1.33a7,7,0,0,1,1-1.13,4.39,4.39,0,0,1,1.24-.79,4,4,0,0,1,1.57-.29,3.46,3.46,0,0,1,1.44.27,2.84,2.84,0,0,1,1,.75,3.61,3.61,0,0,1,.62,1.06,3.53,3.53,0,0,1,.22,1.24,11.47,11.47,0,0,1,2.48-2A8.37,8.37,0,0,1,18.56,9a5.63,5.63,0,0,1,1.79-.29,2.79,2.79,0,0,1,1.85.57,1.73,1.73,0,0,1,.67,1.37,1.29,1.29,0,0,1-.47.95,1.76,1.76,0,0,1-1.24.44,3,3,0,0,1-.51-.07L21,11a2.42,2.42,0,0,0,.15-.79q0-1.09-1-1.1a3.9,3.9,0,0,0-1.79.49,9,9,0,0,0-1.86,1.32,17.18,17.18,0,0,0-1.77,1.86A15.59,15.59,0,0,0,13.17,15a13.86,13.86,0,0,0-1,2.17,5.75,5.75,0,0,0-.38,1.94,2.68,2.68,0,0,0,.42,1.62,1.59,1.59,0,0,0,1.37.57,4.19,4.19,0,0,0,1.79-.47,15.07,15.07,0,0,0,2.08-1.24,21.42,21.42,0,0,0,2.19-1.77q1.09-1,2.08-2.06t1.79-2.1a16.26,16.26,0,0,0,1.28-1.88Z"/><path class="cls-2" d="M19.94,20.31a14.79,14.79,0,0,1,1.54-2.91c.11-.14.19-.18.29-.07a1.26,1.26,0,0,1,0,1.31c-.25.53-.76,1.34-1,1.94s-.26,1.16.12,1.14c.54,0,1.2-.82,1.56-1.64.06-.11.14-.1.19,0a.86.86,0,0,1-.08.74,2.15,2.15,0,0,1-1.79,1.25C19.83,22.06,19.61,21.29,19.94,20.31Zm2.67-3.13a.43.43,0,0,1-.67-.18.74.74,0,0,1,.06-.89c.19-.2.54-.06.7.26A.72.72,0,0,1,22.62,17.18Z"/><path class="cls-2" d="M26.59,17.25c.11-.16.2-.18.29-.07a1.31,1.31,0,0,1,0,1.33c-.26.54-.86,1.44-1.15,2.07s-.31,1.19.1,1.16,1.15-.84,1.57-1.67c.06-.11.14-.12.19,0a1.08,1.08,0,0,1-.11.74,2.16,2.16,0,0,1-1.73,1.28.93.93,0,0,1-1-1,2.1,2.1,0,0,1-1.5.94c-1.12,0-1.34-1.52-.35-3s1.92-2,2.52-2a.73.73,0,0,1,.73.86C26.31,17.69,26.46,17.44,26.59,17.25Zm-1,.49c-.38,0-1.26.74-1.92,1.81s-.79,2.09-.32,2.1,1.12-.76,1.73-1.81C25.87,18.52,26,17.78,25.63,17.74Z"/><path class="cls-2" d="M30.93,19.45A3.71,3.71,0,0,1,29,22a1.32,1.32,0,0,1-1.51-.53,2.51,2.51,0,0,1,.19-2.7,2.78,2.78,0,0,1,1.91-1.56.82.82,0,0,1,.82.41c.28.37.64.46.56,1.32,0,.1,0,.18,0,.28l.24,0c.08,0,.08.06,0,.12A.49.49,0,0,1,30.93,19.45Zm-1-.3a1.49,1.49,0,0,1-.55-1.06,4.19,4.19,0,0,0-.92,1.13c-.5.91-.68,2-.37,2.28s1.07-.14,1.65-1.25a6.27,6.27,0,0,0,.42-1A.92.92,0,0,1,29.91,19.15Zm.41-1.07c-.06-.38-.3-.31-.36,0a1,1,0,0,0,.26.85A2.3,2.3,0,0,0,30.32,18.09Z"/></svg>