<svg id="Layer_4" data-name="Layer 4" xmlns="http://www.w3.org/2000/svg" viewBox="0 0 32 32"><defs><style>.cls-1{fill:#cc342c;}.cls-2{fill:#fff;}</style></defs><title>round-xArtboard 1</title><rect class="cls-1" width="32" height="32" rx="16" ry="16"/><path class="cls-2" d="M31,11.23a24.77,24.77,0,0,1-2.63,3.66,37.27,37.27,0,0,1-3.69,3.79,23.51,23.51,0,0,1-4.09,3,8,8,0,0,1-3.92,1.19,3.39,3.39,0,0,1-2.33-.72,2.34,2.34,0,0,1-.8-1.82,4.38,4.38,0,0,1,.47-2l-.08-.08a14.7,14.7,0,0,1-1.55,1.72,13.39,13.39,0,0,1-1.87,1.48,9.24,9.24,0,0,1-2.1,1,6.8,6.8,0,0,1-2.25.38,4.59,4.59,0,0,1-3.11-1,3.25,3.25,0,0,1-1.12-2.58,2.81,2.81,0,0,1,.63-1.86,1.92,1.92,0,0,1,1.53-.76,1.39,1.39,0,0,1,1.14.42,1.53,1.53,0,0,1,.34,1,1.4,1.4,0,0,1-.32.93,1.12,1.12,0,0,1-.91.38,1,1,0,0,1-1.06-.59,1.37,1.37,0,0,0-.51,1.1,2.06,2.06,0,0,0,1,1.82,4.3,4.3,0,0,0,2.44.64,5.09,5.09,0,0,0,2.31-.62,11,11,0,0,0,2.33-1.61A17.4,17.4,0,0,0,13,17.82a20.39,20.39,0,0,0,1.78-2.65,15.88,15.88,0,0,0,1.21-2.67,7.38,7.38,0,0,0,.44-2.33,2.92,2.92,0,0,0-.49-1.72,1.71,1.71,0,0,0-1.5-.7,3,3,0,0,0-1.5.4,5.9,5.9,0,0,0-1.29,1,9.47,9.47,0,0,0-1,1.27l-.78,1.17-.38-.25q.51-.81,1-1.55A8.09,8.09,0,0,1,11.6,8.5,5.09,5.09,0,0,1,13,7.59a4.65,4.65,0,0,1,1.82-.34,4,4,0,0,1,1.67.32,3.3,3.3,0,0,1,1.17.87,4.19,4.19,0,0,1,.72,1.23,4.09,4.09,0,0,1,.25,1.44,13.31,13.31,0,0,1,2.88-2.31,9.71,9.71,0,0,1,1.91-.87,6.53,6.53,0,0,1,2.08-.34,3.23,3.23,0,0,1,2.14.66,2,2,0,0,1,.78,1.59,1.5,1.5,0,0,1-.55,1.1,2,2,0,0,1-1.44.51,3.51,3.51,0,0,1-.59-.08l.38-1.08a2.81,2.81,0,0,0,.17-.91q0-1.27-1.19-1.27a4.53,4.53,0,0,0-2.08.57A10.38,10.38,0,0,0,21,10.19a19.92,19.92,0,0,0-2.05,2.16,18.07,18.07,0,0,0-1.74,2.5A16.07,16.07,0,0,0,16,17.37a6.66,6.66,0,0,0-.44,2.25,3.11,3.11,0,0,0,.49,1.88,1.84,1.84,0,0,0,1.59.66,4.86,4.86,0,0,0,2.08-.55,17.47,17.47,0,0,0,2.41-1.44,24.84,24.84,0,0,0,2.54-2.05Q26,16.95,27.1,15.72t2.08-2.44a18.86,18.86,0,0,0,1.48-2.18Z"/></svg>