<?xml version="1.0" standalone="no"?>
<!DOCTYPE svg PUBLIC "-//W3C//DTD SVG 20010904//EN"
 "http://www.w3.org/TR/2001/REC-SVG-20010904/DTD/svg10.dtd">
<svg version="1.0" xmlns="http://www.w3.org/2000/svg"
 width="300.000000pt" height="300.000000pt" viewBox="0 0 300.000000 300.000000"
 preserveAspectRatio="xMidYMid meet">
<metadata>
Created by potrace 1.11, written by Peter Selinger 2001-2013
</metadata>
<g transform="translate(0.000000,300.000000) scale(0.100000,-0.100000)"
fill="#000000" stroke="none">
<path d="M1355 2991 c-182 -22 -367 -77 -529 -158 -415 -208 -705 -596 -798
-1066 -31 -158 -31 -386 0 -544 122 -618 587 -1085 1197 -1203 149 -28 411
-28 560 0 607 118 1077 588 1195 1195 28 149 28 411 0 560 -134 693 -722 1195
-1428 1219 -70 3 -158 1 -197 -3z m212 -711 c94 -47 158 -135 183 -253 l12
-57 71 62 c194 167 383 251 562 251 72 0 101 -4 143 -23 121 -52 170 -179 104
-270 -26 -35 -99 -70 -147 -70 -65 0 -68 6 -39 90 34 96 30 162 -11 198 -26
21 -36 24 -100 20 -131 -6 -294 -106 -461 -280 -249 -261 -414 -577 -414 -794
0 -86 13 -134 47 -175 91 -107 263 -72 534 109 258 173 596 516 772 783 32 48
59 79 70 79 9 0 17 -4 17 -9 0 -5 -26 -49 -58 -97 -183 -279 -517 -619 -781
-796 -248 -166 -441 -225 -601 -184 -114 29 -170 84 -192 188 -11 52 -4 102
28 208 5 17 -10 4 -47 -39 -112 -134 -290 -265 -431 -318 -123 -46 -219 -60
-319 -45 -208 30 -322 148 -322 332 0 82 25 142 81 192 113 101 262 53 262
-84 0 -39 -30 -92 -61 -108 -34 -19 -119 -7 -140 19 l-17 21 -21 -26 c-41 -52
-20 -165 41 -220 40 -37 104 -64 178 -74 174 -25 345 50 537 234 209 200 368
440 449 681 32 95 38 123 38 205 1 79 -3 102 -21 135 -30 56 -61 82 -112 94
-133 29 -282 -66 -418 -266 -55 -81 -78 -98 -89 -69 -8 21 88 159 168 242 109
113 218 157 363 149 63 -4 93 -11 142 -35z"/>
</g>
</svg>
