<svg xmlns="http://www.w3.org/2000/svg" xmlns:xlink="http://www.w3.org/1999/xlink" width="565pt" height="584" viewBox="0 0 565 438"><defs><symbol overflow="visible" id="a"><path d="M7.11-1.953h.015l3.781-9.375h1.766V0h-1.156v-9.844h-.032L7.391 0h-.61L2.688-9.844h-.032V0H1.5v-11.328h1.766zm0 0"/></symbol><symbol overflow="visible" id="b"><path d="M6.156-4.828c0-.656-.172-1.14-.515-1.453-.336-.32-.829-.485-1.485-.485-.449 0-.867.086-1.25.25-.375.157-.699.368-.969.625l-.609-.718c.313-.313.719-.567 1.219-.766a4.522 4.522 0 011.719-.313c.406 0 .785.06 1.14.172.352.118.66.29.922.516.27.219.477.5.625.844.156.343.234.746.234 1.203v3.266c0 .292.008.593.032.906.02.312.05.574.093.781h-.968a3.974 3.974 0 01-.094-.578 5.958 5.958 0 01-.031-.64h-.032c-.335.5-.718.859-1.156 1.077-.43.22-.949.329-1.562.329-.281 0-.578-.043-.89-.126a2.277 2.277 0 01-.829-.374 2.355 2.355 0 01-.625-.704c-.168-.289-.25-.644-.25-1.062 0-.57.145-1.024.438-1.36.3-.343.695-.597 1.187-.765a6.728 6.728 0 011.688-.313c.632-.05 1.289-.078 1.968-.078zM5.844-3.75c-.45 0-.903.023-1.36.063-.449.042-.859.12-1.234.234a2.217 2.217 0 00-.906.484c-.23.211-.344.492-.344.844 0 .262.047.484.14.672.102.18.239.324.407.437.176.118.367.2.578.25.207.043.422.063.64.063.383 0 .723-.067 1.016-.203.301-.133.551-.317.75-.547.207-.227.364-.488.469-.781.102-.301.156-.618.156-.954v-.562zm0 0"/></symbol><symbol overflow="visible" id="c"><path d="M2.563-4.11h.046l3.454-3.374h1.562L3.859-4.063 8.016 0H6.422L2.609-3.938h-.046V0H1.468v-12.094h1.093zm0 0"/></symbol><symbol overflow="visible" id="d"><path d="M7.156-4.313c-.031-.707-.261-1.289-.687-1.75-.418-.468-1.016-.703-1.797-.703-.367 0-.703.07-1.016.204a2.611 2.611 0 00-.812.53c-.23.231-.418.497-.563.798a2.53 2.53 0 00-.234.921zm1.094.344v.25c0 .086-.008.172-.016.266H2.031c.008.375.082.73.219 1.062.145.325.336.61.578.86.25.242.535.433.86.578.332.148.69.219 1.078.219.562 0 1.046-.13 1.453-.391.414-.258.734-.563.953-.906l.812.64C7.535-.828 7.04-.42 6.5-.17a4.19 4.19 0 01-1.734.359c-.555 0-1.07-.102-1.547-.297A3.744 3.744 0 012-.922a3.84 3.84 0 01-.813-1.25A4.057 4.057 0 01.891-3.75c0-.563.093-1.082.28-1.563.196-.476.47-.894.813-1.25a3.74 3.74 0 011.204-.828 3.744 3.744 0 011.484-.296c.582 0 1.098.101 1.547.296a3.254 3.254 0 011.797 1.985c.156.449.234.93.234 1.437zm0 0"/></symbol><symbol overflow="visible" id="f"><path d="M7.234 0H6.141v-7.484h1.093zm.235-10.375c0 .23-.086.418-.25.563a.73.73 0 01-.516.218.779.779 0 01-.531-.219.731.731 0 01-.234-.562.72.72 0 01.234-.547.797.797 0 01.531-.219c.188 0 .36.075.516.22.164.148.25.327.25.546zm-2.86 3.797H2.844V0H1.766v-6.578H.187v-.906h1.579v-2.047c0-.852.207-1.524.625-2.016.414-.488 1.05-.734 1.906-.734.144 0 .297.011.453.031.156.012.305.04.453.078l-.187.953c-.125-.031-.246-.054-.36-.078a2.455 2.455 0 00-.406-.031c-.281 0-.516.047-.703.14-.188.094-.336.231-.438.407-.105.18-.18.386-.218.625-.032.23-.047.48-.047.75v1.922h1.765zm0 0"/></symbol><symbol overflow="visible" id="g"><path d="M2.563 0H1.468v-12.094h1.093zm0 0"/></symbol><symbol overflow="visible" id="h"><path d="M3.266-6.719a.855.855 0 01-.25.594.766.766 0 01-.61.266.826.826 0 01-.64-.266.873.873 0 010-1.188.84.84 0 01.64-.265c.25 0 .453.09.61.266.164.167.25.367.25.593zm0 5.953a.855.855 0 01-.25.594.779.779 0 01-.61.266.84.84 0 01-.64-.266.873.873 0 010-1.187.84.84 0 01.64-.266c.25 0 .453.09.61.266.164.168.25.367.25.593zm0 0"/></symbol><symbol overflow="visible" id="i"><path d="M4.203-10.625a2.06 2.06 0 00-1.406.594c-.387.367-.578.851-.578 1.453 0 .574.18 1.027.547 1.36.363.323.843.562 1.437.718zm.766 9.89c.238-.007.484-.05.734-.124a1.906 1.906 0 001.172-1.047c.133-.27.203-.602.203-1a1.8 1.8 0 00-.594-1.375c-.398-.375-.902-.66-1.515-.86zm-.766-4.593a8.522 8.522 0 01-1.094-.39 4.173 4.173 0 01-.984-.61 3.124 3.124 0 01-.719-.89c-.187-.352-.281-.774-.281-1.266 0-.457.078-.868.234-1.235a2.9 2.9 0 01.672-.937c.29-.27.617-.473.985-.61.375-.144.77-.226 1.187-.25v-1.156h.766v1.156c.258.012.523.043.797.094.27.055.535.133.796.235.258.105.504.242.735.406.238.156.453.344.64.562l-.875.672a2.411 2.411 0 00-.953-.797 2.884 2.884 0 00-1.14-.281v4.406c.406.137.8.293 1.187.469.395.18.742.398 1.047.656.3.262.547.574.734.938.188.367.282.808.282 1.328 0 .45-.086.855-.25 1.219a2.673 2.673 0 01-.688.953 3.163 3.163 0 01-1.031.61 4.03 4.03 0 01-1.281.233v1.157h-.766V.187C3.484.165 2.836.005 2.266-.296A4.542 4.542 0 01.828-1.5l.922-.64c.133.242.305.449.516.624.218.168.441.313.671.438.227.117.454.203.672.266.227.054.426.078.594.078zm0 0"/></symbol><symbol overflow="visible" id="j"><path d="M4.813-6.578h-2.11v4.375c0 .273.024.5.078.687.051.18.13.32.235.422a.8.8 0 00.359.219 1.994 1.994 0 00.922-.016c.164-.039.32-.101.469-.187l.046.953a2.71 2.71 0 01-.593.156c-.211.04-.438.063-.688.063-.199 0-.414-.028-.64-.078a1.642 1.642 0 01-.625-.297 1.864 1.864 0 01-.47-.61c-.124-.257-.187-.597-.187-1.015v-4.672H.063v-.906h1.546v-2.11h1.094v2.11h2.11zm0 0"/></symbol><symbol overflow="visible" id="k"><path d="M8.875-3.75a4.13 4.13 0 01-.297 1.578c-.2.48-.476.899-.828 1.25a3.682 3.682 0 01-1.25.813 4.36 4.36 0 01-1.625.296 4.254 4.254 0 01-1.594-.296 3.79 3.79 0 01-1.265-.813 3.699 3.699 0 01-.829-1.25A4.057 4.057 0 01.891-3.75c0-.563.097-1.082.296-1.563.196-.476.473-.894.829-1.25A3.767 3.767 0 013.28-7.39a4.254 4.254 0 011.594-.296 4.36 4.36 0 011.625.296c.488.2.906.477 1.25.829.352.355.629.773.828 1.25.195.48.297 1 .297 1.562zm-1.14 0c0-.414-.07-.805-.204-1.172a2.914 2.914 0 00-.578-.953 2.603 2.603 0 00-.89-.64 2.797 2.797 0 00-1.188-.25 2.69 2.69 0 00-1.172.25c-.344.156-.64.37-.89.64-.243.273-.43.59-.563.953a3.33 3.33 0 00-.203 1.172c0 .418.066.813.203 1.188.133.367.32.683.563.953.25.273.546.484.89.64.344.156.735.235 1.172.235.438 0 .832-.079 1.188-.235.351-.156.648-.367.89-.64.25-.27.442-.586.578-.954.133-.374.203-.769.203-1.187zm0 0"/></symbol><symbol overflow="visible" id="l"><path d="M6.875 0a7.773 7.773 0 01-.047-.672c-.012-.25-.016-.453-.016-.61h-.03c-.212.438-.555.794-1.032 1.063-.48.27-.992.406-1.531.406-.95 0-1.664-.28-2.14-.843-.47-.563-.704-1.305-.704-2.235v-4.593h1.094v4.14c0 .399.031.758.094 1.078.062.313.171.586.328.813.156.23.363.414.625.547.257.125.586.187.984.187.281 0 .555-.054.828-.172a2.08 2.08 0 00.734-.546c.22-.239.391-.54.516-.907.125-.363.188-.797.188-1.297v-3.843h1.093v5.843c0 .2.004.461.016.782.008.312.023.601.047.859zm0 0"/></symbol><symbol overflow="visible" id="m"><path d="M6.828-5.781c-.18-.282-.445-.516-.797-.703a2.311 2.311 0 00-1.125-.282c-.437 0-.836.079-1.187.235A2.762 2.762 0 002.25-4.938a3.37 3.37 0 00-.203 1.188c0 .43.066.824.203 1.188.133.367.32.683.563.953.25.273.546.484.89.64.352.156.75.235 1.188.235.476 0 .882-.086 1.218-.266.332-.188.602-.426.813-.719l.828.61a3.629 3.629 0 01-1.188.953c-.46.226-1.015.344-1.671.344A4.383 4.383 0 013.25-.11a3.79 3.79 0 01-1.266-.813 3.84 3.84 0 01-.812-1.25A4.28 4.28 0 01.89-3.75c0-.563.093-1.082.28-1.563.196-.476.47-.894.813-1.25A3.767 3.767 0 013.25-7.39a4.383 4.383 0 011.64-.296c.5 0 1.008.109 1.532.328.52.218.941.543 1.266.968zm0 0"/></symbol><symbol overflow="visible" id="n"><path d="M2.594-6.25c.195-.438.531-.785 1-1.047.469-.258.972-.39 1.515-.39.946 0 1.657.289 2.125.859.477.562.72 1.308.72 2.234V0H6.858v-4.14c0-.395-.03-.755-.093-1.079a2.218 2.218 0 00-.329-.828 1.593 1.593 0 00-.625-.531c-.261-.125-.59-.188-.984-.188-.281 0-.562.059-.844.172a2.127 2.127 0 00-.734.532c-.21.242-.375.546-.5.921-.125.368-.188.797-.188 1.297V0H1.47v-12.094h1.093v5.844zm0 0"/></symbol><symbol overflow="visible" id="o"><path d="M0 1.203h8V2H0zm0 0"/></symbol><symbol overflow="visible" id="p"><path d="M1.422 0H.156l4.907-11.328h1.109L11.047 0H9.766l-1.25-2.969h-5.86zm1.672-4.031h4.984l-2.5-6.016zm0 0"/></symbol><symbol overflow="visible" id="q"><path d="M1.5-11.328h1.156v4.906h6.172v-4.906h1.156V0H8.828v-5.36H2.656V0H1.5zm0 0"/></symbol><symbol overflow="visible" id="r"><path d="M1.438-5.844c0-.195-.008-.457-.016-.781-.012-.32-.027-.61-.047-.86h1.047c.02.2.035.423.047.673.008.242.015.445.015.609h.032c.207-.438.523-.79.953-1.063a2.553 2.553 0 011.812-.39 2.2 2.2 0 01.344.062l-.14 1.016a3.343 3.343 0 00-.766-.094c-.293 0-.574.055-.844.156A1.712 1.712 0 003.187-6c-.199.23-.359.523-.484.875-.117.355-.172.781-.172 1.281V0H1.437zm0 0"/></symbol><symbol overflow="visible" id="s"><path d="M7.594-1.266c-.313.48-.73.844-1.25 1.094-.512.238-1.04.36-1.578.36A4.167 4.167 0 013.172-.11a3.981 3.981 0 01-1.219-.829 3.765 3.765 0 01-.781-1.25A4.24 4.24 0 01.89-3.75c0-.55.093-1.066.28-1.547.188-.476.446-.894.782-1.25.344-.351.75-.629 1.219-.828a3.96 3.96 0 011.594-.313c.539 0 1.066.133 1.578.391.52.25.937.621 1.25 1.11h.031v-5.907h1.094V0H7.625v-1.266zM2.047-3.75c0 .418.062.813.187 1.188.133.367.32.683.563.953.238.273.531.484.875.64.351.156.754.235 1.203.235a2.846 2.846 0 002.063-.86c.257-.27.46-.586.609-.953.144-.375.219-.773.219-1.203 0-.426-.075-.82-.22-1.188a3.061 3.061 0 00-.609-.953 2.745 2.745 0 00-.906-.64 2.846 2.846 0 00-1.156-.235c-.45 0-.852.086-1.203.25a2.579 2.579 0 00-.875.641c-.242.273-.43.59-.563.953a3.612 3.612 0 00-.187 1.172zm0 0"/></symbol><symbol overflow="visible" id="t"><path d="M2.547 0H1.453v-7.484h1.094zm.219-10.375c0 .23-.086.418-.25.563A.73.73 0 012-9.595a.779.779 0 01-.531-.219.731.731 0 01-.235-.562.72.72 0 01.235-.547A.797.797 0 012-11.14c.188 0 .36.075.516.22.164.148.25.327.25.546zm0 0"/></symbol><symbol overflow="visible" id="u"><path d="M2.422-7.484c.02.199.035.421.047.671.008.243.015.446.015.61h.032c.207-.438.55-.79 1.03-1.063a2.966 2.966 0 011.532-.421c.945 0 1.656.289 2.125.859.477.562.719 1.308.719 2.234V0H6.828v-4.14c0-.395-.031-.755-.094-1.079a2.218 2.218 0 00-.328-.828 1.593 1.593 0 00-.625-.531c-.261-.125-.59-.188-.984-.188-.281 0-.563.059-.844.172a2.127 2.127 0 00-.734.532c-.211.242-.375.546-.5.921-.125.368-.188.797-.188 1.297V0H1.437v-5.844c0-.195-.007-.457-.015-.781-.012-.32-.027-.61-.047-.86zm0 0"/></symbol><symbol overflow="visible" id="v"><path d="M1.5-11.328h3.375c.426 0 .86.047 1.297.14.437.086.828.235 1.172.454.351.218.64.515.86.89.218.375.327.844.327 1.406 0 .606-.183 1.133-.547 1.579-.367.437-.851.726-1.453.859v.031c.727.086 1.336.371 1.828.86.489.48.735 1.136.735 1.968 0 .47-.102.903-.297 1.297-.2.387-.48.715-.844.985a4.244 4.244 0 01-1.328.64C6.102-.07 5.515 0 4.859 0H1.5zm1.156 4.953H4.97c.281 0 .562-.031.843-.094.282-.062.536-.172.766-.328.238-.156.43-.36.578-.61.145-.257.219-.577.219-.952a1.79 1.79 0 00-.219-.907 1.772 1.772 0 00-.593-.609 2.479 2.479 0 00-.86-.36 4.92 4.92 0 00-1.047-.109h-2zm0 5.39h2.14c.415 0 .813-.038 1.188-.124.383-.082.72-.211 1-.391a2.02 2.02 0 00.672-.688c.176-.28.266-.617.266-1.015 0-.738-.258-1.29-.766-1.656-.5-.375-1.215-.563-2.14-.563h-2.36zm0 0"/></symbol><symbol overflow="visible" id="w"><path d="M2.656-1.031h5.281V0H1.5v-11.328h1.156zm0 0"/></symbol><symbol overflow="visible" id="x"><path d="M4.61-6.578H2.843V0H1.766v-6.578H.187v-.906h1.579v-2.047c0-.852.207-1.524.625-2.016.414-.488 1.05-.734 1.906-.734.144 0 .297.011.453.031.156.012.305.04.453.078l-.187.953c-.125-.031-.246-.054-.36-.078a2.455 2.455 0 00-.406-.031c-.281 0-.516.047-.703.14-.188.094-.336.231-.438.407-.105.18-.18.386-.218.625-.032.23-.047.48-.047.75v1.922h1.765zm0 0"/></symbol><symbol overflow="visible" id="y"><path d="M5.422-5.719c-.156-.3-.402-.55-.734-.75a2.113 2.113 0 00-1.11-.297c-.187 0-.383.024-.578.063-.188.043-.36.11-.516.203a1.102 1.102 0 00-.359.375A1.038 1.038 0 002-5.594c0 .344.14.61.422.797.289.188.75.352 1.375.484.883.18 1.535.438 1.953.782.426.344.64.812.64 1.406 0 .43-.085.79-.25 1.078a2.188 2.188 0 01-.656.719c-.261.187-.562.32-.906.39a4.148 4.148 0 01-2.656-.219A3.127 3.127 0 01.609-1.265l.86-.64c.195.336.476.617.843.843.376.22.786.329 1.235.329.238 0 .46-.02.672-.063a1.45 1.45 0 00.562-.219c.164-.113.297-.254.39-.421.095-.165.141-.368.141-.61 0-.394-.195-.691-.578-.89-.375-.196-.918-.38-1.625-.547a6.52 6.52 0 01-.718-.204 2.796 2.796 0 01-.704-.343 2.092 2.092 0 01-.53-.578C1.02-4.848.952-5.145.952-5.5c0-.383.07-.71.219-.984.156-.27.36-.493.61-.672a2.66 2.66 0 01.859-.39 3.468 3.468 0 012.516.219c.488.241.85.57 1.093.983zm0 0"/></symbol><symbol overflow="visible" id="M"><path d="M6.984-9.5a2.743 2.743 0 00-.937-.828c-.387-.207-.852-.313-1.39-.313-.282 0-.571.043-.86.125a2.573 2.573 0 00-.781.391c-.23.18-.418.402-.563.672-.148.262-.219.574-.219.937 0 .368.067.668.204.907.144.23.332.43.562.593.227.168.488.305.781.407.29.105.598.214.922.328.395.125.79.265 1.188.422.406.148.765.34 1.078.578.32.242.582.543.781.906.207.367.313.836.313 1.406 0 .563-.11 1.055-.329 1.469a3.2 3.2 0 01-.843 1.016 3.504 3.504 0 01-1.188.578 4.826 4.826 0 01-2.36.078 4.63 4.63 0 01-.984-.297A4.552 4.552 0 011.5-.656a3.81 3.81 0 01-.703-.735l1-.734c.238.406.578.746 1.016 1.016.445.273.972.406 1.578.406.28 0 .57-.04.875-.125.3-.094.57-.235.812-.422.238-.188.43-.414.578-.688.157-.28.235-.597.235-.953 0-.394-.079-.722-.235-.984a2.03 2.03 0 00-.61-.656 3.939 3.939 0 00-.89-.438 19.642 19.642 0 00-1.031-.36 12.451 12.451 0 01-1.11-.39 4.006 4.006 0 01-.968-.593 2.638 2.638 0 01-.703-.891c-.168-.352-.25-.785-.25-1.297 0-.54.11-1.008.328-1.406.219-.395.5-.719.844-.969a3.537 3.537 0 011.171-.563 4.91 4.91 0 011.266-.171c.77 0 1.426.136 1.969.406.539.273.953.594 1.234.969zm0 0"/></symbol><symbol overflow="visible" id="N"><path d="M4.016-1.172h.03l2.329-6.312h1.172L3.828 1.937c-.23.57-.515 1.032-.86 1.375-.343.352-.843.532-1.5.532A4.91 4.91 0 01.5 3.75l.11-1c.25.082.515.125.796.125.375 0 .664-.117.875-.344.219-.23.406-.558.563-.984l.61-1.563L.25-7.484h1.219zm0 0"/></symbol><symbol overflow="visible" id="O"><path d="M2.516-6.203c.207-.438.53-.79.968-1.063a2.726 2.726 0 011.485-.421c.207 0 .422.027.64.078.22.043.43.125.641.25.207.117.398.277.578.484.176.2.328.46.453.781.25-.508.594-.898 1.032-1.172.445-.28.976-.421 1.593-.421.946 0 1.656.289 2.125.859.477.562.719 1.308.719 2.234V0h-1.094v-4.14c0-.79-.148-1.426-.437-1.907-.293-.476-.79-.719-1.485-.719-.398 0-.734.086-1.015.25a1.865 1.865 0 00-.656.625 3.247 3.247 0 00-.36.891c-.074.324-.11.664-.11 1.016V0H6.517v-4.375c0-.352-.028-.68-.079-.984a2.14 2.14 0 00-.28-.766 1.276 1.276 0 00-.563-.469c-.23-.113-.528-.172-.89-.172-.263 0-.524.059-.782.172a2.02 2.02 0 00-.703.532c-.211.242-.375.546-.5.921-.125.368-.188.797-.188 1.297V0H1.437v-5.844c0-.195-.007-.457-.015-.781-.012-.32-.027-.61-.047-.86h1.047c.02.2.035.423.047.673.008.242.015.445.015.609zm0 0"/></symbol><symbol overflow="visible" id="P"><path d="M2.563-1.266V0H1.468v-12.094h1.093v5.906h.032c.32-.488.738-.859 1.25-1.109a3.453 3.453 0 011.578-.39c.582 0 1.113.105 1.594.312.476.2.882.477 1.218.828.332.356.594.774.782 1.25.187.48.28.996.28 1.547a4.24 4.24 0 01-.28 1.563 3.83 3.83 0 01-.782 1.25 3.802 3.802 0 01-1.218.828 4.196 4.196 0 01-1.594.296c-.543 0-1.07-.12-1.578-.359a3.127 3.127 0 01-1.25-1.094zM8.14-3.75c0-.414-.063-.805-.188-1.172a2.842 2.842 0 00-.547-.953 2.603 2.603 0 00-.89-.64 2.844 2.844 0 00-1.204-.25 2.852 2.852 0 00-2.078.875c-.25.273-.449.59-.593.952a3.37 3.37 0 00-.204 1.188c0 .43.067.828.204 1.203.144.367.343.684.593.953.258.262.567.469.922.625a2.82 2.82 0 001.157.235c.445 0 .847-.079 1.203-.235.351-.156.648-.367.89-.64.239-.27.422-.586.547-.954.125-.374.188-.769.188-1.187zm0 0"/></symbol><symbol overflow="visible" id="Q"><path d="M4.36-3.422H.765v-.922h3.593zm0 0"/></symbol><symbol overflow="visible" id="z"><path d="M5.969.281a5.817 5.817 0 01-2.032-.344 4.888 4.888 0 01-1.609-1 4.472 4.472 0 01-1.047-1.53c-.242-.595-.36-1.255-.36-1.985 0-.969.173-1.879.516-2.734a7.127 7.127 0 011.407-2.25 6.59 6.59 0 012.094-1.5 6.2 6.2 0 012.593-.547c.739 0 1.414.117 2.032.343.624.23 1.156.559 1.593.985.446.43.797.937 1.047 1.531.25.586.375 1.242.375 1.969a7.6 7.6 0 01-.5 2.75 7.302 7.302 0 01-1.375 2.25A6.522 6.522 0 018.61-.266a6.405 6.405 0 01-2.64.547zm5.39-6.953c0-.539-.09-1.05-.265-1.531a3.671 3.671 0 00-.735-1.25 3.423 3.423 0 00-1.218-.86c-.48-.207-1.032-.312-1.657-.312a4.72 4.72 0 00-2.203.516 5.45 5.45 0 00-1.687 1.328 6.254 6.254 0 00-1.078 1.906 6.594 6.594 0 00-.375 2.203c0 .543.082 1.059.25 1.547.164.48.41.902.734 1.266.332.355.738.636 1.219.843.488.211 1.047.313 1.672.313.789 0 1.515-.164 2.171-.5a5.338 5.338 0 001.688-1.328 6.166 6.166 0 001.094-1.906 6.56 6.56 0 00.39-2.235zm0 0"/></symbol><symbol overflow="visible" id="A"><path d="M1.594-5.844c.039-.195.086-.457.14-.781.051-.32.086-.61.11-.86h1.015c-.023.2-.046.423-.078.673-.031.242-.062.445-.094.609h.032c.281-.438.633-.79 1.062-1.063a2.553 2.553 0 011.797-.39 2.2 2.2 0 01.344.062l-.266 1.016a1.992 1.992 0 00-.297-.063 3.073 3.073 0 00-.437-.03c-.281 0-.563.054-.844.155-.281.106-.539.278-.766.516-.23.23-.433.523-.609.875a5.285 5.285 0 00-.39 1.281L1.64 0H.578zm0 0"/></symbol><symbol overflow="visible" id="B"><path d="M.547-3.047c0-.633.11-1.234.328-1.797a4.23 4.23 0 01.922-1.468 4.63 4.63 0 011.39-1 4.117 4.117 0 011.75-.375c.551 0 1.063.125 1.532.375.476.25.836.617 1.078 1.093h.031l1.047-5.875h1.078L7.547 0H6.484l.22-1.234h-.032c-.25.386-.621.718-1.11 1a3.248 3.248 0 01-1.64.421c-.512 0-.977-.074-1.39-.218a3.096 3.096 0 01-1.063-.672A3.135 3.135 0 01.78-1.72a3.576 3.576 0 01-.234-1.328zm1.11-.078c0 .344.05.664.155.953.102.281.254.531.454.75.207.219.453.39.734.516.29.125.629.187 1.016.187.468 0 .906-.094 1.312-.281a3.23 3.23 0 001.047-.797c.3-.332.535-.719.703-1.156.176-.438.266-.91.266-1.422 0-.344-.059-.66-.172-.953a2.045 2.045 0 00-.484-.781 2.102 2.102 0 00-.766-.5 2.843 2.843 0 00-1-.172c-.492 0-.938.101-1.344.297-.398.187-.742.449-1.031.78-.281.325-.5.712-.656 1.157a4.209 4.209 0 00-.235 1.422zm0 0"/></symbol><symbol overflow="visible" id="C"><path d="M1.656 0H.594l1.328-7.484h1.062zm1.969-10.39a.801.801 0 01-.219.562.684.684 0 01-.531.219.762.762 0 01-.516-.188c-.148-.133-.218-.316-.218-.547a.72.72 0 01.234-.547.73.73 0 01.531-.234c.207 0 .38.07.516.203a.73.73 0 01.203.531zm0 0"/></symbol><symbol overflow="visible" id="D"><path d="M2.875-7.484c-.023.199-.047.421-.078.671-.031.243-.063.446-.094.61h.031c.29-.457.66-.817 1.11-1.078.457-.27.941-.407 1.453-.407.812 0 1.441.211 1.89.625.458.407.688.965.688 1.672 0 .125-.012.258-.031.391-.012.125-.028.262-.047.406L6.969 0H5.906l.735-4.14c.062-.333.093-.65.093-.954 0-.52-.125-.93-.375-1.234-.242-.3-.668-.453-1.28-.453-.294 0-.587.058-.876.172a2.468 2.468 0 00-.797.546c-.25.243-.476.547-.672.922a4.771 4.771 0 00-.421 1.297L1.64 0H.578l1.016-5.844c.039-.195.086-.457.14-.781.051-.32.086-.61.11-.86zm0 0"/></symbol><symbol overflow="visible" id="E"><path d="M6.125-4.594c.031-.176.05-.316.063-.422.007-.101.015-.195.015-.28 0-.54-.156-.923-.469-1.141-.304-.227-.73-.344-1.28-.344-.45 0-.884.09-1.298.265-.418.18-.765.387-1.047.625l-.484-.718c.363-.32.813-.582 1.344-.782a4.664 4.664 0 011.594-.296c.351 0 .69.042 1.015.125.32.085.602.214.844.39.238.18.43.402.578.672.145.273.219.602.219.984 0 .094-.008.227-.016.391a3.578 3.578 0 01-.047.406L6.61-1.687a10.78 10.78 0 00-.125.906A8.126 8.126 0 006.438 0h-.97c0-.176.005-.367.016-.578.02-.219.047-.43.079-.64H5.53a4.72 4.72 0 01-.64.64A2.747 2.747 0 013.5.062c-.262.051-.547.079-.86.079a3.52 3.52 0 01-.796-.094 2.037 2.037 0 01-.719-.328 1.946 1.946 0 01-.547-.594c-.137-.25-.203-.555-.203-.922 0-.594.164-1.07.5-1.437.344-.375.79-.66 1.344-.86a7.576 7.576 0 011.844-.39c.687-.07 1.375-.11 2.062-.11zm-.39.813c-.481 0-.977.027-1.485.078-.5.055-.96.148-1.375.281-.406.125-.742.309-1 .547-.262.242-.39.559-.39.953 0 .242.038.438.124.594.094.148.207.266.344.36.145.093.313.163.5.202a3.5 3.5 0 00.578.047 2.88 2.88 0 001.047-.187A2.873 2.873 0 005.531-2.22c.164-.289.282-.601.344-.937l.11-.625zm0 0"/></symbol><symbol overflow="visible" id="F"><path d="M3.031-1.188h.031l3.641-6.296h1.203L2.234 1.937c-.343.57-.703 1.032-1.078 1.375-.375.352-.84.532-1.39.532-.313 0-.618-.031-.922-.094l.172-1c.23.082.464.125.703.125.332 0 .625-.117.875-.344.25-.23.5-.558.75-.984l.922-1.563L.703-7.484h1.125zm0 0"/></symbol><symbol overflow="visible" id="H"><path d="M4.89-6.594H3.14L1.985 0H.906l1.156-6.594H.484l.172-.89h1.547l.36-2.032c.062-.375.16-.726.296-1.062.145-.344.332-.64.563-.89.226-.25.5-.446.812-.595.32-.144.696-.218 1.125-.218.133 0 .274.011.422.031.157.012.305.04.453.078l-.25.938a2.858 2.858 0 00-.75-.094c-.261 0-.484.047-.671.14-.188.094-.344.231-.47.407a2.81 2.81 0 00-.296.625c-.074.23-.137.48-.188.75l-.328 1.922h1.797zM6.376 0H5.297l1.328-7.484h1.078zm1.969-10.39a.801.801 0 01-.219.562.736.736 0 01-.547.219.762.762 0 01-.516-.188c-.148-.133-.218-.316-.218-.547a.72.72 0 01.234-.547.73.73 0 01.531-.234c.207 0 .38.07.516.203a.698.698 0 01.219.531zm0 0"/></symbol><symbol overflow="visible" id="I"><path d="M1.703 0H.61l2.125-12.094h1.094zm0 0"/></symbol><symbol overflow="visible" id="J"><path d="M1.656-3.453c-.011.062-.023.125-.031.187v.157c0 .355.063.68.188.968.125.282.296.532.515.75.219.211.473.375.766.5.289.118.61.172.953.172.582 0 1.094-.129 1.531-.39.438-.258.79-.567 1.063-.922l.671.64a4.38 4.38 0 01-1.53 1.188 4.416 4.416 0 01-1.829.39c-.48 0-.93-.074-1.344-.218a2.988 2.988 0 01-1.078-.64 3.004 3.004 0 01-.718-1.032C.633-2.11.546-2.578.546-3.11c0-.602.11-1.18.328-1.735a4.548 4.548 0 01.922-1.453 4.66 4.66 0 011.375-1 3.85 3.85 0 011.703-.39c1.031 0 1.805.277 2.328.828C7.734-6.316 8-5.613 8-4.75c0 .125-.012.32-.031.578-.024.262-.059.5-.11.719zm5.235-.797c.007-.094.015-.188.015-.281.008-.102.016-.196.016-.282 0-.582-.18-1.054-.531-1.421-.344-.364-.86-.547-1.547-.547-.399 0-.762.07-1.094.203a2.675 2.675 0 00-.89.547c-.262.23-.485.5-.672.812a3.12 3.12 0 00-.376.969zm0 0"/></symbol><symbol overflow="visible" id="K"><path d="M2.64-11.328h1.141l-.89 4.922h6.03l.892-4.922h1.124L8.938 0H7.813l.937-5.375H2.719L1.78 0H.641zm0 0"/></symbol><symbol overflow="visible" id="L"><path d="M2.406-4.11h.047l3.813-3.374h1.5L3.64-4.016 7.078 0H5.656L2.422-3.938h-.047L1.703 0H.61l2.125-12.094h1.079zm0 0"/></symbol><symbol overflow="visible" id="R"><path d="M7.86-9.563a2.43 2.43 0 00-.891-.75c-.375-.207-.824-.312-1.344-.312a3.61 3.61 0 00-.984.14 2.765 2.765 0 00-.907.407c-.261.187-.476.43-.64.719-.168.28-.25.617-.25 1 0 .304.05.562.156.78.113.212.266.4.453.563.188.157.406.293.656.407.25.117.516.23.797.343.332.125.672.274 1.016.438.344.156.648.355.922.594.281.23.504.5.672.812.175.313.265.684.265 1.11 0 .386-.074.792-.218 1.218a3.18 3.18 0 01-.688 1.156c-.313.356-.734.649-1.266.875-.523.227-1.164.344-1.921.344-.7 0-1.372-.14-2.016-.422C1.035-.42.547-.836.203-1.39l1.031-.656c.207.375.524.695.954.953.425.262.94.39 1.546.39.375 0 .735-.054 1.079-.171.351-.113.66-.27.921-.469.258-.207.461-.46.61-.765.156-.301.234-.633.234-1 0-.313-.07-.582-.203-.813a1.837 1.837 0 00-.516-.61 3.39 3.39 0 00-.75-.452 10.915 10.915 0 00-.906-.375 8.832 8.832 0 01-.937-.407 3.908 3.908 0 01-.829-.578 2.773 2.773 0 01-.562-.797c-.148-.3-.219-.656-.219-1.062 0-.477.086-.926.266-1.344.187-.414.453-.773.797-1.078.344-.313.765-.55 1.265-.719.5-.176 1.07-.265 1.72-.265.757 0 1.41.125 1.952.375.54.25.93.574 1.172.968zm0 0"/></symbol><symbol overflow="visible" id="S"><path d="M10.047-7.688c.812 0 1.441.211 1.89.625.458.407.688.965.688 1.672 0 .125-.012.258-.031.391-.012.125-.028.262-.047.406L11.734 0h-1.078l.735-4.14c.062-.333.093-.65.093-.954 0-.52-.125-.93-.375-1.234-.242-.3-.668-.453-1.28-.453-.4 0-.735.086-1.017.25a2.206 2.206 0 00-.718.64c-.2.262-.356.559-.469.891a6.15 6.15 0 00-.266 1.016L6.656 0H5.578l.797-4.36c.063-.343.094-.663.094-.968 0-.445-.11-.8-.328-1.063-.22-.257-.61-.39-1.172-.39-.25 0-.516.058-.797.172a2.498 2.498 0 00-.781.546c-.243.243-.461.547-.657.922a4.771 4.771 0 00-.421 1.297L1.64 0H.578l1.016-5.844c.039-.195.086-.457.14-.781.051-.32.086-.61.11-.86h1.015c-.023.2-.046.423-.078.673-.031.242-.062.445-.094.609h.032a3.598 3.598 0 011.125-1.078 2.742 2.742 0 012.094-.328c.218.043.425.125.625.25.195.117.367.277.515.484.156.2.266.46.328.781.29-.508.66-.898 1.11-1.172a2.81 2.81 0 011.53-.421zm0 0"/></symbol><symbol overflow="visible" id="T"><path d="M1.922-1.266L1.703 0H.625l2.14-12.094h1.079L2.797-6.266h.031c.125-.195.281-.379.469-.546.187-.176.398-.329.64-.454.239-.125.5-.222.782-.296a3.05 3.05 0 01.86-.125c.519 0 .984.078 1.39.234.406.156.758.383 1.062.672.301.281.531.62.688 1.015.156.399.234.836.234 1.313 0 .648-.117 1.25-.344 1.812a4.603 4.603 0 01-.906 1.47c-.387.417-.851.75-1.39 1a4.303 4.303 0 01-1.75.359 3.37 3.37 0 01-.797-.094 3.217 3.217 0 01-.75-.281 2.871 2.871 0 01-.625-.454 1.809 1.809 0 01-.438-.625zM7.844-4.39c0-.32-.055-.629-.157-.921a2.164 2.164 0 00-.468-.782 1.98 1.98 0 00-.735-.5 2.456 2.456 0 00-1-.187c-.468 0-.906.101-1.312.297-.406.187-.762.449-1.063.78a4 4 0 00-.703 1.173 3.85 3.85 0 00-.25 1.39c0 .356.055.68.172.97.113.292.274.546.485.765.218.218.472.39.765.515.29.118.625.172 1 .172.488 0 .93-.094 1.328-.281.407-.195.75-.457 1.032-.781.289-.332.515-.719.671-1.157a4.36 4.36 0 00.235-1.453zm0 0"/></symbol><symbol overflow="visible" id="U"><path d="M4 .188c-.5 0-.965-.079-1.39-.235a3.156 3.156 0 01-1.094-.656 3.16 3.16 0 01-.72-1.031 3.437 3.437 0 01-.25-1.329c0-.624.11-1.218.329-1.78.219-.563.523-1.052.922-1.47.394-.414.863-.75 1.406-1a4.182 4.182 0 011.781-.375c.52 0 .989.079 1.407.235.425.156.789.383 1.093.672.301.281.536.62.704 1.015.175.399.265.836.265 1.313 0 .648-.11 1.25-.328 1.812a4.442 4.442 0 01-.922 1.47c-.398.417-.871.75-1.422 1A4.385 4.385 0 014 .187zm3.328-4.579c0-.332-.055-.644-.156-.937a2.036 2.036 0 00-.469-.766 2.102 2.102 0 00-.766-.5 2.643 2.643 0 00-1.015-.187c-.469 0-.902.101-1.297.297-.387.199-.727.464-1.016.796a3.725 3.725 0 00-.687 1.172 4.109 4.109 0 00-.234 1.391c0 .344.05.664.156.953.101.293.258.547.468.766.208.21.458.375.75.5.29.125.626.187 1 .187.477 0 .915-.097 1.313-.297.406-.195.75-.457 1.031-.78.29-.333.516-.72.672-1.157.164-.445.25-.926.25-1.438zm0 0"/></symbol><symbol overflow="visible" id="V"><path d="M6.813-5.797c-.125-.281-.344-.516-.657-.703a2.055 2.055 0 00-1.078-.281c-.48 0-.922.101-1.328.297-.406.187-.762.449-1.063.78A3.725 3.725 0 002-4.53a4.15 4.15 0 00-.234 1.406c0 .344.05.664.156.953.101.293.258.547.469.766.207.21.457.375.75.5.3.125.644.187 1.03.187.477 0 .9-.086 1.266-.265a3.46 3.46 0 00.954-.72l.687.595c-.387.398-.82.714-1.297.953-.48.226-1.043.344-1.687.344a4.461 4.461 0 01-1.438-.22 3.156 3.156 0 01-1.094-.655A3.003 3.003 0 01.86-1.704a3.576 3.576 0 01-.234-1.328c0-.633.102-1.235.313-1.797.218-.57.519-1.067.906-1.484.394-.415.867-.75 1.422-1 .55-.25 1.164-.375 1.843-.375.551 0 1.067.105 1.547.312.489.2.86.516 1.11.953zm0 0"/></symbol></defs><use xlink:href="#a" x="5.568" y="50"/><use xlink:href="#b" x="19.744" y="50"/><use xlink:href="#c" x="28.288" y="50"/><use xlink:href="#d" x="36.16" y="50"/><use xlink:href="#e" x="45.312" y="50"/><use xlink:href="#b" x="49.312" y="50"/><use xlink:href="#e" x="57.856" y="50"/><use xlink:href="#f" x="61.856" y="50"/><use xlink:href="#g" x="70.56" y="50"/><use xlink:href="#d" x="74.592" y="50"/><use xlink:href="#h" x="83.744" y="50"/><use xlink:href="#i" x="56.888" y="82"/><use xlink:href="#e" x="66.168" y="82"/><use xlink:href="#j" x="70.168" y="82"/><use xlink:href="#k" x="75.24" y="82"/><use xlink:href="#l" x="85.016" y="82"/><use xlink:href="#m" x="94.312" y="82"/><use xlink:href="#n" x="102.312" y="82"/><use xlink:href="#e" x="111.64" y="82"/><use xlink:href="#f" x="115.64" y="82"/><use xlink:href="#g" x="124.344" y="82"/><use xlink:href="#d" x="128.376" y="82"/><use xlink:href="#o" x="137.528" y="82"/><use xlink:href="#p" x="145.528" y="82"/><use xlink:href="#q" x="5.568" y="208"/><use xlink:href="#b" x="17.056" y="208"/><use xlink:href="#r" x="25.6" y="208"/><use xlink:href="#s" x="31.072" y="208"/><use xlink:href="#e" x="41.264" y="208"/><use xlink:href="#g" x="45.264" y="208"/><use xlink:href="#t" x="49.296" y="208"/><use xlink:href="#u" x="53.296" y="208"/><use xlink:href="#c" x="62.592" y="208"/><use xlink:href="#h" x="70.752" y="208"/><use xlink:href="#i" x="43.04" y="240"/><use xlink:href="#e" x="52.32" y="240"/><use xlink:href="#g" x="56.32" y="240"/><use xlink:href="#u" x="60.352" y="240"/><use xlink:href="#e" x="69.648" y="240"/><use xlink:href="#f" x="73.648" y="240"/><use xlink:href="#g" x="82.352" y="240"/><use xlink:href="#d" x="86.384" y="240"/><use xlink:href="#o" x="95.536" y="240"/><use xlink:href="#p" x="103.536" y="240"/><use xlink:href="#e" x="114.448" y="240"/><use xlink:href="#f" x="118.448" y="240"/><use xlink:href="#g" x="127.152" y="240"/><use xlink:href="#d" x="131.184" y="240"/><use xlink:href="#o" x="140.336" y="240"/><use xlink:href="#v" x="148.336" y="240"/><path d="M465.07 122h99V31.094L532.977 0H465.07zm0 0" fill="#ccc"/><use xlink:href="#w" x="483.484" y="44"/><use xlink:href="#k" x="491.356" y="44"/><use xlink:href="#m" x="501.132" y="44"/><use xlink:href="#b" x="509.132" y="44"/><use xlink:href="#j" x="517.516" y="44"/><use xlink:href="#t" x="522.588" y="44"/><use xlink:href="#k" x="526.588" y="44"/><use xlink:href="#u" x="536.364" y="44"/><use xlink:href="#e" x="545.66" y="44"/><g><use xlink:href="#k" x="494.188" y="66"/><use xlink:href="#x" x="503.964" y="66"/></g><g><use xlink:href="#e" x="509.068" y="66"/><use xlink:href="#f" x="513.068" y="66"/><use xlink:href="#g" x="521.772" y="66"/><use xlink:href="#d" x="525.804" y="66"/></g><g><use xlink:href="#k" x="488.308" y="88"/><use xlink:href="#u" x="498.084" y="88"/><use xlink:href="#e" x="507.38" y="88"/><use xlink:href="#s" x="511.38" y="88"/><use xlink:href="#t" x="521.572" y="88"/><use xlink:href="#y" x="525.572" y="88"/><use xlink:href="#c" x="532.676" y="88"/></g><path d="M532.613 0v31.457h31.457zm0 0" fill="#8080ff"/><path d="M304.07 37.5h130.618" fill="none" stroke-linecap="round" stroke-linejoin="round" stroke="#000" stroke-dasharray="4,3,1,3" stroke-miterlimit="10"/><path d="M442.688 37.5l-8-3v6zm0 0" stroke="#000" stroke-miterlimit="10"/><g><use xlink:href="#f" x="231.32" y="32"/><use xlink:href="#g" x="240.024" y="32"/><use xlink:href="#d" x="244.056" y="32"/><use xlink:href="#o" x="253.208" y="32"/><use xlink:href="#p" x="261.208" y="32"/></g><g><use xlink:href="#z" x="207.096" y="54"/><use xlink:href="#A" x="220.44" y="54"/></g><g><use xlink:href="#B" x="225.816" y="54"/><use xlink:href="#C" x="235.768" y="54"/><use xlink:href="#D" x="239.768" y="54"/><use xlink:href="#E" x="249" y="54"/><use xlink:href="#A" x="257.544" y="54"/><use xlink:href="#F" x="263.112" y="54"/><use xlink:href="#G" x="270.84" y="54"/><use xlink:href="#H" x="274.84" y="54"/><use xlink:href="#I" x="283.544" y="54"/><use xlink:href="#J" x="287.576" y="54"/></g><path d="M465.07 280h99v-90.906L532.977 158H465.07zm0 0" fill="#ccc"/><g><use xlink:href="#w" x="483.484" y="202"/></g><g><use xlink:href="#k" x="491.356" y="202"/><use xlink:href="#m" x="501.132" y="202"/><use xlink:href="#b" x="509.132" y="202"/></g><g><use xlink:href="#j" x="517.516" y="202"/><use xlink:href="#t" x="522.588" y="202"/><use xlink:href="#k" x="526.588" y="202"/><use xlink:href="#u" x="536.364" y="202"/><use xlink:href="#e" x="545.66" y="202"/></g><g><use xlink:href="#k" x="494.188" y="224"/><use xlink:href="#x" x="503.964" y="224"/></g><g><use xlink:href="#e" x="509.068" y="224"/><use xlink:href="#f" x="513.068" y="224"/><use xlink:href="#g" x="521.772" y="224"/><use xlink:href="#d" x="525.804" y="224"/></g><g><use xlink:href="#k" x="488.308" y="246"/><use xlink:href="#u" x="498.084" y="246"/><use xlink:href="#e" x="507.38" y="246"/><use xlink:href="#s" x="511.38" y="246"/><use xlink:href="#t" x="521.572" y="246"/><use xlink:href="#y" x="525.572" y="246"/><use xlink:href="#c" x="532.676" y="246"/></g><path d="M532.613 158v31.457h31.457zm0 0" fill="#8080ff"/><path d="M304.07 195.5h130.618" fill="none" stroke-linecap="round" stroke-linejoin="round" stroke="#000" stroke-dasharray="4,3,1,3" stroke-miterlimit="10"/><path d="M442.688 195.5l-8-3v6zm0 0" stroke="#000" stroke-miterlimit="10"/><g><use xlink:href="#f" x="231.32" y="190"/><use xlink:href="#g" x="240.024" y="190"/><use xlink:href="#d" x="244.056" y="190"/><use xlink:href="#o" x="253.208" y="190"/><use xlink:href="#p" x="261.208" y="190"/></g><path d="M304.07 252.5h130.618" fill="none" stroke-linecap="round" stroke-linejoin="round" stroke="#000" stroke-dasharray="4,3,1,3" stroke-miterlimit="10"/><path d="M442.688 252.5l-8-3v6zm0 0" stroke="#000" stroke-miterlimit="10"/><g><use xlink:href="#f" x="231.832" y="247"/><use xlink:href="#g" x="240.536" y="247"/><use xlink:href="#d" x="244.568" y="247"/><use xlink:href="#o" x="253.72" y="247"/><use xlink:href="#v" x="261.72" y="247"/></g><g><use xlink:href="#K" x="219.736" y="269"/><use xlink:href="#E" x="231.064" y="269"/><use xlink:href="#A" x="239.608" y="269"/></g><g><use xlink:href="#B" x="244.984" y="269"/><use xlink:href="#G" x="254.936" y="269"/><use xlink:href="#I" x="258.936" y="269"/><use xlink:href="#C" x="262.968" y="269"/><use xlink:href="#D" x="266.968" y="269"/><use xlink:href="#L" x="276.2" y="269"/></g><g><use xlink:href="#M" x="5.568" y="366"/></g><g><use xlink:href="#N" x="14.4" y="366"/><use xlink:href="#O" x="22.208" y="366"/><use xlink:href="#P" x="36.336" y="366"/><use xlink:href="#k" x="46.528" y="366"/><use xlink:href="#g" x="56.304" y="366"/><use xlink:href="#t" x="60.336" y="366"/><use xlink:href="#m" x="64.336" y="366"/><use xlink:href="#e" x="72.336" y="366"/><use xlink:href="#g" x="76.336" y="366"/><use xlink:href="#t" x="80.368" y="366"/><use xlink:href="#u" x="84.368" y="366"/><use xlink:href="#c" x="93.664" y="366"/><use xlink:href="#h" x="101.824" y="366"/></g><g><use xlink:href="#i" x="50.464" y="398"/><use xlink:href="#e" x="59.744" y="398"/><use xlink:href="#g" x="63.744" y="398"/><use xlink:href="#u" x="67.776" y="398"/><use xlink:href="#e" x="77.072" y="398"/></g><g fill="#b1001c"><use xlink:href="#Q" x="81.072" y="398"/><use xlink:href="#y" x="86.192" y="398"/></g><g><use xlink:href="#e" x="93.296" y="398"/><use xlink:href="#f" x="97.296" y="398"/><use xlink:href="#g" x="106" y="398"/><use xlink:href="#d" x="110.032" y="398"/><use xlink:href="#o" x="119.184" y="398"/><use xlink:href="#p" x="127.184" y="398"/></g><g><use xlink:href="#e" x="138.096" y="398"/><use xlink:href="#f" x="142.096" y="398"/><use xlink:href="#g" x="150.8" y="398"/><use xlink:href="#d" x="154.832" y="398"/><use xlink:href="#o" x="163.984" y="398"/><use xlink:href="#v" x="171.984" y="398"/></g><path d="M465.07 438h99v-90.906L532.977 316H465.07zm0 0" fill="#ccc"/><g><use xlink:href="#w" x="483.484" y="360"/></g><g><use xlink:href="#k" x="491.356" y="360"/><use xlink:href="#m" x="501.132" y="360"/><use xlink:href="#b" x="509.132" y="360"/></g><g><use xlink:href="#j" x="517.516" y="360"/><use xlink:href="#t" x="522.588" y="360"/><use xlink:href="#k" x="526.588" y="360"/><use xlink:href="#u" x="536.364" y="360"/><use xlink:href="#e" x="545.66" y="360"/></g><g><use xlink:href="#k" x="494.188" y="382"/><use xlink:href="#x" x="503.964" y="382"/></g><g><use xlink:href="#e" x="509.068" y="382"/><use xlink:href="#f" x="513.068" y="382"/><use xlink:href="#g" x="521.772" y="382"/><use xlink:href="#d" x="525.804" y="382"/></g><g><use xlink:href="#k" x="488.308" y="404"/><use xlink:href="#u" x="498.084" y="404"/><use xlink:href="#e" x="507.38" y="404"/><use xlink:href="#s" x="511.38" y="404"/><use xlink:href="#t" x="521.572" y="404"/><use xlink:href="#y" x="525.572" y="404"/><use xlink:href="#c" x="532.676" y="404"/></g><path d="M532.613 316v31.457h31.457zm0 0" fill="#8080ff"/><path d="M304.07 353.5h130.618" fill="none" stroke-linecap="round" stroke-linejoin="round" stroke="#000" stroke-dasharray="4,3,1,3" stroke-miterlimit="10"/><path d="M442.688 353.5l-8-3v6zm0 0" stroke="#000" stroke-miterlimit="10"/><g><use xlink:href="#f" x="231.32" y="348"/><use xlink:href="#g" x="240.024" y="348"/><use xlink:href="#d" x="244.056" y="348"/><use xlink:href="#o" x="253.208" y="348"/><use xlink:href="#p" x="261.208" y="348"/></g><path d="M254 391v-26.602" fill="none" stroke-linecap="round" stroke-linejoin="round" stroke="#000" stroke-dasharray="4,3,1,3" stroke-miterlimit="10"/><path d="M254 356.398l-3 8h6zm0 0" stroke="#000" stroke-miterlimit="10"/><g><use xlink:href="#f" x="231.832" y="405"/><use xlink:href="#g" x="240.536" y="405"/><use xlink:href="#d" x="244.568" y="405"/><use xlink:href="#o" x="253.72" y="405"/><use xlink:href="#v" x="261.72" y="405"/></g><g><use xlink:href="#R" x="204.256" y="427"/></g><g><use xlink:href="#F" x="213.088" y="427"/><use xlink:href="#S" x="220.816" y="427"/><use xlink:href="#T" x="234.8" y="427"/><use xlink:href="#U" x="244.848" y="427"/><use xlink:href="#I" x="254.384" y="427"/><use xlink:href="#C" x="258.416" y="427"/><use xlink:href="#V" x="262.416" y="427"/><use xlink:href="#G" x="270.416" y="427"/><use xlink:href="#I" x="274.416" y="427"/><use xlink:href="#C" x="278.448" y="427"/><use xlink:href="#D" x="282.448" y="427"/><use xlink:href="#L" x="291.68" y="427"/></g></svg>