<svg xmlns="http://www.w3.org/2000/svg" xmlns:xlink="http://www.w3.org/1999/xlink" width="892" height="116" viewBox="0 0 669 87"><defs><symbol overflow="visible" id="a"><path d="M7.547-7.797v1.547H2.594l-.735 3.625h4.375C5.281-1.547 3.516-.594.954.25l.655 1.063C4.5.218 6.453-1.095 7.5-2.626h.047v4.234h1.125v-4.234h4.61c0 .86-.048 1.453-.141 1.781-.125.344-.438.547-.922.547-.64 0-1.344-.016-2.078-.062l.296 1.093c.641.016 1.297.032 1.97.032.859-.016 1.421-.282 1.671-.829.235-.484.375-1.687.375-3.562H8.672v-1.578h5.219v-3.64H2.219v1.046zm0 2.594v1.578H3.219l.375-1.578zM8.672-6.25v-1.547h4.031v1.547zm-5.5-4.688h.969c.453.547.828 1.126 1.156 1.72l1.047-.376a9.196 9.196 0 00-.969-1.344h2.64v-1.015h-4.25c.141-.313.282-.64.422-.985l-1.093-.25C2.625-12 1.89-10.921.859-9.953l1.016.625c.484-.5.906-1.047 1.297-1.61zm6.75-.046h1.11c.437.562.843 1.156 1.155 1.78l1.032-.374c-.25-.438-.563-.906-.969-1.406h2.906V-12h-4.719c.126-.297.25-.625.36-.938l-1.094-.25a9.41 9.41 0 01-1.953 3.25l.984.626c.454-.516.829-1.079 1.188-1.672zm0 0"/></symbol><symbol overflow="visible" id="c"><path d="M3.281-13.234a13.878 13.878 0 00-1.656 3.296A12.874 12.874 0 00.922-5.75c0 1.39.234 2.797.703 4.172.406 1.14.953 2.25 1.656 3.297h1.125a15.402 15.402 0 01-1.531-3.313c-.469-1.422-.703-2.812-.703-4.172 0-1.375.234-2.75.703-4.156.36-1.156.875-2.25 1.531-3.312zm0 0"/></symbol><symbol overflow="visible" id="d"><path d="M.39-11.422l3.891 5.485L.078 0h1.625l3.39-4.89L8.5 0h1.61L5.874-5.938l3.938-5.484H8.187L5.095-6.969 2-11.422zm0 0"/></symbol><symbol overflow="visible" id="e"><path d="M4.297-8.172v3.485h-3.5v1.093h3.5v3.5H5.39v-3.5h3.484v-1.094H5.391v-3.484zm0 0"/></symbol><symbol overflow="visible" id="f"><path d="M3.688-11.422c-.391.438-.844.813-1.391 1.172a7.333 7.333 0 01-1.594.688v1.312c1.078-.328 1.969-.844 2.688-1.578V0h1.312v-11.422zm0 0"/></symbol><symbol overflow="visible" id="g"><path d="M.922-13.234a15.88 15.88 0 011.531 3.312c.453 1.406.703 2.781.703 4.156 0 1.36-.25 2.75-.703 4.172A17.068 17.068 0 01.922 1.72h1.125a16.29 16.29 0 001.656-3.297c.453-1.375.703-2.781.703-4.172 0-1.422-.25-2.813-.703-4.188a15.157 15.157 0 00-1.656-3.296zm0 0"/></symbol><symbol overflow="visible" id="h"><path d="M4.031-10.156h4.313v2.562H3.578v4.547H.938v1.125h7.406v3.563H9.5v-3.563h5.547v-1.125H9.5V-6.5h4.469v-1.094H9.5v-2.562h5.031v-1.125H4.594c.218-.547.437-1.11.61-1.703L4-13.22C3.437-11.14 2.36-9.484.734-8.266l.766.954c1.031-.766 1.86-1.72 2.531-2.844zm.703 7.11V-6.5h3.61v3.453zm0 0"/></symbol><symbol overflow="visible" id="i"><path d="M5.266-12.906C4.234-9.86 2.734-7.422.734-5.594l.891.782C3.578-6.579 5.141-9.142 6.313-12.5zm5.453 8.469l-1.031.359c.671.953 1.296 2.016 1.921 3.172-2.28.36-4.734.64-7.343.797C5.64-1.844 7.03-4.22 8.406-7.266L7.281-7.64C5.344-3.266 3.75-.734 2.47-.062l.203 1.125c3.484-.235 6.64-.547 9.453-1a28 28 0 01.719 1.53l1.078-.468a32.14 32.14 0 00-3.203-5.563zm-.235-8.594l-.984.547c.938 3.14 2.594 5.718 4.984 7.703l.813-.953c-2.281-1.875-3.89-4.313-4.813-7.297zm0 0"/></symbol><symbol overflow="visible" id="j"><path d="M8.469-8.86v1.954H4.703A18.377 18.377 0 006.72-9.875h8.328v-1.11H7.28c.282-.624.547-1.296.766-2l-1.172-.156A14.853 14.853 0 016-10.984H1.125v1.109h4.266C4.219-7.922 2.625-6.203.594-4.703l.734.953a24.698 24.698 0 002.61-2.297V.078h1.109v-5.922h3.422v7.438h1.094v-7.438h3.406v4.063c0 .468-.25.703-.766.703l-1.422-.031.297 1.078h1.5c.985 0 1.5-.516 1.5-1.5v-5.375H9.563V-8.86zm0 0"/></symbol><symbol overflow="visible" id="k"><path d="M6.469-10.297H3.89c.312-.812.562-1.687.75-2.625l-1.157-.172c-.14.969-.359 1.89-.687 2.797H1.312V1.078h1.125V-.297h2.907V.61h1.125zM2.437-1.375v-3.5h2.907v3.5zm0-4.547v-3.297h2.907v3.297zm6.813-.672l-.938.578c1.11 1.313 1.985 2.5 2.641 3.547l.922-.64c-.61-.985-1.469-2.157-2.625-3.485zm5.484-3.687H9.625c.297-.844.516-1.735.719-2.672l-1.14-.156C8.78-10.83 8.03-8.906 6.905-7.344l.688.907a13.402 13.402 0 001.61-2.735h4.39c-.031 4.61-.094 7.375-.188 8.281-.125.813-.562 1.235-1.312 1.235-.5 0-1.063-.031-1.735-.063l.266 1.063c.766.031 1.313.062 1.625.062 1.344 0 2.094-.625 2.25-1.843.156-1.25.234-4.532.234-9.844zm0 0"/></symbol><symbol overflow="visible" id="l"><path d="M1.25-11.422V0h1.297v-11.422zm0 0"/></symbol><symbol overflow="visible" id="m"><path d="M1.156-11.422V0H2.47v-5.313h6v-1.14h-6v-3.828h6.328v-1.14zm0 0"/></symbol><symbol overflow="visible" id="n"><path d="M.797-6.313v1.063h8.078v-1.063zm0 3.266v1.094h8.078v-1.094zm0 0"/></symbol><symbol overflow="visible" id="o"><path d="M6.063-11.313v1.047h3.375C8.28-8.562 7.344-7.5 6.608-7.109c-.062.03-.125.062-.218.093l.25 1c1.421-.046 2.765-.109 4.015-.187C9.47-4.984 8-4.078 6.234-3.484l.61.953c2.984-1.063 5.25-3.047 6.797-5.969l-.97-.516c-.358.641-.733 1.25-1.155 1.813-1.141.078-2.297.14-3.454.187.75-.64 1.641-1.734 2.641-3.25h4.656v-1.046H11.5a25.89 25.89 0 00-.781-1.97l-1.203.188c.328.547.593 1.14.843 1.781zm5.593 9.704c1.203 1.078 2.172 2.14 2.89 3.125l.829-.829c-.828-1-1.828-2-2.969-2.984a17.979 17.979 0 002.813-3.812l-.985-.532C12.313-3.094 9.422-.703 5.563.531l.625.985c2.078-.704 3.906-1.75 5.468-3.125zM2.625-12.875l-.797.781c1.125.844 2.031 1.64 2.688 2.39l.78-.78a19.573 19.573 0 00-2.671-2.391zM.672-8.172v1.094h2.36v6.406c0 .25-.141.485-.36.688l.453 1.03a24.484 24.484 0 003.094-2.484l-.313-1.218a25.902 25.902 0 01-1.781 1.61v-7.126zm0 0"/></symbol><symbol overflow="visible" id="p"><path d="M2-13.031v1.797h-.984v1.078H2v6.765H.828v1.094h7.578V-3.39H7.36v-6.765h.954v-1.078h-.954v-1.75H6.234v1.75H3.125v-1.797zm1.125 9.64v-1.562h3.11v1.562zm3.11-6.765v1.594h-3.11v-1.594zM3.124-5.97v-1.578h3.11v1.578zM5.953-1.89l-.89.563c.718.953 1.296 1.86 1.703 2.672l.843-.61c-.015.032-.03.063-.062.094l.89.813C9.485.234 10.126-1.5 10.36-3.61h3.094v3.265c0 .485-.203.735-.625.735-.515 0-1.047-.032-1.64-.079l.312 1.141h1.703c.922 0 1.406-.469 1.406-1.375v-12.547H9.297v7.5c-.031 2.235-.563 4.11-1.61 5.594-.406-.703-.984-1.547-1.734-2.516zm-3.125-.015A11.686 11.686 0 01.734.89l.907.656c.812-.844 1.515-1.844 2.125-3zm7.61-5.61h3.015v2.844h-3.031c0-.125.015-.25.015-.406zm3.015-1.062h-3.015v-2.797h3.015zm0 0"/></symbol><symbol overflow="visible" id="q"><path d="M1.25-12.469v1.14h2.969v4.548H.734v1.14H4.22v7.204H5.39v-7.204h3.453v-1.14H5.39v-4.547h3.015v-1.14zm8.547.906v9.86h1.125v-9.86zM13.25 1.454c.938 0 1.422-.516 1.422-1.531v-12.953H13.5V-.375c0 .516-.219.781-.656.781-.703 0-1.438-.031-2.203-.062l.25 1.11zm0 0"/></symbol><symbol overflow="visible" id="r"><path d="M5.75-5.61v1.11h3.656v4.422H5.094v1.14h10.031v-1.14h-4.547V-4.5h3.828v-1.11h-3.828v-2.984H9.406v2.985zm-2.578.704V1.64h1.125v-7.86a19.455 19.455 0 002.25-3.547h8.562v-1.125H7.063c.28-.687.515-1.406.75-2.156l-1.204-.14a19.11 19.11 0 01-.828 2.296H1.125v1.125h4.11C4.108-7.625 2.561-5.75.561-4.094l.72.938a25.307 25.307 0 001.89-1.75zm0 0"/></symbol><symbol overflow="visible" id="s"><path d="M.797-4.688v1.094h8.078v-1.094zm0 0"/></symbol><symbol overflow="visible" id="t"><path d="M14.563-11.984h-6.11V1.125h1.094V-.297h3.89v1.25h1.126zM9.546-1.391v-9.515h3.89v9.515zM1.14-8.67v1.077h2.796v.11C3.281-5.734 2.204-4.141.72-2.734l.484 1.25A15.415 15.415 0 003.937-5.61v7.093h1.126v-7.218c.578.671 1.296 1.593 2.125 2.718L7.859-4a33.696 33.696 0 00-2.796-2.797v-.797h2.734v-1.078H5.063v-2.531c.89-.188 1.734-.438 2.562-.75l-.531-.953c-1.61.61-3.594 1-5.969 1.187l.36 1.031a30.966 30.966 0 002.452-.28v2.296zm0 0"/></symbol><symbol overflow="visible" id="u"><path d="M4.953-11.64c-1.14 0-2.094.374-2.797 1.14-.703.75-1.062 1.781-1.062 3.063h1.312c.016-1.016.25-1.782.703-2.297.407-.532 1.016-.797 1.797-.797.735 0 1.328.187 1.75.578.422.39.625.906.625 1.61 0 .75-.312 1.437-.875 2.062C6.094-5.97 5.5-5.5 4.61-4.86c-1.218.828-2.03 1.515-2.484 2.03C1.359-1.983.985-1.046.985 0h7.624v-1.172h-6c.204-.766 1.032-1.64 2.5-2.625 1.172-.797 1.97-1.422 2.36-1.828.734-.813 1.125-1.703 1.125-2.688 0-1-.36-1.812-1.031-2.421-.688-.61-1.547-.907-2.61-.907zm0 0"/></symbol><symbol overflow="visible" id="v"><path d="M7.031-3.64v-5.344h-4.11v-1.86c1.673-.25 3.079-.672 4.235-1.297l-.765-.89c-1.094.656-2.579 1.11-4.485 1.328v6.64C1.875-2.813 1.422-.89.563.734l.796.829c.797-1.485 1.297-3.22 1.485-5.204zm-4.11-4.235H5.97v3.172H2.906c0-.125.016-.234.016-.36zm6.517.844h2.906v8.625h1.125v-8.625h1.812v-1.094H9.437l-.015-2.797c1.953-.11 3.719-.453 5.297-1.062l-.578-1c-1.563.64-3.485 1.015-5.735 1.109v7.234C8.375-2.17 8-.266 7.312 1.094l1.047.5c.704-1.39 1.047-3.469 1.079-6.235zm0 0"/></symbol><symbol overflow="visible" id="w"><path d="M1.86-8.156h3.968C4.703-4.594 2.984-1.796.656.25l.594 1.063c1.828-1.485 3.328-3.485 4.5-6.016.516 1.125 1.406 2.156 2.656 3.125C7.203-.797 5.72-.078 3.922.578l.61 1.063C6.468.89 8.093.062 9.405-.86 10.75.016 12.453.828 14.5 1.578l.594-1.062c-1.86-.641-3.453-1.344-4.735-2.11 1.297-1.125 2.172-2.375 2.594-3.75v-1H6.422c.219-.562.406-1.172.61-1.812h7.78v-1.11H7.329c.281-1.187.547-2.437.75-3.78l-1.172-.142a32.88 32.88 0 01-.765 3.922H3.344l.906-3.156-1.125-.187zm4.75 2.875h5.187c-.453 1.093-1.266 2.093-2.453 3.031-1.281-.938-2.188-1.938-2.735-3.031zm4.156-7.782l-.766.766c1.203.953 2.14 1.844 2.813 2.703l.812-.828c-.766-.875-1.703-1.75-2.86-2.64zm0 0"/></symbol><symbol overflow="visible" id="x"><path d="M1.625-11.688v1.063h5.781v1.516H2.563v1.062h4.843V-6.5H1.234v1.047h5c-1.171 1.375-3.03 2.5-5.593 3.39l.625 1A20.76 20.76 0 004.156-2.5V.14c0 .204-.11.344-.328.438l.375.985a32.624 32.624 0 004.89-1.625L8.86-1.141A30.55 30.55 0 015.297.172v-3.438c.86-.671 1.578-1.39 2.14-2.187h7.329V-6.5H8.594v-1.547h4.844v-1.062H8.593v-1.516h5.781v-1.063H8.594v-1.359H7.406v1.36zM13.328-4.64c-.86.922-1.781 1.594-2.734 2.016-.485-.61-.875-1.313-1.203-2.078l-.875.5C9.719-1.391 11.75.53 14.609 1.563l.688-.985c-1.64-.547-3-1.375-4.047-2.469a8.768 8.768 0 002.86-1.968zm0 0"/></symbol><symbol overflow="visible" id="y"><path d="M1.031-10.375v1.156h2.453c.72 2.469 2 4.61 3.86 6.438C5.609-1.22 3.406-.078.719.64l.61 1C4.046.859 6.312-.375 8.14-2.047 9.875-.562 12.047.672 14.703 1.656l.625-.953c-2.562-.937-4.687-2.125-6.39-3.562 1.578-1.704 2.765-3.829 3.546-6.36h2.485v-1.156h-6.11c-.5-1.094-1.046-2.047-1.656-2.813l-1.156.422c.64.75 1.172 1.547 1.594 2.391zm3.594 1.156h6.656c-.672 2.203-1.719 4.078-3.14 5.64-1.657-1.608-2.829-3.483-3.516-5.64zm0 0"/></symbol><symbol overflow="visible" id="z"><path d="M7.438-2.61v1.126H.952V-.47h6.484v2h1.188v-2h6.422v-1.015H8.625V-2.61h4.438v-4.86H2.969v4.86zM4.108-4.593h7.813v1.032H4.109zm7.813-.89H4.109v-1.032h7.813zm-7.5-5.454l.594 1.485H1.187v.984h13.641v-.984h-3.765l.562-1.485H14v-1.015H8.562a22.345 22.345 0 00-.468-1.266l-1.235.188c.172.328.313.687.438 1.078H2v1.015zm1.75 1.485l-.594-1.485h4.86l-.563 1.485zm0 0"/></symbol><symbol overflow="visible" id="A"><path d="M10.422-9.516h2.547c-.063 2.25-.422 4.204-1.11 5.86-.609-1.094-1.093-2.297-1.468-3.578l-.907.515c.454 1.532 1.047 2.938 1.797 4.219A9.634 9.634 0 018.36.672l.594.969A11.098 11.098 0 0011.906-1.5a15.814 15.814 0 002.766 3.125l.734-.86A15.356 15.356 0 0112.5-2.593c.922-1.922 1.438-4.219 1.516-6.922h1.171v-1.109h-4.5c.157-.703.297-1.469.438-2.281l-1.11-.203c-.374 2.859-1.078 5.125-2.124 6.796l.703.875c.75-1.093 1.36-2.453 1.828-4.078zM3.766-5.703c-.141.344-.266.687-.422 1.078H1.016v1.016h1.859a37.008 37.008 0 01-1.078 1.906c.812.328 1.578.625 2.297.953C3.156-.203 2 .234.64.594l.546.953C2.813 1.109 4.158.5 5.234-.234 6.172.203 7.016.64 7.72 1.078l.593-.906A36.278 36.278 0 006.11-.938a6.652 6.652 0 001.782-2.75v-.937H4.484c.125-.313.235-.625.344-.938zm1.296 4.297a19.435 19.435 0 00-1.875-.735c.297-.468.594-.968.844-1.468h2.797c-.375.828-.969 1.562-1.766 2.203zM2.36-12.86l-.937.296c.39.594.75 1.266 1.094 2.032l.828-.36a12.86 12.86 0 00-.985-1.968zm4.86-.063a12.911 12.911 0 01-1.188 2l.813.406c.5-.656.922-1.328 1.234-2.015zM1.079-10v1.016h2.468c-.531.89-1.5 1.687-2.875 2.39l.594.953c1.375-.843 2.343-1.812 2.953-2.937v2.672H5.28V-7.86a25.37 25.37 0 011.953 1.64l.594-.906a30.533 30.533 0 00-2.547-1.578v-.281h2.89V-10h-2.89v-3.063H4.22V-10zm0 0"/></symbol><symbol overflow="visible" id="B"><path d="M2.61-4.672V1.61h1.124v-6.53a17.67 17.67 0 011.594 2.187l.625-.954c-.328-.421-.656-.843-1.031-1.234.422-.344.812-.812 1.156-1.375l-.656-.656c-.328.594-.703 1.078-1.078 1.406-.203-.203-.407-.375-.61-.562v-.094A13.135 13.135 0 005.328-9.61v-.954H3.36l.61-.234c-.188-.687-.469-1.453-.813-2.297l-1.11.313c.329.703.61 1.453.86 2.219H.97V-9.5h3.265C3.641-7.75 2.47-5.937.672-4.062l.344 1.156a27.554 27.554 0 001.593-1.766zm7.53-8.406v1.937H6.563v5.625C6.516-2.984 5.938-.906 4.845.72l.953.812C7.03-.422 7.64-2.78 7.657-5.547v-.187h.577c.391 1.578 1.141 2.968 2.266 4.203C9.547-.671 8.39.03 6.984.579l.579 1.015a11.74 11.74 0 003.75-2.328c.921.859 2.093 1.625 3.468 2.296l.625-1c-1.344-.593-2.469-1.28-3.375-2.078 1-1.171 1.672-2.593 2.047-4.28v-.985h-2.781v-3.282h2.39c-.171.704-.359 1.36-.562 1.938l1.031.281c.313-.89.531-1.797.672-2.734v-.563h-3.531v-1.937zm0 3.015v3.282H7.657v-3.282zm1.079 7.766C10.28-3.312 9.625-4.453 9.28-5.734h3.703a9.34 9.34 0 01-1.765 3.437zm0 0"/></symbol><symbol overflow="visible" id="C"><path d="M12.375-13.078V1.609h1.14v-14.687zM2.953-7.813H8.47v-4.625H1.5v1.063h5.828v2.5H2l-.828 4.766h6.297c0 1.875-.094 3.093-.266 3.687-.187.563-.922.86-2.125.86-.516 0-1.031-.032-1.547-.063l.297 1.063c.516.03 1 .062 1.5.062C7.078 1.437 8.062.953 8.281.062c.235-.828.344-2.578.344-5.218H2.406zm0 0"/></symbol><symbol overflow="visible" id="D"><path d="M3.406-7.484H7.47v2.796H3.406zm-.062 3.859h4.125v4.688h1.187v-4.688h4.36v2.781c0 .672-.313 1-.891 1-.547 0-1.14-.031-1.766-.062l.297 1.14H12.5c1.11 0 1.672-.562 1.672-1.687v-11.985H2.25v7.688C2.219-2.562 1.703-.75.672.672l.875.781C2.578.11 3.172-1.578 3.344-3.625zm9.672-1.063h-4.36v-2.796h4.36zm0-3.875h-4.36v-2.75h4.36zm-5.547-2.75v2.75H3.406v-2.75zm0 0"/></symbol><symbol overflow="visible" id="E"><path d="M2.953-10.25v5.203h10.094v-5.203h-2.672c.516-.703 1.031-1.578 1.547-2.594l-1.11-.406a15.261 15.261 0 01-1.687 3zm8.938 4.125H4.109v-3.047h7.782zm-6.97-7.063l-.968.485c.61.703 1.188 1.484 1.735 2.39l.968-.484a21.852 21.852 0 00-1.734-2.39zm-2.64 9.47C1.953-2.267 1.421-.939.687.25l.97.625c.75-1.219 1.312-2.672 1.734-4.344zm6.031-.688l-1 .343c.547.813 1.047 1.75 1.485 2.797l1.062-.468a16.756 16.756 0 00-1.546-2.672zm5.047.39l-1.109.36c.703 1.156 1.344 2.5 1.922 4.047l1.062-.47a25.41 25.41 0 00-1.875-3.937zm-3.078 5.407c.61 0 1.063-.125 1.344-.375.328-.344.547-1.235.656-2.672l-1.094-.36c-.062 1.125-.171 1.797-.374 2.032-.141.187-.376.28-.735.28H6.563c-.47 0-.688-.25-.688-.75v-3.108H4.703v3.359c0 1.047.5 1.594 1.5 1.594zm0 0"/></symbol></defs><g fill="#565a95"><use xlink:href="#a" x="11.015" y="39.5"/><use xlink:href="#b" x="27.015" y="39.5"/><use xlink:href="#c" x="32.343" y="39.5"/><use xlink:href="#d" x="37.671" y="39.5"/><use xlink:href="#b" x="47.863" y="39.5"/><use xlink:href="#e" x="53.191" y="39.5"/><use xlink:href="#b" x="62.871" y="39.5"/><use xlink:href="#f" x="68.199" y="39.5"/><use xlink:href="#g" x="74.615" y="39.5"/><use xlink:href="#b" x="79.943" y="39.5"/><use xlink:href="#h" x="85.271" y="39.5"/><use xlink:href="#i" x="101.271" y="39.5"/><use xlink:href="#j" x="117.271" y="39.5"/><use xlink:href="#k" x="133.271" y="39.5"/><use xlink:href="#b" x="149.271" y="39.5"/><use xlink:href="#l" x="154.599" y="39.5"/><use xlink:href="#m" x="158.391" y="39.5"/><use xlink:href="#b" x="167.623" y="39.5"/><use xlink:href="#n" x="172.951" y="39.5"/><use xlink:href="#b" x="182.631" y="39.5"/></g><use xlink:href="#b" x="182.631" y="39.5" fill="#565a95"/><g fill="#565a95"><use xlink:href="#o" x="5.767" y="61.5"/><use xlink:href="#p" x="21.767" y="61.5"/><use xlink:href="#q" x="37.767" y="61.5"/><use xlink:href="#r" x="53.767" y="61.5"/><use xlink:href="#a" x="69.767" y="61.5"/><use xlink:href="#b" x="85.767" y="61.5"/><use xlink:href="#c" x="91.095" y="61.5"/><use xlink:href="#d" x="96.423" y="61.5"/><use xlink:href="#g" x="106.615" y="61.5"/><use xlink:href="#b" x="111.943" y="61.5"/><use xlink:href="#h" x="117.271" y="61.5"/><use xlink:href="#k" x="133.271" y="61.5"/><use xlink:href="#b" x="149.271" y="61.5"/><use xlink:href="#l" x="154.599" y="61.5"/><use xlink:href="#m" x="158.391" y="61.5"/><use xlink:href="#b" x="167.623" y="61.5"/><use xlink:href="#n" x="172.951" y="61.5"/><use xlink:href="#b" x="182.631" y="61.5"/></g><g fill="#565a95"><use xlink:href="#o" x="267.047" y="76.5"/><use xlink:href="#p" x="283.047" y="76.5"/><use xlink:href="#q" x="299.047" y="76.5"/><use xlink:href="#r" x="315.047" y="76.5"/><use xlink:href="#c" x="331.047" y="76.5"/><use xlink:href="#d" x="336.375" y="76.5"/><use xlink:href="#b" x="346.567" y="76.5"/><use xlink:href="#s" x="351.895" y="76.5"/><use xlink:href="#b" x="361.575" y="76.5"/><use xlink:href="#f" x="366.903" y="76.5"/><use xlink:href="#g" x="373.319" y="76.5"/><use xlink:href="#b" x="378.647" y="76.5"/><use xlink:href="#t" x="383.975" y="76.5"/><use xlink:href="#b" x="399.975" y="76.5"/><use xlink:href="#c" x="405.303" y="76.5"/><use xlink:href="#d" x="410.631" y="76.5"/><use xlink:href="#b" x="420.823" y="76.5"/><use xlink:href="#s" x="426.151" y="76.5"/><use xlink:href="#b" x="435.831" y="76.5"/><use xlink:href="#u" x="441.159" y="76.5"/><use xlink:href="#g" x="450.759" y="76.5"/><use xlink:href="#b" x="456.087" y="76.5"/><use xlink:href="#h" x="461.415" y="76.5"/><use xlink:href="#v" x="477.415" y="76.5"/><use xlink:href="#w" x="493.415" y="76.5"/><use xlink:href="#x" x="509.415" y="76.5"/><use xlink:href="#k" x="525.415" y="76.5"/><use xlink:href="#y" x="541.415" y="76.5"/><use xlink:href="#z" x="557.415" y="76.5"/><use xlink:href="#A" x="573.415" y="76.5"/></g><g fill="#565a95"><use xlink:href="#o" x="192.631" y="22.5"/><use xlink:href="#p" x="208.631" y="22.5"/><use xlink:href="#q" x="224.631" y="22.5"/><use xlink:href="#r" x="240.631" y="22.5"/><use xlink:href="#b" x="256.631" y="22.5"/><use xlink:href="#c" x="261.959" y="22.5"/><use xlink:href="#d" x="267.287" y="22.5"/><use xlink:href="#b" x="277.479" y="22.5"/><use xlink:href="#s" x="282.807" y="22.5"/><use xlink:href="#b" x="292.487" y="22.5"/><use xlink:href="#f" x="297.815" y="22.5"/><use xlink:href="#g" x="304.231" y="22.5"/><use xlink:href="#b" x="309.559" y="22.5"/><use xlink:href="#t" x="314.887" y="22.5"/><use xlink:href="#b" x="330.887" y="22.5"/><use xlink:href="#c" x="336.215" y="22.5"/><use xlink:href="#d" x="341.543" y="22.5"/><use xlink:href="#b" x="351.735" y="22.5"/><use xlink:href="#s" x="357.063" y="22.5"/><use xlink:href="#b" x="366.743" y="22.5"/><use xlink:href="#u" x="372.071" y="22.5"/><use xlink:href="#g" x="381.671" y="22.5"/><use xlink:href="#b" x="386.999" y="22.5"/><use xlink:href="#h" x="392.327" y="22.5"/><use xlink:href="#v" x="408.327" y="22.5"/><use xlink:href="#w" x="424.327" y="22.5"/><use xlink:href="#x" x="440.327" y="22.5"/><use xlink:href="#k" x="456.327" y="22.5"/><use xlink:href="#y" x="472.327" y="22.5"/><use xlink:href="#z" x="488.327" y="22.5"/><use xlink:href="#r" x="504.327" y="22.5"/><use xlink:href="#a" x="520.327" y="22.5"/><use xlink:href="#b" x="536.327" y="22.5"/><use xlink:href="#c" x="541.655" y="22.5"/><use xlink:href="#d" x="546.983" y="22.5"/><use xlink:href="#g" x="557.175" y="22.5"/><use xlink:href="#b" x="562.503" y="22.5"/><use xlink:href="#h" x="567.831" y="22.5"/><use xlink:href="#B" x="583.831" y="22.5"/><use xlink:href="#C" x="599.831" y="22.5"/><use xlink:href="#D" x="615.831" y="22.5"/><use xlink:href="#E" x="631.831" y="22.5"/><use xlink:href="#A" x="647.831" y="22.5"/></g><path d="M207.371 44.5H649.09" fill="none" stroke-linecap="round" stroke-linejoin="round" stroke="#565a95" stroke-miterlimit="10"/></svg>