<?xml version="1.0" standalone="no" ?>
<!DOCTYPE svg PUBLIC "-//W3C//DTD SVG 1.1//EN" "http://www.w3.org/Graphics/SVG/1.1/DTD/svg11.dtd">
<svg width="345px" height="294px" viewBox="0 0 345 294" style="background-color: #ffffff00" xmlns="http://www.w3.org/2000/svg" xmlns:xlink="http://www.w3.org/1999/xlink" version="1.1" >
<path stroke="none" fill="#335490" transform="matrix(0.05 0 0 0.05 -95 -241)" fill-opacity="0.666667" d="M 4872.08,8087.07 L 5341.45,8462.31 L 5159.61,9045.16 L 4553.44,9024.07 L 4390.32,8438.02 L 4872.08,8087.07 Z " />
<path stroke="none" fill="#335490" transform="matrix(0.05 0 0 0.05 -95 -241)" fill-opacity="0.607843" d="M 5738,7214.84 L 6096.44,7692.26 L 6689.32,7523.06 L 6668.36,6939.77 L 6076.34,6748.71 L 5738,7214.84 Z " />
<path stroke="none" fill="#335490" transform="matrix(0.05 0 0 0.05 -95 -241)" fill-opacity="0.580392" d="M 3992.2,7211.93 L 3625.35,7685.74 L 3002.4,7506.83 L 3001.59,6936.75 L 3614.69,6751.48 L 3992.2,7211.93 Z " />
<path stroke="none" fill="#335490" transform="matrix(0.05 0 0 0.05 -95 -241)" fill-opacity="0.65098" d="M 4849.38,6365.16 L 5315.71,5989.07 L 5137.65,5403.2 L 4529.1,5409.23 L 4370.67,6000.93 L 4849.38,6365.16 Z " />
<path stroke="none" fill="#335490" transform="matrix(0.05 0 0 0.05 -95 -241)" fill-opacity="0.647059" d="M 4872.08,8087.07 L 5341.45,8462.31 L 5926.02,8279.57 L 6096.44,7692.26 L 5738,7214.84 L 6076.34,6748.71 L 5900.28,6162.86 L 5315.71,5989.07 L 4849.38,6365.16 L 4370.67,6000.93 L 3783.8,6164.9 L 3614.69,6751.48 L 3992.2,7211.93 L 3625.35,7685.74 L 3803.95,8270.64 L 4390.32,8438.02 L 4872.08,8087.07 Z " />
<path stroke="none" fill="#ff0000" transform="matrix(0.05 0 0 0.05 -95 -241)" fill-opacity="0.643137" d="M 8191.42,8189.43 L 8181.23,8208.55 L 7767.61,7703.79 L 7773.65,7679.6 L 8191.42,8189.43 Z " />
<path stroke="none" fill="#ff0000" transform="matrix(0.05 0 0 0.05 -95 -241)" fill-opacity="0.568627" d="M 6406.45,10164.6 L 6391.11,10180.3 L 6154.49,9569.3 L 6167.76,9548.19 L 6406.45,10164.6 Z " />
<path stroke="none" fill="#98cf5c" transform="matrix(0.05 0 0 0.05 -95 -241)" fill-opacity="0.627451" d="M 3591.59,4905.4 L 3591.83,4885.4 L 4131.9,4891.96 L 4122.14,4911.85 L 3591.59,4905.4 Z " />
<path stroke="none" fill="#98cf5c" transform="matrix(0.05 0 0 0.05 -95 -241)" fill-opacity="0.627451" d="M 3590.81,4969.64 L 3591.05,4949.64 L 4095.78,4955.77 L 4095.54,4975.77 L 3590.81,4969.64 Z " />
<path stroke="none" fill="#00ff00" transform="matrix(0.05 0 0 0.05 -95 -241)" fill-opacity="0.658824" d="M 1941.92,7752.39 L 1945.34,7732.69 L 2478.23,7824.98 L 2482.39,7846 L 1941.92,7752.39 Z " />
<path stroke="none" fill="#00ff00" transform="matrix(0.05 0 0 0.05 -95 -241)" fill-opacity="0.658824" d="M 1953.08,7687.99 L 1956.49,7668.29 L 2468.44,7756.95 L 2465.03,7776.66 L 1953.08,7687.99 Z " />
<path stroke="none" fill="#98cf5c" transform="matrix(0.05 0 0 0.05 -95 -241)" fill-opacity="0.537255" d="M 7773.65,7679.6 L 7767.61,7703.79 L 7189.74,7944.77 L 7193.1,7921.7 L 7773.65,7679.6 Z " />
<path stroke="none" fill="#98cf5c" transform="matrix(0.05 0 0 0.05 -95 -241)" fill-opacity="0.615686" d="M 6167.76,9548.19 L 6154.49,9569.3 L 5492.34,9621.83 L 5503.14,9600.91 L 6167.76,9548.19 Z " />
<path stroke="none" fill="#98cf5c" transform="matrix(0.05 0 0 0.05 -95 -241)" fill-opacity="0.588235" d="M 5503.33,4867.07 L 5519.68,4878.59 L 5148.64,5404.97 L 5137.65,5403.2 L 5132.43,5393.25 L 5503.33,4867.07 Z " />
<path stroke="none" fill="#98cf5c" transform="matrix(0.05 0 0 0.05 -95 -241)" fill-opacity="0.439216" d="M 2481.27,6564.67 L 2493.16,6548.58 L 3003.5,6925.73 L 3001.59,6936.75 L 2991.6,6941.8 L 2481.27,6564.67 Z " />
<path stroke="none" fill="#98cf5c" transform="matrix(0.05 0 0 0.05 -95 -241)" fill-opacity="0.690196" d="M 4122.14,4911.85 L 4131.9,4891.96 L 4533.89,5399.18 L 4529.1,5409.23 L 4518.14,5411.5 L 4122.14,4911.85 Z " />
<path stroke="none" fill="#98cf5c" transform="matrix(0.05 0 0 0.05 -95 -241)" fill-opacity="0.65098" d="M 5132.43,5393.25 L 5137.65,5403.2 L 5130.26,5413.28 L 4536.79,5419.15 L 4529.1,5409.23 L 4533.89,5399.18 L 5132.43,5393.25 Z " />
<path stroke="none" fill="#98cf5c" transform="matrix(0.05 0 0 0.05 -95 -241)" fill-opacity="0.666667" d="M 2482.39,7846 L 2478.23,7824.98 L 2992.39,7501.31 L 3002.4,7506.83 L 3003.94,7517.67 L 2482.39,7846 Z " />
<path stroke="none" fill="#98cf5c" transform="matrix(0.05 0 0 0.05 -95 -241)" fill-opacity="0.54902" d="M 2991.6,6941.8 L 3001.59,6936.75 L 3011.6,6944.17 L 3012.39,7499.29 L 3002.4,7506.83 L 2992.39,7501.31 L 2991.6,6941.8 Z " />
<path stroke="none" fill="#98cf5c" transform="matrix(0.05 0 0 0.05 -95 -241)" fill-opacity="0.54902" d="M 3060.07,6987.53 L 3080.07,6987.51 L 3080.74,7455.26 L 3060.74,7455.29 L 3060.07,6987.53 Z " />
<path stroke="none" fill="#98cf5c" transform="matrix(0.05 0 0 0.05 -95 -241)" fill-opacity="0.392157" d="M 7127.25,6555.68 L 7139.83,6571.23 L 6678.54,6944.4 L 6668.36,6939.77 L 6666.28,6928.59 L 7127.25,6555.68 Z " />
<path stroke="none" fill="#98cf5c" transform="matrix(0.05 0 0 0.05 -95 -241)" fill-opacity="0.560784" d="M 4171.35,9534.97 L 4155.53,9522.74 L 4542.46,9021.93 L 4553.44,9024.07 L 4558.21,9034.24 L 4171.35,9534.97 Z " />
<path stroke="none" fill="#98cf5c" transform="matrix(0.05 0 0 0.05 -95 -241)" fill-opacity="0.588235" d="M 3775.74,6156.77 L 3791.87,6173.03 L 3625.75,6749.2 L 3614.69,6751.48 L 3606.59,6743.48 L 3775.74,6156.77 Z " />
<path stroke="none" fill="#98cf5c" transform="matrix(0.05 0 0 0.05 -95 -241)" fill-opacity="0.588235" d="M 3833.26,6221.69 L 3852.48,6227.23 L 3705.35,6737.56 L 3686.13,6732.02 L 3833.26,6221.69 Z " />
<path stroke="none" fill="#98cf5c" transform="matrix(0.05 0 0 0.05 -95 -241)" fill-opacity="0.533333" d="M 3011.6,6944.17 L 3001.59,6936.75 L 3003.5,6925.73 L 3606.59,6743.48 L 3614.69,6751.48 L 3611.19,6762.98 L 3011.6,6944.17 Z " />
<path stroke="none" fill="#98cf5c" transform="matrix(0.05 0 0 0.05 -95 -241)" fill-opacity="0.631373" d="M 3791.87,6173.03 L 3775.74,6156.77 L 4362.49,5992.84 L 4370.67,6000.93 L 4368.58,6011.9 L 3791.87,6173.03 Z " />
<path stroke="none" fill="#98cf5c" transform="matrix(0.05 0 0 0.05 -95 -241)" fill-opacity="0.662745" d="M 4518.14,5411.5 L 4529.1,5409.23 L 4536.79,5419.15 L 4382.07,5997.04 L 4370.67,6000.93 L 4362.49,5992.84 L 4518.14,5411.5 Z " />
<path stroke="none" fill="#98cf5c" transform="matrix(0.05 0 0 0.05 -95 -241)" fill-opacity="0.662745" d="M 4576,5479.59 L 4595.32,5484.76 L 4464.09,5974.88 L 4444.77,5969.71 L 4576,5479.59 Z " />
<path stroke="none" fill="#98cf5c" transform="matrix(0.05 0 0 0.05 -95 -241)" fill-opacity="0.623529" d="M 5908.31,6154.81 L 5892.26,6170.91 L 5317.9,6000.16 L 5315.71,5989.07 L 5323.71,5981.02 L 5908.31,6154.81 Z " />
<path stroke="none" fill="#98cf5c" transform="matrix(0.05 0 0 0.05 -95 -241)" fill-opacity="0.635294" d="M 5130.26,5413.28 L 5137.65,5403.2 L 5148.64,5404.97 L 5323.71,5981.02 L 5315.71,5989.07 L 5304.18,5985.53 L 5130.26,5413.28 Z " />
<path stroke="none" fill="#98cf5c" transform="matrix(0.05 0 0 0.05 -95 -241)" fill-opacity="0.635294" d="M 5073.78,5480.13 L 5092.91,5474.32 L 5240.56,5960.09 L 5221.42,5965.91 L 5073.78,5480.13 Z " />
<path stroke="none" fill="#98cf5c" transform="matrix(0.05 0 0 0.05 -95 -241)" fill-opacity="0.619608" d="M 3811.92,8262.52 L 3795.97,8278.77 L 3617.37,7693.85 L 3625.35,7685.74 L 3636.42,7687.77 L 3811.92,8262.52 Z " />
<path stroke="none" fill="#98cf5c" transform="matrix(0.05 0 0 0.05 -95 -241)" fill-opacity="0.607843" d="M 3003.94,7517.67 L 3002.4,7506.83 L 3012.39,7499.29 L 3621.59,7674.26 L 3625.35,7685.74 L 3617.37,7693.85 L 3003.94,7517.67 Z " />
<path stroke="none" fill="#98cf5c" transform="matrix(0.05 0 0 0.05 -95 -241)" fill-opacity="0.498039" d="M 7193.1,7921.7 L 7189.74,7944.77 L 6687.04,7534.11 L 6689.32,7523.06 L 6699.15,7518.18 L 7193.1,7921.7 Z " />
<path stroke="none" fill="#98cf5c" transform="matrix(0.05 0 0 0.05 -95 -241)" fill-opacity="0.513725" d="M 6658.62,6947.13 L 6668.36,6939.77 L 6678.54,6944.4 L 6699.15,7518.18 L 6689.32,7523.06 L 6679.05,7515.6 L 6658.62,6947.13 Z " />
<path stroke="none" fill="#98cf5c" transform="matrix(0.05 0 0 0.05 -95 -241)" fill-opacity="0.513725" d="M 6590.14,6991.71 L 6610.12,6990.99 L 6627.35,7470.4 L 6607.37,7471.12 L 6590.14,6991.71 Z " />
<path stroke="none" fill="#98cf5c" transform="matrix(0.05 0 0 0.05 -95 -241)" fill-opacity="0.654902" d="M 5503.14,9600.91 L 5492.34,9621.83 L 5153.82,9054.97 L 5159.61,9045.16 L 5170.49,9043.87 L 5503.14,9600.91 Z " />
<path stroke="none" fill="#98cf5c" transform="matrix(0.05 0 0 0.05 -95 -241)" fill-opacity="0.639216" d="M 4558.21,9034.24 L 4553.44,9024.07 L 4561.1,9014.33 L 5152.33,9034.9 L 5159.61,9045.16 L 5153.82,9054.97 L 4558.21,9034.24 Z " />
<path stroke="none" fill="#98cf5c" transform="matrix(0.05 0 0 0.05 -95 -241)" fill-opacity="0.639216" d="M 4608.91,8963.18 L 4609.6,8943.19 L 5107.01,8960.5 L 5106.31,8980.48 L 4608.91,8963.18 Z " />
<path stroke="none" fill="#98cf5c" transform="matrix(0.05 0 0 0.05 -95 -241)" fill-opacity="0.607843" d="M 5892.26,6170.91 L 5908.31,6154.81 L 6084.41,6740.81 L 6076.34,6748.71 L 6065.34,6746.85 L 5892.26,6170.91 Z " />
<path stroke="none" fill="#98cf5c" transform="matrix(0.05 0 0 0.05 -95 -241)" fill-opacity="0.607843" d="M 5831.81,6224.81 L 5850.96,6219.05 L 6005.15,6732.14 L 5986,6737.89 L 5831.81,6224.81 Z " />
<path stroke="none" fill="#98cf5c" transform="matrix(0.05 0 0 0.05 -95 -241)" fill-opacity="0.54902" d="M 6666.28,6928.59 L 6668.36,6939.77 L 6658.62,6947.13 L 6080.18,6760.46 L 6076.34,6748.71 L 6084.41,6740.81 L 6666.28,6928.59 Z " />
<path stroke="none" fill="#98cf5c" transform="matrix(0.05 0 0 0.05 -95 -241)" fill-opacity="0.635294" d="M 3795.97,8278.77 L 3811.92,8262.52 L 4388.37,8427.06 L 4390.32,8438.02 L 4382.19,8446.09 L 3795.97,8278.77 Z " />
<path stroke="none" fill="#98cf5c" transform="matrix(0.05 0 0 0.05 -95 -241)" fill-opacity="0.635294" d="M 3859.56,8220.82 L 3865.05,8201.59 L 4378.83,8348.24 L 4373.34,8367.47 L 3859.56,8220.82 Z " />
<path stroke="none" fill="#98cf5c" transform="matrix(0.05 0 0 0.05 -95 -241)" fill-opacity="0.635294" d="M 4561.1,9014.33 L 4553.44,9024.07 L 4542.46,9021.93 L 4382.19,8446.09 L 4390.32,8438.02 L 4401.81,8442.02 L 4561.1,9014.33 Z " />
<path stroke="none" fill="#98cf5c" transform="matrix(0.05 0 0 0.05 -95 -241)" fill-opacity="0.694118" d="M 5934.13,8287.51 L 5917.91,8271.63 L 6085.44,7694.27 L 6096.44,7692.26 L 6104.5,7700.35 L 5934.13,8287.51 Z " />
<path stroke="none" fill="#98cf5c" transform="matrix(0.05 0 0 0.05 -95 -241)" fill-opacity="0.611765" d="M 6679.05,7515.6 L 6689.32,7523.06 L 6687.04,7534.11 L 6104.5,7700.35 L 6096.44,7692.26 L 6100.3,7680.75 L 6679.05,7515.6 Z " />
<path stroke="none" fill="#98cf5c" transform="matrix(0.05 0 0 0.05 -95 -241)" fill-opacity="0.705882" d="M 5917.91,8271.63 L 5934.13,8287.51 L 5349.43,8470.3 L 5341.45,8462.31 L 5343.54,8451.18 L 5917.91,8271.63 Z " />
<path stroke="none" fill="#98cf5c" transform="matrix(0.05 0 0 0.05 -95 -241)" fill-opacity="0.705882" d="M 5863.45,8211.65 L 5869.41,8230.74 L 5359.8,8390.05 L 5353.83,8370.96 L 5863.45,8211.65 Z " />
<path stroke="none" fill="#98cf5c" transform="matrix(0.05 0 0 0.05 -95 -241)" fill-opacity="0.686275" d="M 5170.49,9043.87 L 5159.61,9045.16 L 5152.33,9034.9 L 5329.86,8465.86 L 5341.45,8462.31 L 5349.43,8470.3 L 5170.49,9043.87 Z " />
<path stroke="none" fill="#98cf5c" transform="matrix(0.05 0 0 0.05 -95 -241)" fill-opacity="0.658824" d="M 4368.58,6011.9 L 4370.67,6000.93 L 4382.07,5997.04 L 4752.31,6278.74 L 4740.2,6294.65 L 4368.58,6011.9 Z " />
<path stroke="none" fill="#98cf5c" transform="matrix(0.05 0 0 0.05 -95 -241)" fill-opacity="0.65098" d="M 5304.18,5985.53 L 5315.71,5989.07 L 5317.9,6000.16 L 4956.39,6291.7 L 4943.84,6276.13 L 5304.18,5985.53 Z " />
<path stroke="none" fill="#98cf5c" transform="matrix(0.05 0 0 0.05 -95 -241)" fill-opacity="0.596078" d="M 3611.19,6762.98 L 3614.69,6751.48 L 3625.75,6749.2 L 3915.6,7102.74 L 3900.14,7115.42 L 3611.19,6762.98 Z " />
<path stroke="none" fill="#98cf5c" transform="matrix(0.05 0 0 0.05 -95 -241)" fill-opacity="0.619608" d="M 3636.42,7687.77 L 3625.35,7685.74 L 3621.59,7674.26 L 3903.19,7310.55 L 3919.01,7322.79 L 3636.42,7687.77 Z " />
<path stroke="none" fill="#98cf5c" transform="matrix(0.05 0 0 0.05 -95 -241)" fill-opacity="0.619608" d="M 3606.24,7609.29 L 3590.43,7597.05 L 3846.34,7266.53 L 3862.15,7278.77 L 3606.24,7609.29 Z " />
<path stroke="none" fill="#98cf5c" transform="matrix(0.05 0 0 0.05 -95 -241)" fill-opacity="0.666667" d="M 6065.34,6746.85 L 6076.34,6748.71 L 6080.18,6760.46 L 5823.15,7114.56 L 5806.96,7102.81 L 6065.34,6746.85 Z " />
<path stroke="none" fill="#98cf5c" transform="matrix(0.05 0 0 0.05 -95 -241)" fill-opacity="0.701961" d="M 6100.3,7680.75 L 6096.44,7692.26 L 6085.44,7694.27 L 5808.43,7325.31 L 5824.42,7313.3 L 6100.3,7680.75 Z " />
<path stroke="none" fill="#98cf5c" transform="matrix(0.05 0 0 0.05 -95 -241)" fill-opacity="0.701961" d="M 6132.14,7603.84 L 6116.15,7615.85 L 5865.72,7282.3 L 5881.71,7270.29 L 6132.14,7603.84 Z " />
<path stroke="none" fill="#98cf5c" transform="matrix(0.05 0 0 0.05 -95 -241)" fill-opacity="0.67451" d="M 4401.81,8442.02 L 4390.32,8438.02 L 4388.37,8427.06 L 4761.1,8155.54 L 4772.88,8171.71 L 4401.81,8442.02 Z " />
<path stroke="none" fill="#98cf5c" transform="matrix(0.05 0 0 0.05 -95 -241)" fill-opacity="0.701961" d="M 5343.54,8451.18 L 5341.45,8462.31 L 5329.86,8465.86 L 4966.32,8175.22 L 4978.81,8159.6 L 5343.54,8451.18 Z " />
<path stroke="none" fill="#ff0000" transform="matrix(0.05 0 0 0.05 -95 -241)" fill-opacity="0.4" d="M 6391.11,10180.3 L 6406.45,10164.6 L 6699.27,10269.1 L 6692.55,10287.9 L 6391.11,10180.3 Z " />
<path stroke="none" fill="#ff0000" transform="matrix(0.05 0 0 0.05 -95 -241)" fill-opacity="0.670588" d="M 6376.14,10133.8 L 6394.54,10141.7 L 6260.01,10457.2 L 6241.61,10449.4 L 6376.14,10133.8 Z " />
<path stroke="none" fill="#ff0000" transform="matrix(0.05 0 0 0.05 -95 -241)" fill-opacity="0.670588" d="M 6414.09,10177.3 L 6432.49,10185.1 L 6307.8,10477.6 L 6289.4,10469.8 L 6414.09,10177.3 Z " />
<path stroke="none" fill="#ff0000" transform="matrix(0.05 0 0 0.05 -95 -241)" fill-opacity="0.835294" d="M 8181.23,8208.55 L 8191.42,8189.43 L 8442.68,8213.38 L 8440.79,8233.29 L 8181.23,8208.55 Z " />
<path stroke="none" fill="#ff0000" transform="matrix(0.05 0 0 0.05 -95 -241)" fill-opacity="0.533333" d="M 8149.09,8166.4 L 8169.05,8165.08 L 8190.31,8487.17 L 8170.35,8488.48 L 8149.09,8166.4 Z " />
<path stroke="none" fill="#ff0000" transform="matrix(0.05 0 0 0.05 -95 -241)" fill-opacity="0.533333" d="M 8201.56,8202.05 L 8221.51,8200.73 L 8240.2,8483.87 L 8220.24,8485.19 L 8201.56,8202.05 Z " />
<text x="0" y="0" stroke="none" fill="#98cf5c" transform="matrix(0.05 0 0 0.05 144.622 80.8442)" font-style="normal" font-weight="normal" font-size="200px" font-family="Helvetica" fill-opacity="0.662745" >
N</text>
<text x="0" y="0" stroke="none" fill="#98cf5c" transform="matrix(0.05 0 0 0.05 144.622 89.1859)" font-style="normal" font-weight="normal" font-size="200px" font-family="Helvetica" fill-opacity="0.662745" >
H</text>
<text x="0" y="0" stroke="none" fill="#98cf5c" transform="matrix(0.05 0 0 0.05 101.763 123.183)" font-style="normal" font-weight="normal" font-size="200px" font-family="Helvetica" fill-opacity="0.619608" >
N</text>
<text x="0" y="0" stroke="none" fill="#98cf5c" transform="matrix(0.05 0 0 0.05 189.053 123.328)" font-style="normal" font-weight="normal" font-size="200px" font-family="Helvetica" fill-opacity="0.72549" >
N</text>
<text x="0" y="0" stroke="none" fill="#98cf5c" transform="matrix(0.05 0 0 0.05 145.757 158.598)" font-style="normal" font-weight="normal" font-size="200px" font-family="Helvetica" fill-opacity="0.698039" >
H</text>
<text x="0" y="0" stroke="none" fill="#98cf5c" transform="matrix(0.05 0 0 0.05 145.757 166.94)" font-style="normal" font-weight="normal" font-size="200px" font-family="Helvetica" fill-opacity="0.698039" >
N</text>
<text x="0" y="0" stroke="none" fill="#ff0000" transform="matrix(0.05 0 0 0.05 241.582 278.398)" font-style="normal" font-weight="normal" font-size="200px" font-family="Helvetica" fill-opacity="0.247059" >
OH</text>
<text x="0" y="0" stroke="none" fill="#ff0000" transform="matrix(0.05 0 0 0.05 212.954 291.121)" font-style="normal" font-weight="normal" font-size="200px" font-family="Helvetica" fill-opacity="0.796078" >
O</text>
<text x="0" y="0" stroke="none" fill="#ff0000" transform="matrix(0.05 0 0 0.05 329.049 174.273)" font-style="normal" font-weight="normal" font-size="200px" font-family="Helvetica" >
OH</text>
<text x="0" y="0" stroke="none" fill="#ff0000" transform="matrix(0.05 0 0 0.05 312.145 192.609)" font-style="normal" font-weight="normal" font-size="200px" font-family="Helvetica" fill-opacity="0.4" >
O</text>
</svg>
