<?xml version="1.0" standalone="no"?>
<!DOCTYPE svg PUBLIC "-//W3C//DTD SVG 1.1//EN" "http://www.w3.org/Graphics/SVG/1.1/DTD/svg11.dtd" >
<svg xmlns="http://www.w3.org/2000/svg" xmlns:xlink="http://www.w3.org/1999/xlink" version="1.1">
<metadata></metadata>
<defs>
<font id="eb_garamondregular" horiz-adv-x="0" >
<font-face units-per-em="1000" ascent="800" descent="-200" />
<missing-glyph horiz-adv-x="200" />
<glyph />
<glyph unicode="&#xd;" horiz-adv-x="200" />
<glyph />
<glyph />
<glyph unicode=" "  horiz-adv-x="200" />
<glyph unicode="&#x09;" horiz-adv-x="200" />
<glyph unicode="&#xa0;" horiz-adv-x="200" />
<glyph unicode="!" horiz-adv-x="250" d="M111 213.5q-4 8.5 -6 30.5q-10 92 -18 198.5t-8 151.5q0 22 13.5 38.5t33.5 16.5t32.5 -16.5t12.5 -38.5q0 -67 -30 -350q-2 -17 -6.5 -28t-11.5 -11q-8 0 -12 8.5zM82.5 3.5q-17.5 17.5 -17.5 42.5t17.5 42.5t42.5 17.5t42.5 -17.5t17.5 -42.5t-17.5 -42.5t-42.5 -17.5 t-42.5 17.5z" />
<glyph unicode="&#x22;" horiz-adv-x="330" d="M67 451.5q-2 7.5 -2 15.5q1 21 1 57q0 31 -2 63t-2 33q0 10 6 19.5t13 15.5q14 11 23 16t20 5q7 0 10.5 -9t3.5 -23q0 -34 -15.5 -84.5t-31.5 -90.5q-4 -9 -9.5 -17t-9.5 -8q-3 0 -5 7.5zM197 451.5q-2 7.5 -2 15.5q1 21 1 57q0 31 -2 63t-2 33q0 10 6 19.5t13 15.5 q14 11 23 16t20 5q7 0 10.5 -9t3.5 -23q0 -34 -15.5 -84.5t-31.5 -90.5q-4 -9 -9.5 -17t-9.5 -8q-3 0 -5 7.5z" />
<glyph unicode="#" horiz-adv-x="468" d="M53 -75.5q-3 3.5 -3 8.5v3l44 177l-63 -3q-5 0 -9.5 3.5t-4.5 8.5q0 14 5 30.5t19 17.5l67 3l34 138l-64 -3q-5 0 -9.5 3.5t-4.5 8.5q0 14 5 30.5t19 17.5l69 3l42 171q4 17 33 17q4 0 6 -3.5t2 -8.5l-1 -5l-41 -169l113 6l43 174q4 17 33 17q4 0 6 -3.5t2 -8.5l-1 -5 l-42 -172l59 3q5 0 9 -3t4 -8q0 -12 -8.5 -30t-22.5 -19l-56 -3l-34 -138l61 3q5 0 9 -3.5t4 -8.5q0 -12 -8.5 -29.5t-22.5 -18.5l-58 -3l-43 -176q-3 -15 -30 -15q-4 0 -7 3.5t-3 8.5v3l43 174l-114 -6l-44 -179q-3 -15 -30 -15q-4 0 -7 3.5zM263 181l33 138l-113 -6 l-34 -138z" />
<glyph unicode="$" horiz-adv-x="441" d="M159.5 -76.5q-4.5 5.5 -3.5 14.5l9 71v2q0 7 -7 7q-53 9 -97 43q-1 1 -5.5 6.5t-6.5 11.5q-4 14 -5.5 38.5t-2.5 32.5q0 17 -1 24q0 6 5 9t13 3q14 0 15 -10q25 -90 88 -116q3 -2 6 -1.5t3 3.5l27 229v3q0 7 -12 14q-61 36 -95 71.5t-34 86.5q0 68 46 114.5t130 51.5 q4 0 7 2t3 4l7 57q3 17 29 17q5 0 9 -5t4 -10l-7 -60q0 -6 6 -7q24 -4 63 -20q14 -4 20 -22q2 -8 10.5 -37t8.5 -52q0 -10 -14 -10q-9 0 -17 3.5t-10 8.5q-29 69 -72 87q-2 0 -3 -1.5t-1 -3.5l-24 -198l-1 -5q0 -3 3.5 -6t9.5 -7q64 -37 99.5 -75t35.5 -98q0 -76 -50 -124.5 t-134 -53.5q-8 0 -9 -7l-9 -76q-1 -8 -8 -11.5t-17 -3.5q-7 0 -11.5 5.5zM212 405l22 182q0 8 -7 8q-93 -7 -93 -98q0 -26 17.5 -48t51.5 -45q9 -4 9 1zM291.5 84q27.5 28 27.5 74q0 42 -18 66.5t-58 49.5q-3 1 -5 -0.5t-2 -4.5l-25 -206q0 -6 1.5 -8t6.5 -2q45 3 72.5 31z " />
<glyph unicode="%" horiz-adv-x="650" d="M73 288.5q-29 25.5 -43.5 65.5t-14.5 84q0 45 18 86t51 66t76 25q39 0 67 -24t43 -62t15 -80q0 -47 -17 -89.5t-49.5 -69.5t-76.5 -27q-40 0 -69 25.5zM211 328q14 43 14 109q0 65 -15.5 109t-60.5 44q-42 0 -58 -41t-16 -100q0 -71 15.5 -117.5t62.5 -46.5q44 0 58 43z M517.5 661.5q9.5 3.5 23.5 3.5q5 0 9.5 -4t4.5 -9q0 -3 -1 -4l-438 -695q-6 -9 -14.5 -12t-21.5 -3q-6 0 -11.5 4t-5.5 8q0 2 1 3l438 695q6 10 15.5 13.5zM423 8.5q-29 25.5 -43.5 65.5t-14.5 84q0 45 18 86t51 66t76 25q39 0 67 -24t43 -62t15 -80q0 -47 -17 -89.5 t-49.5 -69.5t-76.5 -27q-40 0 -69 25.5zM561 48q14 43 14 109q0 65 -15.5 109t-60.5 44q-42 0 -58 -41t-16 -100q0 -71 15.5 -117.5t62.5 -46.5q44 0 58 43z" />
<glyph unicode="&#x26;" horiz-adv-x="756" d="M121.5 3.5q-39.5 18.5 -61.5 50.5t-22 73q0 75 44.5 127t122.5 88l20 9l-15 16q-5 6 -23 24.5t-30 42t-12 50.5q0 34 20 60t52 40.5t67 14.5q40 0 69 -19t43.5 -47t14.5 -56q1 -73 -105 -112l-14 -5l13 -14q13 -15 24 -25.5t19 -19.5q29 -29 48.5 -51t38.5 -49l12 -18 l18 19q36 39 73 89t37 61q0 7 -8 16.5t-20 11.5q-3 1 -7.5 5t-4.5 6q0 6 7.5 8.5t14.5 2.5l22 -2q51 -3 49 -3q17 0 53 8q28 7 43 7q3 0 7.5 -3t4.5 -6q0 -6 -9 -12t-16 -7q-41 -3 -73 -31q-8 -7 -80.5 -83.5t-98.5 -104.5l17 -24q35 -50 65.5 -75.5t66.5 -25.5q47 0 78 18 q8 5 17 5q7 0 9.5 -2.5t2.5 -9.5q0 -9 -21.5 -25t-51.5 -28.5t-56 -12.5q-37 0 -61.5 12t-44 35t-48.5 69l-13 21l-6 -6l-21 -23q-34 -38 -57.5 -59t-53.5 -35t-69 -14q-51 0 -90.5 18.5zM292 382q26 12 40.5 40t14.5 60q0 37 -17.5 64t-50.5 27q-30 0 -53 -18.5t-23 -45.5 q0 -31 11 -53.5t49 -62.5l16 -17zM322 70q37 20 76 61l9 9l-12 19q-16 25 -39 51t-58 62l-46 49l-12 13l-21 -8q-63 -24 -83.5 -67t-20.5 -99q0 -47 34.5 -78.5t88.5 -31.5q47 0 84 20z" />
<glyph unicode="'" horiz-adv-x="200" d="M67 451.5q-2 7.5 -2 15.5q1 21 1 57q0 31 -2 63t-2 33q0 10 6 19.5t13 15.5q14 11 23 16t20 5q7 0 10.5 -9t3.5 -23q0 -34 -15.5 -84.5t-31.5 -90.5q-4 -9 -9.5 -17t-9.5 -8q-3 0 -5 7.5z" />
<glyph unicode="(" horiz-adv-x="315" d="M220 -207q-37 37 -79.5 119t-71.5 179.5t-29 177.5t28 164t69 153.5t79 107.5q5 5 12.5 8t14.5 3q6 0 14 -5t8 -11q-1 -4 -5.5 -10t-7.5 -9q-52 -60 -90.5 -165.5t-38.5 -223.5q0 -82 18.5 -174.5t48 -168.5t59.5 -111q2 -3 8.5 -10.5t6.5 -8.5q0 -10 -8 -16t-19 -6 q-10 0 -17 7z" />
<glyph unicode=")" horiz-adv-x="315" d="M59 -208q-8 6 -8 16q0 1 6.5 8.5t8.5 10.5q30 35 59.5 111t48 168.5t18.5 174.5q0 118 -38.5 223.5t-90.5 165.5q-3 3 -7.5 9t-5.5 10q0 6 8 11t14 5q7 0 14.5 -3t12.5 -8q38 -38 79 -107.5t69 -153.5t28 -164t-29 -177.5t-71.5 -179.5t-79.5 -119q-7 -7 -17 -7 q-11 0 -19 6z" />
<glyph unicode="*" horiz-adv-x="340" d="M173 377.5q-5 5.5 -6 12.5l-13 92q-27 -19 -79 -50q-4 -4 -11 -4t-12.5 3.5t-5.5 10.5q0 8 9 17l73 58q-47 22 -82 42q-5 2 -8.5 7.5t-3.5 10.5q0 9 9 12.5t16 0.5q29 -13 52 -21q8 -3 16.5 -6.5t18.5 -7.5q-5 43 -6 93q0 9 4.5 15.5t12.5 6.5q7 0 11.5 -5.5t5.5 -12.5 l13 -92q27 19 79 50q4 4 11 4t12.5 -3.5t5.5 -10.5q0 -8 -9 -17l-73 -58q47 -22 82 -42q5 -2 8.5 -7.5t3.5 -10.5q0 -9 -9 -12.5t-16 -0.5q-29 13 -52 21q-8 3 -16.5 6.5t-18.5 7.5q5 -43 6 -93q0 -9 -4.5 -15.5t-12.5 -6.5q-6 0 -11 5.5z" />
<glyph unicode="+" horiz-adv-x="590" d="M274 -3.5q-4 4.5 -4 9.5v211q0 5 -4 5h-202q-5 0 -9.5 3.5t-4.5 8.5q0 11 6 24.5t18 13.5h189q4 0 5.5 1.5t1.5 6.5v171q0 14 18 22.5t28 8.5q5 0 9.5 -4t4.5 -9v-191q0 -6 2 -6h205q5 0 9 -3t4 -7q0 -14 -9 -27t-22 -13h-185q-4 0 -4 -4v-202q0 -13 -17 -18.5t-31 -5.5 q-4 0 -8 4.5z" />
<glyph unicode="," horiz-adv-x="230" d="M24.5 -144q-4.5 3 -4.5 8q0 9 14 12q39 8 67.5 34.5t28.5 74.5q0 13 -12 28t-27 16q-22 2 -34.5 13.5t-12.5 28.5q0 20 16.5 33t38.5 13q36 0 59.5 -27.5t23.5 -69.5q0 -47 -24 -85.5t-58.5 -60t-61.5 -21.5q-9 0 -13.5 3z" />
<glyph unicode="-" horiz-adv-x="274" d="M29 176q0 18 4.5 35.5t11.5 18.5q128 18 192 25q8 0 8 -6q0 -22 -5 -37.5t-16 -16.5l-26 -4q-103 -16 -163 -21q-6 0 -6 6z" />
<glyph unicode="." horiz-adv-x="230" d="M76.5 2.5q-16.5 16.5 -16.5 38.5q0 23 16.5 39t38.5 16q23 0 39 -16t16 -39q0 -22 -16 -38.5t-39 -16.5q-22 0 -38.5 16.5z" />
<glyph unicode="/" horiz-adv-x="399" d="M22.5 -57.5q-4.5 4.5 -1.5 10.5l297 695q5 10 14.5 13.5t24.5 3.5q9 0 12.5 -5t0.5 -12l-297 -695q-4 -9 -13 -12t-23 -3q-10 0 -14.5 4.5z" />
<glyph unicode="0" horiz-adv-x="480" d="M135.5 32.5q-45.5 46.5 -68 119t-22.5 150.5q0 81 22.5 156t70 123.5t117.5 48.5q64 0 109.5 -46.5t68 -118.5t22.5 -149q0 -80 -22.5 -156t-70 -125t-117.5 -49q-64 0 -109.5 46.5zM345.5 93.5q27.5 81.5 27.5 204.5q0 78 -16 147.5t-47 113t-74 43.5q-56 0 -82 -79 t-26 -203q0 -78 15.5 -149t45.5 -115t73 -44q56 0 83.5 81.5z" />
<glyph unicode="1" horiz-adv-x="480" d="M96 0.5q-4 3.5 -4 8.5q0 4 4.5 7.5t10.5 5.5q46 11 67 19.5t32 23.5t11 44v382q0 26 -22 35.5t-62 12.5q-11 1 -18.5 5t-7.5 12q0 7 7 11.5t18 6.5q55 8 87 19.5t63 42.5q1 1 5 1q5 0 9 -2.5t3 -6.5q-4 -27 -4 -71v-460q0 -25 9 -37.5t28.5 -19.5t68.5 -19q7 -2 12 -5.5 t5 -7.5q0 -5 -4 -8t-10 -3q-41 0 -76 3q-46 2 -71 2q-39 0 -75 -3q-48 -2 -75 -2q-7 0 -11 3.5z" />
<glyph unicode="2" horiz-adv-x="480" d="M379 -1q-56 4 -95 4q11 0 -160 -3l-72 -2q-4 0 -12 6.5t-8 10.5q0 5 3.5 8.5l4.5 4.5l171 177q53 54 84.5 119t31.5 128q0 52 -31 83t-76 31q-40 0 -75.5 -22t-56.5 -59q-3 -6 -8 -10t-9 -4t-9.5 9t-5.5 21q0 17 27 49t71.5 56t96.5 24q74 0 117 -45.5t43 -119.5 q0 -40 -20.5 -88t-52.5 -87q-19 -22 -68.5 -73t-71.5 -74q-70 -70 -70 -72q0 -3 4 -4.5t10 -2.5q33 -3 88 -3q60 0 114 3q44 2 60.5 10t34.5 37q14 23 25 23q7 0 7 -12q0 -5 -8 -26q-17 -52 -22 -75q-5 -24 -22 -24z" />
<glyph unicode="3" horiz-adv-x="480" d="M112.5 -30.5q-26.5 7.5 -44.5 17.5t-18 18q0 11 16.5 28.5t27.5 17.5q9 0 16.5 -4t14 -9t8.5 -7q16 -14 33 -22.5t42 -8.5q36 0 70 19.5t55 53t21 73.5q0 63 -31 110.5t-85 47.5q-38 0 -65 -15q-2 -1 -5 -1q-5 0 -9 3t-3 7q7 23 30 34q41 20 83.5 54.5t42.5 79.5 q0 42 -27 73t-67 31q-49 0 -74.5 -20.5t-45.5 -51.5q-4 -7 -7.5 -12t-6.5 -5q-4 0 -10 6t-6 13q0 21 22 52t65.5 54.5t105.5 23.5q33 0 63 -14.5t48.5 -40.5t18.5 -59q0 -40 -25 -79t-80 -71q-3 -2 -3 -4t4 -2q42 0 76.5 -21.5t55 -57.5t20.5 -78q0 -72 -40 -127 t-104.5 -84.5t-133.5 -29.5q-22 0 -48.5 7.5z" />
<glyph unicode="4" horiz-adv-x="480" d="M198 0.5q-6 3.5 -6 9.5q0 5 5.5 8t12.5 4q44 6 60.5 19.5t16.5 38.5v93q0 4 -6 6.5t-9 2.5q-56 0 -113 -3q-44 -2 -130 -4q-4 0 -7 3.5t-3 6.5q0 2 1 3l23 28q6 6 16 19l264 379q19 28 30 28h21q2 0 2 -3t-1.5 -6.5t-2.5 -4.5l-270 -388q-2 -3 -2.5 -6t2.5 -3h173 q4 0 8 2.5t4 5.5v155q0 11 1.5 15t7.5 7q13 7 29 10t27 3q10 0 12.5 -13.5t2.5 -50.5v-129q0 -6 5 -6q15 -1 40 -1q15 0 59 2q4 0 7.5 -2.5t3.5 -5.5q0 -11 -8.5 -24.5t-12.5 -13.5l-49 1q-15 0 -31 -2q-4 -1 -8 -3t-5 -3v-94q0 -29 12.5 -40t54.5 -22q7 -2 12.5 -6t5.5 -8 t-4.5 -7.5t-10.5 -3.5q-39 0 -62 3q-30 2 -51 2q-24 0 -56 -2q-24 -3 -59 -3q-6 0 -12 3.5z" />
<glyph unicode="5" horiz-adv-x="480" d="M83.5 -35q-11.5 3 -11.5 9q0 7 13 13t23 6q75 0 127.5 27.5t79 70.5t26.5 88q0 59 -54.5 98.5t-185.5 73.5q-13 11 -18.5 21.5t-5.5 24.5q0 30 33 115l15 44q10 29 41 36q95 25 207 35h2q7 0 10 -5t-1 -12l-17 -33q-13 -29 -37 -32l-77 -8q-65 -5 -95 -10 q-10 -1 -26.5 -33t-17.5 -46v-4q0 -11 13 -15q122 -36 182 -67q57 -30 84 -70t27 -99q0 -54 -32.5 -102t-89.5 -81q-85 -48 -189 -48q-14 0 -25.5 3z" />
<glyph unicode="6" horiz-adv-x="480" d="M152 8q-47 24 -76 71t-29 114q0 97 38 168t83 116q49 50 117 96t150 68q2 1 6 1q6 0 10 -3t2 -5q-6 -11 -26 -20q-68 -30 -116 -67t-86 -91q-34 -49 -63 -120.5t-29 -140.5q1 -53 22.5 -92.5t55 -60t67.5 -20.5q43 0 72 31t29 89q0 47 -26 82.5t-65 35.5q-27 0 -45 -3 t-35 -12q-6 -2 -7 -2q-4 0 -4 4q0 3 4 9q12 13 27 24q14 11 43.5 22t54.5 11q34 0 64.5 -16t48.5 -44t18 -63q0 -60 -30 -107t-78 -73t-97 -26q-53 0 -100 24z" />
<glyph unicode="7" horiz-adv-x="480" d="M106 -6q0 4 21 41l283 506q2 4 2 5q0 4 -12 5h-256q-26 0 -43.5 -10t-33.5 -36q-14 -25 -24 -25q-7 0 -7 14q0 5 2 12.5t2 9.5q8 34 16 99q1 11 10 11q2 0 26.5 -4.5t57.5 -4.5l99 -1q75 0 145.5 1.5t84.5 3.5q2 0 4 -4.5t2 -8.5q0 -12 -17 -37.5t-21 -32.5l-301 -543 q-15 -27 -19 -27q-21 0 -21 26z" />
<glyph unicode="8" horiz-adv-x="480" d="M155 6q-41 20 -65.5 55t-24.5 80q0 40 21 71t48 50t65 40q5 3 5 5t-8 8l-17 14q-35 30 -54 49.5t-32 47t-13 63.5q0 38 26.5 70.5t69 51.5t86.5 19q40 0 77 -17t59.5 -47.5t22.5 -69.5q0 -32 -14.5 -53.5t-38.5 -42.5q-27 -23 -53 -42q-13 -9 -13 -13q0 -3 8 -8 q66 -46 97.5 -83t31.5 -90q0 -50 -28.5 -91t-74 -64t-94.5 -23q-46 0 -87 20zM332 419q12 34 12 84q0 44 -22.5 73.5t-64.5 29.5q-23 0 -46.5 -13t-38.5 -35.5t-15 -48.5q0 -29 8.5 -48.5t23 -33t44.5 -35.5q36 -27 41 -31q9 -7 14 -3q32 27 44 61zM329.5 47 q29.5 32 29.5 77q0 75 -118 156q-13 10 -20 10q-4 0 -12 -6q-35 -28 -49.5 -55t-14.5 -72q0 -56 30.5 -99t80.5 -43q44 0 73.5 32z" />
<glyph unicode="9" horiz-adv-x="480" d="M53 -23q0 5 4 7.5t10 2.5q45 0 109.5 42.5t112.5 104.5t68.5 122t20.5 133q0 48 -20 95.5t-52.5 78t-67.5 30.5q-31 0 -53 -17t-33.5 -42.5t-11.5 -51.5q0 -30 14.5 -59t38.5 -47.5t50 -18.5q21 0 34.5 4.5t25.5 11t20 10.5h1q4 0 6 -4t0 -7q-10 -18 -33 -35 q-15 -11 -41 -22t-51 -11q-35 0 -67 16.5t-52.5 45.5t-20.5 64q0 46 27 92.5t74 76.5t105 30q47 0 92 -33t72.5 -86.5t27.5 -109.5q0 -89 -35.5 -161t-108.5 -152q-51 -56 -122.5 -87t-129.5 -31q-14 0 -14 8z" />
<glyph unicode=":" horiz-adv-x="248" d="M86.5 278.5q-16.5 16.5 -16.5 38.5q0 23 16.5 39t38.5 16q23 0 39 -16t16 -39q0 -22 -16 -38.5t-39 -16.5q-22 0 -38.5 16.5zM86.5 2.5q-16.5 16.5 -16.5 38.5q0 23 16.5 39t38.5 16q23 0 39 -16t16 -39q0 -22 -16 -38.5t-39 -16.5q-22 0 -38.5 16.5z" />
<glyph unicode=";" horiz-adv-x="228" d="M66.5 279.5q-16.5 16.5 -16.5 38.5q0 23 16.5 39t38.5 16q23 0 39 -16t16 -39q0 -22 -16 -38.5t-39 -16.5q-22 0 -38.5 16.5zM24.5 -144q-4.5 3 -4.5 8q0 9 14 12q39 8 67.5 34.5t28.5 74.5q0 13 -12 28t-27 16q-22 2 -34.5 13.5t-12.5 28.5q0 20 16.5 33t38.5 13 q36 0 59.5 -27.5t23.5 -69.5q0 -47 -24 -85.5t-58.5 -60t-61.5 -21.5q-9 0 -13.5 3z" />
<glyph unicode="&#x3c;" horiz-adv-x="560" d="M94 195q-41 19 -41 27t9.5 23.5t23.5 22.5l403 198q5 3 8 3q9 0 9 -10q0 -11 -8.5 -27.5t-22.5 -23.5l-343 -174q-2 -1 -1.5 -2.5t2.5 -2.5l350 -174q12 -6 18 -21.5t6 -26.5t-11 -11q-3 0 -9 2z" />
<glyph unicode="=" horiz-adv-x="566" d="M54.5 318q-4.5 4 -4.5 8q0 11 6 24.5t18 13.5h428q5 0 9.5 -3.5t4.5 -7.5q0 -11 -10.5 -25t-21.5 -14h-420q-5 0 -9.5 4zM54.5 147q-4.5 4 -4.5 8q0 11 6 24.5t18 13.5h428q5 0 9.5 -3.5t4.5 -7.5q0 -14 -10 -26.5t-22 -12.5h-420q-5 0 -9.5 4z" />
<glyph unicode="&#x3e;" horiz-adv-x="560" d="M466 270q41 -19 41 -27t-9.5 -23.5t-23.5 -22.5l-403 -198q-4 -3 -8 -3q-9 0 -9 10q0 11 8.5 27.5t22.5 23.5l343 174q2 1 1.5 2.5t-2.5 2.5l-350 174q-12 6 -18 21.5t-6 26.5t11 11q3 0 9 -2z" />
<glyph unicode="?" horiz-adv-x="376" d="M124 189.5q-7 8.5 -10 20.5q-2 6 -6.5 20t-7 30.5t-2.5 36.5q0 24 24 43.5t77 46.5q24 12 42.5 31.5t18.5 39.5q0 51 -26 82.5t-75 32.5q-9 0 -23 -2t-24 -2q-16 0 -29 18t-13 38q0 14 13.5 25t26.5 11q26 0 55 -13t53 -37q41 -41 67 -97t26 -96q0 -61 -42 -84 q-49 -27 -86 -51q-19 -12 -25 -31t-7 -48q0 -8 -4 -15.5t-11 -7.5q-5 0 -12 8.5zM107.5 3.5q-17.5 17.5 -17.5 42.5t17.5 42.5t42.5 17.5t42.5 -17.5t17.5 -42.5t-17.5 -42.5t-42.5 -17.5t-42.5 17.5z" />
<glyph unicode="@" horiz-adv-x="749" d="M217 -91q-76 40 -121.5 111t-45.5 161q0 103 50 176.5t133 111.5t181 38q74 0 139.5 -37t105.5 -99.5t40 -135.5q0 -56 -29 -99t-76.5 -66t-101.5 -23q-18 0 -27.5 7.5t-16.5 18.5t-10 11t-22.5 -10.5t-42.5 -18.5t-51 -8q-51 0 -84.5 29t-33.5 80q0 59 29.5 104t78 70 t103.5 25q15 0 35.5 -2.5t29.5 -5.5q18 -6 23 -6t12.5 9.5t12.5 9.5t12.5 -2.5t5.5 -5.5q-6 -16 -12.5 -40t-9.5 -40l-21 -132q-1 -5 -2 -11.5t-1 -15.5q0 -29 18 -29q35 0 66 17t49.5 48t18.5 71q0 68 -35.5 124.5t-94.5 89.5t-128 33q-80 0 -148 -34t-108.5 -97 t-40.5 -145q0 -78 40.5 -142.5t108.5 -102t147 -37.5q48 0 108.5 22.5t98.5 54.5q12 10 18 10q14 0 14 -13t-42 -41t-100 -50.5t-108 -22.5q-89 0 -165 40zM388.5 86.5q13.5 5.5 29.5 16.5q10 7 16.5 17t10.5 32l19 103q1 4 1 12q0 27 -19.5 42.5t-52.5 15.5 q-30 0 -57 -17.5t-44 -51.5t-17 -81q0 -49 24.5 -71.5t58.5 -22.5q17 0 30.5 5.5z" />
<glyph unicode="A" horiz-adv-x="692" d="M6 -1.5q-8 3.5 -8 9.5q0 13 33 23q29 9 50 25.5t36 51.5q53 122 92.5 221.5t94.5 248.5q11 31 14 58q3 1 14.5 4.5t21.5 10.5q8 6 12.5 18t6.5 16q1 1 2.5 0.5t2.5 -1.5q2 -5 3.5 -11t3.5 -11q74 -233 178 -534q19 -55 42 -74.5t59 -25.5q16 -3 24.5 -9.5t8.5 -13.5 q0 -10 -29 -10l-54 2q-56 4 -85 4l-105 -1q-29 0 -29 12q0 6 9.5 11.5t23.5 7.5q61 10 61 45q0 32 -39 162q-2 7 -7.5 9t-19.5 2h-189q-11 0 -17 -18q-11 -32 -26 -83.5t-15 -60.5q0 -21 16.5 -36t41.5 -21q18 -5 25.5 -9t7.5 -11q0 -11 -29 -11q-18 0 -30 1l-61 1 q-17 0 -37.5 -1.5t-30.5 -1.5q-28 -3 -52 -3q-13 0 -21 3.5zM416 282q6 0 10 1t4 4l-2 10l-78 244q-6 18 -9 18q-2 0 -8 -17l-91 -245l-2 -8q0 -5 4.5 -6t16.5 -1h155z" />
<glyph unicode="B" horiz-adv-x="587" d="M19 6q0 7 8 11t25 7q40 7 59 24t19 51v450q0 36 -15.5 53t-51.5 20q-16 1 -24.5 7t-8.5 13q0 11 29 11q45 0 60 -1h44q15 0 43 2q51 3 68 3q120 0 176 -34.5t56 -114.5q0 -31 -10.5 -57t-23.5 -39q-16 -16 -29.5 -24.5t-37.5 -18.5q-4 -2 -4 -5.5t4 -4.5q42 -14 70.5 -30 t50 -48.5t21.5 -86.5q0 -51 -16 -83.5t-37.5 -49t-50.5 -31.5q-68 -34 -170 -34l-30 1q-27 3 -65 3q-25 0 -61 -2q-28 -3 -69 -3q-29 0 -29 11zM375 400q16 9 30.5 33t14.5 62q0 54 -31.5 93t-114.5 39q-39 0 -52.5 -10.5t-13.5 -34.5v-174q0 -37 46 -37q69 0 121 29z M369 57q38 20 61 55t23 77q0 51 -22.5 82t-51.5 47q-45 25 -114 25q-29 0 -43 -11.5t-14 -24.5v-199q0 -40 19 -55.5t60 -15.5q44 0 82 20z" />
<glyph unicode="C" horiz-adv-x="710" d="M230 27.5q-83 42.5 -133.5 119.5t-50.5 176q0 95 53 172.5t142 122.5t191 45q52 0 84.5 -5.5t93.5 -20.5q14 -4 20.5 -12t8.5 -22q8 -78 9 -115q1 -6 -4.5 -10.5t-12.5 -4.5q-13 0 -17 14q-11 43 -24.5 68.5t-37.5 42.5q-25 16 -60.5 25t-76.5 9q-76 0 -137 -40 t-96 -105.5t-35 -139.5q0 -83 35 -159.5t97.5 -124t142.5 -47.5q69 0 116.5 31.5t82.5 93.5q3 6 9 9.5t11 3.5q6 0 10 -4t4 -12q0 -12 -9 -43.5t-18 -53.5q-8 -14 -12 -18t-20 -9q-35 -14 -86 -21.5t-103 -7.5q-94 0 -177 42.5z" />
<glyph unicode="D" horiz-adv-x="754" d="M325 -5q-110 5 -162 5q-17 0 -45 -2q-22 -3 -60 -3q-29 0 -29 13q0 8 6 10t27 6q38 7 52.5 23t14.5 52v450q0 35 -14.5 50.5t-52.5 22.5q-19 3 -26 6.5t-7 11.5q0 13 29 13l57 -1q15 -1 54 -1q41 0 103 5q21 1 38.5 2t29.5 1q130 0 215 -41.5t124.5 -113t39.5 -162.5 q0 -94 -47 -174.5t-127 -127.5t-174 -47zM496.5 66q60.5 38 94 105.5t33.5 153.5q0 92 -40 161t-104.5 105.5t-134.5 36.5q-53 0 -79.5 -3t-41.5 -16t-15 -42v-446q0 -55 40.5 -74t109.5 -19q77 0 137.5 38z" />
<glyph unicode="E" horiz-adv-x="564" d="M37 6q0 7 8 11t25 7q39 7 56.5 23.5t17.5 51.5v450q0 35 -14.5 50.5t-52.5 22.5q-33 6 -33 20q0 11 29 11q38 0 92 -2l85 -1l137 1l85 2q17 0 18 -9q2 -8 8.5 -44t6.5 -59q0 -15 -14 -15q-5 0 -7 2t-4 8q-2 5 -8 26t-14 29q-24 27 -67 27h-131q-10 0 -23 -9.5t-13 -22.5 v-212q0 -9 5.5 -15.5t12.5 -6.5h99q28 0 39 10t19 39q6 22 18 22q4 0 8.5 -4.5t4.5 -11.5l-1 -26l-2 -44l1 -53l1 -24q0 -17 -9 -17q-15 0 -23 32q-6 24 -16.5 34.5t-29.5 10.5h-93q-19 0 -26.5 -5t-7.5 -21v-192q0 -37 15.5 -52t50.5 -15h74q33 0 54.5 4t36.5 13 q15 10 27.5 27.5t29.5 49.5q7 13 14 13q13 0 13 -14q0 -13 -11 -54.5t-20 -61.5q-1 -2 -3 -7t-4.5 -7.5t-6.5 -2.5q-20 0 -176 3q-69 3 -137 3q-28 0 -52 -3q-51 -3 -63 -3q-29 0 -29 11z" />
<glyph unicode="F" horiz-adv-x="512" d="M30 6q0 7 8 11t25 7q38 7 52.5 23.5t14.5 52.5v422q0 48 -12.5 71t-48.5 29q-33 6 -33 20q0 11 29 11q37 0 89 -2l83 -1h126q28 0 64 6q26 4 35 4q17 0 18 -9q2 -15 3.5 -49t1.5 -52q0 -21 -9 -21q-5 0 -9 3.5t-6 8.5q-9 34 -23 49q-24 27 -67 27h-127q-21 0 -27 -12.5 t-7 -37.5t-1 -100q0 -71 1 -95q0 -22 10 -22q27 0 73 2l43 1q21 0 37 11.5t24 29.5q2 4 8.5 10.5t9.5 6.5q4 0 9 -5t4 -11q-3 -34 -3 -55q0 -24 3 -68q0 -17 -9 -17t-15 7.5t-8 15.5q-7 21 -20 30.5t-27 9.5l-50 1q-44 0 -65 -2q-24 -2 -24 -25q0 -125 3 -191 q2 -34 16 -52.5t50 -24.5q17 -3 25 -7t8 -11q0 -11 -29 -11q-32 0 -58 4q-18 3 -40 3q-17 0 -34.5 -1.5t-25.5 -1.5q-38 -4 -66 -4q-29 0 -29 11z" />
<glyph unicode="G" horiz-adv-x="729" d="M220 29q-80 43 -127.5 117.5t-47.5 164.5q0 97 50 177.5t135 127.5t183 47q35 0 107.5 -11.5t92.5 -21.5q5 -2 6.5 -4.5t2.5 -7.5q10 -78 10 -106q0 -8 -4.5 -14t-10.5 -6q-9 0 -14 7t-9 20q-11 30 -31 53q-14 18 -55.5 35.5t-103.5 17.5q-75 0 -134.5 -41.5t-92.5 -111 t-33 -148.5q0 -91 37 -159.5t97 -105t128 -36.5q50 0 79 11.5t43 25.5q13 13 21.5 33t8.5 44q0 18 1 28l1 30q0 24 -5 30q-11 15 -44 23t-54 8q-5 0 -12.5 5t-7.5 12t7.5 12t12.5 5q23 0 59 -2q38 -2 67 -2q18 0 44 2t45 2q6 0 13.5 -4t7.5 -12q0 -6 -8 -11.5t-13 -6.5 q-21 -6 -30 -17t-12 -32q-5 -36 -5 -75v-27q0 -5 2.5 -9.5t3.5 -6.5q2 -3 7.5 -8.5t5.5 -8.5q0 -17 -14 -19q-7 -1 -27 -12q-49 -23 -99 -39t-112 -16q-92 0 -172 43z" />
<glyph unicode="H" horiz-adv-x="810" d="M45 -1.5q-8 3.5 -8 9.5t7 9.5t25 6.5q37 7 49 22.5t12 52.5v452q0 26 -3 38.5t-14 20.5t-36 12q-17 3 -25 7t-8 11q0 13 29 13q30 0 60 -2l43 -1l45 1q32 2 61 2t29 -13q0 -7 -8 -11t-25 -7q-37 -7 -52.5 -24t-15.5 -47v-197q0 -9 14 -9h371q7 0 7 12v195q0 29 -15 46.5 t-51 23.5q-17 3 -25 7t-8 11q0 6 8 9.5t21 3.5q28 0 64 -2l52 -1l35 1q26 2 56 2q29 0 29 -13q0 -7 -8 -11t-25 -7q-34 -6 -43.5 -21.5t-9.5 -48.5v-452q0 -39 10 -54.5t46 -21.5q18 -3 25 -6.5t7 -9.5t-8 -9.5t-21 -3.5q-37 0 -60 3q-26 2 -44 2q-20 0 -46 -2 q-24 -3 -61 -3q-13 0 -21 3.5t-8 9.5t7 9.5t25 6.5q69 13 69 73v195v5q0 4 -1 7t-4 3h-382q-3 0 -4 -3t-1 -8v-190q0 -31 22.5 -53.5t57.5 -28.5q18 -3 25 -6.5t7 -9.5t-8 -9.5t-21 -3.5q-37 0 -64 3q-32 2 -53 2q-20 0 -48 -2q-24 -3 -62 -3q-13 0 -21 3.5z" />
<glyph unicode="I" horiz-adv-x="340" d="M19 6q0 7 8 11t25 7q40 7 59 23.5t19 50.5v452q0 35 -14.5 50t-52.5 22q-33 6 -33 20q0 11 29 11q28 0 64 -2l53 -1l48 1q32 2 61 2t29 -11q0 -14 -33 -20q-39 -7 -55 -22.5t-16 -49.5v-452q0 -34 19.5 -50.5t59.5 -23.5q17 -3 25 -7t8 -11q0 -11 -29 -11q-37 0 -64 3 q-32 2 -53 2q-25 0 -61 -2q-30 -3 -67 -3q-29 0 -29 11z" />
<glyph unicode="J" horiz-adv-x="340" d="M-42.5 -187.5q-26.5 12.5 -26.5 36.5q0 16 13.5 31.5t25.5 15.5q28 0 47 -25q13 -16 23.5 -23t23.5 -7q66 0 66 158v552q0 34 -14.5 49t-51.5 22q-33 6 -33 20q0 11 29 11q28 0 64 -2l53 -1l37 1q26 2 57 2q29 0 29 -11q0 -14 -33 -20q-36 -7 -46.5 -21t-10.5 -50v-504 q0 -56 -23.5 -106t-55.5 -87q-46 -54 -97 -54q-50 0 -76.5 12.5z" />
<glyph unicode="K" horiz-adv-x="681" d="M31 6q0 7 8 11t25 7q38 7 52.5 23.5t14.5 53.5v450q0 34 -14.5 49t-52.5 22q-33 6 -33 20q0 11 29 11l62 -1q15 -1 50 -1q28 0 39 1l58 1q29 0 29 -11q0 -14 -33 -20q-35 -6 -44.5 -22t-9.5 -49v-187q0 -19 5 -19t13 5.5t14 12.5l200 204q15 15 15 30q0 8 -5 14.5 t-14 8.5q-17 5 -24 9t-7 11q0 11 29 11h54q23 0 128 3l34 1q10 0 16 -3t6 -8q0 -14 -33 -20q-94 -17 -152 -66q-54 -45 -96.5 -87t-95.5 -100q-2 -2 -2 -5q0 -6 7 -13l242 -258q35 -39 52 -50.5t58 -20.5q18 -4 25.5 -8t7.5 -10q0 -11 -29 -11q-40 0 -72 3q-40 2 -67 2h-28 q-13 -1 -53 -1q-29 0 -29 11q0 7 6 10.5t21 6.5q28 7 28 20q0 8 -15 25l-212 234q-17 17 -23 17q-4 0 -4 -14q0 -61 5 -199q2 -36 15.5 -58t48.5 -28q17 -3 25 -7t8 -11q0 -11 -29 -11q-32 0 -58 4q-18 3 -40 3q-17 0 -34.5 -1.5t-25.5 -1.5q-38 -4 -66 -4q-29 0 -29 11z " />
<glyph unicode="L" horiz-adv-x="584" d="M34.5 -1.5q-7.5 3.5 -7.5 8.5q0 12 22 17q41 8 61 24t20 48v464q0 24 -5 35.5t-16.5 16.5t-39.5 10q-33 6 -33 20q0 11 29 11q30 0 62 -2l50 -1l60 1q38 2 66 2q29 0 29 -11q0 -14 -33 -20q-47 -9 -68 -19t-21 -36v-471q0 -33 15 -47t62 -14h124q25 0 46 8t32 18 q20 17 29.5 30.5t22.5 40.5q4 10 10 20t12 10t9 -5.5t3 -12.5l-1 -5q-13 -48 -18.5 -73.5t-8.5 -53.5q-2 -17 -14 -17q-107 0 -197 3q-102 2 -146 2q-31 0 -76 -2t-59 -3q-13 0 -20.5 3.5z" />
<glyph unicode="M" horiz-adv-x="901" d="M19 6q0 7 8 11t25 7q52 9 62 78q41 308 41 426q0 23 -1 33q-1 11 -3.5 18.5t-11.5 14.5q-16 14 -31.5 19t-43.5 11q-10 2 -16 7.5t-6 12.5t8.5 9t25.5 2q13 0 75 -4t75 -4q14 0 19 -16l7 -26q9 -36 15 -51l158 -401q3 -9 13 -9q7 0 10 6l197 410q12 45 18 75q3 13 10 13 h36q15 0 72 5q26 3 42 3q21 0 21 -10q0 -7 -5.5 -11t-20.5 -10q-9 -3 -24 -9l-35 -14q-11 -5 -17.5 -14t-6.5 -20q0 -88 3.5 -165t10.5 -180q6 -82 8 -128q1 -31 19 -47.5t56 -23.5q17 -3 25 -7t8 -11q0 -11 -29 -11q-37 0 -64 3q-32 2 -53 2q-17 0 -45 -2q-22 -3 -60 -3 q-29 0 -29 11q0 14 33 18q29 4 40 20t11 52q0 102 -3.5 188.5t-4.5 102.5q-2 25 -4 77q-1 10 -6 10q-4 0 -10 -10l-230 -469q-1 -6 -9 -6q-6 0 -9 7q-69 205 -184 475q-2 5 -7 5t-6 -5q-18 -133 -25 -205t-7 -164q0 -28 17.5 -50t47.5 -28q17 -3 25 -7t8 -11q0 -11 -29 -11 q-37 0 -57 3q-20 2 -37 2q-15 0 -35 -2q-39 -3 -56 -3q-29 0 -29 11z" />
<glyph unicode="N" horiz-adv-x="792" d="M629.5 0q-26.5 17 -47.5 46q-8 12 -116.5 140t-157.5 187q-80 94 -94 111q-13 16 -21 16q-5 0 -7 -6.5t-2 -14.5q-5 -247 -5 -375q0 -68 64 -80q17 -3 25 -7t8 -11q0 -11 -29 -11q-37 0 -57 3q-20 2 -37 2q-15 0 -35 -2q-39 -3 -56 -3q-29 0 -29 11q0 6 7.5 10t25.5 9 q51 14 58 82q7 65 12.5 175.5t5.5 224.5q0 49 -24.5 73t-74.5 40q-9 3 -20 9.5t-11 14.5t7.5 11t15.5 3l70 -3q48 -2 84 -2q8 0 12.5 -3.5t11.5 -13.5q12 -17 169 -208t224 -272q17 -20 25 -20q9 0 10 21q2 76 2 407q-1 18 -20.5 35t-37.5 20q-45 8 -45 20q0 5 13 8t28 3h57 l50 1q32 2 65 2q29 0 29 -11q0 -14 -33 -20q-37 -7 -49 -18t-14 -36q-2 -36 -2 -463q0 -40 4 -76l1 -21q0 -25 -21 -25q-12 0 -38.5 17z" />
<glyph unicode="O" horiz-adv-x="763" d="M212.5 27.5q-76.5 41.5 -122 116.5t-45.5 171q0 92 40 172t117 128.5t184 48.5q88 0 164.5 -41.5t122 -116.5t45.5 -171q0 -92 -40 -172t-117 -128.5t-184 -48.5q-88 0 -164.5 41.5zM563 95.5q59 69.5 59 190.5q0 95 -29 171t-85.5 120.5t-137.5 44.5q-111 0 -170 -68.5 t-59 -188.5q0 -95 28.5 -172t85 -122t137.5 -45q112 0 171 69.5z" />
<glyph unicode="P" horiz-adv-x="552" d="M24 6q0 7 8 11t25 7q39 7 56 23.5t17 52.5v422q0 48 -12.5 71t-48.5 29q-33 6 -33 20q0 11 29 11q43 0 56 -1h42q15 0 35 1t30 2q26 3 46 3q115 0 184 -47.5t69 -130.5q0 -63 -24.5 -114.5t-75 -81.5t-124.5 -30q-20 0 -32.5 6t-12.5 13q0 4 5.5 9t10.5 5q3 0 15.5 -1 t30.5 -1q59 0 90 49t31 139q0 77 -45.5 117t-121.5 40q-64 0 -64 -42v-477q0 -38 15.5 -59t51.5 -28q17 -3 25 -7t8 -11q0 -11 -29 -11q-32 0 -58 4q-18 3 -40 3q-18 0 -36.5 -1.5t-26.5 -1.5q-40 -4 -67 -4q-29 0 -29 11z" />
<glyph unicode="Q" horiz-adv-x="763" d="M626 -229.5q-50 18.5 -103 56.5l-18 13q-33 23 -67.5 48.5t-72.5 57.5q-25 21 -47 32.5t-40.5 19.5t-27.5 12q-205 96 -205 305q0 92 40 172t117 128.5t184 48.5q88 0 164.5 -41.5t122 -116.5t45.5 -171q0 -77 -28 -146.5t-83 -120t-132 -70.5q-8 -2 -8 -7t4 -9 q55 -59 127 -111q50 -36 93 -49.5t102 -13.5q40 0 56 7q12 4 19 4q11 0 11 -8q0 -9 -3.5 -14t-14.5 -12q-55 -33 -117 -33q-68 0 -118 18.5zM563 95.5q59 69.5 59 190.5q0 95 -29 171t-85.5 120.5t-137.5 44.5q-111 0 -170 -68.5t-59 -188.5q0 -95 28.5 -172t85 -122 t137.5 -45q112 0 171 69.5z" />
<glyph unicode="R" horiz-adv-x="713" d="M557.5 -9q-33.5 12 -58.5 42q-46 57 -76 97.5t-76 115.5q-15 25 -43 39q-33 16 -79 21h-2q-13 0 -13 -20v-176q0 -74 67 -86q17 -3 25 -7t8 -11q0 -11 -29 -11q-32 0 -58 4q-18 3 -40 3q-18 0 -36.5 -1.5t-26.5 -1.5q-40 -4 -67 -4q-29 0 -29 11q0 7 8 11t25 7 q39 7 56 23.5t17 52.5v426q0 42 -3.5 59.5t-16 25.5t-41.5 11q-16 1 -24.5 7t-8.5 13q0 11 29 11q43 0 56 -1h42q15 0 45 2q54 3 70 3q110 0 167.5 -41.5t57.5 -122.5q0 -108 -118 -168q-3 -1 -3 -5q0 -3 3 -8q63 -95 101.5 -146t101.5 -108q24 -21 49 -27t66 -6 q15 0 15 -11q0 -19 -26.5 -27t-54.5 -8q-46 0 -79.5 12zM341.5 349.5q34.5 20.5 53 54.5t18.5 73q0 71 -30 110.5t-117 39.5q-31 0 -41.5 -19.5t-12.5 -73.5q-2 -68 -2 -170q0 -23 12 -29t41 -6q44 0 78.5 20.5z" />
<glyph unicode="S" horiz-adv-x="465" d="M63 32q-11 11 -13 20q-4 18 -9 83l-1 22q0 7 5.5 10.5t14.5 3.5q13 0 16 -11q18 -73 56.5 -108t85.5 -35q52 0 86 33.5t34 88.5q0 39 -12.5 64.5t-34.5 43t-66 44.5l-20 12q-49 30 -77 52t-48 54t-20 73q0 80 54 131t155 51q51 0 105 -22q7 -3 13 -10t8 -15 q10 -35 15 -56.5t5 -42.5q0 -11 -15 -11q-9 0 -17.5 4t-10.5 10q-22 55 -50.5 82t-69.5 27q-50 0 -82.5 -27.5t-32.5 -86.5q0 -28 18 -52t45.5 -44t76.5 -50q47 -29 76 -52t49 -57t20 -81q0 -89 -60 -142.5t-158 -53.5q-84 0 -141 48z" />
<glyph unicode="T" horiz-adv-x="670" d="M185 6q0 7 8 11t25 7q39 7 58.5 25t19.5 53v388q0 67 -4.5 90.5t-16.5 25.5q-13 3 -30.5 3.5t-40.5 0.5h-47q-26 0 -49 -10t-33 -29q-6 -12 -18.5 -25t-22.5 -13q-7 0 -7 13q0 10 5 20q14 27 20 49.5t11 55.5q3 23 17 23q3 0 11.5 -11t13.5 -21q6 -10 26.5 -15t43.5 -5 h352q62 0 95 15q6 3 17.5 11.5t21.5 8.5q3 0 5 -7.5t2 -15.5q0 -4 -4 -28l-6 -30q-4 -12 -4 -29v-12q0 -10 -4.5 -21t-11.5 -11t-11 9.5t-8 31.5t-25 34t-67 12h-101q-25 0 -34.5 -6t-12.5 -28.5t-3 -80.5v-393q0 -35 20 -53t59 -25q17 -3 25 -7t8 -11q0 -11 -29 -11 q-37 0 -64 3q-32 2 -53 2q-25 0 -61 -2q-30 -3 -67 -3q-29 0 -29 11z" />
<glyph unicode="U" horiz-adv-x="738" d="M172 54q-69 68 -69 186v307q0 33 -13 50.5t-33 22.5q-33 9 -33 22q0 11 29 11l43 -1q32 -2 53 -2l48 1q12 1 32 1q29 0 29 -11q0 -6 -7 -10t-26 -10q-14 -4 -28 -24.5t-14 -47.5v-281q0 -116 57 -174t153 -58q100 0 149.5 69.5t49.5 190.5q0 61 -4 215q-1 42 -11 72.5 t-30 36.5q-33 9 -33 20t29 11l75 -1q19 0 47 2l34 1q29 0 29 -11q0 -13 -33 -20q-47 -9 -50 -75q-4 -61 -5.5 -124.5t-2.5 -85.5q0 -29 -2 -87q-2 -76 -37 -136.5t-94 -94t-132 -33.5q-131 0 -200 68z" />
<glyph unicode="V" horiz-adv-x="672" d="M307 -5q-3 7 -21 61l-183 491q-22 59 -70 73q-17 6 -25 11t-8 11q0 11 29 11l49 -1q46 -2 73 -2l68 1q14 1 34 1q29 0 29 -11q0 -7 -8.5 -13t-24.5 -7q-65 -7 -65 -39q0 -19 5 -33t6 -16l144 -380q2 -5 5 -5t6 6l137 360q10 26 10 47q0 27 -15.5 41.5t-41.5 17.5 q-15 2 -24 7.5t-9 12.5q0 11 29 11l99 -1q24 0 68 2l46 1q29 0 29 -11q0 -13 -33 -20q-34 -8 -59.5 -32.5t-38.5 -54.5l-188 -456l-7 -19q-12 -39 -24 -65q-3 -7 -10 -7q-8 0 -11 7z" />
<glyph unicode="W" horiz-adv-x="916" d="M321 12l-216 542q-24 52 -72 66q-17 6 -25 11t-8 11q0 11 29 11l42 -1q30 -2 47 -2l60 1q13 1 33 1q29 0 29 -11q0 -7 -7.5 -11t-25.5 -9q-20 -5 -20 -33q0 -13 3.5 -26t4.5 -17q45 -116 79 -197.5t85 -195.5q4 -10 8 -10t7 9l78 193q6 15 6 23t-8 29l-57 142 q-12 30 -39 52t-56 30q-17 5 -25 10.5t-8 11.5q0 11 29 11l43 -1q32 -2 51 -2l46 1q12 1 31 1q29 0 29 -11q0 -5 -4.5 -9t-13.5 -9q-23 -10 -23 -24q0 -2 2 -8q7 -20 20.5 -54.5t24.5 -58.5q1 -2 3.5 -7.5t5.5 -5.5t9 13q20 45 40 113q1 3 1 7q0 9 -5.5 14.5t-15.5 11.5 q-1 1 -6 4t-7.5 6t-2.5 7q0 11 29 11l32 -1q6 -1 20 -1l29 1q18 2 30 2q29 0 29 -11q0 -13 -33 -20q-30 -7 -42 -16t-26 -32q-8 -14 -24.5 -52t-28.5 -71q-4 -9 -6 -21t0 -17l103 -265q2 -4 3 -4q3 0 8 10q38 101 122 387q6 18 6 36q0 35 -30 43q-33 9 -33 20t29 11l72 -1 q19 0 51 2l39 1q29 0 29 -11q0 -13 -33 -20q-53 -12 -82 -88l-177 -523q-2 -6 -6.5 -14.5t-9.5 -8.5q-4 0 -9 6t-8 13q-37 83 -78 193l-45 116q-3 6 -4 6q-2 0 -7 -12q-34 -81 -57.5 -141t-56.5 -154q-4 -12 -10 -21.5t-12 -9.5q-3 0 -14 28z" />
<glyph unicode="X" horiz-adv-x="707" d="M-5 6q0 7 8 12t25 10q31 9 73 35t70 61l125 156q15 21 15 34t-10 27l-134 188q-34 47 -59.5 65.5t-56.5 27.5q-17 6 -25 11t-8 11q0 11 29 11q13 0 57 -2q14 -1 35.5 -2t50.5 -1l68 1q13 1 31 1q29 0 29 -11q0 -6 -7 -10t-26 -10q-30 -9 -40.5 -14.5t-10.5 -16.5 q0 -16 33 -62l91 -128q11 -15 16 -15t14 12l107 141q26 33 26 51q0 23 -45 31q-12 3 -22.5 8.5t-10.5 11.5q0 11 29 11l81 -1q22 0 39 1t28 2q27 3 47 3q29 0 29 -11q0 -7 -7.5 -11t-25.5 -9q-26 -7 -57.5 -36.5t-72.5 -78.5l-115 -136q-8 -9 -12.5 -16t-4.5 -12q0 -4 3 -12 l155 -223q23 -33 51 -55.5t56 -29.5q18 -5 25.5 -9t7.5 -11q0 -11 -29 -11l-54 2q-58 4 -89 4l-103 -1q-29 0 -29 11t33 20q17 5 30.5 17.5t13.5 29.5t-12 33l-104 151q-8 11 -13 11q-4 0 -9 -6l-135 -174q-9 -12 -9 -23q0 -14 12 -24.5t33 -15.5q18 -5 25.5 -9t7.5 -11 q0 -11 -29 -11q-18 0 -30 1l-59 1q-25 0 -43 -1t-30 -2q-28 -3 -53 -3q-29 0 -29 11z" />
<glyph unicode="Y" horiz-adv-x="578" d="M153 6q0 7 8 11t25 7q78 14 78 84v148q0 17 -8.5 38.5t-16.5 35.5l-117 192q-55 88 -89 98q-17 6 -25 11t-8 11q0 11 29 11l46 -1q44 -2 71 -2l48 1q12 1 32 1q29 0 29 -11q0 -12 -33 -20q-17 -4 -24.5 -9.5t-7.5 -15.5q0 -13 13 -36l92 -170q20 -38 28 -38q6 0 12 7.5 t21 30.5q30 48 66 112q4 8 18 32q18 30 18 51q0 29 -41 35q-11 2 -22 8t-11 12q0 11 29 11l75 -1q28 0 66 2l38 1q29 0 29 -11q0 -6 -13.5 -12t-39.5 -13q-24 -7 -40.5 -25t-47.5 -66q-53 -82 -111 -176q-18 -30 -21.5 -44t-3.5 -46v-152q0 -34 20.5 -55.5t58.5 -28.5 q17 -3 25 -7t8 -11q0 -11 -29 -11q-37 0 -64 3q-32 2 -53 2q-25 0 -61 -2q-30 -3 -67 -3q-29 0 -29 11z" />
<glyph unicode="Z" horiz-adv-x="603" d="M363 -3l-132 1l-119 -1h-77q-4 0 -5.5 6t-1.5 8q0 7 19 36.5t39 56.5q16 23 63 86q93 127 152.5 210.5t132.5 192.5q4 6 4 8q0 7 -19 8q-72 2 -146 2q-77 0 -102 -2q-28 -3 -57 -21.5t-41 -52.5q-6 -14 -12 -23t-16 -9q-9 0 -9 11q0 8 7 27q24 71 27 118q1 17 15 17 q3 0 14 -5.5l17 -8.5q12 -5 37.5 -10.5t48.5 -5.5h126q120 0 231 3q5 0 9.5 -7t1.5 -11l-61 -81q-124 -168 -188.5 -258.5t-149.5 -221.5q-3 -4 -3 -12q0 -6 3 -11t8 -6q48 -5 113 -5q63 0 141 5q44 4 74 30.5t50 78.5q3 7 9 14t13 7q9 0 9 -13q0 -9 -14.5 -69t-22.5 -77 q-4 -9 -7.5 -13t-10.5 -4q-64 0 -170 2z" />
<glyph unicode="[" horiz-adv-x="331" d="M116 -196q-6 4 -6 21v843q0 17 3 24t10 8.5t25 1.5l145 -1q18 0 18 -13t-26 -15l-79 -6q-7 -1 -15 -9t-8 -16v-763q0 -13 7 -22t16 -11l79 -13q26 -4 26 -18q0 -15 -26 -15h-144q-19 0 -25 4z" />
<glyph unicode="\" horiz-adv-x="399" d="M339 -59q-9 3 -13 12l-297 695q-1 2 -1 6q0 11 14 11q15 0 24.5 -3.5t14.5 -13.5l297 -695l1 -4q0 -5 -4.5 -8t-12.5 -3q-14 0 -23 3z" />
<glyph unicode="]" horiz-adv-x="331" d="M215 -196q6 4 6 21v843q0 17 -3 24t-10 8.5t-25 1.5l-145 -1q-18 0 -18 -13t26 -15l79 -6q7 -1 15 -9t8 -16v-763q0 -13 -7 -22t-16 -11l-79 -13q-26 -4 -26 -18q0 -15 26 -15h144q19 0 25 4z" />
<glyph unicode="^" horiz-adv-x="500" d="M50.5 287q-2.5 3 -2.5 8q0 6 3 10l197 298h3l198 -298q3 -4 3 -10q0 -11 -9 -11q-11 0 -23.5 5.5t-17.5 12.5l-148 212q-4 5 -5.5 5t-4.5 -5l-146 -211q-6 -8 -18.5 -13.5t-22.5 -5.5q-4 0 -6.5 3z" />
<glyph unicode="_" horiz-adv-x="500" d="M496.5 -135.5q4.5 -3.5 4.5 -7.5q0 -11 -10.5 -25t-21.5 -14h-455q-5 0 -9.5 3.5t-4.5 8.5q0 11 6 24.5t18 13.5h463q5 0 9.5 -3.5z" />
<glyph unicode="`" horiz-adv-x="200" d="M140 478q-21 21 -56 62.5t-52 66.5q-2 2 -6 8t-4 13q0 10 14.5 15.5t34.5 5.5q7 0 14.5 -5t12.5 -13q17 -29 42.5 -76t34.5 -71q4 -11 4 -18q0 -9 -8 -9q-10 0 -31 21z" />
<glyph unicode="a" horiz-adv-x="399" d="M81 -0.5q-19 13.5 -31.5 34t-12.5 38.5q0 31 16.5 49t54.5 34l102 42q19 8 23 14t5 26l2 64q1 27 -15 45.5t-44 18.5q-15 0 -30 -5t-25 -13q-10 -7 -10 -29l1 -18q0 -8 -25.5 -21.5t-40.5 -13.5q-5 0 -8 2.5t-3 6.5q0 16 10.5 34.5t29.5 34.5q34 31 76.5 51t72.5 20 q36 0 59.5 -25.5t22.5 -63.5l-5 -240q-1 -21 9 -34t27 -13q25 0 37 11q5 5 8 5q5 0 8 -3t3 -8q0 -4 -3 -10.5t-8 -11.5q-16 -16 -34.5 -25.5t-34.5 -9.5q-46 0 -73 52h-3q-33 -27 -63 -39.5t-62 -12.5q-17 0 -36 13.5zM223 58q6 6 9 15t4 26l2 49v6q0 8 -2 11.5t-7 3.5 q-6 0 -20 -5q-50 -18 -72 -38t-22 -39q0 -25 14.5 -39t34.5 -14q35 0 59 24z" />
<glyph unicode="b" horiz-adv-x="515" d="M173 -1q-6 2 -12.5 4t-13.5 4q-9 2 -20 5t-14 3q-9 0 -22 -13q-5 -5 -9 -5q-5 0 -9.5 3.5t-4.5 8.5q0 9 3 24q4 30 4 48v485q0 26 -12.5 45t-33.5 28q-13 7 -13 15t12 10q17 3 52 16.5t53 21.5q6 3 9 3q2 0 4 -2t2 -5t-1.5 -32.5t-1.5 -72.5v-205q0 -19 2 -25.5t7 -7.5 q31 26 72 42.5t74 16.5q50 0 91 -26t65 -71t24 -100q0 -68 -28 -120.5t-78 -81.5t-115 -29q-38 0 -86 13zM371.5 67.5q33.5 50.5 33.5 127.5q0 41 -15.5 82t-46.5 68t-76 27q-73 0 -122 -46v-194q0 -51 41 -83t96 -32q56 0 89.5 50.5z" />
<glyph unicode="c" horiz-adv-x="407" d="M122.5 10.5q-40.5 25.5 -64 70t-23.5 99.5q0 64 28.5 117.5t76.5 85t106 31.5q65 0 114 -35q12 -9 12 -19q0 -13 -15 -27t-28 -14q-5 0 -10 3.5t-11 7.5q-25 19 -51 33t-43 14q-49 0 -79.5 -46t-30.5 -119q0 -46 20 -84.5t55 -60.5t77 -22q29 0 50 9.5t45 33.5q5 5 10 5 t8 -4t3 -10q0 -11 -15 -31q-24 -31 -61 -47t-83 -16q-50 0 -90.5 25.5z" />
<glyph unicode="d" horiz-adv-x="506" d="M350.5 -15q-4.5 4 -4.5 6l2 26q3 18 3 34v6q-18 -28 -52 -49.5t-79 -21.5q-55 0 -97 29t-65 76.5t-23 98.5q0 59 27.5 110.5t78.5 82.5t119 31q19 0 39 -3.5t33 -7.5q9 -3 13 -3q3 0 5 6t2 18v142q0 38 -12 53t-38 20q-9 2 -9 13q0 9 8 12q53 13 79 24.5t29 12.5 q8 3 13 3q6 0 7 -6q0 -6 -3.5 -38t-3.5 -98v-452q0 -35 5 -50t16 -15q17 0 43 3h5q13 0 13 -9q0 -7 -4.5 -12.5t-9.5 -5.5q-54 -7 -117 -34q-11 -6 -16 -6q-2 0 -6.5 4zM307 51.5q25 13.5 44 35.5l1 180q0 27 -15.5 53t-44 42.5t-63.5 16.5q-27 0 -55 -15t-48 -52t-20 -99 q0 -69 26 -108t60 -53t64 -14q26 0 51 13.5z" />
<glyph unicode="e" horiz-adv-x="390" d="M117.5 12q-41.5 27 -64.5 76.5t-23 114.5q0 56 26.5 105t70.5 77.5t96 28.5q60 0 98.5 -35.5t38.5 -90.5q0 -31 -30 -31h-211q-14 0 -19.5 -7.5t-5.5 -29.5q0 -47 20.5 -87t56 -63.5t77.5 -23.5q59 0 98 45q6 8 11 8q8 0 8 -10q0 -19 -18 -42q-22 -29 -58 -45.5 t-76 -16.5q-54 0 -95.5 27zM212 288q47 0 74 5q8 1 8 22q0 29 -25.5 49.5t-60.5 20.5q-22 0 -45.5 -13.5t-38.5 -33.5t-15 -40q0 -10 12 -10h91z" />
<glyph unicode="f" horiz-adv-x="318" d="M24 8q0 7 5.5 10t17.5 6q24 5 33.5 14.5t9.5 29.5v282q-31 0 -52 2q-3 1 -8.5 7t-5.5 11q0 3 7 6l59 30q0 107 34.5 174.5t85 96.5t100.5 29q54 0 82 -16.5t28 -43.5q0 -19 -10 -29.5t-24 -10.5q-7 0 -12.5 4t-12 10t-9.5 9q-16 16 -35 26t-49 10q-49 0 -78.5 -42.5 t-29.5 -124.5v-88q0 -10 11 -10h125q5 0 9 -3.5t4 -7.5q0 -17 -6 -29q-3 -8 -9 -8h-115q-11 0 -15 -3t-4 -10v-271q0 -21 13.5 -30.5t52.5 -13.5q23 -3 23 -16q0 -11 -20 -11q-30 0 -54 3q-32 2 -48 2q-18 0 -38 -2q-18 -3 -45 -3q-20 0 -20 11z" />
<glyph unicode="g" horiz-adv-x="435" d="M437 384q4 -4 4 -11q0 -9 -10 -19q-5 -5 -8 -5h-27q-27 0 -30 -8q-6 -18 -6 -46q0 -50 -22 -93.5t-58.5 -69.5t-78.5 -26q-29 0 -53 10q-18 -9 -30 -21t-12 -21q0 -42 130 -50q92 -5 137 -30t45 -71q0 -50 -33 -100t-85 -81.5t-105 -31.5q-85 0 -134.5 32t-49.5 88 q0 26 8 43.5t25 31.5l40 32l44 35q-47 9 -67.5 26t-20.5 46q0 18 23 37q24 18 37 28.5t19 19.5q-36 21 -58 55.5t-22 73.5q0 45 24 81t64 56.5t86 20.5q30 0 72 -14q7 -3 21 -7q22 -6 36 -8t31 -2q11 0 33 2l22 1q5 0 9 -4zM269.5 179.5q25.5 38.5 25.5 95.5q0 28 -13.5 54 t-35.5 41.5t-46 15.5q-23 0 -43.5 -16t-33 -43t-12.5 -57q0 -34 13 -64t35 -47.5t48 -17.5q37 0 62.5 38.5zM322 -59q-35 17 -115 22q-29 2 -43 4q-43 -29 -60.5 -56.5t-17.5 -65.5q0 -40 35.5 -67.5t87.5 -27.5q59 0 95 27q25 19 39 49.5t14 64.5q0 33 -35 50z" />
<glyph unicode="h" horiz-adv-x="515" d="M19 8q0 6 5 9t18 7q20 6 31 14.5t12 26.5v501q0 64 -44 72q-9 2 -9 14q0 9 8 12q79 25 111 39q4 2 6 2q7 0 7 -7q0 -5 -4.5 -30.5t-4.5 -105.5v-174q0 -15 1.5 -22.5t5.5 -14.5q85 63 152 63q49 0 81.5 -39t32.5 -97v-210q0 -32 41 -44q12 -3 17.5 -6.5t5.5 -9.5 q0 -11 -20 -11q-25 0 -42 3q-20 2 -36 2t-36 -2q-16 -3 -42 -3q-20 0 -20 11q0 6 4.5 8.5t18.5 7.5q18 6 28.5 16t10.5 28v204q0 24 -14 44.5t-35.5 33t-43.5 12.5q-21 0 -45.5 -6t-37.5 -16q-16 -13 -21.5 -27.5t-5.5 -44.5v-203q1 -18 11 -26.5t28 -14.5q11 -3 16.5 -6.5 t5.5 -9.5t-4.5 -8.5t-15.5 -2.5q-26 0 -41 3q-18 2 -35 2q-16 0 -38 -2q-16 -3 -43 -3q-20 0 -20 11z" />
<glyph unicode="i" horiz-adv-x="245" d="M24 8q0 7 5.5 10t17.5 6q23 6 33 13.5t10 24.5v217q0 66 -45 73q-10 1 -10 13q0 11 9 12q61 14 105 50q9 7 14 7q6 0 6 -5q0 -11 -3 -38q-1 -12 -3.5 -44.5t-2.5 -52.5v-232q0 -16 10.5 -24t32.5 -14q12 -3 17.5 -6t5.5 -10q0 -11 -20 -11q-25 0 -42 3q-22 2 -39 2 q-16 0 -38 -2q-16 -3 -43 -3q-20 0 -20 11zM88.5 530.5q-14.5 14.5 -14.5 35.5q0 22 14.5 36.5t35.5 14.5q22 0 36.5 -14.5t14.5 -36.5q0 -21 -14.5 -35.5t-36.5 -14.5q-21 0 -35.5 14.5z" />
<glyph unicode="j" horiz-adv-x="226" d="M-13 -284.5q-7 2.5 -7 7.5t4 10t7 7q41 10 66 63q32 67 32 266v210q0 64 -46 73q-4 1 -6 4.5t-2 8.5q0 4 2 7.5t5 4.5q29 7 51 18.5t35.5 20.5t17.5 11q12 7 13 7q7 0 7 -5q-7 -72 -7 -154v-184q0 -69 -5.5 -129.5t-24.5 -113.5q-12 -33 -35 -64.5t-48 -51t-45 -19.5 q-7 0 -14 2.5zM80.5 530.5q-14.5 14.5 -14.5 35.5q0 22 14.5 36.5t35.5 14.5q22 0 36.5 -14.5t14.5 -36.5q0 -21 -14.5 -35.5t-36.5 -14.5q-21 0 -35.5 14.5z" />
<glyph unicode="k" horiz-adv-x="469" d="M19 8q0 6 4.5 8.5t10 4.5t8.5 3q20 6 31.5 14.5t11.5 26.5v501q0 35 -10 51t-35 22q-9 2 -9 13q0 10 8 12q34 8 56.5 16t53.5 22q6 3 9 3q6 0 6 -9q0 -7 -4.5 -40.5t-4.5 -93.5v-328q0 -9 5 -9q13 0 36 20q68 59 106 103q9 10 9 15q0 9 -26 15q-7 2 -9.5 4t-2.5 6 q0 5 6 8.5t16 3.5h49q14 0 56 7q23 5 35 5q14 0 14 -10q0 -11 -25 -18q-28 -8 -66 -31q-9 -6 -49.5 -39.5t-78.5 -66.5q-6 -6 -6 -10t3 -7q34 -42 79.5 -90t67.5 -68q15 -15 36.5 -27.5t38.5 -18.5q4 -1 12.5 -4t13 -6t4.5 -8q0 -11 -20 -11l-81 1q-68 2 -106 2q-18 0 -18 9 q0 10 17 16q13 4 20 9.5t7 13.5q0 5 -7 14l-121 137q-6 7 -10 7q-5 0 -5 -7q-1 -19 -1 -64q0 -47 1 -70q0 -19 9 -27.5t26 -13.5q3 -1 9.5 -3t10 -5t3.5 -8q0 -6 -8 -8.5t-15 -2.5q-25 0 -37 3q-16 2 -33 2t-37 -2q-15 -3 -41 -3q-23 0 -23 11z" />
<glyph unicode="l" horiz-adv-x="240" d="M19 6q0 7 5.5 10.5t17.5 7.5q22 7 32.5 13.5t10.5 24.5v504q0 63 -46 73q-4 1 -6 4.5t-2 8.5q0 10 7 12q39 9 89 30l24 9q4 2 6 2t3.5 -2.5t1.5 -4.5q0 -6 -3.5 -38t-3.5 -98v-500q0 -18 10.5 -24.5t32.5 -13.5q12 -4 17.5 -7.5t5.5 -10.5q0 -9 -20 -9q-26 0 -43 3 q-22 2 -38 2t-38 -2q-16 -3 -43 -3q-20 0 -20 9z" />
<glyph unicode="m" horiz-adv-x="778" d="M24 8q0 6 5.5 9t17.5 7q22 7 32.5 13.5t10.5 24.5v215q0 32 -7.5 50t-30.5 22q-9 2 -9 13q0 10 8 12q27 7 43 14.5t37 22.5l22 15q1 0 3.5 2t5.5 2q2 0 4 -2t2 -5l-2 -21q-1 -8 -2 -19.5t-1 -23.5q0 -10 2 -12h2q69 67 156 67q37 0 61 -16t39 -53h3q78 69 163 69 q46 0 73 -41.5t27 -97.5v-213q0 -18 10.5 -24.5t32.5 -13.5q12 -4 17.5 -7t5.5 -9t-4.5 -8.5t-15.5 -2.5q-27 0 -42 3q-20 2 -37 2q-18 0 -38 -2q-18 -3 -45 -3q-20 0 -20 11q0 7 5.5 10t17.5 6q21 5 32 12.5t11 25.5v210q0 37 -24 66t-56 29q-53 0 -87 -27q-28 -22 -28 -72 v-206q0 -18 12 -25.5t33 -12.5q23 -5 23 -16t-20 -11q-27 0 -44 3q-22 2 -38 2q-18 0 -38 -2q-18 -3 -45 -3q-20 0 -20 11q0 6 4.5 8.5t10 4.5t8.5 3q23 7 33.5 13.5t10.5 24.5v210q0 37 -24 66t-56 29q-53 0 -87 -27q-27 -20 -27 -72v-206q0 -18 10.5 -24.5t32.5 -13.5 q3 -1 9.5 -3t10 -5t3.5 -8q0 -11 -20 -11q-26 0 -43 3q-22 2 -38 2t-38 -2q-16 -3 -43 -3q-20 0 -20 11z" />
<glyph unicode="n" horiz-adv-x="528" d="M24 8q0 7 5 9.5t18 6.5q21 5 32 12.5t11 25.5v215q0 32 -7 49t-30 23q-10 3 -10 13q0 11 9 12q31 8 52.5 20t47.5 31q7 5 11 5q5 0 5 -7l-2 -21q-1 -8 -2 -19.5t-1 -23.5q0 -10 2 -12q36 34 75 50.5t86 16.5q48 0 80.5 -40t32.5 -99v-213q0 -18 10.5 -24.5t32.5 -13.5 q12 -4 17.5 -7.5t5.5 -10.5q0 -9 -20 -9q-27 0 -43 3q-20 2 -37 2q-16 0 -38 -2q-16 -3 -44 -3q-20 0 -20 9q0 7 5.5 10.5t17.5 7.5q22 7 32.5 13.5t10.5 24.5v210q0 43 -24.5 68t-65.5 26q-62 0 -111 -40q-8 -8 -8 -23v-241q0 -18 11 -25.5t32 -12.5q12 -3 17.5 -6.5 t5.5 -9.5q0 -11 -20 -11q-26 0 -43 3q-22 2 -38 2t-38 -2q-16 -3 -43 -3q-20 0 -20 11z" />
<glyph unicode="o" horiz-adv-x="495" d="M133.5 12q-45.5 26 -72 72t-26.5 103q0 55 29.5 108t80 86t109.5 33q57 0 104 -27.5t74.5 -74t27.5 -99.5q0 -60 -26 -112t-77 -83.5t-123 -31.5q-55 0 -100.5 26zM358 71q20 39 20 118q0 48 -18 93t-50 73t-73 28q-29 0 -50 -9t-38 -31q-18 -23 -25 -56.5t-7 -76.5 q0 -50 18 -94.5t49.5 -72t70.5 -27.5q75 0 103 55z" />
<glyph unicode="p" horiz-adv-x="519" d="M19 -276q0 7 5.5 10.5t17.5 7.5q22 7 32.5 13.5t10.5 24.5v507q0 17 -12 42.5t-34 30.5q-4 1 -6 4.5t-2 8.5q0 10 7 12q44 10 77 23.5t39 16.5l2 1q2 0 4 -3t2 -6l-2 -26q-3 -18 -3 -34q0 -8 1 -9q11 11 38.5 26.5t61 27.5t62.5 12q49 0 86.5 -27t57.5 -70.5t20 -91.5 q0 -59 -30 -114.5t-82 -90t-113 -34.5q-22 0 -54 9.5t-46 22.5q-2 0 -3 -20t-1 -31v-187q0 -15 13 -22.5t26.5 -11t18.5 -4.5q12 -4 17.5 -7.5t5.5 -10.5q0 -9 -22 -9q-27 0 -50 3q-26 2 -44 2q-16 0 -38 -2q-16 -3 -42 -3q-21 0 -21 9zM328.5 34.5q30.5 17.5 53 57.5 t22.5 101q0 101 -43.5 138.5t-92.5 37.5q-22 0 -48 -9.5t-44 -22.5t-18 -20q0 -45 -2 -105q-1 -20 -1 -46q0 -39 18 -73.5t46 -55t55 -20.5q24 0 54.5 17.5z" />
<glyph unicode="q" horiz-adv-x="522" d="M311 -276q0 7 5.5 10.5t17.5 7.5q22 7 32.5 13.5t10.5 24.5v233q0 30 -6 30h-4t-5 -2q-20 -18 -56 -36.5t-71 -18.5q-53 0 -99 22.5t-73.5 66t-27.5 103.5q0 70 31 123.5t87 83t129 29.5q53 0 89 -10.5t39 -11.5q10 0 15 5.5t11 19.5q4 4 7 4q5 0 10.5 -3t5.5 -7 q0 -7 -3 -22q-9 -49 -9 -94v-515q0 -16 11.5 -23t24 -10.5t16.5 -4.5q12 -4 17.5 -7.5t5.5 -10.5q0 -9 -20 -9q-27 0 -48 3q-24 2 -42 2q-16 0 -38 -2q-16 -3 -43 -3q-20 0 -20 9zM333.5 51.5q30.5 12.5 44.5 28.5q0 170 -1 195q-2 45 -36.5 76t-83.5 31q-37 0 -69 -21 t-51.5 -61t-19.5 -95q0 -62 24.5 -99t60 -52t70.5 -15q31 0 61.5 12.5z" />
<glyph unicode="r" horiz-adv-x="334" d="M29 8q0 7 5 9.5t18 6.5q38 9 38 38v215q0 30 -9 48.5t-32 23.5q-4 1 -7 5t-3 8t3 7.5t6 4.5q40 13 99 49q11 7 15 7q5 0 5 -7q0 -27 -3 -75q0 -2 2 -2q25 30 56 49t59 19q21 0 34.5 -9t13.5 -23q0 -16 -12.5 -34t-26.5 -18q-10 0 -28 9q-3 1 -13.5 5t-18.5 4 q-29 0 -49 -19t-20 -65v-202q0 -13 13 -21.5t40 -16.5q12 -4 17.5 -7t5.5 -9q0 -11 -20 -11q-27 0 -47 3q-24 2 -40 2t-38 -2q-16 -3 -43 -3q-20 0 -20 11z" />
<glyph unicode="s" horiz-adv-x="323" d="M86 -4.5q-27 9.5 -46 26.5q-8 16 -11 80q0 9 13 9q11 0 12 -7q12 -46 39.5 -68.5t59.5 -22.5q29 0 49.5 19.5t20.5 48.5q0 26 -17.5 45.5t-63.5 48.5q-52 32 -73.5 59.5t-21.5 64.5q0 50 35 82.5t100 32.5q28 0 48.5 -5.5t31.5 -13.5q8 -11 13.5 -34.5t5.5 -44.5 q0 -7 -10 -7q-6 0 -12 2.5t-7 6.5q-14 34 -33.5 51t-47.5 17q-26 0 -45 -16t-19 -43q0 -24 14.5 -41.5t54.5 -40.5q63 -36 89 -64.5t26 -72.5q0 -54 -41 -88t-106 -34q-31 0 -58 9.5z" />
<glyph unicode="t" horiz-adv-x="314" d="M112 16.5q-27 30.5 -27 88.5v232q0 9 -6.5 12t-25.5 3h-6q-5 0 -8.5 6t-3.5 14q0 2 2.5 5.5t4.5 5.5q54 38 89 80q4 5 8 8.5t9 3.5q14 0 13 -11l-5 -45v-4q0 -9 6 -12t18 -3h114q4 0 7 -6.5t3 -15.5t-3 -17.5t-7 -8.5h-99q-27 0 -33.5 -4t-6.5 -24v-197q0 -41 17 -63.5 t49 -22.5q28 0 44.5 4t29.5 14l4 2q7 0 7 -14q0 -6 -18 -21.5t-44.5 -27.5t-54.5 -12q-50 0 -77 30.5z" />
<glyph unicode="u" horiz-adv-x="527" d="M359 -11l2 27q3 20 3 35v6q-38 -38 -78 -54.5t-87 -16.5q-51 0 -82.5 31t-31.5 88v203q0 22 -10 35t-33 22q-13 4 -13 16q0 14 15 16q31 2 49 5t50 11l8 1q11 0 10 -14q-6 -46 -6 -77v-195q0 -36 26 -63.5t58 -27.5q30 0 48.5 3.5t35.5 16.5q18 13 31.5 30.5t13.5 44.5 v183q0 27 -22.5 38.5t-44.5 11.5q-21 0 -21 17q0 15 21 15q43 1 68.5 4.5t54.5 11.5q6 2 10 2q5 0 9 -3t4 -8l-2 -9q-2 -11 -4.5 -31.5t-2.5 -37.5v-231q0 -50 18 -50l23 2l23 1q15 0 15 -13q0 -8 -3.5 -10.5t-10.5 -3.5q-34 -5 -60 -13t-57 -21q-12 -6 -20 -6q-7 0 -7 8z " />
<glyph unicode="v" horiz-adv-x="438" d="M196 17q-5 10 -16 45l-9 25q-12 33 -57 144l-40 98q-7 18 -21.5 32.5t-29.5 18.5q-10 4 -14 7t-4 9q0 9 20 9q26 0 39 -3q16 -2 34 -2q17 0 35 2q15 3 40 3q20 0 20 -9q0 -7 -6 -10.5t-17 -7.5q-10 -4 -15 -15t-5 -26q0 -16 4 -27l79 -210q2 -1 3 0l76 195q8 21 8 41 q0 19 -6 27.5t-20 14.5q-14 5 -18.5 8.5t-4.5 9.5q0 9 20 9q4 0 22 -2q39 -3 51 -3t39 3q12 2 20 2q20 0 20 -9q0 -6 -5 -10t-18 -8q-16 -5 -34 -24t-28 -43l-78 -188q-8 -20 -20.5 -52.5t-17.5 -46.5q-2 -6 -10 -22.5t-12 -22.5h-6q-5 0 -18 38z" />
<glyph unicode="w" horiz-adv-x="685" d="M219 -16l-139 345q-7 19 -21.5 31.5t-30.5 17.5q-12 4 -17.5 7.5t-5.5 10.5q0 9 20 9q12 0 36 -2q18 -3 37 -3q21 0 42 3q26 2 41 2q7 0 13.5 -2t6.5 -7q0 -7 -5.5 -10.5t-17.5 -7.5q-10 -3 -15.5 -14t-5.5 -26q0 -13 5 -26l78 -201q1 -4 5 -4t5 4l68 162q8 19 8 48 q0 20 -15 34.5t-36 22.5q-12 4 -17.5 7.5t-5.5 10.5q0 9 20 9q6 0 24 -2q39 -3 51 -3q8 0 53 3q22 2 31 2q20 0 20 -9q0 -7 -5.5 -10.5t-17.5 -7.5q-16 -5 -25 -12.5t-9 -23.5q0 -13 7 -30l75 -193q5 -11 8 -11q4 0 8 10l76 177q7 15 7 39q0 16 -11 28t-24 16 q-12 4 -17.5 7.5t-5.5 10.5q0 9 20 9q13 0 33 -2q16 -3 42 -3q16 0 37 3q12 2 21 2q20 0 20 -9q0 -7 -5.5 -10.5t-17.5 -7.5q-14 -4 -28 -22.5t-25 -43.5l-137 -328q-3 -7 -9 -7q-4 0 -8 7l-104 258q-3 8 -6 9q-3 0 -7 -10l-109 -257q-3 -7 -8 -7t-7 7z" />
<glyph unicode="x" horiz-adv-x="430" d="M10 5q0 7 6 11t17 7q17 5 32 17.5t35 39.5l77 107q6 7 6 13q0 5 -4 10l-82 125q-12 20 -21.5 29t-24.5 13q-11 3 -17 7t-6 11q0 9 20 9q21 0 37 -2q20 -2 45 -2l26 1q7 1 25 1h3q20 0 20 -9q0 -5 -4.5 -8t-13.5 -6q-10 -3 -15.5 -6.5t-5.5 -10.5q0 -11 13 -32l46 -69 q4 -7 9 0l51 77q8 11 8 22q0 12 -13 16q-12 4 -17.5 7.5t-5.5 10.5q0 9 20 9q5 0 23.5 -1.5t29.5 -1.5q22 0 39 2.5t24 2.5q20 0 20 -9q0 -7 -5.5 -10.5t-17.5 -7.5q-48 -14 -71 -47l-63 -95q-4 -6 1 -13l97 -158q12 -19 23 -28t26 -14q11 -3 17 -7t6 -11q0 -9 -20 -9 q-19 0 -37 2q-20 2 -47 2l-37 -1q-13 -1 -36 -1t-23 10q0 8 6 12.5t19 7.5q28 8 28 24q0 8 -6 18l-59 96q-1 1 -3 1t-3 -1l-66 -99q-5 -7 -5 -19q0 -7 3.5 -13.5t10.5 -8.5q12 -4 17.5 -7.5t5.5 -10.5q0 -9 -20 -9q-6 0 -21.5 1t-34.5 1q-13 0 -46 -3q-14 -2 -21 -2 q-20 0 -20 9z" />
<glyph unicode="y" horiz-adv-x="438" d="M27.5 -275q-14.5 10 -14.5 31q0 19 9 32t24 13q8 0 21.5 -3t18.5 -3q12 0 19 11q19 29 42 76.5t43 101.5q3 9 3 23q0 18 -4 29l-116 293q-17 41 -45 49q-12 4 -17.5 7.5t-5.5 10.5q0 9 20 9q26 0 39 -3q18 -2 34 -2q17 0 35 2q15 3 41 3q7 0 13.5 -3t6.5 -8 q0 -7 -9.5 -13t-19.5 -9q-11 -3 -15.5 -10.5t-4.5 -21.5q0 -9 8 -28l81 -200q2 -6 6 -6q3 0 5 6l69 183q3 7 5.5 18.5t2.5 18.5q0 17 -5 25.5t-15 12.5q-29 13 -29 24q0 5 6.5 8t13.5 3q5 0 23 -2q36 -3 48 -3q14 0 38 3q12 2 21 2q20 0 20 -9q0 -7 -5.5 -10.5t-17.5 -7.5 q-15 -5 -32 -24t-27 -43l-136 -324l-15 -37q-62 -150 -81 -194q-9 -20 -26 -30.5t-39 -10.5t-36.5 10z" />
<glyph unicode="z" horiz-adv-x="377" d="M30 1.5q-5 6.5 -5 10.5q0 3 12.5 22.5t24.5 35.5q99 142 191 288l2 5q0 5 -11 5l-99 3q-13 1 -24.5 -5t-19.5 -14q-9 -9 -29 -37l-15 -21q-3 -3 -9 -3q-7 0 -11 3.5t-2 9.5q6 17 12.5 47t6.5 47q0 7 5.5 12.5t9.5 5.5t15 -9q7 -6 43 -6l38 1q95 0 186 3q4 0 6.5 -4.5 t0.5 -7.5q-26 -32 -38 -50l-195 -295q-2 -3 -2 -7t3 -6t8 -2h118q22 0 45 23q15 15 55 73q3 5 9 5q5 0 9 -3.5t4 -8.5t-11.5 -47.5t-18.5 -65.5q-3 -14 -16 -14l-44 1q-76 4 -165 4q-4 0 -49 -3l-31 -2q-4 0 -9 6.5z" />
<glyph unicode="{" horiz-adv-x="376" d="M198 -116.5q-55 30.5 -55 95.5q0 44 7 95q6 54 6 83q0 41 -26 70.5t-61 37.5q-7 2 -13 6.5t-6 10.5q0 5 5.5 10.5t15.5 8.5q85 22 85 103q0 29 -6 83q-7 51 -7 95q0 65 57 97.5t138 35.5q7 0 12.5 -4t5.5 -11q0 -12 -26 -14q-53 -7 -77.5 -27.5t-24.5 -71.5q0 -29 3 -58 t4 -36q6 -52 6 -79q0 -44 -38 -79t-80 -52q-4 -2 2 -4q19 -5 47 -25t48.5 -48.5t20.5 -58.5q0 -27 -6 -79q-1 -7 -4 -36t-3 -58q0 -52 24 -73t75 -26q14 -1 20 -3t6 -9t-5.5 -11.5t-12.5 -3.5q-82 5 -137 35.5z" />
<glyph unicode="|" horiz-adv-x="260" d="M104 -284.5q-4 4.5 -4 9.5v951q0 14 18 22.5t28 8.5q5 0 9.5 -4t4.5 -9v-959q0 -13 -17 -18.5t-31 -5.5q-4 0 -8 4.5z" />
<glyph unicode="}" horiz-adv-x="376" d="M178 -116.5q55 30.5 55 95.5q0 44 -7 95q-6 54 -6 83q0 41 26 70.5t61 37.5q7 2 13 6.5t6 10.5q0 5 -5.5 10.5t-15.5 8.5q-85 22 -85 103q0 29 6 83q7 51 7 95q0 65 -57 97.5t-138 35.5q-7 0 -12.5 -4t-5.5 -11q0 -12 26 -14q53 -7 77.5 -27.5t24.5 -71.5q0 -29 -3 -58 t-4 -36q-6 -52 -6 -79q0 -44 38 -79t80 -52q4 -2 -2 -4q-19 -5 -47 -25t-48.5 -48.5t-20.5 -58.5q0 -27 6 -79q1 -7 4 -36t3 -58q0 -52 -24 -73t-75 -26q-14 -1 -20 -3t-6 -9t5.5 -11.5t12.5 -3.5q82 5 137 35.5z" />
<glyph unicode="~" horiz-adv-x="500" d="M293.5 267.5q-20.5 7.5 -50.5 23.5q-25 14 -44 21.5t-39 7.5q-25 0 -44.5 -14t-32.5 -27.5t-14 -13.5q-6 0 -12.5 4.5t-6.5 9.5q0 15 16.5 40t44.5 43.5t60 18.5q23 0 42.5 -8t45.5 -23q25 -15 42.5 -23t35.5 -8q22 0 42 15.5t35 31.5t16 16q5 0 12.5 -5.5t7.5 -14.5 q0 -20 -18 -44t-44.5 -41t-50.5 -17q-23 0 -43.5 7.5z" />
<glyph unicode="&#xa1;" horiz-adv-x="250" d="M111 266.5q-4 -8.5 -6 -30.5q-10 -92 -18 -198.5t-8 -151.5q0 -22 13.5 -38.5t33.5 -16.5t32.5 16.5t12.5 38.5q0 67 -30 350q-2 17 -6.5 28t-11.5 11q-8 0 -12 -8.5zM82.5 476.5q-17.5 -17.5 -17.5 -42.5t17.5 -42.5t42.5 -17.5t42.5 17.5t17.5 42.5t-17.5 42.5 t-42.5 17.5t-42.5 -17.5z" />
<glyph unicode="&#xa2;" horiz-adv-x="422" d="M190 -9q-5 4 -4 11l8 76q-42 7 -78.5 36t-58.5 72.5t-22 91.5q0 56 26 105.5t72.5 81.5t104.5 37l4 60q1 8 7 12.5t15 4.5q6 0 10 -5.5t3 -11.5l-4 -59q71 -4 107 -48q4 -5 4 -12q0 -10 -13 -22t-24 -12q-7 0 -13 3t-8 7q-11 20 -24.5 32.5t-32.5 17.5l-34 -333 q5 -1 15 -1q39 0 68.5 8.5t46.5 34.5q3 5 9 5q5 0 9 -3.5t4 -8.5q0 -3 -1 -4q-28 -46 -66 -67.5t-92 -23.5l-7 -74q-1 -7 -6.5 -11t-12.5 -4t-12 4zM235 474h-2q-38 0 -68 -24t-46.5 -62t-16.5 -76q0 -64 26.5 -108t71.5 -61z" />
<glyph unicode="&#xa3;" horiz-adv-x="490" d="M464.5 150.5q10.5 -16.5 10.5 -39.5q0 -35 -21.5 -69.5t-57 -56t-77.5 -21.5q-43 0 -75 14.5t-80 47.5q-16 11 -36 20t-28 9q-5 0 -19.5 -15.5t-24.5 -33.5q-8 -15 -20 -23t-23 -7q-10 0 -16.5 8t-6.5 22q0 30 28 53.5t68 31.5q4 1 6.5 4.5t4.5 7.5q21 40 31 200l-83 -6 q-5 0 -9.5 4t-4.5 8q0 7 7.5 14t16.5 8l75 5v5q4 72 28 137.5t72.5 108t119.5 42.5q47 0 73.5 -24.5t26.5 -55.5q0 -24 -12 -41t-32 -17q-7 0 -9.5 3.5t-2.5 10.5l1 22q-1 30 -18.5 51.5t-44.5 21.5q-51 0 -77 -63t-37 -195l133 9q5 0 9 -4t4 -8q0 -6 -10 -13.5t-21 -8.5 l-118 -8q-8 -64 -33.5 -126.5t-46.5 -80.5q-3 -2 -2 -5.5t6 -3.5q36 0 64.5 -8.5t67.5 -24.5q35 -14 57 -21t47 -7q27 0 43 13t16 32q0 17 -10 45q-6 22 -6 26q0 7 5 13t12 6q19 0 29.5 -16.5z" />
<glyph unicode="&#xa4;" horiz-adv-x="506" d="M50 67q-10 10 -10 20q0 5 3 8l57 57q-39 51 -39 118t39 117l-57 57q-3 3 -3 7q0 10 10.5 20.5t20.5 10.5q5 0 8 -3l55 -55q54 41 119 41q68 0 118 -41l56 56q3 3 8 3q9 0 19.5 -10t10.5 -20q0 -6 -4 -10l-55 -55q39 -51 39 -118t-39 -118l57 -57q3 -3 3 -7 q0 -10 -10.5 -20.5t-20.5 -10.5q-5 0 -8 3l-56 56q-50 -41 -118 -41t-118 41l-57 -56q-3 -3 -8 -3q-10 0 -20 10zM324.5 144.5q32.5 19.5 51.5 53t19 72.5t-19 72.5t-51.5 53t-71.5 19.5t-71.5 -19.5t-51.5 -53t-19 -72.5t19 -72.5t51.5 -53t71.5 -19.5t71.5 19.5z" />
<glyph unicode="&#xa5;" horiz-adv-x="570" d="M153 6q0 7 8 11t25 7q78 14 78 84l1 89h-126q-5 0 -9.5 3.5t-4.5 8.5q0 7 7.5 15t16.5 8h116v24q0 10 -2 24h-124q-5 0 -9.5 4t-4.5 8q0 7 7.5 15t16.5 8h106l-133 207q-26 40 -47.5 66t-41.5 32q-17 6 -25 11t-8 11q0 11 29 11l46 -1q44 -2 71 -2l48 1q12 1 32 1 q29 0 29 -11q0 -6 -7 -10t-26 -10q-28 -10 -28 -33q0 -14 9 -28l93 -165q13 -22 19 -30.5t11 -8.5t11 8t20 31q9 14 37.5 58.5t45.5 80.5q7 15 7 34t-8 33.5t-22 18.5q-33 9 -33 20t29 11l75 -1q23 0 59 2l37 1q29 0 29 -11q0 -13 -33 -20q-23 -5 -50.5 -34t-49.5 -62 q-34 -51 -68 -107t-44 -73q-15 -22 -18 -31h122q5 0 9 -3.5t4 -7.5q0 -8 -10 -16t-21 -8h-109v-48h126q13 0 13 -11q0 -8 -10 -16t-21 -8h-108v-89q0 -34 20 -55.5t58 -28.5q17 -3 25 -7t8 -11q0 -11 -29 -11q-37 0 -64 3q-32 2 -53 2q-25 0 -61 -2q-30 -3 -67 -3 q-29 0 -29 11z" />
<glyph unicode="&#xa6;" horiz-adv-x="260" d="M104 283.5q-4 7.5 -4 15.5v375q0 14 18 22.5t28 8.5q5 0 9.5 -4t4.5 -9v-395q0 -7 -19.5 -14t-28.5 -7q-4 0 -8 7.5zM104 -285.5q-4 4.5 -4 9.5v432q0 7 19.5 15t26.5 8q5 0 9.5 -7t4.5 -15v-423q0 -13 -17 -18.5t-31 -5.5q-4 0 -8 4.5z" />
<glyph unicode="&#xa7;" horiz-adv-x="400" d="M79 -139q-18 9 -18 23q0 10 6.5 25.5t21.5 26.5q4 2 6 2q5 0 16 -8q12 -11 31.5 -17.5t37.5 -6.5q25 0 38.5 21.5t13.5 60.5q0 29 -24 60.5t-72 82.5l-18 18q-47 48 -70.5 92t-23.5 88q0 62 16.5 103.5t49.5 80.5q13 49 51 88t88 39q19 0 40.5 -6t29.5 -13q12 -10 12 -18 q0 -3 -5.5 -15t-14.5 -22t-18 -10q-7 0 -13 6q-38 34 -62 34q-28 0 -44.5 -18.5t-16.5 -44.5q0 -27 29 -66.5t75 -81.5q60 -54 82.5 -105t22.5 -121q0 -57 -22.5 -115t-61.5 -105.5t-85 -75.5q-18 -11 -54 -11q-26 0 -44 9zM291 47.5q4 0.5 5 3.5q11 42 11 73q0 50 -21.5 91 t-68.5 90q-53 54 -83 88.5t-40 64.5q-1 4 -5 3.5t-5 -3.5q-11 -42 -11 -73q0 -50 21.5 -91t68.5 -90q53 -54 83 -88.5t40 -64.5q1 -4 5 -3.5z" />
<glyph unicode="&#xa8;" horiz-adv-x="300" d="M27.5 523.5q-15.5 15.5 -15.5 34.5t15.5 34.5t34.5 15.5t34.5 -15.5t15.5 -34.5t-15.5 -34.5t-34.5 -15.5t-34.5 15.5zM204.5 523.5q-15.5 15.5 -15.5 34.5t15.5 34.5t34.5 15.5t34.5 -15.5t15.5 -34.5t-15.5 -34.5t-34.5 -15.5t-34.5 15.5z" />
<glyph unicode="&#xa9;" horiz-adv-x="665" d="M193.5 65q-69.5 41 -110 110.5t-40.5 151.5t41 151.5t110.5 110.5t151.5 41t151.5 -41t110.5 -110.5t41 -151.5t-41 -151.5t-111 -110.5t-152 -41t-151.5 41zM477.5 94.5q60.5 36.5 96 98.5t35.5 134q0 71 -35.5 133t-96 99t-131.5 37t-131.5 -37t-96 -99t-35.5 -133 q0 -72 35 -134t95 -98.5t132 -36.5t132.5 36.5zM273.5 178.5q-39.5 24.5 -62.5 65t-23 84.5q0 48 27 86t71 59t94 21q37 0 80 -13q2 -1 6.5 -2t6.5 -3.5t3 -7.5q3 -13 3 -34l-1 -25q0 -3 -3.5 -7.5t-6.5 -3.5q-6 0 -12 15q-8 22 -28 35q-24 16 -57 16q-50 0 -81.5 -38.5 t-31.5 -94.5q0 -59 31.5 -103t86.5 -44q66 0 86 41q3 7 8.5 11t8.5 4q5 0 5 -13q0 -7 -4.5 -20t-10.5 -23q-4 -7 -7 -9.5t-10 -7.5q-29 -13 -93 -13q-46 0 -85.5 24.5z" />
<glyph unicode="&#xaa;" horiz-adv-x="310" d="M64 288.5q-18 20.5 -18 38.5q0 21 7.5 33t29.5 20l76 28q13 4 15.5 8t2.5 16v23q0 16 -10 26t-27 10q-14 0 -27 -3.5t-16 -9.5q-2 -6 -2 -14.5v-10.5q0 -5 -16 -10.5t-29 -8.5h-1q-3 0 -4 3t1 7q6 15 10 22t15 16q18 15 46 28.5t51 13.5q24 0 43.5 -16t18.5 -37l-3 -124 q0 -39 21 -39q7 0 11 2.5t5 3.5q6 4 8 4q4 0 7 -5t3 -10q0 -4 -10 -14q-21 -21 -39 -21q-33 0 -49 31h-4q-17 -14 -34.5 -22.5t-44.5 -8.5q-19 0 -37 20.5zM149 313q9 5 20 14q4 3 5.5 8.5t1.5 14.5l1 29q0 9 -3.5 11t-11.5 0q-34 -10 -49.5 -23t-15.5 -25q0 -16 10.5 -25 t21.5 -9t20 5zM274.5 192.5q4.5 -3.5 4.5 -7.5l-1 -3q-11 -21 -31 -21h-198q-5 0 -9.5 4t-4.5 8q0 7 7.5 15t16.5 8h206q5 0 9.5 -3.5z" />
<glyph unicode="&#xab;" horiz-adv-x="595" d="M283 37q-49 48 -103.5 86t-101.5 59q-7 4 -12.5 13t-5.5 16q0 6 3 7q81 49 129 83t97 81q18 18 29 18q6 0 6 -9q0 -7 -5 -15q-37 -56 -71.5 -89.5t-80.5 -69.5q-6 -4 -6 -7q0 -2 6 -7q42 -32 78 -69t74 -94q3 -4 3 -9t-2.5 -8.5t-6.5 -3.5q-12 0 -30 18zM494 37 q-49 48 -103.5 86t-101.5 59q-7 4 -12.5 13t-5.5 16q0 6 3 7q81 49 129 83t97 81q18 18 29 18q6 0 6 -9q0 -7 -5 -15q-37 -56 -71.5 -89.5t-80.5 -69.5q-6 -4 -6 -7q0 -2 6 -7q42 -32 78 -69t74 -94q3 -4 3 -9t-2.5 -8.5t-6.5 -3.5q-12 0 -30 18z" />
<glyph unicode="&#xac;" horiz-adv-x="600" d="M494 47.5q-4 4.5 -4 9.5v247q0 18 -14 18h-412q-5 0 -9.5 4t-4.5 8q0 14 5.5 31t18.5 17h463q5 0 9 -4.5t4 -9.5v-301q0 -13 -17 -18.5t-31 -5.5q-4 0 -8 4.5z" />
<glyph unicode="&#xad;" horiz-adv-x="274" d="M29 176q0 18 4.5 35.5t11.5 18.5q128 18 192 25q8 0 8 -6q0 -22 -5 -37.5t-16 -16.5l-26 -4q-103 -16 -163 -21q-6 0 -6 6z" />
<glyph unicode="&#xae;" horiz-adv-x="665" d="M193.5 65q-69.5 41 -110 110.5t-40.5 151.5t41 151.5t110.5 110.5t151.5 41t151.5 -41t110.5 -110.5t41 -151.5t-41 -151.5t-111 -110.5t-152 -41t-151.5 41zM477.5 94.5q60.5 36.5 96 98.5t35.5 134q0 71 -35.5 131.5t-96 96t-131.5 35.5t-131.5 -35.5t-96 -96 t-35.5 -131.5q0 -72 35 -134t95 -98.5t132 -36.5t132.5 36.5zM433.5 195q-25.5 22 -45.5 53t-30 56q-6 16 -38 16q-6 0 -11 -3t-5 -8l1 -78q0 -15 8.5 -21t25.5 -11q19 -6 19 -16q0 -4 -5.5 -7.5t-10.5 -3.5q-17 0 -35 2q-16 2 -30 2t-28 -2q-16 -2 -33 -2q-5 0 -10.5 3.5 t-5.5 7.5q0 10 19 16q14 4 19.5 10.5t5.5 21.5v195q0 26 -2.5 31.5t-9.5 7.5t-11 3q-11 3 -15 6.5t-4 9.5q0 5 4.5 8.5t12.5 3.5t28 -2q14 -3 27 -3q25 0 49 3q32 2 48 2q40 0 69.5 -21.5t29.5 -57.5q0 -29 -18.5 -50t-43.5 -30q-5 -1 -5 -5q0 -2 5 -12q15 -40 48.5 -78 t54.5 -38l10 1q6 0 6 -5q0 -12 -14 -19.5t-30 -7.5q-24 0 -49.5 22zM383.5 366q22.5 19 22.5 47q0 24 -18.5 39t-45.5 15q-21 0 -29.5 -7.5t-8.5 -22.5v-70q0 -13 7 -16.5t20 -3.5q30 0 52.5 19z" />
<glyph unicode="&#xaf;" horiz-adv-x="300" d="M34.5 503.5q-4.5 3.5 -4.5 8.5q0 12 6 27.5t18 15.5h203q5 0 9 -4t4 -8q0 -18 -8 -30.5t-23 -12.5h-195q-5 0 -9.5 3.5z" />
<glyph unicode="&#xb0;" horiz-adv-x="290" d="M86.5 419.5q-27.5 17.5 -44.5 46.5t-17 60t17 58.5t44.5 44t58.5 16.5t58.5 -16t44.5 -43t17 -58t-17 -60.5t-44.5 -47.5t-58.5 -18t-58.5 17.5zM199 467.5q23 23.5 23 55.5q0 33 -22.5 56t-54.5 23t-54.5 -23t-22.5 -56q0 -32 23 -55.5t54 -23.5t54 23.5z" />
<glyph unicode="&#xb1;" horiz-adv-x="590" d="M274 125.5q-4 4.5 -4 9.5v211q0 5 -4 5h-202q-5 0 -9.5 4t-4.5 8q0 11 6 24.5t18 13.5h189q4 0 5.5 1.5t1.5 6.5v171q0 12 14.5 21.5t21.5 9.5q5 0 9.5 -4t4.5 -9v-191q0 -4 0.5 -5t1.5 -1h2h203q5 0 9.5 -3.5t4.5 -7.5q0 -11 -10.5 -25t-21.5 -14h-185q-4 0 -4 -4v-202 q0 -12 -13.5 -18t-24.5 -6q-4 0 -8 4.5zM54.5 42q-4.5 4 -4.5 8q0 11 6 24.5t18 13.5h453q5 0 9.5 -3.5t4.5 -7.5q0 -11 -10.5 -25t-21.5 -14h-445q-5 0 -9.5 4z" />
<glyph unicode="&#xb2;" horiz-adv-x="300" d="M176 439q-32 2 -47 2l-58 -1q-16 -1 -39 -1q-4 0 -8 3.5t-4 6.5t8 10l39 35q42 38 76.5 83.5t34.5 82.5q0 32 -15.5 49t-40.5 17t-41.5 -9t-38.5 -32q-4 -6 -9 -6q-3 0 -5 4.5t-2 9.5q0 10 15 31t41.5 37t60.5 16q44 0 67.5 -26.5t23.5 -66.5q0 -20 -11 -44t-29 -46 q-25 -31 -51 -58.5t-40 -38.5l-1 -2q0 -1 4 -2t7 -1h73q21 0 36.5 12.5t33.5 37.5q3 5 6.5 8t8.5 3q4 0 4 -3.5v-4.5q-1 -4 -11 -33t-17 -62q-2 -13 -9 -13q-24 0 -62 2z" />
<glyph unicode="&#xb3;" horiz-adv-x="284" d="M50.5 445q-20.5 11 -20.5 30q0 11 5.5 18.5t12.5 7.5q4 0 9 -2.5t7 -4.5q21 -16 33 -22.5t30 -6.5q25 0 39.5 20t14.5 53q0 21 -18.5 41t-44.5 20q-5 0 -19 -3.5t-20 -3.5q-4 0 -8.5 3t-4.5 6q0 8 14.5 15.5t29 12.5t19.5 7q21 10 32 23t11 34q0 18 -15 31t-34 13 q-44 0 -71 -39q-5 -7 -10 -7q-3 0 -6.5 6t-3.5 9q0 12 16 29t40.5 29.5t48.5 12.5q34 0 60 -20t26 -51q0 -25 -13.5 -39.5t-42.5 -29.5q-7 -3 0 -5q31 -10 51 -28t20 -44q0 -36 -20 -65t-52.5 -45t-69.5 -16q-25 0 -45.5 11z" />
<glyph unicode="&#xb4;" horiz-adv-x="200" d="M22 466q0 7 4 18q9 24 34.5 71t42.5 76q5 8 12.5 13t14.5 5q20 0 34.5 -5.5t14.5 -15.5q0 -7 -4 -13t-6 -8q-17 -25 -52 -66.5t-56 -62.5t-31 -21q-8 0 -8 9z" />
<glyph unicode="&#xb5;" horiz-adv-x="537" d="M121 -273.5q-10 11.5 -21 39.5q-6 16 -10 92t-4 142l-1 396q0 11 5.5 14.5t21.5 3.5q20 0 42 -10.5t22 -17.5q0 -22 -16 -130q-2 -17 -8.5 -62.5t-6.5 -61.5q0 -26 15.5 -52.5t44.5 -26.5q38 0 63 21t55 78q10 36 16 108.5t6 139.5q0 8 4.5 11.5t16.5 3.5q15 0 30.5 -7 t26 -16t10.5 -15q0 -51 -48 -215q0 -33 16 -60t47 -27q17 0 30.5 7t26.5 17t16 10q4 0 7.5 -2.5t3.5 -6.5q0 -36 -13.5 -62t-34.5 -39.5t-43 -13.5q-24 0 -43 25t-27 69q-2 13 -4 39h-2q-6 -13 -28 -46t-50 -60t-50 -27q-46 0 -83 41q-9 9 -19 22.5t-11 13.5q-3 0 -5 -9.5 t-2 -24.5q0 5 3 -124l1 -35q1 -38 17.5 -60t44.5 -44q2 -1 8 -5.5t8.5 -7.5t2.5 -6q0 -14 -16 -22.5t-33 -8.5q-22 0 -32 11.5z" />
<glyph unicode="&#xb6;" horiz-adv-x="595" d="M195 -258.5q-37 30.5 -37 79.5q0 32 16 59.5t41.5 43t52.5 15.5q32 0 49 -14.5t17 -38.5q0 -21 -12.5 -35t-30.5 -14q-16 0 -29 13q-2 1 -9.5 8t-16.5 7q-14 0 -25 -13.5t-11 -37.5q0 -29 26 -48.5t60 -19.5q42 0 71 34t29 108v206q0 25 -13 25q-92 0 -166.5 29 t-118 88.5t-43.5 146.5q0 265 362 265q38 0 79 -2t61 -4q7 -1 11 -7t4 -13q0 -8 -4.5 -19t-9.5 -11q-4 1 -35.5 8.5t-69.5 7.5q-7 0 -12.5 -5.5t-5.5 -12.5v-702q0 -60 -20.5 -100t-53 -58.5t-69.5 -18.5q-50 0 -87 30.5z" />
<glyph unicode="&#xb7;" horiz-adv-x="200" d="M61.5 166.5q-16.5 16.5 -16.5 38.5q0 23 16.5 39t38.5 16q23 0 39 -16t16 -39q0 -22 -16 -38.5t-39 -16.5q-22 0 -38.5 16.5z" />
<glyph unicode="&#xb8;" horiz-adv-x="200" d="M30 -265q-7 9 -7 32q0 19 13 19q4 0 18.5 -5.5t34.5 -5.5q19 0 29 12.5t10 32.5q0 28 -16.5 42.5t-42.5 14.5q-7 0 -15 -3t-11 -3q-6 0 -12 4.5t-6 10.5q0 4 5 11l88 111h31l-38 -50q-5 -7 -5 -10q0 -6 11 -11q26 -11 43.5 -31.5t17.5 -44.5q0 -37 -22.5 -68t-52.5 -49 t-50 -18q-16 0 -23 9z" />
<glyph unicode="&#xb9;" horiz-adv-x="259" d="M39 444.5q-4 4.5 -4 10.5q0 5 3.5 10.5t9.5 5.5q20 2 31 4t19 11t8 28v150q0 19 -15.5 31t-37.5 15q-6 1 -10 5t-4 8q0 5 3 9t7 5q34 3 59.5 16.5t37.5 26.5q4 4 9 4t7.5 -4t1.5 -10q-6 -42 -6 -70v-186q0 -18 4.5 -25.5t14.5 -11t35 -6.5q6 -1 9 -5.5t3 -10.5t-3 -10.5 t-9 -4.5q-34 0 -54 2l-28 1l-29 -1q-20 -2 -53 -2q-5 0 -9 4.5z" />
<glyph unicode="&#xba;" horiz-adv-x="309" d="M61 301.5q-36 33.5 -36 86.5q0 36 18.5 67.5t49.5 50t67 18.5q32 0 60.5 -16.5t46 -44t17.5 -59.5q0 -56 -36 -96t-100 -40q-51 0 -87 33.5zM206 323q15 26 15 66q0 41 -20 72.5t-52 31.5q-31 0 -46 -26t-15 -65q0 -43 20 -74t52 -31q31 0 46 26zM280.5 192.5 q4.5 -3.5 4.5 -7.5l-1 -3q-11 -21 -31 -21h-214q-5 0 -9.5 4t-4.5 8q0 7 7.5 15t16.5 8h222q5 0 9.5 -3.5z" />
<glyph unicode="&#xbb;" horiz-adv-x="595" d="M312 37q49 48 103.5 86t101.5 59q7 4 12.5 13t5.5 16q0 6 -3 7q-81 49 -129 83t-97 81q-18 18 -29 18q-6 0 -6 -9q0 -7 5 -15q37 -56 71.5 -89.5t80.5 -69.5q6 -4 6 -7q0 -2 -6 -7q-42 -32 -78 -69t-74 -94q-3 -4 -3 -9t2.5 -8.5t6.5 -3.5q12 0 30 18zM101 37 q49 48 103.5 86t101.5 59q7 4 12.5 13t5.5 16q0 6 -3 7q-81 49 -129 83t-97 81q-18 18 -29 18q-6 0 -6 -9q0 -7 5 -15q37 -56 71.5 -89.5t80.5 -69.5q6 -4 6 -7q0 -2 -6 -7q-42 -32 -78 -69t-74 -94q-3 -4 -3 -9t2.5 -8.5t6.5 -3.5q12 0 30 18z" />
<glyph unicode="&#xbc;" horiz-adv-x="657" d="M39 282.5q-4 4.5 -4 10.5q0 5 3.5 10.5t9.5 5.5q20 2 31 4t19 11t8 28v150q0 19 -15.5 31t-37.5 15q-6 1 -10 5t-4 8q0 5 3 9t7 5q34 3 59.5 16.5t37.5 26.5q4 4 9 4t7.5 -4t1.5 -10q-6 -42 -6 -70v-186q0 -18 4.5 -25.5t14.5 -11t35 -6.5q6 -1 9 -5.5t3 -10.5t-3 -10.5 t-9 -4.5q-34 0 -54 2l-28 1l-29 -1q-20 -2 -53 -2q-5 0 -9 4.5zM571.5 661.5q9.5 3.5 23.5 3.5q5 0 9.5 -4t4.5 -9q0 -3 -1 -4l-438 -695q-6 -9 -14.5 -12t-21.5 -3q-6 0 -11.5 4t-5.5 8q0 2 1 3l438 695q6 10 15.5 13.5zM527 0v92q0 3 -3.5 4t-5.5 1q-24 0 -72 -2 q-44 -2 -74 -2q-2 0 -4.5 2.5t-2.5 4.5q0 1 0.5 1h0.5q53 69 108 135q1 2 23 29q28 35 58 65q13 13 20 13q4 0 4 -9v-194q0 -8 7 -8h21q19 0 34 1q6 0 6 -7q0 -8 -5 -17.5t-9 -9.5h-40q-8 0 -11 -1.5t-3 -4.5v-74q0 -10 -18.5 -18.5t-24.5 -8.5q-9 0 -9 8zM519 133 q3 0 5.5 1.5t2.5 3.5v118q0 2 -2.5 2t-3.5 -1q-40 -45 -98 -119q-2 -5 0 -5h96z" />
<glyph unicode="&#xbd;" horiz-adv-x="717" d="M39 282.5q-4 4.5 -4 10.5q0 5 3.5 10.5t9.5 5.5q20 2 31 4t19 11t8 28v150q0 19 -15.5 31t-37.5 15q-6 1 -10 5t-4 8q0 5 3 9t7 5q34 3 59.5 16.5t37.5 26.5q4 4 9 4t7.5 -4t1.5 -10q-6 -42 -6 -70v-186q0 -18 4.5 -25.5t14.5 -11t35 -6.5q6 -1 9 -5.5t3 -10.5t-3 -10.5 t-9 -4.5q-34 0 -54 2l-28 1l-29 -1q-20 -2 -53 -2q-5 0 -9 4.5zM571.5 661.5q9.5 3.5 23.5 3.5q5 0 9.5 -4t4.5 -9q0 -3 -1 -4l-438 -695q-6 -9 -14.5 -12t-21.5 -3q-6 0 -11.5 4t-5.5 8q0 2 1 3l438 695q6 10 15.5 13.5zM593 -15q-32 2 -47 2l-58 -1q-16 -1 -39 -1 q-4 0 -8 3.5t-4 6.5t8 10l39 35q42 38 76.5 83.5t34.5 82.5q0 32 -15.5 49t-40.5 17t-41.5 -9t-38.5 -32q-4 -6 -9 -6q-3 0 -5 4.5t-2 9.5q0 10 15 31t41.5 37t60.5 16q44 0 67.5 -26.5t23.5 -66.5q0 -20 -11 -44t-29 -46q-25 -31 -51 -58.5t-40 -38.5l-1 -2q0 -1 4 -2t7 -1 h73q21 0 36.5 12.5t33.5 37.5q3 5 6.5 8t8.5 3q4 0 4 -3.5v-4.5q-1 -4 -11 -33t-17 -62q-2 -13 -9 -13q-24 0 -62 2z" />
<glyph unicode="&#xbe;" horiz-adv-x="634" d="M50.5 285q-20.5 11 -20.5 30q0 11 5.5 18.5t12.5 7.5q4 0 9 -2.5t7 -4.5q21 -16 33 -22.5t30 -6.5q25 0 39.5 20t14.5 53q0 21 -18.5 41t-44.5 20q-5 0 -19 -3.5t-20 -3.5q-4 0 -8.5 3t-4.5 6q0 8 14.5 15.5t29 12.5t19.5 7q21 10 32 23t11 34q0 18 -15 31t-34 13 q-44 0 -71 -39q-5 -7 -10 -7q-3 0 -6.5 6t-3.5 9q0 12 16 29t40.5 29.5t48.5 12.5q34 0 60 -20t26 -51q0 -25 -13.5 -39.5t-42.5 -29.5q-7 -3 0 -5q31 -10 51 -28t20 -44q0 -36 -20 -65t-52.5 -45t-69.5 -16q-25 0 -45.5 11zM548.5 661.5q9.5 3.5 23.5 3.5q5 0 9.5 -4 t4.5 -9q0 -3 -1 -4l-438 -695q-6 -9 -14.5 -12t-21.5 -3q-6 0 -11.5 4t-5.5 8q0 2 1 3l438 695q6 10 15.5 13.5zM504 0v92q0 3 -3.5 4t-5.5 1q-24 0 -72 -2q-44 -2 -74 -2q-2 0 -4.5 2.5t-2.5 4.5q0 1 0.5 1h0.5q53 69 108 135q1 2 23 29q28 35 58 65q13 13 20 13q4 0 4 -9 v-194q0 -8 7 -8h21q19 0 34 1q6 0 6 -7q0 -8 -5 -17.5t-9 -9.5h-40q-8 0 -11 -1.5t-3 -4.5v-74q0 -10 -18.5 -18.5t-24.5 -8.5q-9 0 -9 8zM496 133q3 0 5.5 1.5t2.5 3.5v118q0 2 -2.5 2t-3.5 -1q-40 -45 -98 -119q-2 -5 0 -5h96z" />
<glyph unicode="&#xbf;" horiz-adv-x="376" d="M252 290.5q7 -8.5 10 -20.5q2 -6 6.5 -20t7 -30.5t2.5 -36.5q0 -24 -24 -43.5t-77 -46.5q-24 -12 -42.5 -31.5t-18.5 -39.5q0 -51 26 -82.5t75 -32.5q9 0 23 2t24 2q16 0 29 -18t13 -38q0 -14 -13.5 -25t-26.5 -11q-26 0 -55 13t-53 37q-41 41 -67 97t-26 96q0 61 42 84 q49 27 86 51q19 12 25 31t7 48q0 8 4 15.5t11 7.5q5 0 12 -8.5zM268.5 476.5q17.5 -17.5 17.5 -42.5t-17.5 -42.5t-42.5 -17.5t-42.5 17.5t-17.5 42.5t17.5 42.5t42.5 17.5t42.5 -17.5z" />
<glyph unicode="&#xc0;" horiz-adv-x="692" d="M6 -1.5q-8 3.5 -8 9.5q0 13 33 23q29 9 50 25.5t36 51.5q53 122 92.5 221.5t94.5 248.5q11 31 14 58q3 1 14.5 4.5t21.5 10.5q8 6 12.5 18t6.5 16q1 1 2.5 0.5t2.5 -1.5q2 -5 3.5 -11t3.5 -11q74 -233 178 -534q19 -55 42 -74.5t59 -25.5q16 -3 24.5 -9.5t8.5 -13.5 q0 -10 -29 -10l-54 2q-56 4 -85 4l-105 -1q-29 0 -29 12q0 6 9.5 11.5t23.5 7.5q61 10 61 45q0 32 -39 162q-2 7 -7.5 9t-19.5 2h-189q-11 0 -17 -18q-11 -32 -26 -83.5t-15 -60.5q0 -21 16.5 -36t41.5 -21q18 -5 25.5 -9t7.5 -11q0 -11 -29 -11q-18 0 -30 1l-61 1 q-17 0 -37.5 -1.5t-30.5 -1.5q-28 -3 -52 -3q-13 0 -21 3.5zM416 282q6 0 10 1t4 4l-2 10l-78 244q-6 18 -9 18q-2 0 -8 -17l-91 -245l-2 -8q0 -5 4.5 -6t16.5 -1h155zM377 694l-45 34q-63 48 -85 68q-6 5 -9.5 9.5t-3.5 9.5q0 9 22 16t36 7q18 0 27 -13q42 -61 77 -119 q5 -8 5 -15q0 -6 -6 -6t-18 9z" />
<glyph unicode="&#xc1;" horiz-adv-x="692" d="M6 -1.5q-8 3.5 -8 9.5q0 13 33 23q29 9 50 25.5t36 51.5q53 122 92.5 221.5t94.5 248.5q11 31 14 58q3 1 14.5 4.5t21.5 10.5q8 6 12.5 18t6.5 16q1 1 2.5 0.5t2.5 -1.5q2 -5 3.5 -11t3.5 -11q74 -233 178 -534q19 -55 42 -74.5t59 -25.5q16 -3 24.5 -9.5t8.5 -13.5 q0 -10 -29 -10l-54 2q-56 4 -85 4l-105 -1q-29 0 -29 12q0 6 9.5 11.5t23.5 7.5q61 10 61 45q0 32 -39 162q-2 7 -7.5 9t-19.5 2h-189q-11 0 -17 -18q-11 -32 -26 -83.5t-15 -60.5q0 -21 16.5 -36t41.5 -21q18 -5 25.5 -9t7.5 -11q0 -11 -29 -11q-18 0 -30 1l-61 1 q-17 0 -37.5 -1.5t-30.5 -1.5q-28 -3 -52 -3q-13 0 -21 3.5zM416 282q6 0 10 1t4 4l-2 10l-78 244q-6 18 -9 18q-2 0 -8 -17l-91 -245l-2 -8q0 -5 4.5 -6t16.5 -1h155zM324 691q0 7 5 15q35 58 77 119q9 13 27 13q14 0 36 -7t22 -16q0 -5 -3.5 -9.5t-9.5 -9.5 q-22 -20 -85 -68l-45 -34q-12 -9 -18 -9t-6 6z" />
<glyph unicode="&#xc2;" horiz-adv-x="692" d="M6 -1.5q-8 3.5 -8 9.5q0 13 33 23q29 9 50 25.5t36 51.5q53 122 92.5 221.5t94.5 248.5q11 31 14 58q3 1 14.5 4.5t21.5 10.5q8 6 12.5 18t6.5 16q1 1 2.5 0.5t2.5 -1.5q2 -5 3.5 -11t3.5 -11q74 -233 178 -534q19 -55 42 -74.5t59 -25.5q16 -3 24.5 -9.5t8.5 -13.5 q0 -10 -29 -10l-54 2q-56 4 -85 4l-105 -1q-29 0 -29 12q0 6 9.5 11.5t23.5 7.5q61 10 61 45q0 32 -39 162q-2 7 -7.5 9t-19.5 2h-189q-11 0 -17 -18q-11 -32 -26 -83.5t-15 -60.5q0 -21 16.5 -36t41.5 -21q18 -5 25.5 -9t7.5 -11q0 -11 -29 -11q-18 0 -30 1l-61 1 q-17 0 -37.5 -1.5t-30.5 -1.5q-28 -3 -52 -3q-13 0 -21 3.5zM416 282q6 0 10 1t4 4l-2 10l-78 244q-6 18 -9 18q-2 0 -8 -17l-91 -245l-2 -8q0 -5 4.5 -6t16.5 -1h155zM221 699q-4 3 -4 7q0 6 7 12l98 83q16 14 23.5 18t17.5 4t17.5 -4t23.5 -18l98 -83q6 -5 6 -12 q0 -5 -3.5 -8t-10.5 -3q-9 0 -53 21t-68 35q-5 4 -10 4t-10 -4q-23 -13 -67.5 -34t-53.5 -21q-7 0 -11 3z" />
<glyph unicode="&#xc3;" horiz-adv-x="692" d="M6 -1.5q-8 3.5 -8 9.5q0 13 33 23q29 9 50 25.5t36 51.5q53 122 92.5 221.5t94.5 248.5q11 31 14 58q3 1 14.5 4.5t21.5 10.5q8 6 12.5 18t6.5 16q1 1 2.5 0.5t2.5 -1.5q2 -5 3.5 -11t3.5 -11q74 -233 178 -534q19 -55 42 -74.5t59 -25.5q16 -3 24.5 -9.5t8.5 -13.5 q0 -10 -29 -10l-54 2q-56 4 -85 4l-105 -1q-29 0 -29 12q0 6 9.5 11.5t23.5 7.5q61 10 61 45q0 32 -39 162q-2 7 -7.5 9t-19.5 2h-189q-11 0 -17 -18q-11 -32 -26 -83.5t-15 -60.5q0 -21 16.5 -36t41.5 -21q18 -5 25.5 -9t7.5 -11q0 -11 -29 -11q-18 0 -30 1l-61 1 q-17 0 -37.5 -1.5t-30.5 -1.5q-28 -3 -52 -3q-13 0 -21 3.5zM416 282q6 0 10 1t4 4l-2 10l-78 244q-6 18 -9 18q-2 0 -8 -17l-91 -245l-2 -8q0 -5 4.5 -6t16.5 -1h155zM240.5 697.5q-5.5 5.5 -5.5 10.5t16 26.5t35.5 39.5t30.5 18q40 0 68 -3q44 -4 64 -4t39 19q5 5 11 12.5 t9 7.5q8 0 13.5 -5t5.5 -12q0 -4 -14 -18q-12 -12 -27 -31t-20 -25q-5 -7 -14.5 -10.5t-14.5 -3.5q-14 0 -47 3q-75 5 -84 5q-8 0 -17.5 -3.5t-15.5 -8.5t-13.5 -14t-8.5 -9q-5 0 -10.5 5.5z" />
<glyph unicode="&#xc4;" horiz-adv-x="692" d="M6 -1.5q-8 3.5 -8 9.5q0 13 33 23q29 9 50 25.5t36 51.5q53 122 92.5 221.5t94.5 248.5q11 31 14 58q3 1 14.5 4.5t21.5 10.5q8 6 12.5 18t6.5 16q1 1 2.5 0.5t2.5 -1.5q2 -5 3.5 -11t3.5 -11q74 -233 178 -534q19 -55 42 -74.5t59 -25.5q16 -3 24.5 -9.5t8.5 -13.5 q0 -10 -29 -10l-54 2q-56 4 -85 4l-105 -1q-29 0 -29 12q0 6 9.5 11.5t23.5 7.5q61 10 61 45q0 32 -39 162q-2 7 -7.5 9t-19.5 2h-189q-11 0 -17 -18q-11 -32 -26 -83.5t-15 -60.5q0 -21 16.5 -36t41.5 -21q18 -5 25.5 -9t7.5 -11q0 -11 -29 -11q-18 0 -30 1l-61 1 q-17 0 -37.5 -1.5t-30.5 -1.5q-28 -3 -52 -3q-13 0 -21 3.5zM416 282q6 0 10 1t4 4l-2 10l-78 244q-6 18 -9 18q-2 0 -8 -17l-91 -245l-2 -8q0 -5 4.5 -6t16.5 -1h155zM230.5 709.5q-14.5 14.5 -14.5 35.5t14.5 35.5t35.5 14.5t35.5 -14.5t14.5 -35.5t-14.5 -35.5 t-35.5 -14.5t-35.5 14.5zM425.5 709.5q-14.5 14.5 -14.5 35.5t14.5 35.5t35.5 14.5t35.5 -14.5t14.5 -35.5t-14.5 -35.5t-35.5 -14.5t-35.5 14.5z" />
<glyph unicode="&#xc5;" horiz-adv-x="692" d="M6 -1.5q-8 3.5 -8 9.5q0 13 33 23q29 9 50 25.5t36 51.5q53 122 92.5 221.5t94.5 248.5q11 31 14 58q3 1 14.5 4.5t21.5 10.5q8 6 12.5 18t6.5 16q1 1 2.5 0.5t2.5 -1.5q2 -5 3.5 -11t3.5 -11q74 -233 178 -534q19 -55 42 -74.5t59 -25.5q16 -3 24.5 -9.5t8.5 -13.5 q0 -10 -29 -10l-54 2q-56 4 -85 4l-105 -1q-29 0 -29 12q0 6 9.5 11.5t23.5 7.5q61 10 61 45q0 32 -39 162q-2 7 -7.5 9t-19.5 2h-189q-11 0 -17 -18q-11 -32 -26 -83.5t-15 -60.5q0 -21 16.5 -36t41.5 -21q18 -5 25.5 -9t7.5 -11q0 -11 -29 -11q-18 0 -30 1l-61 1 q-17 0 -37.5 -1.5t-30.5 -1.5q-28 -3 -52 -3q-13 0 -21 3.5zM416 282q6 0 10 1t4 4l-2 10l-78 244q-6 18 -9 18q-2 0 -8 -17l-91 -245l-2 -8q0 -5 4.5 -6t16.5 -1h155zM419 825.5q25 -18.5 25 -48.5q0 -34 -27 -55.5t-64 -21.5q-34 0 -58.5 19t-24.5 50q0 33 27.5 54 t63.5 21q33 0 58 -18.5zM326.5 736.5q14.5 -14.5 35.5 -14.5q18 0 29 15t11 35t-14 34.5t-34 14.5q-19 0 -30.5 -14.5t-11.5 -34.5q0 -21 14.5 -35.5z" />
<glyph unicode="&#xc6;" horiz-adv-x="872" d="M-5 6q0 7 8 12t25 10q25 7 54 34.5t50 63.5l273 468q1 2 1 5q0 5 -5 8t-13 4l-88 15q-10 4 -10 13q0 5 3 8.5t7 3.5l67 -1q66 -2 108 -2q16 0 208 3l101 2q17 0 18 -9q11 -58 12 -103q0 -4 -4.5 -6.5t-9.5 -2.5t-7 2t-4 8q-12 36 -23 49q-24 27 -67 27h-131q-11 0 -23 -7 t-12 -19v-243q0 -9 5 -15.5t12 -6.5q48 0 96 2q26 1 44 18q7 6 18 24q9 17 17 17q4 0 9 -5t4 -11q-3 -34 -3 -59q0 -29 3 -73q0 -17 -9 -17t-15 7.5t-8 15.5q-7 21 -20 32t-27 12q-42 2 -103 2q-10 0 -16.5 -6t-6.5 -17v-158q0 -31 16.5 -53.5t48.5 -22.5h104q8 0 38 6 t38 12q19 15 42 63q2 5 5 7.5t7 2.5q6 0 10.5 -3t4.5 -8q0 -25 -4.5 -47.5t-12.5 -55.5q-2 -8 -4.5 -12.5t-9.5 -4.5q-82 0 -162 3q-25 1 -74 2t-88 1q-28 0 -52 -3q-51 -3 -63 -3q-29 0 -29 11q0 7 8 11t25 7q38 7 55.5 23t17.5 49v171q0 9 -4 13.5t-18 4.5h-141 q-10 0 -17 -6t-13 -17q-43 -74 -82 -150q-9 -16 -9 -30q0 -36 65 -52q18 -5 25.5 -9t7.5 -11q0 -11 -29 -11q-18 0 -30 1l-59 1q-25 0 -43 -1t-30 -2q-28 -3 -53 -3q-29 0 -29 11zM438 328q12 0 14 2t2 13v237q0 18 -3 18q-4 0 -13 -17l-136 -238q-4 -7 -4 -10q0 -5 16 -5 h124z" />
<glyph unicode="&#xc7;" horiz-adv-x="710" d="M230 27.5q-83 42.5 -133.5 119.5t-50.5 176q0 95 53 172.5t142 122.5t191 45q52 0 84.5 -5.5t93.5 -20.5q14 -4 20.5 -12t8.5 -22q8 -78 9 -115q1 -6 -4.5 -10.5t-12.5 -4.5q-13 0 -17 14q-11 43 -24.5 68.5t-37.5 42.5q-25 16 -60.5 25t-76.5 9q-76 0 -137 -40 t-96 -105.5t-35 -139.5q0 -83 35 -159.5t97.5 -124t142.5 -47.5q69 0 116.5 31.5t82.5 93.5q3 6 9 9.5t11 3.5q6 0 10 -4t4 -12q0 -12 -9 -43.5t-18 -53.5q-8 -14 -12 -18t-20 -9q-35 -14 -86 -21.5t-103 -7.5q-94 0 -177 42.5zM301.5 -266.5q-11.5 8.5 -11.5 23.5 q0 16 4.5 25t11.5 9q2 0 15 -6.5t48 -6.5q21 0 31.5 11t10.5 28q0 27 -13 40.5t-34 13.5q-6 0 -13 -1.5t-13 -1.5q-12 0 -19 6t-7 11q0 7 6 15l80 108h31l-37 -56q-4 -5 -4 -10q0 -7 10 -12q25 -10 45.5 -33.5t20.5 -55.5t-22 -58.5t-52.5 -42t-54.5 -15.5q-22 0 -33.5 8.5z " />
<glyph unicode="&#xc8;" horiz-adv-x="564" d="M37 6q0 7 8 11t25 7q39 7 56.5 23.5t17.5 51.5v450q0 35 -14.5 50.5t-52.5 22.5q-33 6 -33 20q0 11 29 11q38 0 92 -2l85 -1l137 1l85 2q17 0 18 -9q2 -8 8.5 -44t6.5 -59q0 -15 -14 -15q-5 0 -7 2t-4 8q-2 5 -8 26t-14 29q-24 27 -67 27h-131q-10 0 -23 -9.5t-13 -22.5 v-212q0 -9 5.5 -15.5t12.5 -6.5h99q28 0 39 10t19 39q6 22 18 22q4 0 8.5 -4.5t4.5 -11.5l-1 -26l-2 -44l1 -53l1 -24q0 -17 -9 -17q-15 0 -23 32q-6 24 -16.5 34.5t-29.5 10.5h-93q-19 0 -26.5 -5t-7.5 -21v-192q0 -37 15.5 -52t50.5 -15h74q33 0 54.5 4t36.5 13 q15 10 27.5 27.5t29.5 49.5q7 13 14 13q13 0 13 -14q0 -13 -11 -54.5t-20 -61.5q-1 -2 -3 -7t-4.5 -7.5t-6.5 -2.5q-20 0 -176 3q-69 3 -137 3q-28 0 -52 -3q-51 -3 -63 -3q-29 0 -29 11zM312 694l-45 34q-63 48 -85 68q-6 5 -9.5 9.5t-3.5 9.5q0 9 22 16t36 7q18 0 27 -13 q42 -61 77 -119q5 -8 5 -15q0 -6 -6 -6t-18 9z" />
<glyph unicode="&#xc9;" horiz-adv-x="564" d="M37 6q0 7 8 11t25 7q39 7 56.5 23.5t17.5 51.5v450q0 35 -14.5 50.5t-52.5 22.5q-33 6 -33 20q0 11 29 11q38 0 92 -2l85 -1l137 1l85 2q17 0 18 -9q2 -8 8.5 -44t6.5 -59q0 -15 -14 -15q-5 0 -7 2t-4 8q-2 5 -8 26t-14 29q-24 27 -67 27h-131q-10 0 -23 -9.5t-13 -22.5 v-212q0 -9 5.5 -15.5t12.5 -6.5h99q28 0 39 10t19 39q6 22 18 22q4 0 8.5 -4.5t4.5 -11.5l-1 -26l-2 -44l1 -53l1 -24q0 -17 -9 -17q-15 0 -23 32q-6 24 -16.5 34.5t-29.5 10.5h-93q-19 0 -26.5 -5t-7.5 -21v-192q0 -37 15.5 -52t50.5 -15h74q33 0 54.5 4t36.5 13 q15 10 27.5 27.5t29.5 49.5q7 13 14 13q13 0 13 -14q0 -13 -11 -54.5t-20 -61.5q-1 -2 -3 -7t-4.5 -7.5t-6.5 -2.5q-20 0 -176 3q-69 3 -137 3q-28 0 -52 -3q-51 -3 -63 -3q-29 0 -29 11zM259 691q0 7 5 15q35 58 77 119q9 13 27 13q14 0 36 -7t22 -16q0 -5 -3.5 -9.5 t-9.5 -9.5q-22 -20 -85 -68l-45 -34q-12 -9 -18 -9t-6 6z" />
<glyph unicode="&#xca;" horiz-adv-x="564" d="M37 6q0 7 8 11t25 7q39 7 56.5 23.5t17.5 51.5v450q0 35 -14.5 50.5t-52.5 22.5q-33 6 -33 20q0 11 29 11q38 0 92 -2l85 -1l137 1l85 2q17 0 18 -9q2 -8 8.5 -44t6.5 -59q0 -15 -14 -15q-5 0 -7 2t-4 8q-2 5 -8 26t-14 29q-24 27 -67 27h-131q-10 0 -23 -9.5t-13 -22.5 v-212q0 -9 5.5 -15.5t12.5 -6.5h99q28 0 39 10t19 39q6 22 18 22q4 0 8.5 -4.5t4.5 -11.5l-1 -26l-2 -44l1 -53l1 -24q0 -17 -9 -17q-15 0 -23 32q-6 24 -16.5 34.5t-29.5 10.5h-93q-19 0 -26.5 -5t-7.5 -21v-192q0 -37 15.5 -52t50.5 -15h74q33 0 54.5 4t36.5 13 q15 10 27.5 27.5t29.5 49.5q7 13 14 13q13 0 13 -14q0 -13 -11 -54.5t-20 -61.5q-1 -2 -3 -7t-4.5 -7.5t-6.5 -2.5q-20 0 -176 3q-69 3 -137 3q-28 0 -52 -3q-51 -3 -63 -3q-29 0 -29 11zM156 699q-4 3 -4 7q0 6 7 12l98 83q16 14 23.5 18t17.5 4t17.5 -4t23.5 -18l98 -83 q6 -5 6 -12q0 -5 -3.5 -8t-10.5 -3q-9 0 -53 21t-68 35q-5 4 -10 4t-10 -4q-23 -13 -67.5 -34t-53.5 -21q-7 0 -11 3z" />
<glyph unicode="&#xcb;" horiz-adv-x="564" d="M37 6q0 7 8 11t25 7q39 7 56.5 23.5t17.5 51.5v450q0 35 -14.5 50.5t-52.5 22.5q-33 6 -33 20q0 11 29 11q38 0 92 -2l85 -1l137 1l85 2q17 0 18 -9q2 -8 8.5 -44t6.5 -59q0 -15 -14 -15q-5 0 -7 2t-4 8q-2 5 -8 26t-14 29q-24 27 -67 27h-131q-10 0 -23 -9.5t-13 -22.5 v-212q0 -9 5.5 -15.5t12.5 -6.5h99q28 0 39 10t19 39q6 22 18 22q4 0 8.5 -4.5t4.5 -11.5l-1 -26l-2 -44l1 -53l1 -24q0 -17 -9 -17q-15 0 -23 32q-6 24 -16.5 34.5t-29.5 10.5h-93q-19 0 -26.5 -5t-7.5 -21v-192q0 -37 15.5 -52t50.5 -15h74q33 0 54.5 4t36.5 13 q15 10 27.5 27.5t29.5 49.5q7 13 14 13q13 0 13 -14q0 -13 -11 -54.5t-20 -61.5q-1 -2 -3 -7t-4.5 -7.5t-6.5 -2.5q-20 0 -176 3q-69 3 -137 3q-28 0 -52 -3q-51 -3 -63 -3q-29 0 -29 11zM165.5 709.5q-14.5 14.5 -14.5 35.5t14.5 35.5t35.5 14.5t35.5 -14.5t14.5 -35.5 t-14.5 -35.5t-35.5 -14.5t-35.5 14.5zM360.5 709.5q-14.5 14.5 -14.5 35.5t14.5 35.5t35.5 14.5t35.5 -14.5t14.5 -35.5t-14.5 -35.5t-35.5 -14.5t-35.5 14.5z" />
<glyph unicode="&#xcc;" horiz-adv-x="340" d="M19 6q0 7 8 11t25 7q40 7 59 23.5t19 50.5v452q0 35 -14.5 50t-52.5 22q-33 6 -33 20q0 11 29 11q28 0 64 -2l53 -1l48 1q32 2 61 2t29 -11q0 -14 -33 -20q-39 -7 -55 -22.5t-16 -49.5v-452q0 -34 19.5 -50.5t59.5 -23.5q17 -3 25 -7t8 -11q0 -11 -29 -11q-37 0 -64 3 q-32 2 -53 2q-25 0 -61 -2q-30 -3 -67 -3q-29 0 -29 11zM184 694l-45 34q-63 48 -85 68q-6 5 -9.5 9.5t-3.5 9.5q0 9 22 16t36 7q18 0 27 -13q42 -61 77 -119q5 -8 5 -15q0 -6 -6 -6t-18 9z" />
<glyph unicode="&#xcd;" horiz-adv-x="340" d="M19 6q0 7 8 11t25 7q40 7 59 23.5t19 50.5v452q0 35 -14.5 50t-52.5 22q-33 6 -33 20q0 11 29 11q28 0 64 -2l53 -1l48 1q32 2 61 2t29 -11q0 -14 -33 -20q-39 -7 -55 -22.5t-16 -49.5v-452q0 -34 19.5 -50.5t59.5 -23.5q17 -3 25 -7t8 -11q0 -11 -29 -11q-37 0 -64 3 q-32 2 -53 2q-25 0 -61 -2q-30 -3 -67 -3q-29 0 -29 11zM131 691q0 7 5 15q35 58 77 119q9 13 27 13q14 0 36 -7t22 -16q0 -5 -3.5 -9.5t-9.5 -9.5q-22 -20 -85 -68l-45 -34q-12 -9 -18 -9t-6 6z" />
<glyph unicode="&#xce;" horiz-adv-x="340" d="M19 6q0 7 8 11t25 7q40 7 59 23.5t19 50.5v452q0 35 -14.5 50t-52.5 22q-33 6 -33 20q0 11 29 11q28 0 64 -2l53 -1l48 1q32 2 61 2t29 -11q0 -14 -33 -20q-39 -7 -55 -22.5t-16 -49.5v-452q0 -34 19.5 -50.5t59.5 -23.5q17 -3 25 -7t8 -11q0 -11 -29 -11q-37 0 -64 3 q-32 2 -53 2q-25 0 -61 -2q-30 -3 -67 -3q-29 0 -29 11zM28 699q-4 3 -4 7q0 6 7 12l98 83q16 14 23.5 18t17.5 4t17.5 -4t23.5 -18l98 -83q6 -5 6 -12q0 -5 -3.5 -8t-10.5 -3q-9 0 -53 21t-68 35q-5 4 -10 4t-10 -4q-23 -13 -67.5 -34t-53.5 -21q-7 0 -11 3z" />
<glyph unicode="&#xcf;" horiz-adv-x="340" d="M19 6q0 7 8 11t25 7q40 7 59 23.5t19 50.5v452q0 35 -14.5 50t-52.5 22q-33 6 -33 20q0 11 29 11q28 0 64 -2l53 -1l48 1q32 2 61 2t29 -11q0 -14 -33 -20q-39 -7 -55 -22.5t-16 -49.5v-452q0 -34 19.5 -50.5t59.5 -23.5q17 -3 25 -7t8 -11q0 -11 -29 -11q-37 0 -64 3 q-32 2 -53 2q-25 0 -61 -2q-30 -3 -67 -3q-29 0 -29 11zM37.5 709.5q-14.5 14.5 -14.5 35.5t14.5 35.5t35.5 14.5t35.5 -14.5t14.5 -35.5t-14.5 -35.5t-35.5 -14.5t-35.5 14.5zM232.5 709.5q-14.5 14.5 -14.5 35.5t14.5 35.5t35.5 14.5t35.5 -14.5t14.5 -35.5t-14.5 -35.5 t-35.5 -14.5t-35.5 14.5z" />
<glyph unicode="&#xd0;" horiz-adv-x="754" d="M555 617.5q85 -41.5 124.5 -113t39.5 -162.5q0 -94 -47 -174.5t-127 -127.5t-174 -47l-46 2q-110 5 -162 5q-17 0 -45 -2q-22 -3 -60 -3q-29 0 -29 13q0 8 6 10t27 6q38 7 52.5 23t14.5 52v218h-69q-6 0 -10 6t-4 12q0 7 7.5 12.5t16.5 5.5h59v196q0 35 -14.5 50.5 t-52.5 22.5q-19 3 -26 6.5t-7 11.5q0 13 29 13l57 -1q15 -1 54 -1q41 0 103 5q21 1 38.5 2t29.5 1q130 0 215 -41.5zM496.5 66q60.5 38 94 105.5t33.5 153.5q0 92 -40 161t-104.5 105.5t-134.5 36.5q-53 0 -79.5 -3t-41.5 -16t-15 -42v-214h168q5 0 9.5 -3.5t4.5 -7.5l-1 -3 q-12 -22 -31 -22h-150v-196q0 -55 40.5 -74t109.5 -19q77 0 137.5 38z" />
<glyph unicode="&#xd1;" horiz-adv-x="792" d="M629.5 0q-26.5 17 -47.5 46q-8 12 -116.5 140t-157.5 187q-80 94 -94 111q-13 16 -21 16q-5 0 -7 -6.5t-2 -14.5q-5 -247 -5 -375q0 -68 64 -80q17 -3 25 -7t8 -11q0 -11 -29 -11q-37 0 -57 3q-20 2 -37 2q-15 0 -35 -2q-39 -3 -56 -3q-29 0 -29 11q0 6 7.5 10t25.5 9 q51 14 58 82q7 65 12.5 175.5t5.5 224.5q0 49 -24.5 73t-74.5 40q-9 3 -20 9.5t-11 14.5t7.5 11t15.5 3l70 -3q48 -2 84 -2q8 0 12.5 -3.5t11.5 -13.5q12 -17 169 -208t224 -272q17 -20 25 -20q9 0 10 21q2 76 2 407q-1 18 -20.5 35t-37.5 20q-45 8 -45 20q0 5 13 8t28 3h57 l50 1q32 2 65 2q29 0 29 -11q0 -14 -33 -20q-37 -7 -49 -18t-14 -36q-2 -36 -2 -463q0 -40 4 -76l1 -21q0 -25 -21 -25q-12 0 -38.5 17zM283.5 697.5q-5.5 5.5 -5.5 10.5t16 26.5t35.5 39.5t30.5 18q40 0 68 -3q44 -4 64 -4t39 19q5 5 11 12.5t9 7.5q8 0 13.5 -5t5.5 -12 q0 -4 -14 -18q-12 -12 -27 -31t-20 -25q-5 -7 -14.5 -10.5t-14.5 -3.5q-14 0 -47 3q-75 5 -84 5q-8 0 -17.5 -3.5t-15.5 -8.5t-13.5 -14t-8.5 -9q-5 0 -10.5 5.5z" />
<glyph unicode="&#xd2;" horiz-adv-x="763" d="M212.5 27.5q-76.5 41.5 -122 116.5t-45.5 171q0 92 40 172t117 128.5t184 48.5q88 0 164.5 -41.5t122 -116.5t45.5 -171q0 -92 -40 -172t-117 -128.5t-184 -48.5q-88 0 -164.5 41.5zM563 95.5q59 69.5 59 190.5q0 95 -29 171t-85.5 120.5t-137.5 44.5q-111 0 -170 -68.5 t-59 -188.5q0 -95 28.5 -172t85 -122t137.5 -45q112 0 171 69.5zM405 694l-45 34q-63 48 -85 68q-6 5 -9.5 9.5t-3.5 9.5q0 9 22 16t36 7q18 0 27 -13q42 -61 77 -119q5 -8 5 -15q0 -6 -6 -6t-18 9z" />
<glyph unicode="&#xd3;" horiz-adv-x="763" d="M212.5 27.5q-76.5 41.5 -122 116.5t-45.5 171q0 92 40 172t117 128.5t184 48.5q88 0 164.5 -41.5t122 -116.5t45.5 -171q0 -92 -40 -172t-117 -128.5t-184 -48.5q-88 0 -164.5 41.5zM563 95.5q59 69.5 59 190.5q0 95 -29 171t-85.5 120.5t-137.5 44.5q-111 0 -170 -68.5 t-59 -188.5q0 -95 28.5 -172t85 -122t137.5 -45q112 0 171 69.5zM352 691q0 7 5 15q35 58 77 119q9 13 27 13q14 0 36 -7t22 -16q0 -5 -3.5 -9.5t-9.5 -9.5q-22 -20 -85 -68l-45 -34q-12 -9 -18 -9t-6 6z" />
<glyph unicode="&#xd4;" horiz-adv-x="763" d="M212.5 27.5q-76.5 41.5 -122 116.5t-45.5 171q0 92 40 172t117 128.5t184 48.5q88 0 164.5 -41.5t122 -116.5t45.5 -171q0 -92 -40 -172t-117 -128.5t-184 -48.5q-88 0 -164.5 41.5zM563 95.5q59 69.5 59 190.5q0 95 -29 171t-85.5 120.5t-137.5 44.5q-111 0 -170 -68.5 t-59 -188.5q0 -95 28.5 -172t85 -122t137.5 -45q112 0 171 69.5zM249 699q-4 3 -4 7q0 6 7 12l98 83q16 14 23.5 18t17.5 4t17.5 -4t23.5 -18l98 -83q6 -5 6 -12q0 -5 -3.5 -8t-10.5 -3q-9 0 -53 21t-68 35q-5 4 -10 4t-10 -4q-23 -13 -67.5 -34t-53.5 -21q-7 0 -11 3z" />
<glyph unicode="&#xd5;" horiz-adv-x="763" d="M212.5 27.5q-76.5 41.5 -122 116.5t-45.5 171q0 92 40 172t117 128.5t184 48.5q88 0 164.5 -41.5t122 -116.5t45.5 -171q0 -92 -40 -172t-117 -128.5t-184 -48.5q-88 0 -164.5 41.5zM563 95.5q59 69.5 59 190.5q0 95 -29 171t-85.5 120.5t-137.5 44.5q-111 0 -170 -68.5 t-59 -188.5q0 -95 28.5 -172t85 -122t137.5 -45q112 0 171 69.5zM268.5 697.5q-5.5 5.5 -5.5 10.5t16 26.5t35.5 39.5t30.5 18q40 0 68 -3q44 -4 64 -4t39 19q5 5 11 12.5t9 7.5q8 0 13.5 -5t5.5 -12q0 -4 -14 -18q-12 -12 -27 -31t-20 -25q-5 -7 -14.5 -10.5t-14.5 -3.5 q-14 0 -47 3q-75 5 -84 5q-8 0 -17.5 -3.5t-15.5 -8.5t-13.5 -14t-8.5 -9q-5 0 -10.5 5.5z" />
<glyph unicode="&#xd6;" horiz-adv-x="763" d="M212.5 27.5q-76.5 41.5 -122 116.5t-45.5 171q0 92 40 172t117 128.5t184 48.5q88 0 164.5 -41.5t122 -116.5t45.5 -171q0 -92 -40 -172t-117 -128.5t-184 -48.5q-88 0 -164.5 41.5zM563 95.5q59 69.5 59 190.5q0 95 -29 171t-85.5 120.5t-137.5 44.5q-111 0 -170 -68.5 t-59 -188.5q0 -95 28.5 -172t85 -122t137.5 -45q112 0 171 69.5zM258.5 709.5q-14.5 14.5 -14.5 35.5t14.5 35.5t35.5 14.5t35.5 -14.5t14.5 -35.5t-14.5 -35.5t-35.5 -14.5t-35.5 14.5zM453.5 709.5q-14.5 14.5 -14.5 35.5t14.5 35.5t35.5 14.5t35.5 -14.5t14.5 -35.5 t-14.5 -35.5t-35.5 -14.5t-35.5 14.5z" />
<glyph unicode="&#xd7;" horiz-adv-x="600" d="M446 64l-142 143q-3 4 -7 0l-143 -143q-4 -4 -10 -4q-5 0 -8 3q-7 7 -14.5 18t-7.5 21q0 7 5 12l134 134q3 3 2.5 5t-3.5 5l-129 128q-5 5 -5 14q0 10 6 22.5t10 18.5q4 4 10 4t9 -4l143 -142q4 -4 5.5 -2.5l1.5 1.5l144 143q5 5 10 5q6 0 9 -5q2 -4 9.5 -17t7.5 -23 q0 -8 -7 -15l-131 -131q-2 -2 0 -5l136 -136q5 -5 5 -12q0 -13 -10.5 -27.5t-19.5 -14.5q-6 0 -10 4z" />
<glyph unicode="&#xd8;" horiz-adv-x="773" d="M641 550q37 -44 57 -98t20 -117q0 -92 -40 -172t-117 -128.5t-184 -48.5q-62 0 -119 21t-102 59l-77 -77q-3 -3 -9 -3q-10 0 -19 6t-9 14q0 10 10 20l73 72q-38 43 -59 98t-21 119q0 92 40 172t117 128.5t184 48.5q63 0 122 -22t104 -63l80 79q4 4 11 4q10 0 13 -8 q3 -12 3 -15q0 -11 -7 -18zM185 157l372 368q-68 97 -187 97q-111 0 -170 -68.5t-59 -188.5t44 -208zM579 488l-370 -369q67 -93 183 -93q112 0 171 69.5t59 190.5q0 119 -43 202z" />
<glyph unicode="&#xd9;" horiz-adv-x="738" d="M172 54q-69 68 -69 186v307q0 33 -13 50.5t-33 22.5q-33 9 -33 22q0 11 29 11l43 -1q32 -2 53 -2l48 1q12 1 32 1q29 0 29 -11q0 -6 -7 -10t-26 -10q-14 -4 -28 -24.5t-14 -47.5v-281q0 -116 57 -174t153 -58q100 0 149.5 69.5t49.5 190.5q0 61 -4 215q-1 42 -11 72.5 t-30 36.5q-33 9 -33 20t29 11l75 -1q19 0 47 2l34 1q29 0 29 -11q0 -13 -33 -20q-47 -9 -50 -75q-4 -61 -5.5 -124.5t-2.5 -85.5q0 -29 -2 -87q-2 -76 -37 -136.5t-94 -94t-132 -33.5q-131 0 -200 68zM404 694l-45 34q-63 48 -85 68q-6 5 -9.5 9.5t-3.5 9.5q0 9 22 16t36 7 q18 0 27 -13q42 -61 77 -119q5 -8 5 -15q0 -6 -6 -6t-18 9z" />
<glyph unicode="&#xda;" horiz-adv-x="738" d="M172 54q-69 68 -69 186v307q0 33 -13 50.5t-33 22.5q-33 9 -33 22q0 11 29 11l43 -1q32 -2 53 -2l48 1q12 1 32 1q29 0 29 -11q0 -6 -7 -10t-26 -10q-14 -4 -28 -24.5t-14 -47.5v-281q0 -116 57 -174t153 -58q100 0 149.5 69.5t49.5 190.5q0 61 -4 215q-1 42 -11 72.5 t-30 36.5q-33 9 -33 20t29 11l75 -1q19 0 47 2l34 1q29 0 29 -11q0 -13 -33 -20q-47 -9 -50 -75q-4 -61 -5.5 -124.5t-2.5 -85.5q0 -29 -2 -87q-2 -76 -37 -136.5t-94 -94t-132 -33.5q-131 0 -200 68zM351 691q0 7 5 15q35 58 77 119q9 13 27 13q14 0 36 -7t22 -16 q0 -5 -3.5 -9.5t-9.5 -9.5q-22 -20 -85 -68l-45 -34q-12 -9 -18 -9t-6 6z" />
<glyph unicode="&#xdb;" horiz-adv-x="738" d="M172 54q-69 68 -69 186v307q0 33 -13 50.5t-33 22.5q-33 9 -33 22q0 11 29 11l43 -1q32 -2 53 -2l48 1q12 1 32 1q29 0 29 -11q0 -6 -7 -10t-26 -10q-14 -4 -28 -24.5t-14 -47.5v-281q0 -116 57 -174t153 -58q100 0 149.5 69.5t49.5 190.5q0 61 -4 215q-1 42 -11 72.5 t-30 36.5q-33 9 -33 20t29 11l75 -1q19 0 47 2l34 1q29 0 29 -11q0 -13 -33 -20q-47 -9 -50 -75q-4 -61 -5.5 -124.5t-2.5 -85.5q0 -29 -2 -87q-2 -76 -37 -136.5t-94 -94t-132 -33.5q-131 0 -200 68zM248 699q-4 3 -4 7q0 6 7 12l98 83q16 14 23.5 18t17.5 4t17.5 -4 t23.5 -18l98 -83q6 -5 6 -12q0 -5 -3.5 -8t-10.5 -3q-9 0 -53 21t-68 35q-5 4 -10 4t-10 -4q-23 -13 -67.5 -34t-53.5 -21q-7 0 -11 3z" />
<glyph unicode="&#xdc;" horiz-adv-x="738" d="M172 54q-69 68 -69 186v307q0 33 -13 50.5t-33 22.5q-33 9 -33 22q0 11 29 11l43 -1q32 -2 53 -2l48 1q12 1 32 1q29 0 29 -11q0 -6 -7 -10t-26 -10q-14 -4 -28 -24.5t-14 -47.5v-281q0 -116 57 -174t153 -58q100 0 149.5 69.5t49.5 190.5q0 61 -4 215q-1 42 -11 72.5 t-30 36.5q-33 9 -33 20t29 11l75 -1q19 0 47 2l34 1q29 0 29 -11q0 -13 -33 -20q-47 -9 -50 -75q-4 -61 -5.5 -124.5t-2.5 -85.5q0 -29 -2 -87q-2 -76 -37 -136.5t-94 -94t-132 -33.5q-131 0 -200 68zM257.5 709.5q-14.5 14.5 -14.5 35.5t14.5 35.5t35.5 14.5t35.5 -14.5 t14.5 -35.5t-14.5 -35.5t-35.5 -14.5t-35.5 14.5zM452.5 709.5q-14.5 14.5 -14.5 35.5t14.5 35.5t35.5 14.5t35.5 -14.5t14.5 -35.5t-14.5 -35.5t-35.5 -14.5t-35.5 14.5z" />
<glyph unicode="&#xdd;" horiz-adv-x="578" d="M153 6q0 7 8 11t25 7q78 14 78 84v148q0 17 -8.5 38.5t-16.5 35.5l-117 192q-55 88 -89 98q-17 6 -25 11t-8 11q0 11 29 11l46 -1q44 -2 71 -2l48 1q12 1 32 1q29 0 29 -11q0 -12 -33 -20q-17 -4 -24.5 -9.5t-7.5 -15.5q0 -13 13 -36l92 -170q20 -38 28 -38q6 0 12 7.5 t21 30.5q30 48 66 112q4 8 18 32q18 30 18 51q0 29 -41 35q-11 2 -22 8t-11 12q0 11 29 11l75 -1q28 0 66 2l38 1q29 0 29 -11q0 -6 -13.5 -12t-39.5 -13q-24 -7 -40.5 -25t-47.5 -66q-53 -82 -111 -176q-18 -30 -21.5 -44t-3.5 -46v-152q0 -34 20.5 -55.5t58.5 -28.5 q17 -3 25 -7t8 -11q0 -11 -29 -11q-37 0 -64 3q-32 2 -53 2q-25 0 -61 -2q-30 -3 -67 -3q-29 0 -29 11zM281 691q0 7 5 15q35 58 77 119q9 13 27 13q14 0 36 -7t22 -16q0 -5 -3.5 -9.5t-9.5 -9.5q-22 -20 -85 -68l-45 -34q-12 -9 -18 -9t-6 6z" />
<glyph unicode="&#xde;" horiz-adv-x="559" d="M22 6q0 7 8 11t25 7q40 7 59.5 24t19.5 51v450q0 33 -11 50t-46 23q-33 6 -33 20q0 11 29 11q30 0 60 -2l44 -1l54 1q36 2 65 2t29 -11q0 -14 -33 -20q-40 -7 -59 -23t-19 -50v-17q0 -8 1 -14t5 -6q7 1 14 3t9 2q27 7 72 7q58 0 104 -22t73 -64.5t27 -100.5 q0 -104 -75 -156t-188 -52q-8 0 -18 1.5t-16 1.5q-8 0 -8 -9v-27q0 -31 20 -48t59 -24q17 -3 25 -7t8 -11q0 -11 -29 -11q-37 0 -64 3q-32 2 -53 2q-24 0 -62 -2q-28 -3 -67 -3q-29 0 -29 11zM388.5 206q44.5 48 44.5 129q0 69 -34 115t-100 46q-37 0 -54.5 -6t-24 -21.5 t-6.5 -48.5v-204q0 -29 14.5 -43.5t36.5 -14.5q79 0 123.5 48z" />
<glyph unicode="&#xdf;" horiz-adv-x="504" d="M262 -3q-21 12 -21 36q0 48 24 48q11 0 31 -15q18 -15 32 -20t37 -5q22 0 39.5 14.5t17.5 42.5q0 25 -16.5 46t-71.5 73q-45 44 -61 60.5t-22 29t-6 29.5q0 21 14.5 38t45.5 44q25 20 45 40q18 19 29.5 45t11.5 52q0 49 -29.5 79.5t-89.5 30.5q-53 0 -83 -45.5 t-30 -144.5v-406q0 -32 42 -45q12 -4 17.5 -7.5t5.5 -10.5q0 -9 -20 -9q-28 0 -43 3q-18 2 -36 2q-17 0 -37 -2q-15 -3 -41 -3h-3q-20 0 -20 9q0 7 5.5 10.5t17.5 7.5q42 13 42 45v281q-31 0 -52 2q-3 1 -7 6.5t-4 10.5t4 7q25 7 40 15.5t19 10.5q0 108 35 176t87 98t107 30 q39 0 70 -18.5t48.5 -49t17.5 -66.5q0 -34 -16.5 -61.5t-62.5 -67.5q-31 -27 -41 -40.5t-10 -38.5q0 -17 9 -29.5t41 -42.5q8 -7 27 -26q45 -44 59 -69.5t14 -56.5q0 -40 -23.5 -75.5t-61 -57.5t-75.5 -22q-31 0 -52 12z" />
<glyph unicode="&#xe0;" horiz-adv-x="399" d="M81 -0.5q-19 13.5 -31.5 34t-12.5 38.5q0 31 16.5 49t54.5 34l102 42q19 8 23 14t5 26l2 64q1 27 -15 45.5t-44 18.5q-15 0 -30 -5t-25 -13q-10 -7 -10 -29l1 -18q0 -8 -25.5 -21.5t-40.5 -13.5q-5 0 -8 2.5t-3 6.5q0 16 10.5 34.5t29.5 34.5q34 31 76.5 51t72.5 20 q36 0 59.5 -25.5t22.5 -63.5l-5 -240q-1 -21 9 -34t27 -13q25 0 37 11q5 5 8 5q5 0 8 -3t3 -8q0 -4 -3 -10.5t-8 -11.5q-16 -16 -34.5 -25.5t-34.5 -9.5q-46 0 -73 52h-3q-33 -27 -63 -39.5t-62 -12.5q-17 0 -36 13.5zM223 58q6 6 9 15t4 26l2 49v6q0 8 -2 11.5t-7 3.5 q-6 0 -20 -5q-50 -18 -72 -38t-22 -39q0 -25 14.5 -39t34.5 -14q35 0 59 24zM193 478q-21 21 -56 62.5t-52 66.5q-2 2 -6 8t-4 13q0 10 14.5 15.5t34.5 5.5q7 0 14.5 -5t12.5 -13q17 -29 42.5 -76t34.5 -71q4 -11 4 -18q0 -9 -8 -9q-10 0 -31 21z" />
<glyph unicode="&#xe1;" horiz-adv-x="399" d="M81 -0.5q-19 13.5 -31.5 34t-12.5 38.5q0 31 16.5 49t54.5 34l102 42q19 8 23 14t5 26l2 64q1 27 -15 45.5t-44 18.5q-15 0 -30 -5t-25 -13q-10 -7 -10 -29l1 -18q0 -8 -25.5 -21.5t-40.5 -13.5q-5 0 -8 2.5t-3 6.5q0 16 10.5 34.5t29.5 34.5q34 31 76.5 51t72.5 20 q36 0 59.5 -25.5t22.5 -63.5l-5 -240q-1 -21 9 -34t27 -13q25 0 37 11q5 5 8 5q5 0 8 -3t3 -8q0 -4 -3 -10.5t-8 -11.5q-16 -16 -34.5 -25.5t-34.5 -9.5q-46 0 -73 52h-3q-33 -27 -63 -39.5t-62 -12.5q-17 0 -36 13.5zM223 58q6 6 9 15t4 26l2 49v6q0 8 -2 11.5t-7 3.5 q-6 0 -20 -5q-50 -18 -72 -38t-22 -39q0 -25 14.5 -39t34.5 -14q35 0 59 24zM169 466q0 7 4 18q9 24 34.5 71t42.5 76q5 8 12.5 13t14.5 5q20 0 34.5 -5.5t14.5 -15.5q0 -7 -4 -13t-6 -8q-17 -25 -52 -66.5t-56 -62.5t-31 -21q-8 0 -8 9z" />
<glyph unicode="&#xe2;" horiz-adv-x="399" d="M81 -0.5q-19 13.5 -31.5 34t-12.5 38.5q0 31 16.5 49t54.5 34l102 42q19 8 23 14t5 26l2 64q1 27 -15 45.5t-44 18.5q-15 0 -30 -5t-25 -13q-10 -7 -10 -29l1 -18q0 -8 -25.5 -21.5t-40.5 -13.5q-5 0 -8 2.5t-3 6.5q0 16 10.5 34.5t29.5 34.5q34 31 76.5 51t72.5 20 q36 0 59.5 -25.5t22.5 -63.5l-5 -240q-1 -21 9 -34t27 -13q25 0 37 11q5 5 8 5q5 0 8 -3t3 -8q0 -4 -3 -10.5t-8 -11.5q-16 -16 -34.5 -25.5t-34.5 -9.5q-46 0 -73 52h-3q-33 -27 -63 -39.5t-62 -12.5q-17 0 -36 13.5zM223 58q6 6 9 15t4 26l2 49v6q0 8 -2 11.5t-7 3.5 q-6 0 -20 -5q-50 -18 -72 -38t-22 -39q0 -25 14.5 -39t34.5 -14q35 0 59 24zM221 630q19 -30 53.5 -91.5t34.5 -70.5q0 -8 -1.5 -10.5t-7.5 -2.5q-9 0 -29 22q-24 27 -66 85q-2 3 -3.5 3t-3.5 -3q-42 -58 -66 -85q-20 -22 -30 -22q-6 0 -7.5 2.5t-1.5 10.5q0 9 34.5 70.5 t53.5 91.5q11 18 20 18t20 -18z" />
<glyph unicode="&#xe3;" horiz-adv-x="399" d="M81 -0.5q-19 13.5 -31.5 34t-12.5 38.5q0 31 16.5 49t54.5 34l102 42q19 8 23 14t5 26l2 64q1 27 -15 45.5t-44 18.5q-15 0 -30 -5t-25 -13q-10 -7 -10 -29l1 -18q0 -8 -25.5 -21.5t-40.5 -13.5q-5 0 -8 2.5t-3 6.5q0 16 10.5 34.5t29.5 34.5q34 31 76.5 51t72.5 20 q36 0 59.5 -25.5t22.5 -63.5l-5 -240q-1 -21 9 -34t27 -13q25 0 37 11q5 5 8 5q5 0 8 -3t3 -8q0 -4 -3 -10.5t-8 -11.5q-16 -16 -34.5 -25.5t-34.5 -9.5q-46 0 -73 52h-3q-33 -27 -63 -39.5t-62 -12.5q-17 0 -36 13.5zM223 58q6 6 9 15t4 26l2 49v6q0 8 -2 11.5t-7 3.5 q-6 0 -20 -5q-50 -18 -72 -38t-22 -39q0 -25 14.5 -39t34.5 -14q35 0 59 24zM70 473q0 5 19.5 29.5t41.5 44.5t33 20q15 0 28.5 -2t22.5 -3q44 -4 56 -4q20 0 39 19q8 8 17 18t11 10q8 0 13.5 -5t5.5 -12q0 -4 -22 -26q-12 -11 -27 -30t-20 -26t-14.5 -10.5t-14.5 -3.5 q-12 0 -36 3q-60 5 -75 5t-39 -22q-5 -4 -12.5 -12t-10.5 -8q-16 0 -16 15z" />
<glyph unicode="&#xe4;" horiz-adv-x="399" d="M81 -0.5q-19 13.5 -31.5 34t-12.5 38.5q0 31 16.5 49t54.5 34l102 42q19 8 23 14t5 26l2 64q1 27 -15 45.5t-44 18.5q-15 0 -30 -5t-25 -13q-10 -7 -10 -29l1 -18q0 -8 -25.5 -21.5t-40.5 -13.5q-5 0 -8 2.5t-3 6.5q0 16 10.5 34.5t29.5 34.5q34 31 76.5 51t72.5 20 q36 0 59.5 -25.5t22.5 -63.5l-5 -240q-1 -21 9 -34t27 -13q25 0 37 11q5 5 8 5q5 0 8 -3t3 -8q0 -4 -3 -10.5t-8 -11.5q-16 -16 -34.5 -25.5t-34.5 -9.5q-46 0 -73 52h-3q-33 -27 -63 -39.5t-62 -12.5q-17 0 -36 13.5zM223 58q6 6 9 15t4 26l2 49v6q0 8 -2 11.5t-7 3.5 q-6 0 -20 -5q-50 -18 -72 -38t-22 -39q0 -25 14.5 -39t34.5 -14q35 0 59 24zM78.5 523.5q-15.5 15.5 -15.5 34.5t15.5 34.5t34.5 15.5t34.5 -15.5t15.5 -34.5t-15.5 -34.5t-34.5 -15.5t-34.5 15.5zM255.5 523.5q-15.5 15.5 -15.5 34.5t15.5 34.5t34.5 15.5t34.5 -15.5 t15.5 -34.5t-15.5 -34.5t-34.5 -15.5t-34.5 15.5z" />
<glyph unicode="&#xe5;" horiz-adv-x="399" d="M81 -0.5q-19 13.5 -31.5 34t-12.5 38.5q0 31 16.5 49t54.5 34l102 42q19 8 23 14t5 26l2 64q1 27 -15 45.5t-44 18.5q-15 0 -30 -5t-25 -13q-10 -7 -10 -29l1 -18q0 -8 -25.5 -21.5t-40.5 -13.5q-5 0 -8 2.5t-3 6.5q0 16 10.5 34.5t29.5 34.5q34 31 76.5 51t72.5 20 q36 0 59.5 -25.5t22.5 -63.5l-5 -240q-1 -21 9 -34t27 -13q25 0 37 11q5 5 8 5q5 0 8 -3t3 -8q0 -4 -3 -10.5t-8 -11.5q-16 -16 -34.5 -25.5t-34.5 -9.5q-46 0 -73 52h-3q-33 -27 -63 -39.5t-62 -12.5q-17 0 -36 13.5zM223 58q6 6 9 15t4 26l2 49v6q0 8 -2 11.5t-7 3.5 q-6 0 -20 -5q-50 -18 -72 -38t-22 -39q0 -25 14.5 -39t34.5 -14q35 0 59 24zM141 505q-24 25 -24 58t27 58.5t60 25.5t57 -22.5t24 -55.5q0 -38 -26.5 -63.5t-60.5 -25.5q-33 0 -57 25zM244 562q0 22 -14.5 40t-34.5 18q-37 0 -37 -52q0 -25 13.5 -43.5t33.5 -18.5 q39 0 39 56z" />
<glyph unicode="&#xe6;" horiz-adv-x="557" d="M64.5 11q-27.5 25 -27.5 54q0 31 17.5 52t55.5 38l104 47q20 9 24.5 14t4.5 17v66q0 27 -16.5 46.5t-43.5 19.5q-17 0 -36 -11t-25 -22q-4 -7 -4 -19l1 -14q0 -9 -28.5 -22t-40.5 -13q-4 0 -6 3t-2 6q0 16 10.5 34.5t29.5 34.5q29 26 71 49t78 23q15 0 36 -11t27 -22 q3 -5 5 -5l7 4q18 13 50.5 23t56.5 10q44 0 80.5 -25t36.5 -70q0 -15 -5.5 -21t-18.5 -13q-7 -4 -134 -59l-50 -22q-4 -2 -7.5 -8t-3.5 -10v-56q0 -45 25 -64t63 -19q69 0 111 48q4 4 9 4t9 -3.5t4 -7.5q0 -3 -1 -4q-35 -51 -71.5 -74t-91.5 -23q-29 0 -57.5 10.5 t-51.5 29.5q-12 12 -13 12q-4 0 -8 -4q-4 -3 -19 -16t-40 -22.5t-56 -9.5t-58.5 25zM374 262q22 8 39 15q9 3 41 15q7 2 7 14q0 29 -21 50.5t-53 21.5q-10 0 -28 -7.5t-32.5 -20.5t-14.5 -29v-67q0 -7 5 -9.5t10 -0.5q25 10 47 18zM228 59q7 6 10.5 13t3.5 24v52q0 14 -1 19 t-7 5q-4 0 -15 -3q-34 -9 -67.5 -31t-34.5 -51q0 -26 16 -40.5t33 -14.5q31 0 62 27z" />
<glyph unicode="&#xe7;" horiz-adv-x="407" d="M122.5 10.5q-40.5 25.5 -64 70t-23.5 99.5q0 64 28.5 117.5t76.5 85t106 31.5q65 0 114 -35q12 -9 12 -19q0 -13 -15 -27t-28 -14q-5 0 -10 3.5t-11 7.5q-25 19 -51 33t-43 14q-49 0 -79.5 -46t-30.5 -119q0 -46 20 -84.5t55 -60.5t77 -22q29 0 50 9.5t45 33.5q5 5 10 5 t8 -4t3 -10q0 -11 -15 -31q-24 -31 -61 -47t-83 -16q-50 0 -90.5 25.5zM139 -265q-7 9 -7 32q0 19 13 19q4 0 18.5 -5.5t34.5 -5.5q19 0 29 12.5t10 32.5q0 28 -16.5 42.5t-42.5 14.5q-7 0 -15 -3t-11 -3q-6 0 -12 4.5t-6 10.5q0 4 5 11l88 111h31l-38 -50q-5 -7 -5 -10 q0 -6 11 -11q26 -11 43.5 -31.5t17.5 -44.5q0 -37 -22.5 -68t-52.5 -49t-50 -18q-16 0 -23 9z" />
<glyph unicode="&#xe8;" horiz-adv-x="390" d="M117.5 12q-41.5 27 -64.5 76.5t-23 114.5q0 56 26.5 105t70.5 77.5t96 28.5q60 0 98.5 -35.5t38.5 -90.5q0 -31 -30 -31h-211q-14 0 -19.5 -7.5t-5.5 -29.5q0 -47 20.5 -87t56 -63.5t77.5 -23.5q59 0 98 45q6 8 11 8q8 0 8 -10q0 -19 -18 -42q-22 -29 -58 -45.5 t-76 -16.5q-54 0 -95.5 27zM212 288q47 0 74 5q8 1 8 22q0 29 -25.5 49.5t-60.5 20.5q-22 0 -45.5 -13.5t-38.5 -33.5t-15 -40q0 -10 12 -10h91zM214 478q-21 21 -56 62.5t-52 66.5q-2 2 -6 8t-4 13q0 10 14.5 15.5t34.5 5.5q7 0 14.5 -5t12.5 -13q17 -29 42.5 -76t34.5 -71 q4 -11 4 -18q0 -9 -8 -9q-10 0 -31 21z" />
<glyph unicode="&#xe9;" horiz-adv-x="390" d="M117.5 12q-41.5 27 -64.5 76.5t-23 114.5q0 56 26.5 105t70.5 77.5t96 28.5q60 0 98.5 -35.5t38.5 -90.5q0 -31 -30 -31h-211q-14 0 -19.5 -7.5t-5.5 -29.5q0 -47 20.5 -87t56 -63.5t77.5 -23.5q59 0 98 45q6 8 11 8q8 0 8 -10q0 -19 -18 -42q-22 -29 -58 -45.5 t-76 -16.5q-54 0 -95.5 27zM212 288q47 0 74 5q8 1 8 22q0 29 -25.5 49.5t-60.5 20.5q-22 0 -45.5 -13.5t-38.5 -33.5t-15 -40q0 -10 12 -10h91zM190 466q0 7 4 18q9 24 34.5 71t42.5 76q5 8 12.5 13t14.5 5q20 0 34.5 -5.5t14.5 -15.5q0 -7 -4 -13t-6 -8q-17 -25 -52 -66.5 t-56 -62.5t-31 -21q-8 0 -8 9z" />
<glyph unicode="&#xea;" horiz-adv-x="390" d="M117.5 12q-41.5 27 -64.5 76.5t-23 114.5q0 56 26.5 105t70.5 77.5t96 28.5q60 0 98.5 -35.5t38.5 -90.5q0 -31 -30 -31h-211q-14 0 -19.5 -7.5t-5.5 -29.5q0 -47 20.5 -87t56 -63.5t77.5 -23.5q59 0 98 45q6 8 11 8q8 0 8 -10q0 -19 -18 -42q-22 -29 -58 -45.5 t-76 -16.5q-54 0 -95.5 27zM212 288q47 0 74 5q8 1 8 22q0 29 -25.5 49.5t-60.5 20.5q-22 0 -45.5 -13.5t-38.5 -33.5t-15 -40q0 -10 12 -10h91zM242 630q19 -30 53.5 -91.5t34.5 -70.5q0 -8 -1.5 -10.5t-7.5 -2.5q-9 0 -29 22q-24 27 -66 85q-2 3 -3.5 3t-3.5 -3 q-42 -58 -66 -85q-20 -22 -30 -22q-6 0 -7.5 2.5t-1.5 10.5q0 9 34.5 70.5t53.5 91.5q11 18 20 18t20 -18z" />
<glyph unicode="&#xeb;" horiz-adv-x="390" d="M117.5 12q-41.5 27 -64.5 76.5t-23 114.5q0 56 26.5 105t70.5 77.5t96 28.5q60 0 98.5 -35.5t38.5 -90.5q0 -31 -30 -31h-211q-14 0 -19.5 -7.5t-5.5 -29.5q0 -47 20.5 -87t56 -63.5t77.5 -23.5q59 0 98 45q6 8 11 8q8 0 8 -10q0 -19 -18 -42q-22 -29 -58 -45.5 t-76 -16.5q-54 0 -95.5 27zM212 288q47 0 74 5q8 1 8 22q0 29 -25.5 49.5t-60.5 20.5q-22 0 -45.5 -13.5t-38.5 -33.5t-15 -40q0 -10 12 -10h91zM99.5 523.5q-15.5 15.5 -15.5 34.5t15.5 34.5t34.5 15.5t34.5 -15.5t15.5 -34.5t-15.5 -34.5t-34.5 -15.5t-34.5 15.5z M276.5 523.5q-15.5 15.5 -15.5 34.5t15.5 34.5t34.5 15.5t34.5 -15.5t15.5 -34.5t-15.5 -34.5t-34.5 -15.5t-34.5 15.5z" />
<glyph unicode="&#xec;" horiz-adv-x="245" d="M24 8q0 7 5.5 10t17.5 6q23 6 33 13.5t10 24.5v217q0 66 -45 73q-10 1 -10 13q0 11 9 12q61 14 105 50q9 7 14 7q6 0 6 -5q0 -11 -3 -38q-1 -12 -3.5 -44.5t-2.5 -52.5v-232q0 -16 10.5 -24t32.5 -14q12 -3 17.5 -6t5.5 -10q0 -11 -20 -11q-25 0 -42 3q-22 2 -39 2 q-16 0 -38 -2q-16 -3 -43 -3q-20 0 -20 11zM116 478q-21 21 -56 62.5t-52 66.5q-2 2 -6 8t-4 13q0 10 14.5 15.5t34.5 5.5q7 0 14.5 -5t12.5 -13q17 -29 42.5 -76t34.5 -71q4 -11 4 -18q0 -9 -8 -9q-10 0 -31 21z" />
<glyph unicode="&#xed;" horiz-adv-x="245" d="M24 8q0 7 5.5 10t17.5 6q23 6 33 13.5t10 24.5v217q0 66 -45 73q-10 1 -10 13q0 11 9 12q61 14 105 50q9 7 14 7q6 0 6 -5q0 -11 -3 -38q-1 -12 -3.5 -44.5t-2.5 -52.5v-232q0 -16 10.5 -24t32.5 -14q12 -3 17.5 -6t5.5 -10q0 -11 -20 -11q-25 0 -42 3q-22 2 -39 2 q-16 0 -38 -2q-16 -3 -43 -3q-20 0 -20 11zM92 466q0 7 4 18q9 24 34.5 71t42.5 76q5 8 12.5 13t14.5 5q20 0 34.5 -5.5t14.5 -15.5q0 -7 -4 -13t-6 -8q-17 -25 -52 -66.5t-56 -62.5t-31 -21q-8 0 -8 9z" />
<glyph unicode="&#xee;" horiz-adv-x="245" d="M24 8q0 7 5.5 10t17.5 6q23 6 33 13.5t10 24.5v217q0 66 -45 73q-10 1 -10 13q0 11 9 12q61 14 105 50q9 7 14 7q6 0 6 -5q0 -11 -3 -38q-1 -12 -3.5 -44.5t-2.5 -52.5v-232q0 -16 10.5 -24t32.5 -14q12 -3 17.5 -6t5.5 -10q0 -11 -20 -11q-25 0 -42 3q-22 2 -39 2 q-16 0 -38 -2q-16 -3 -43 -3q-20 0 -20 11zM144 630q19 -30 53.5 -91.5t34.5 -70.5q0 -8 -1.5 -10.5t-7.5 -2.5q-9 0 -29 22q-24 27 -66 85q-2 3 -3.5 3t-3.5 -3q-42 -58 -66 -85q-20 -22 -30 -22q-6 0 -7.5 2.5t-1.5 10.5q0 9 34.5 70.5t53.5 91.5q11 18 20 18t20 -18z" />
<glyph unicode="&#xef;" horiz-adv-x="245" d="M24 8q0 7 5.5 10t17.5 6q23 6 33 13.5t10 24.5v217q0 66 -45 73q-10 1 -10 13q0 11 9 12q61 14 105 50q9 7 14 7q6 0 6 -5q0 -11 -3 -38q-1 -12 -3.5 -44.5t-2.5 -52.5v-232q0 -16 10.5 -24t32.5 -14q12 -3 17.5 -6t5.5 -10q0 -11 -20 -11q-25 0 -42 3q-22 2 -39 2 q-16 0 -38 -2q-16 -3 -43 -3q-20 0 -20 11zM1.5 523.5q-15.5 15.5 -15.5 34.5t15.5 34.5t34.5 15.5t34.5 -15.5t15.5 -34.5t-15.5 -34.5t-34.5 -15.5t-34.5 15.5zM178.5 523.5q-15.5 15.5 -15.5 34.5t15.5 34.5t34.5 15.5t34.5 -15.5t15.5 -34.5t-15.5 -34.5t-34.5 -15.5 t-34.5 15.5z" />
<glyph unicode="&#xf0;" horiz-adv-x="487" d="M128 11q-47 25 -75 71t-28 104q0 61 32 113.5t85 83.5t114 31q44 0 87 -23l6 -2q4 0 2 11q-28 104 -68 152l-155 -80q-2 -1 -5 -1q-4 0 -6.5 3t-2.5 6q0 31 8 35l132 69q-39 37 -84.5 61t-85.5 33q-9 2 -14.5 5t-5.5 10q0 12 26 12q47 0 106 -25t113 -68l101 53q7 5 17 5 q8 0 8 -6q0 -16 -3.5 -26.5t-14.5 -15.5l-75 -39q51 -55 82.5 -133.5t31.5 -199.5q0 -62 -26 -123t-77 -101t-122 -40q-56 0 -103 25zM315 44q29 28 46 75t17 100q0 76 -33 110q-22 23 -50.5 37t-58.5 14q-41 0 -70 -24.5t-43.5 -63.5t-14.5 -82q0 -49 19.5 -94t52.5 -72.5 t72 -27.5q34 0 63 28z" />
<glyph unicode="&#xf1;" horiz-adv-x="528" d="M24 8q0 7 5 9.5t18 6.5q21 5 32 12.5t11 25.5v215q0 32 -7 49t-30 23q-10 3 -10 13q0 11 9 12q31 8 52.5 20t47.5 31q7 5 11 5q5 0 5 -7l-2 -21q-1 -8 -2 -19.5t-1 -23.5q0 -10 2 -12q36 34 75 50.5t86 16.5q48 0 80.5 -40t32.5 -99v-213q0 -18 10.5 -24.5t32.5 -13.5 q12 -4 17.5 -7.5t5.5 -10.5q0 -9 -20 -9q-27 0 -43 3q-20 2 -37 2q-16 0 -38 -2q-16 -3 -44 -3q-20 0 -20 9q0 7 5.5 10.5t17.5 7.5q22 7 32.5 13.5t10.5 24.5v210q0 43 -24.5 68t-65.5 26q-62 0 -111 -40q-8 -8 -8 -23v-241q0 -18 11 -25.5t32 -12.5q12 -3 17.5 -6.5 t5.5 -9.5q0 -11 -20 -11q-26 0 -43 3q-22 2 -38 2t-38 -2q-16 -3 -43 -3q-20 0 -20 11zM126 473q0 5 19.5 29.5t41.5 44.5t33 20q15 0 28.5 -2t22.5 -3q44 -4 56 -4q20 0 39 19q8 8 17 18t11 10q8 0 13.5 -5t5.5 -12q0 -4 -22 -26q-12 -11 -27 -30t-20 -26t-14.5 -10.5 t-14.5 -3.5q-12 0 -36 3q-60 5 -75 5t-39 -22q-5 -4 -12.5 -12t-10.5 -8q-16 0 -16 15z" />
<glyph unicode="&#xf2;" horiz-adv-x="495" d="M133.5 12q-45.5 26 -72 72t-26.5 103q0 55 29.5 108t80 86t109.5 33q57 0 104 -27.5t74.5 -74t27.5 -99.5q0 -60 -26 -112t-77 -83.5t-123 -31.5q-55 0 -100.5 26zM358 71q20 39 20 118q0 48 -18 93t-50 73t-73 28q-29 0 -50 -9t-38 -31q-18 -23 -25 -56.5t-7 -76.5 q0 -50 18 -94.5t49.5 -72t70.5 -27.5q75 0 103 55zM246 478q-21 21 -56 62.5t-52 66.5q-2 2 -6 8t-4 13q0 10 14.5 15.5t34.5 5.5q7 0 14.5 -5t12.5 -13q17 -29 42.5 -76t34.5 -71q4 -11 4 -18q0 -9 -8 -9q-10 0 -31 21z" />
<glyph unicode="&#xf3;" horiz-adv-x="495" d="M133.5 12q-45.5 26 -72 72t-26.5 103q0 55 29.5 108t80 86t109.5 33q57 0 104 -27.5t74.5 -74t27.5 -99.5q0 -60 -26 -112t-77 -83.5t-123 -31.5q-55 0 -100.5 26zM358 71q20 39 20 118q0 48 -18 93t-50 73t-73 28q-29 0 -50 -9t-38 -31q-18 -23 -25 -56.5t-7 -76.5 q0 -50 18 -94.5t49.5 -72t70.5 -27.5q75 0 103 55zM222 466q0 7 4 18q9 24 34.5 71t42.5 76q5 8 12.5 13t14.5 5q20 0 34.5 -5.5t14.5 -15.5q0 -7 -4 -13t-6 -8q-17 -25 -52 -66.5t-56 -62.5t-31 -21q-8 0 -8 9z" />
<glyph unicode="&#xf4;" horiz-adv-x="495" d="M133.5 12q-45.5 26 -72 72t-26.5 103q0 55 29.5 108t80 86t109.5 33q57 0 104 -27.5t74.5 -74t27.5 -99.5q0 -60 -26 -112t-77 -83.5t-123 -31.5q-55 0 -100.5 26zM358 71q20 39 20 118q0 48 -18 93t-50 73t-73 28q-29 0 -50 -9t-38 -31q-18 -23 -25 -56.5t-7 -76.5 q0 -50 18 -94.5t49.5 -72t70.5 -27.5q75 0 103 55zM274 630q19 -30 53.5 -91.5t34.5 -70.5q0 -8 -1.5 -10.5t-7.5 -2.5q-9 0 -29 22q-24 27 -66 85q-2 3 -3.5 3t-3.5 -3q-42 -58 -66 -85q-20 -22 -30 -22q-6 0 -7.5 2.5t-1.5 10.5q0 9 34.5 70.5t53.5 91.5q11 18 20 18 t20 -18z" />
<glyph unicode="&#xf5;" horiz-adv-x="495" d="M133.5 12q-45.5 26 -72 72t-26.5 103q0 55 29.5 108t80 86t109.5 33q57 0 104 -27.5t74.5 -74t27.5 -99.5q0 -60 -26 -112t-77 -83.5t-123 -31.5q-55 0 -100.5 26zM358 71q20 39 20 118q0 48 -18 93t-50 73t-73 28q-29 0 -50 -9t-38 -31q-18 -23 -25 -56.5t-7 -76.5 q0 -50 18 -94.5t49.5 -72t70.5 -27.5q75 0 103 55zM109 473q0 5 19.5 29.5t41.5 44.5t33 20q15 0 28.5 -2t22.5 -3q44 -4 56 -4q20 0 39 19q8 8 17 18t11 10q8 0 13.5 -5t5.5 -12q0 -4 -22 -26q-12 -11 -27 -30t-20 -26t-14.5 -10.5t-14.5 -3.5q-12 0 -36 3q-60 5 -75 5 t-39 -22q-5 -4 -12.5 -12t-10.5 -8q-16 0 -16 15z" />
<glyph unicode="&#xf6;" horiz-adv-x="495" d="M133.5 12q-45.5 26 -72 72t-26.5 103q0 55 29.5 108t80 86t109.5 33q57 0 104 -27.5t74.5 -74t27.5 -99.5q0 -60 -26 -112t-77 -83.5t-123 -31.5q-55 0 -100.5 26zM358 71q20 39 20 118q0 48 -18 93t-50 73t-73 28q-29 0 -50 -9t-38 -31q-18 -23 -25 -56.5t-7 -76.5 q0 -50 18 -94.5t49.5 -72t70.5 -27.5q75 0 103 55zM131.5 523.5q-15.5 15.5 -15.5 34.5t15.5 34.5t34.5 15.5t34.5 -15.5t15.5 -34.5t-15.5 -34.5t-34.5 -15.5t-34.5 15.5zM308.5 523.5q-15.5 15.5 -15.5 34.5t15.5 34.5t34.5 15.5t34.5 -15.5t15.5 -34.5t-15.5 -34.5 t-34.5 -15.5t-34.5 15.5z" />
<glyph unicode="&#xf7;" horiz-adv-x="590" d="M260 366q-14 14 -14 33t14 33t33 14q20 0 33.5 -13.5t13.5 -33.5q0 -19 -13.5 -33t-33.5 -14q-19 0 -33 14zM74.5 234q-4.5 3 -4.5 7q0 12 5 26.5t18 14.5h418q4 0 8 -3t4 -7q0 -15 -8.5 -28t-21.5 -13h-409q-5 0 -9.5 3zM261 81q-14 14 -14 33t14 33t33 14 q20 0 33.5 -13.5t13.5 -33.5q0 -19 -13.5 -33t-33.5 -14q-19 0 -33 14z" />
<glyph unicode="&#xf8;" horiz-adv-x="485" d="M415 338q21 -27 33 -59t12 -66q0 -60 -26 -112t-77 -83.5t-123 -31.5q-76 0 -131 47l-46 -45q-3 -3 -7 -3q-9 0 -16.5 6.5t-7.5 13.5q0 12 10 20l39 38q-40 53 -40 124q0 55 29.5 108t80 86t109.5 33q38 0 72.5 -13t62.5 -37l49 47q4 4 11 4q14 0 14 -15q0 -7 -3 -14.5 t-8 -11.5zM134 119l208 199q-20 30 -46.5 47.5t-58.5 17.5q-29 0 -50 -9t-38 -31q-18 -23 -25 -56.5t-7 -76.5q0 -48 17 -91zM359 284l-207 -203q19 -30 45.5 -47.5t57.5 -17.5q75 0 103 55q20 39 20 118q0 48 -19 95z" />
<glyph unicode="&#xf9;" horiz-adv-x="527" d="M359 -11l2 27q3 20 3 35v6q-38 -38 -78 -54.5t-87 -16.5q-51 0 -82.5 31t-31.5 88v203q0 22 -10 35t-33 22q-13 4 -13 16q0 14 15 16q31 2 49 5t50 11l8 1q11 0 10 -14q-6 -46 -6 -77v-195q0 -36 26 -63.5t58 -27.5q30 0 48.5 3.5t35.5 16.5q18 13 31.5 30.5t13.5 44.5 v183q0 27 -22.5 38.5t-44.5 11.5q-21 0 -21 17q0 15 21 15q43 1 68.5 4.5t54.5 11.5q6 2 10 2q5 0 9 -3t4 -8l-2 -9q-2 -11 -4.5 -31.5t-2.5 -37.5v-231q0 -50 18 -50l23 2l23 1q15 0 15 -13q0 -8 -3.5 -10.5t-10.5 -3.5q-34 -5 -60 -13t-57 -21q-12 -6 -20 -6q-7 0 -7 8z M244 478q-21 21 -56 62.5t-52 66.5q-2 2 -6 8t-4 13q0 10 14.5 15.5t34.5 5.5q7 0 14.5 -5t12.5 -13q17 -29 42.5 -76t34.5 -71q4 -11 4 -18q0 -9 -8 -9q-10 0 -31 21z" />
<glyph unicode="&#xfa;" horiz-adv-x="527" d="M359 -11l2 27q3 20 3 35v6q-38 -38 -78 -54.5t-87 -16.5q-51 0 -82.5 31t-31.5 88v203q0 22 -10 35t-33 22q-13 4 -13 16q0 14 15 16q31 2 49 5t50 11l8 1q11 0 10 -14q-6 -46 -6 -77v-195q0 -36 26 -63.5t58 -27.5q30 0 48.5 3.5t35.5 16.5q18 13 31.5 30.5t13.5 44.5 v183q0 27 -22.5 38.5t-44.5 11.5q-21 0 -21 17q0 15 21 15q43 1 68.5 4.5t54.5 11.5q6 2 10 2q5 0 9 -3t4 -8l-2 -9q-2 -11 -4.5 -31.5t-2.5 -37.5v-231q0 -50 18 -50l23 2l23 1q15 0 15 -13q0 -8 -3.5 -10.5t-10.5 -3.5q-34 -5 -60 -13t-57 -21q-12 -6 -20 -6q-7 0 -7 8z M220 466q0 7 4 18q9 24 34.5 71t42.5 76q5 8 12.5 13t14.5 5q20 0 34.5 -5.5t14.5 -15.5q0 -7 -4 -13t-6 -8q-17 -25 -52 -66.5t-56 -62.5t-31 -21q-8 0 -8 9z" />
<glyph unicode="&#xfb;" horiz-adv-x="527" d="M359 -11l2 27q3 20 3 35v6q-38 -38 -78 -54.5t-87 -16.5q-51 0 -82.5 31t-31.5 88v203q0 22 -10 35t-33 22q-13 4 -13 16q0 14 15 16q31 2 49 5t50 11l8 1q11 0 10 -14q-6 -46 -6 -77v-195q0 -36 26 -63.5t58 -27.5q30 0 48.5 3.5t35.5 16.5q18 13 31.5 30.5t13.5 44.5 v183q0 27 -22.5 38.5t-44.5 11.5q-21 0 -21 17q0 15 21 15q43 1 68.5 4.5t54.5 11.5q6 2 10 2q5 0 9 -3t4 -8l-2 -9q-2 -11 -4.5 -31.5t-2.5 -37.5v-231q0 -50 18 -50l23 2l23 1q15 0 15 -13q0 -8 -3.5 -10.5t-10.5 -3.5q-34 -5 -60 -13t-57 -21q-12 -6 -20 -6q-7 0 -7 8z M272 630q19 -30 53.5 -91.5t34.5 -70.5q0 -8 -1.5 -10.5t-7.5 -2.5q-9 0 -29 22q-24 27 -66 85q-2 3 -3.5 3t-3.5 -3q-42 -58 -66 -85q-20 -22 -30 -22q-6 0 -7.5 2.5t-1.5 10.5q0 9 34.5 70.5t53.5 91.5q11 18 20 18t20 -18z" />
<glyph unicode="&#xfc;" horiz-adv-x="527" d="M359 -11l2 27q3 20 3 35v6q-38 -38 -78 -54.5t-87 -16.5q-51 0 -82.5 31t-31.5 88v203q0 22 -10 35t-33 22q-13 4 -13 16q0 14 15 16q31 2 49 5t50 11l8 1q11 0 10 -14q-6 -46 -6 -77v-195q0 -36 26 -63.5t58 -27.5q30 0 48.5 3.5t35.5 16.5q18 13 31.5 30.5t13.5 44.5 v183q0 27 -22.5 38.5t-44.5 11.5q-21 0 -21 17q0 15 21 15q43 1 68.5 4.5t54.5 11.5q6 2 10 2q5 0 9 -3t4 -8l-2 -9q-2 -11 -4.5 -31.5t-2.5 -37.5v-231q0 -50 18 -50l23 2l23 1q15 0 15 -13q0 -8 -3.5 -10.5t-10.5 -3.5q-34 -5 -60 -13t-57 -21q-12 -6 -20 -6q-7 0 -7 8z M129.5 523.5q-15.5 15.5 -15.5 34.5t15.5 34.5t34.5 15.5t34.5 -15.5t15.5 -34.5t-15.5 -34.5t-34.5 -15.5t-34.5 15.5zM306.5 523.5q-15.5 15.5 -15.5 34.5t15.5 34.5t34.5 15.5t34.5 -15.5t15.5 -34.5t-15.5 -34.5t-34.5 -15.5t-34.5 15.5z" />
<glyph unicode="&#xfd;" horiz-adv-x="438" d="M27.5 -275q-14.5 10 -14.5 31q0 19 9 32t24 13q8 0 21.5 -3t18.5 -3q12 0 19 11q19 29 42 76.5t43 101.5q3 9 3 23q0 18 -4 29l-116 293q-17 41 -45 49q-12 4 -17.5 7.5t-5.5 10.5q0 9 20 9q26 0 39 -3q18 -2 34 -2q17 0 35 2q15 3 41 3q7 0 13.5 -3t6.5 -8 q0 -7 -9.5 -13t-19.5 -9q-11 -3 -15.5 -10.5t-4.5 -21.5q0 -9 8 -28l81 -200q2 -6 6 -6q3 0 5 6l69 183q3 7 5.5 18.5t2.5 18.5q0 17 -5 25.5t-15 12.5q-29 13 -29 24q0 5 6.5 8t13.5 3q5 0 23 -2q36 -3 48 -3q14 0 38 3q12 2 21 2q20 0 20 -9q0 -7 -5.5 -10.5t-17.5 -7.5 q-15 -5 -32 -24t-27 -43l-136 -324l-15 -37q-62 -150 -81 -194q-9 -20 -26 -30.5t-39 -10.5t-36.5 10zM210 466q0 7 4 18q9 24 34.5 71t42.5 76q5 8 12.5 13t14.5 5q20 0 34.5 -5.5t14.5 -15.5q0 -7 -4 -13t-6 -8q-17 -25 -52 -66.5t-56 -62.5t-31 -21q-8 0 -8 9z" />
<glyph unicode="&#xfe;" horiz-adv-x="505" d="M22.5 -283.5q-6.5 1.5 -6.5 7.5q0 7 5.5 10.5t17.5 7.5q24 7 35 14t11 25v785q0 27 -11.5 47.5t-34.5 25.5q-4 1 -6 4.5t-2 8.5q0 10 7 12q45 10 92 31l24 9l2 1q2 0 4 -2t2 -5q0 -6 -3 -38.5t-4 -97.5v-176q0 -36 2 -38q11 11 38 27t60 27.5t62 11.5q49 0 86.5 -27 t57.5 -70.5t20 -91.5q0 -59 -30 -114.5t-82 -90t-113 -34.5q-22 0 -53 9.5t-45 22.5q-3 0 -3 -51v-186q0 -19 9.5 -26t30.5 -13q12 -4 17.5 -7.5t5.5 -10.5q0 -6 -6.5 -7.5t-16.5 -1.5q-26 0 -41 3q-20 2 -37 2t-37 -2q-15 -3 -41 -3q-10 0 -16.5 1.5zM325.5 34.5 q30.5 17.5 53 57.5t22.5 101q0 101 -43.5 138.5t-92.5 37.5q-48 0 -86 -29q-12 -9 -18 -25.5t-6 -45.5v-154q0 -19 5 -40t18 -33q12 -11 36.5 -18t56.5 -7q24 0 54.5 17.5z" />
<glyph unicode="&#xff;" horiz-adv-x="438" d="M27.5 -275q-14.5 10 -14.5 31q0 19 9 32t24 13q8 0 21.5 -3t18.5 -3q12 0 19 11q19 29 42 76.5t43 101.5q3 9 3 23q0 18 -4 29l-116 293q-17 41 -45 49q-12 4 -17.5 7.5t-5.5 10.5q0 9 20 9q26 0 39 -3q18 -2 34 -2q17 0 35 2q15 3 41 3q7 0 13.5 -3t6.5 -8 q0 -7 -9.5 -13t-19.5 -9q-11 -3 -15.5 -10.5t-4.5 -21.5q0 -9 8 -28l81 -200q2 -6 6 -6q3 0 5 6l69 183q3 7 5.5 18.5t2.5 18.5q0 17 -5 25.5t-15 12.5q-29 13 -29 24q0 5 6.5 8t13.5 3q5 0 23 -2q36 -3 48 -3q14 0 38 3q12 2 21 2q20 0 20 -9q0 -7 -5.5 -10.5t-17.5 -7.5 q-15 -5 -32 -24t-27 -43l-136 -324l-15 -37q-62 -150 -81 -194q-9 -20 -26 -30.5t-39 -10.5t-36.5 10zM119.5 523.5q-15.5 15.5 -15.5 34.5t15.5 34.5t34.5 15.5t34.5 -15.5t15.5 -34.5t-15.5 -34.5t-34.5 -15.5t-34.5 15.5zM296.5 523.5q-15.5 15.5 -15.5 34.5t15.5 34.5 t34.5 15.5t34.5 -15.5t15.5 -34.5t-15.5 -34.5t-34.5 -15.5t-34.5 15.5z" />
<glyph unicode="&#x131;" horiz-adv-x="245" d="M24 8q0 7 5.5 10t17.5 6q23 6 33 13.5t10 24.5v217q0 66 -45 73q-10 1 -10 13q0 11 9 12q61 14 105 50q9 7 14 7q6 0 6 -5q0 -11 -3 -38q-1 -12 -3.5 -44.5t-2.5 -52.5v-232q0 -16 10.5 -24t32.5 -14q12 -3 17.5 -6t5.5 -10q0 -11 -20 -11q-25 0 -42 3q-22 2 -39 2 q-16 0 -38 -2q-16 -3 -43 -3q-20 0 -20 11z" />
<glyph unicode="&#x152;" horiz-adv-x="947" d="M922 128q0 -13 -11 -54.5t-20 -61.5q-1 -2 -3 -7t-4.5 -7.5t-6.5 -2.5q-20 0 -176 3q-69 3 -137 3q-29 0 -52 -3q-42 -3 -49 -3q-40 -9 -86 -9q-88 0 -164.5 41.5t-122 116.5t-45.5 171q0 92 40 172t117 128.5t184 48.5q43 0 87 -11l79 -1q48 -2 81 -2l137 1l85 2 q17 0 18 -9q2 -8 8.5 -44t6.5 -59q0 -15 -14 -15q-5 0 -7 2t-4 8q-2 5 -8 26t-14 29q-24 27 -67 27h-131q-10 0 -23 -9.5t-13 -22.5v-212q0 -9 5.5 -15.5t12.5 -6.5h99q28 0 39 10t19 39q6 22 18 22q4 0 8.5 -4.5t4.5 -11.5l-1 -26l-2 -44l1 -53l1 -24q0 -17 -9 -17 q-15 0 -23 32q-6 24 -16.5 34.5t-29.5 10.5h-93q-19 0 -26.5 -5t-7.5 -21v-192q0 -37 15.5 -52t50.5 -15h74q33 0 54.5 4t36.5 13q15 10 27.5 27.5t29.5 49.5q7 13 14 13q13 0 13 -14zM208 113q65 -87 183 -87q47 0 77 5.5t45 19.5q14 17 14 48v444q-6 48 -48 64t-109 16 q-110 0 -168.5 -74.5t-58.5 -203.5q0 -145 65 -232z" />
<glyph unicode="&#x153;" horiz-adv-x="758" d="M133.5 12q-45.5 26 -72 72t-26.5 103q0 55 29.5 108t80 86t109.5 33q57 0 104 -27.5t74.5 -74t27.5 -99.5q0 -60 -26 -112t-77 -83.5t-123 -31.5q-55 0 -100.5 26zM358 71q20 39 20 118q0 48 -18 93t-50 73t-73 28q-29 0 -50 -9t-38 -31q-18 -23 -25 -56.5t-7 -76.5 q0 -50 18 -94.5t49.5 -72t70.5 -27.5q75 0 103 55zM485.5 12q-41.5 27 -64.5 76.5t-23 114.5q0 56 26.5 105t70.5 77.5t96 28.5q60 0 98.5 -35.5t38.5 -90.5q0 -31 -30 -31h-211q-14 0 -19.5 -7.5t-5.5 -29.5q0 -47 20.5 -87t56 -63.5t77.5 -23.5q59 0 98 45q6 8 11 8 q8 0 8 -10q0 -19 -18 -42q-22 -29 -58 -45.5t-76 -16.5q-54 0 -95.5 27zM580 288q47 0 74 5q8 1 8 22q0 29 -25.5 49.5t-60.5 20.5q-22 0 -45.5 -13.5t-38.5 -33.5t-15 -40q0 -10 12 -10h91z" />
<glyph unicode="&#x178;" horiz-adv-x="578" d="M153 6q0 7 8 11t25 7q78 14 78 84v148q0 17 -8.5 38.5t-16.5 35.5l-117 192q-55 88 -89 98q-17 6 -25 11t-8 11q0 11 29 11l46 -1q44 -2 71 -2l48 1q12 1 32 1q29 0 29 -11q0 -12 -33 -20q-17 -4 -24.5 -9.5t-7.5 -15.5q0 -13 13 -36l92 -170q20 -38 28 -38q6 0 12 7.5 t21 30.5q30 48 66 112q4 8 18 32q18 30 18 51q0 29 -41 35q-11 2 -22 8t-11 12q0 11 29 11l75 -1q28 0 66 2l38 1q29 0 29 -11q0 -6 -13.5 -12t-39.5 -13q-24 -7 -40.5 -25t-47.5 -66q-53 -82 -111 -176q-18 -30 -21.5 -44t-3.5 -46v-152q0 -34 20.5 -55.5t58.5 -28.5 q17 -3 25 -7t8 -11q0 -11 -29 -11q-37 0 -64 3q-32 2 -53 2q-25 0 -61 -2q-30 -3 -67 -3q-29 0 -29 11zM187.5 709.5q-14.5 14.5 -14.5 35.5t14.5 35.5t35.5 14.5t35.5 -14.5t14.5 -35.5t-14.5 -35.5t-35.5 -14.5t-35.5 14.5zM382.5 709.5q-14.5 14.5 -14.5 35.5t14.5 35.5 t35.5 14.5t35.5 -14.5t14.5 -35.5t-14.5 -35.5t-35.5 -14.5t-35.5 14.5z" />
<glyph unicode="&#x2c6;" horiz-adv-x="300" d="M170 630q19 -30 53.5 -91.5t34.5 -70.5q0 -8 -1.5 -10.5t-7.5 -2.5q-9 0 -29 22q-24 27 -66 85q-2 3 -3.5 3t-3.5 -3q-42 -58 -66 -85q-20 -22 -30 -22q-6 0 -7.5 2.5t-1.5 10.5q0 9 34.5 70.5t53.5 91.5q11 18 20 18t20 -18z" />
<glyph unicode="&#x2d9;" horiz-adv-x="200" d="M64.5 530.5q-14.5 14.5 -14.5 35.5q0 22 14.5 36.5t35.5 14.5q22 0 36.5 -14.5t14.5 -36.5q0 -21 -14.5 -35.5t-36.5 -14.5q-21 0 -35.5 14.5z" />
<glyph unicode="&#x2dc;" horiz-adv-x="300" d="M6 473q0 5 19.5 29.5t41.5 44.5t33 20q15 0 28.5 -2t22.5 -3q44 -4 56 -4q20 0 39 19q8 8 17 18t11 10q8 0 13.5 -5t5.5 -12q0 -4 -22 -26q-12 -11 -27 -30t-20 -26t-14.5 -10.5t-14.5 -3.5q-12 0 -36 3q-60 5 -75 5t-39 -22q-5 -4 -12.5 -12t-10.5 -8q-16 0 -16 15z" />
<glyph unicode="&#x300;" d="M40 478q-21 21 -56 62.5t-52 66.5q-2 2 -6 8t-4 13q0 10 14.5 15.5t34.5 5.5q7 0 14.5 -5t12.5 -13q17 -29 42.5 -76t34.5 -71q4 -11 4 -18q0 -9 -8 -9q-10 0 -31 21z" />
<glyph unicode="&#x301;" d="M-78 466q0 7 4 18q9 24 34.5 71t42.5 76q5 8 12.5 13t14.5 5q20 0 34.5 -5.5t14.5 -15.5q0 -7 -4 -13t-6 -8q-17 -25 -52 -66.5t-56 -62.5t-31 -21q-8 0 -8 9z" />
<glyph unicode="&#x303;" d="M-140 473q0 5 19.5 29.5t41.5 44.5t33 20q15 0 28.5 -2t22.5 -3q44 -4 56 -4q20 0 39 19q8 8 17 18t11 10q8 0 13.5 -5t5.5 -12q0 -4 -22 -26q-12 -11 -27 -30t-20 -26t-14.5 -10.5t-14.5 -3.5q-12 0 -36 3q-60 5 -75 5t-39 -22q-5 -4 -12.5 -12t-10.5 -8q-16 0 -16 15z " />
<glyph unicode="&#x30a;" d="M-60 505q-24 25 -24 58t27 58.5t60 25.5t57 -22.5t24 -55.5q0 -38 -26.5 -63.5t-60.5 -25.5q-33 0 -57 25zM43 562q0 22 -14.5 40t-34.5 18q-37 0 -37 -52q0 -25 13.5 -43.5t33.5 -18.5q39 0 39 56z" />
<glyph unicode="&#x327;" d="M-71 -265q-7 9 -7 32q0 19 13 19q4 0 18.5 -5.5t34.5 -5.5q19 0 29 12.5t10 32.5q0 28 -16.5 42.5t-42.5 14.5q-7 0 -15 -3t-11 -3q-6 0 -12 4.5t-6 10.5q0 4 5 11l88 111h31l-38 -50q-5 -7 -5 -10q0 -6 11 -11q26 -11 43.5 -31.5t17.5 -44.5q0 -37 -22.5 -68t-52.5 -49 t-50 -18q-16 0 -23 9z" />
<glyph unicode="&#x2000;" horiz-adv-x="422" />
<glyph unicode="&#x2001;" horiz-adv-x="844" />
<glyph unicode="&#x2002;" horiz-adv-x="422" />
<glyph unicode="&#x2003;" horiz-adv-x="844" />
<glyph unicode="&#x2004;" horiz-adv-x="281" />
<glyph unicode="&#x2005;" horiz-adv-x="211" />
<glyph unicode="&#x2006;" horiz-adv-x="140" />
<glyph unicode="&#x2007;" horiz-adv-x="140" />
<glyph unicode="&#x2008;" horiz-adv-x="105" />
<glyph unicode="&#x2009;" horiz-adv-x="168" />
<glyph unicode="&#x200a;" horiz-adv-x="46" />
<glyph unicode="&#x2010;" horiz-adv-x="274" d="M29 176q0 18 4.5 35.5t11.5 18.5q128 18 192 25q8 0 8 -6q0 -22 -5 -37.5t-16 -16.5l-26 -4q-103 -16 -163 -21q-6 0 -6 6z" />
<glyph unicode="&#x2011;" horiz-adv-x="274" d="M29 176q0 18 4.5 35.5t11.5 18.5q128 18 192 25q8 0 8 -6q0 -22 -5 -37.5t-16 -16.5l-26 -4q-103 -16 -163 -21q-6 0 -6 6z" />
<glyph unicode="&#x2012;" horiz-adv-x="274" d="M29 176q0 18 4.5 35.5t11.5 18.5q128 18 192 25q8 0 8 -6q0 -22 -5 -37.5t-16 -16.5l-26 -4q-103 -16 -163 -21q-6 0 -6 6z" />
<glyph unicode="&#x2013;" horiz-adv-x="550" d="M54.5 189q-4.5 4 -4.5 8q0 12 6 27t18 15h413q5 0 9 -4t4 -8q0 -15 -9.5 -28.5t-21.5 -13.5h-405q-5 0 -9.5 4z" />
<glyph unicode="&#x2014;" horiz-adv-x="950" d="M54.5 189q-4.5 4 -4.5 8q0 12 6 27t18 15h813q5 0 9 -4t4 -8q0 -15 -9.5 -28.5t-21.5 -13.5h-805q-5 0 -9.5 4z" />
<glyph unicode="&#x2018;" horiz-adv-x="242" d="M196.5 688q4.5 -3 4.5 -8q0 -9 -14 -12q-39 -8 -67.5 -34.5t-28.5 -74.5q0 -13 12 -28t27 -16q22 -2 34.5 -13.5t12.5 -28.5q0 -20 -16.5 -33t-38.5 -13q-36 0 -59.5 27.5t-23.5 69.5q0 47 24 85.5t58.5 60t61.5 21.5q9 0 13.5 -3z" />
<glyph unicode="&#x2019;" horiz-adv-x="242" d="M45.5 429q-4.5 3 -4.5 8q0 9 14 12q39 8 67.5 34.5t28.5 74.5q0 13 -12 28t-27 16q-22 2 -34.5 13.5t-12.5 28.5q0 20 16.5 33t38.5 13q36 0 59.5 -27.5t23.5 -69.5q0 -47 -24 -85.5t-58.5 -60t-61.5 -21.5q-9 0 -13.5 3z" />
<glyph unicode="&#x201a;" horiz-adv-x="242" d="M45.5 -144q-4.5 3 -4.5 8q0 9 14 12q39 8 67.5 34.5t28.5 74.5q0 13 -12 28t-27 16q-22 2 -34.5 13.5t-12.5 28.5q0 20 16.5 33t38.5 13q36 0 59.5 -27.5t23.5 -69.5q0 -47 -24 -85.5t-58.5 -60t-61.5 -21.5q-9 0 -13.5 3z" />
<glyph unicode="&#x201c;" horiz-adv-x="418" d="M374.5 687q4.5 -3 4.5 -8q0 -9 -14 -12q-39 -8 -67.5 -34.5t-28.5 -74.5q0 -13 12 -28t27 -16q22 -2 34.5 -13.5t12.5 -28.5q0 -20 -16.5 -33t-38.5 -13q-36 0 -59.5 27.5t-23.5 69.5q0 47 24 85.5t58.5 60t61.5 21.5q9 0 13.5 -3zM198.5 687q4.5 -3 4.5 -8q0 -9 -14 -12 q-39 -8 -67.5 -34.5t-28.5 -74.5q0 -13 12 -28t27 -16q22 -2 34.5 -13.5t12.5 -28.5q0 -20 -16.5 -33t-38.5 -13q-36 0 -59.5 27.5t-23.5 69.5q0 47 24 85.5t58.5 60t61.5 21.5q9 0 13.5 -3z" />
<glyph unicode="&#x201d;" horiz-adv-x="418" d="M45.5 429q-4.5 3 -4.5 8q0 9 14 12q39 8 67.5 34.5t28.5 74.5q0 13 -12 28t-27 16q-22 2 -34.5 13.5t-12.5 28.5q0 20 16.5 33t38.5 13q36 0 59.5 -27.5t23.5 -69.5q0 -47 -24 -85.5t-58.5 -60t-61.5 -21.5q-9 0 -13.5 3zM221.5 429q-4.5 3 -4.5 8q0 9 14 12 q39 8 67.5 34.5t28.5 74.5q0 13 -12 28t-27 16q-22 2 -34.5 13.5t-12.5 28.5q0 20 16.5 33t38.5 13q36 0 59.5 -27.5t23.5 -69.5q0 -47 -24 -85.5t-58.5 -60t-61.5 -21.5q-9 0 -13.5 3z" />
<glyph unicode="&#x201e;" horiz-adv-x="418" d="M45.5 -144q-4.5 3 -4.5 8q0 9 14 12q39 8 67.5 34.5t28.5 74.5q0 13 -12 28t-27 16q-22 2 -34.5 13.5t-12.5 28.5q0 20 16.5 33t38.5 13q36 0 59.5 -27.5t23.5 -69.5q0 -47 -24 -85.5t-58.5 -60t-61.5 -21.5q-9 0 -13.5 3zM221.5 -144q-4.5 3 -4.5 8q0 9 14 12 q39 8 67.5 34.5t28.5 74.5q0 13 -12 28t-27 16q-22 2 -34.5 13.5t-12.5 28.5q0 20 16.5 33t38.5 13q36 0 59.5 -27.5t23.5 -69.5q0 -47 -24 -85.5t-58.5 -60t-61.5 -21.5q-9 0 -13.5 3z" />
<glyph unicode="&#x2022;" horiz-adv-x="348" d="M82.5 268.5q-37.5 37.5 -37.5 91.5t37.5 91.5t91.5 37.5t91.5 -37.5t37.5 -91.5t-37.5 -91.5t-91.5 -37.5t-91.5 37.5z" />
<glyph unicode="&#x2026;" horiz-adv-x="686" d="M76.5 2.5q-16.5 16.5 -16.5 38.5q0 23 16.5 39t38.5 16q23 0 39 -16t16 -39q0 -22 -16 -38.5t-39 -16.5q-22 0 -38.5 16.5zM304.5 2.5q-16.5 16.5 -16.5 38.5q0 23 16.5 39t38.5 16q23 0 39 -16t16 -39q0 -22 -16 -38.5t-39 -16.5q-22 0 -38.5 16.5zM532.5 2.5 q-16.5 16.5 -16.5 38.5q0 23 16.5 39t38.5 16q23 0 39 -16t16 -39q0 -22 -16 -38.5t-39 -16.5q-22 0 -38.5 16.5z" />
<glyph unicode="&#x202f;" horiz-adv-x="168" />
<glyph unicode="&#x2039;" horiz-adv-x="384" d="M283 37q-49 48 -103.5 86t-101.5 59q-7 4 -12.5 13t-5.5 16q0 6 3 7q81 49 129 83t97 81q18 18 29 18q6 0 6 -9q0 -7 -5 -15q-37 -56 -71.5 -89.5t-80.5 -69.5q-6 -4 -6 -7q0 -2 6 -7q42 -32 78 -69t74 -94q3 -4 3 -9t-2.5 -8.5t-6.5 -3.5q-12 0 -30 18z" />
<glyph unicode="&#x203a;" horiz-adv-x="384" d="M101 37q49 48 103.5 86t101.5 59q7 4 12.5 13t5.5 16q0 6 -3 7q-81 49 -129 83t-97 81q-18 18 -29 18q-6 0 -6 -9q0 -7 5 -15q37 -56 71.5 -89.5t80.5 -69.5q6 -4 6 -7q0 -2 -6 -7q-42 -32 -78 -69t-74 -94q-3 -4 -3 -9t2.5 -8.5t6.5 -3.5q12 0 30 18z" />
<glyph unicode="&#x2044;" horiz-adv-x="50" d="M233.5 661.5q9.5 3.5 23.5 3.5q5 0 9.5 -4t4.5 -9q0 -3 -1 -4l-438 -695q-6 -9 -14.5 -12t-21.5 -3q-6 0 -11.5 4t-5.5 8q0 2 1 3l438 695q6 10 15.5 13.5z" />
<glyph unicode="&#x205f;" horiz-adv-x="211" />
<glyph unicode="&#x20ac;" horiz-adv-x="707" d="M267.5 19.5q-66.5 34.5 -111.5 95.5t-58 135l-109 -1q-5 0 -9.5 4t-4.5 8q0 8 7 17t17 9l94 1l-1 22q0 23 3 45l-74 -1q-5 0 -9.5 4t-4.5 8q0 8 7 17t17 9l71 1q19 77 70 138.5t124 96.5t156 35q45 0 91 -8t84 -20q7 -3 14.5 -11.5t8.5 -20.5q6 -63 7 -109v-4 q0 -19 -10 -19q-9 0 -14.5 7t-9.5 24q-5 27 -17.5 50.5t-23.5 34.5q-14 14 -52 29.5t-97 15.5q-61 0 -111.5 -33t-83.5 -87t-44 -117l352 10q6 0 10.5 -4.5t2.5 -9.5q-5 -14 -12 -22t-19 -8l-339 -5l-1 -22q0 -22 3 -43l323 9q6 0 10.5 -4.5t2.5 -9.5q-5 -14 -12 -22t-19 -8 l-298 -4q14 -64 48.5 -118t86 -87t112.5 -33q38 0 77 17t68 45t38 61q7 23 23 23q11 0 13 -23q0 -16 -10 -52t-22 -58q-5 -8 -19 -14q-29 -13 -91 -20.5t-111 -7.5q-77 0 -143.5 34.5z" />
<glyph unicode="&#x2122;" horiz-adv-x="1066" d="M118.5 282q-5.5 2 -5.5 6q0 11 17 13q25 3 40 15t15 33v271q0 19 -6.5 23.5t-28.5 4.5h-37q-15 0 -30.5 -9.5t-22.5 -22.5q-4 -7 -12 -15t-15 -8q-2 0 -5 2.5t-3 5.5q0 4 4 12q8 16 12 31.5t8 38.5q2 13 14 13q3 0 8 -3.5t8 -8.5q4 -6 18 -10t28 -4h211q14 0 28.5 4.5 t18.5 10.5q4 5 7.5 6t7.5 1h6t5 -3t3 -7q0 -8 -1 -13q-1 -11 -5 -26q-6 -25 -5 -35q0 -6 -3.5 -10.5t-8.5 -4.5q-6 0 -9 8t-4 11q-2 3 -5.5 13t-14 16.5t-29.5 6.5q-40 0 -64 -2q-14 -2 -14 -18v-279q0 -40 52 -47q10 -1 15.5 -5.5t5.5 -8.5t-5.5 -6t-13.5 -2l-85 1l-86 -1 q-8 0 -13.5 2zM666 416.5q-41 90.5 -76 161.5q-1 4 -4 4q-1 0 -3 -9l-18 -192q-1 -10 -1 -26q0 -30 8.5 -40.5t29.5 -12.5q10 -1 15.5 -5.5t5.5 -8.5t-5.5 -6t-13.5 -2h-63h-57q-8 0 -13.5 2t-5.5 6t5.5 8t16.5 6q19 3 29.5 19.5t14.5 60.5l22 216q2 21 -6.5 31t-36.5 19 q-11 4 -14.5 7.5t-3.5 8.5q0 9 15 9h88q15 0 21.5 -3.5t8.5 -10.5q4 -19 10 -34t17 -34q17 -32 49 -102t48 -100q5 -9 8 -9t7 7l119 243q6 14 8 21q1 2 3.5 9t5.5 10t6 3h98q3 0 9.5 -2.5t6.5 -6.5q0 -6 -3.5 -9t-13.5 -6q-25 -8 -36 -16.5t-10 -25.5l9 -270q1 -18 12 -25 t37 -10q10 -1 15.5 -5.5t5.5 -8.5t-5.5 -6t-13.5 -2l-74 1l-77 -1q-8 0 -13.5 2t-5.5 6t6 8.5t16 5.5q20 2 27 9t6 27l-6 244q0 9 -3 9q-2 0 -7 -9l-151 -304q-2 -5 -4 -5t-4 5q-20 48 -61 138.5z" />
<glyph unicode="&#x2223;" horiz-adv-x="260" d="M104 -284.5q-4 4.5 -4 9.5v951q0 14 18 22.5t28 8.5q5 0 9.5 -4t4.5 -9v-959q0 -13 -17 -18.5t-31 -5.5q-4 0 -8 4.5z" />
<glyph unicode="&#x25fc;" horiz-adv-x="405" d="M0 405h405v-405h-405v405z" />
<glyph unicode="&#xfb01;" horiz-adv-x="518" />
<glyph unicode="&#xfb02;" horiz-adv-x="506" />
<glyph unicode="&#xfb03;" horiz-adv-x="776" />
<glyph unicode="&#xfb04;" horiz-adv-x="761" d="M736.5 16.5q5.5 -3.5 5.5 -10.5q0 -9 -20 -9q-26 0 -43 3q-22 2 -38 2t-38 -2q-16 -3 -43 -3q-20 0 -20 9q0 7 5.5 10.5t17.5 7.5q20 6 32 15.5t12 28.5v274q0 5 -3.5 7.5t-7.5 2.5h-138q-27 0 -33.5 -4.5t-6.5 -15.5v-264q0 -19 11.5 -28.5t31.5 -15.5q12 -4 17.5 -7.5 t5.5 -10.5q0 -9 -20 -9q-26 0 -43 3q-22 2 -38 2t-38 -2q-16 -3 -43 -3q-20 0 -20 9q0 7 5.5 10.5t17.5 7.5q20 6 31.5 15.5t11.5 28.5v282q-38 0 -59 2h-89q-25 0 -32.5 -4t-7.5 -13v-267q0 -18 12.5 -29t30.5 -15q12 -3 17.5 -6t5.5 -10q0 -11 -20 -11q-27 0 -42 3 q-20 2 -37 2q-18 0 -38 -2q-18 -3 -45 -3q-20 0 -20 11q0 7 5 9.5t18 6.5q43 13 43 44v282q-31 0 -52 2q-3 1 -8.5 7t-5.5 11q0 3 7 6q22 6 37 14t22 12q0 88 35 147t86 87t99 28q38 0 66.5 -11t43.5 -27q36 42 82 61t88 19q31 0 53 -8q2 0 6.5 -1.5t8.5 0.5q11 5 14 6 q2 1 5 1q6 0 6 -6t-3 -38t-3 -98v-494q0 -19 11.5 -28.5t30.5 -15.5q12 -4 17.5 -7.5zM607 566q0 41 -11 70.5t-52 29.5q-33 0 -61.5 -20.5t-46.5 -63.5t-18 -107v-55q0 -20 25 -20h155q9 0 9 10v156zM344 400l4 2q1 98 35 167q-6 3 -13 10t-11 10q-34 34 -86 34 q-53 0 -83 -46.5t-30 -143.5v-11q0 -22 25 -22h159z" />
<glyph horiz-adv-x="631" d="M231 416.5q-41 90.5 -76 161.5q-1 4 -4 4q-1 0 -3 -9l-18 -192q-1 -10 -1 -26q0 -30 8.5 -40.5t29.5 -12.5q10 -1 15.5 -5.5t5.5 -8.5t-5.5 -6t-13.5 -2h-63h-57q-8 0 -13.5 2t-5.5 6t5.5 8t16.5 6q19 3 29.5 19.5t14.5 60.5l22 216q2 21 -6.5 31t-36.5 19 q-11 4 -14.5 7.5t-3.5 8.5q0 9 15 9h88q15 0 21.5 -3.5t8.5 -10.5q4 -19 10 -34t17 -34q17 -32 49 -102t48 -100q5 -9 8 -9t7 7l119 243q6 14 8 21q1 2 3.5 9t5.5 10t6 3h98q3 0 9.5 -2.5t6.5 -6.5q0 -6 -3.5 -9t-13.5 -6q-25 -8 -36 -16.5t-10 -25.5l9 -270q1 -18 12 -25 t37 -10q10 -1 15.5 -5.5t5.5 -8.5t-5.5 -6t-13.5 -2l-74 1l-77 -1q-8 0 -13.5 2t-5.5 6t6 8.5t16 5.5q20 2 27 9t6 27l-6 244q0 9 -3 9q-2 0 -7 -9l-151 -304q-2 -5 -4 -5t-4 5q-20 48 -61 138.5z" />
<glyph horiz-adv-x="437" d="M118.5 282q-5.5 2 -5.5 6q0 11 17 13q25 3 40 15t15 33v271q0 19 -6.5 23.5t-28.5 4.5h-37q-15 0 -30.5 -9.5t-22.5 -22.5q-4 -7 -12 -15t-15 -8q-2 0 -5 2.5t-3 5.5q0 4 4 12q8 16 12 31.5t8 38.5q2 13 14 13q3 0 8 -3.5t8 -8.5q4 -6 18 -10t28 -4h211q14 0 28.5 4.5 t18.5 10.5q4 5 7.5 6t7.5 1h6t5 -3t3 -7q0 -8 -1 -13q-1 -11 -5 -26q-6 -25 -5 -35q0 -6 -3.5 -10.5t-8.5 -4.5q-6 0 -9 8t-4 11q-2 3 -5.5 13t-14 16.5t-29.5 6.5q-40 0 -64 -2q-14 -2 -14 -18v-279q0 -40 52 -47q10 -1 15.5 -5.5t5.5 -8.5t-5.5 -6t-13.5 -2l-85 1l-86 -1 q-8 0 -13.5 2z" />
<glyph horiz-adv-x="226" d="M-13 -284.5q-7 2.5 -7 7.5t4 10t7 7q41 10 66 63q32 67 32 266v210q0 64 -46 73q-4 1 -6 4.5t-2 8.5q0 4 2 7.5t5 4.5q29 7 51 18.5t35.5 20.5t17.5 11q12 7 13 7q7 0 7 -5q-7 -72 -7 -154v-184q0 -69 -5.5 -129.5t-24.5 -113.5q-12 -33 -35 -64.5t-48 -51t-45 -19.5 q-7 0 -14 2.5z" />
<glyph horiz-adv-x="506" d="M138.5 32.5q-45.5 46.5 -68 119t-22.5 150.5q0 81 22.5 156t70 123.5t117.5 48.5q64 0 109.5 -46.5t68 -118.5t22.5 -149q0 -80 -22.5 -156t-70 -125t-117.5 -49q-64 0 -109.5 46.5zM348.5 93.5q27.5 81.5 27.5 204.5q0 78 -16 147.5t-47 113t-74 43.5q-56 0 -82 -79 t-26 -203q0 -78 15.5 -149t45.5 -115t73 -44q56 0 83.5 81.5z" />
<glyph horiz-adv-x="505" d="M383 -1q-56 4 -95 4q11 0 -160 -3l-72 -2q-4 0 -12 6.5t-8 10.5q0 5 3.5 8.5l4.5 4.5l171 177q53 54 84.5 119t31.5 128q0 52 -31 83t-76 31q-40 0 -75.5 -22t-56.5 -59q-3 -6 -8 -10t-9 -4t-9.5 9t-5.5 21q0 17 27 49t71.5 56t96.5 24q74 0 117 -45.5t43 -119.5 q0 -40 -20.5 -88t-52.5 -87q-19 -22 -68.5 -73t-71.5 -74q-70 -70 -70 -72q0 -3 4 -4.5t10 -2.5q33 -3 88 -3q60 0 114 3q44 2 60.5 10t34.5 37q14 23 25 23q7 0 7 -12q0 -5 -8 -26q-17 -52 -22 -75q-5 -24 -22 -24z" />
<glyph horiz-adv-x="480" d="M102.5 -30.5q-26.5 7.5 -44.5 17.5t-18 18q0 11 16.5 28.5t27.5 17.5q9 0 16.5 -4t14 -9t8.5 -7q16 -14 33 -22.5t42 -8.5q36 0 70 19.5t55 53t21 73.5q0 63 -31 110.5t-85 47.5q-38 0 -65 -15q-2 -1 -5 -1q-5 0 -9 3t-3 7q7 23 30 34q41 20 83.5 54.5t42.5 79.5 q0 42 -27 73t-67 31q-49 0 -74.5 -20.5t-45.5 -51.5q-4 -7 -7.5 -12t-6.5 -5q-4 0 -10 6t-6 13q0 21 22 52t65.5 54.5t105.5 23.5q33 0 63 -14.5t48.5 -40.5t18.5 -59q0 -40 -25 -79t-80 -71q-3 -2 -3 -4t4 -2q42 0 76.5 -21.5t55 -57.5t20.5 -78q0 -72 -40 -127 t-104.5 -84.5t-133.5 -29.5q-22 0 -48.5 7.5z" />
<glyph horiz-adv-x="500" d="M198 0.5q-6 3.5 -6 9.5q0 5 5.5 8t12.5 4q44 6 60.5 19.5t16.5 38.5v93q0 4 -6 6.5t-9 2.5q-56 0 -113 -3q-44 -2 -130 -4q-4 0 -7 3.5t-3 6.5q0 2 1 3l23 28q6 6 16 19l264 379q19 28 30 28h21q2 0 2 -3t-1.5 -6.5t-2.5 -4.5l-270 -388q-2 -3 -2.5 -6t2.5 -3h173 q4 0 8 2.5t4 5.5v155q0 11 1.5 15t7.5 7q13 7 29 10t27 3q10 0 12.5 -13.5t2.5 -50.5v-129q0 -6 5 -6q15 -1 40 -1q15 0 59 2q4 0 7.5 -2.5t3.5 -5.5q0 -11 -8.5 -24.5t-12.5 -13.5l-49 1q-15 0 -31 -2q-4 -1 -8 -3t-5 -3v-94q0 -29 12.5 -40t54.5 -22q7 -2 12.5 -6t5.5 -8 t-4.5 -7.5t-10.5 -3.5q-39 0 -62 3q-30 2 -51 2q-24 0 -56 -2q-24 -3 -59 -3q-6 0 -12 3.5z" />
<glyph horiz-adv-x="480" d="M63.5 -35q-11.5 3 -11.5 9q0 7 13 13t23 6q75 0 127.5 27.5t79 70.5t26.5 88q0 59 -54.5 98.5t-185.5 73.5q-13 11 -18.5 21.5t-5.5 24.5q0 30 33 115l15 44q10 29 41 36q95 25 207 35h2q7 0 10 -5t-1 -12l-17 -33q-13 -29 -37 -32l-77 -8q-65 -5 -95 -10 q-10 -1 -26.5 -33t-17.5 -46v-4q0 -11 13 -15q122 -36 182 -67q57 -30 84 -70t27 -99q0 -54 -32.5 -102t-89.5 -81q-85 -48 -189 -48q-14 0 -25.5 3z" />
<glyph horiz-adv-x="484" d="M136 8q-47 24 -76 71t-29 114q0 97 38 168t83 116q49 50 117 96t150 68q2 1 6 1q6 0 10 -3t2 -5q-6 -11 -26 -20q-68 -30 -116 -67t-86 -91q-34 -49 -63 -120.5t-29 -140.5q1 -53 22.5 -92.5t55 -60t67.5 -20.5q43 0 72 31t29 89q0 47 -26 82.5t-65 35.5q-27 0 -45 -3 t-35 -12q-6 -2 -7 -2q-4 0 -4 4q0 3 4 9q12 13 27 24q14 11 43.5 22t54.5 11q34 0 64.5 -16t48.5 -44t18 -63q0 -60 -30 -107t-78 -73t-97 -26q-53 0 -100 24z" />
<glyph horiz-adv-x="484" d="M90 -6q0 4 21 41l283 506q2 4 2 5q0 4 -12 5h-256q-26 0 -43.5 -10t-33.5 -36q-14 -25 -24 -25q-7 0 -7 14q0 5 2 12.5t2 9.5q8 34 16 99q1 11 10 11q2 0 26.5 -4.5t57.5 -4.5l99 -1q75 0 145.5 1.5t84.5 3.5q2 0 4 -4.5t2 -8.5q0 -12 -17 -37.5t-21 -32.5l-301 -543 q-15 -27 -19 -27q-21 0 -21 26z" />
<glyph horiz-adv-x="472" d="M145 6q-41 20 -65.5 55t-24.5 80q0 40 21 71t48 50t65 40q5 3 5 5t-8 8l-17 14q-35 30 -54 49.5t-32 47t-13 63.5q0 38 26.5 70.5t69 51.5t86.5 19q40 0 77 -17t59.5 -47.5t22.5 -69.5q0 -32 -14.5 -53.5t-38.5 -42.5q-27 -23 -53 -42q-13 -9 -13 -13q0 -3 8 -8 q66 -46 97.5 -83t31.5 -90q0 -50 -28.5 -91t-74 -64t-94.5 -23q-46 0 -87 20zM322 419q12 34 12 84q0 44 -22.5 73.5t-64.5 29.5q-23 0 -46.5 -13t-38.5 -35.5t-15 -48.5q0 -29 8.5 -48.5t23 -33t44.5 -35.5q36 -27 41 -31q9 -7 14 -3q32 27 44 61zM319.5 47 q29.5 32 29.5 77q0 75 -118 156q-13 10 -20 10q-4 0 -12 -6q-35 -28 -49.5 -55t-14.5 -72q0 -56 30.5 -99t80.5 -43q44 0 73.5 32z" />
<glyph horiz-adv-x="484" d="M43 -23q0 5 4 7.5t10 2.5q45 0 109.5 42.5t112.5 104.5t68.5 122t20.5 133q0 48 -20 95.5t-52.5 78t-67.5 30.5q-31 0 -53 -17t-33.5 -42.5t-11.5 -51.5q0 -30 14.5 -59t38.5 -47.5t50 -18.5q21 0 34.5 4.5t25.5 11t20 10.5h1q4 0 6 -4t0 -7q-10 -18 -33 -35 q-15 -11 -41 -22t-51 -11q-35 0 -67 16.5t-52.5 45.5t-20.5 64q0 46 27 92.5t74 76.5t105 30q47 0 92 -33t72.5 -86.5t27.5 -109.5q0 -89 -35.5 -161t-108.5 -152q-51 -56 -122.5 -87t-129.5 -31q-14 0 -14 8z" />
<glyph horiz-adv-x="300" d="M73 288.5q-29 25.5 -43.5 65.5t-14.5 84q0 45 18 86t51 66t76 25q39 0 67 -24t43 -62t15 -80q0 -47 -17 -89.5t-49.5 -69.5t-76.5 -27q-40 0 -69 25.5zM211 328q14 43 14 109q0 65 -15.5 109t-60.5 44q-42 0 -58 -41t-16 -100q0 -71 15.5 -117.5t62.5 -46.5q44 0 58 43z " />
<glyph horiz-adv-x="259" d="M39 282.5q-4 4.5 -4 10.5q0 5 3.5 10.5t9.5 5.5q20 2 31 4t19 11t8 28v150q0 19 -15.5 31t-37.5 15q-6 1 -10 5t-4 8q0 5 3 9t7 5q34 3 59.5 16.5t37.5 26.5q4 4 9 4t7.5 -4t1.5 -10q-6 -42 -6 -70v-186q0 -18 4.5 -25.5t14.5 -11t35 -6.5q6 -1 9 -5.5t3 -10.5t-3 -10.5 t-9 -4.5q-34 0 -54 2l-28 1l-29 -1q-20 -2 -53 -2q-5 0 -9 4.5z" />
<glyph horiz-adv-x="300" d="M176 279q-32 2 -47 2l-58 -1q-16 -1 -39 -1q-4 0 -8 3.5t-4 6.5t8 10l39 35q42 38 76.5 83.5t34.5 82.5q0 32 -15.5 49t-40.5 17t-41.5 -9t-38.5 -32q-4 -6 -9 -6q-3 0 -5 4.5t-2 9.5q0 10 15 31t41.5 37t60.5 16q44 0 67.5 -26.5t23.5 -66.5q0 -20 -11 -44t-29 -46 q-25 -31 -51 -58.5t-40 -38.5l-1 -2q0 -1 4 -2t7 -1h73q21 0 36.5 12.5t33.5 37.5q3 5 6.5 8t8.5 3q4 0 4 -3.5v-4.5q-1 -4 -11 -33t-17 -62q-2 -13 -9 -13q-24 0 -62 2z" />
<glyph horiz-adv-x="284" d="M50.5 285q-20.5 11 -20.5 30q0 11 5.5 18.5t12.5 7.5q4 0 9 -2.5t7 -4.5q21 -16 33 -22.5t30 -6.5q25 0 39.5 20t14.5 53q0 21 -18.5 41t-44.5 20q-5 0 -19 -3.5t-20 -3.5q-4 0 -8.5 3t-4.5 6q0 8 14.5 15.5t29 12.5t19.5 7q21 10 32 23t11 34q0 18 -15 31t-34 13 q-44 0 -71 -39q-5 -7 -10 -7q-3 0 -6.5 6t-3.5 9q0 12 16 29t40.5 29.5t48.5 12.5q34 0 60 -20t26 -51q0 -25 -13.5 -39.5t-42.5 -29.5q-7 -3 0 -5q31 -10 51 -28t20 -44q0 -36 -20 -65t-52.5 -45t-69.5 -16q-25 0 -45.5 11z" />
<glyph horiz-adv-x="300" d="M170 273v92q0 3 -3.5 4t-5.5 1q-24 0 -72 -2q-44 -2 -74 -2q-2 0 -4.5 2.5t-2.5 4.5q0 1 0.5 1h0.5q53 69 108 135q1 2 23 29q28 35 58 65q13 13 20 13q4 0 4 -9v-194q0 -8 7 -8h21q19 0 34 1q6 0 6 -7q0 -8 -5 -17.5t-9 -9.5h-40q-8 0 -11 -1.5t-3 -4.5v-74 q0 -10 -18.5 -18.5t-24.5 -8.5q-9 0 -9 8zM162 406q3 0 5.5 1.5t2.5 3.5v118q0 2 -2.5 2t-3.5 -1q-40 -45 -98 -119q-2 -5 0 -5h96z" />
<glyph d="M-132.5 709.5q-14.5 14.5 -14.5 35.5t14.5 35.5t35.5 14.5t35.5 -14.5t14.5 -35.5t-14.5 -35.5t-35.5 -14.5t-35.5 14.5zM62.5 709.5q-14.5 14.5 -14.5 35.5t14.5 35.5t35.5 14.5t35.5 -14.5t14.5 -35.5t-14.5 -35.5t-35.5 -14.5t-35.5 14.5z" />
<glyph d="M59 694l-45 34q-63 48 -85 68q-6 5 -9.5 9.5t-3.5 9.5q0 9 22 16t36 7q18 0 27 -13q42 -61 77 -119q5 -8 5 -15q0 -6 -6 -6t-18 9z" />
<glyph d="M-84 691q0 7 5 15q35 58 77 119q9 13 27 13q14 0 36 -7t22 -16q0 -5 -3.5 -9.5t-9.5 -9.5q-22 -20 -85 -68l-45 -34q-12 -9 -18 -9t-6 6z" />
<glyph d="M-141 699q-4 3 -4 7q0 6 7 12l98 83q16 14 23.5 18t17.5 4t17.5 -4t23.5 -18l98 -83q6 -5 6 -12q0 -5 -3.5 -8t-10.5 -3q-9 0 -53 21t-68 35q-5 4 -10 4t-10 -4q-23 -13 -67.5 -34t-53.5 -21q-7 0 -11 3z" />
<glyph d="M62 825.5q25 -18.5 25 -48.5q0 -34 -27 -55.5t-64 -21.5q-34 0 -58.5 19t-24.5 50q0 33 27.5 54t63.5 21q33 0 58 -18.5zM-30.5 736.5q14.5 -14.5 35.5 -14.5q18 0 29 15t11 35t-14 34.5t-34 14.5q-19 0 -30.5 -14.5t-11.5 -34.5q0 -21 14.5 -35.5z" />
<glyph d="M-140.5 697.5q-5.5 5.5 -5.5 10.5t16 26.5t35.5 39.5t30.5 18q40 0 68 -3q44 -4 64 -4t39 19q5 5 11 12.5t9 7.5q8 0 13.5 -5t5.5 -12q0 -4 -14 -18q-12 -12 -27 -31t-20 -25q-5 -7 -14.5 -10.5t-14.5 -3.5q-14 0 -47 3q-75 5 -84 5q-8 0 -17.5 -3.5t-15.5 -8.5 t-13.5 -14t-8.5 -9q-5 0 -10.5 5.5z" />
<glyph d="M-75.5 -266.5q-11.5 8.5 -11.5 23.5q0 16 4.5 25t11.5 9q2 0 15 -6.5t48 -6.5q21 0 31.5 11t10.5 28q0 27 -13 40.5t-34 13.5q-6 0 -13 -1.5t-13 -1.5q-12 0 -19 6t-7 11q0 7 6 15l80 108h31l-37 -56q-4 -5 -4 -10q0 -7 10 -12q25 -10 45.5 -33.5t20.5 -55.5t-22 -58.5 t-52.5 -42t-54.5 -15.5q-22 0 -33.5 8.5z" />
</font>
</defs>
</svg>
