<?xml version="1.0" standalone="no"?><!DOCTYPE svg PUBLIC "-//W3C//DTD SVG 1.1//EN" "http://www.w3.org/Graphics/SVG/1.1/DTD/svg11.dtd" ><svg xmlns="http://www.w3.org/2000/svg"><metadata></metadata><defs><font id="1.000;CDK ;Charmonman-Regular" horiz-adv-x="1364"><font-face font-family="Charmonman" font-weight="400" font-stretch="normal" units-per-em="1000" panose-1="0 0 5 0 0 0 0 0 0 0" ascent="1200" descent="-700" x-height="0" bbox="-1184 -919 1817 1562" underline-thickness="50" underline-position="-75" unicode-range="U+0000-fb02" /><missing-glyph horiz-adv-x="278"  /><glyph glyph-name="NULL" unicode="" d="" /><glyph glyph-name="nonmarkingreturn" unicode="" d="" /><glyph glyph-name="space" unicode=" " d="" /><glyph glyph-name="A" unicode="a" d="M799 109 q4 -10 4 -19 q0 -23 -21 -45.5 q-21 -22.5 -50.5 -36.5 q-29.5 -14 -52.5 -14 q-52 0 -75.5 63.5 q-23.5 63.5 -36.5 154.5 q-3 21 -11 27.5 q-8 6.5 -29 6.5 l-138 -1 q-30 0 -74 2 l-12 -19 q-52 -84 -86.5 -130.5 q-34.5 -46.5 -77.5 -77.5 q-43 -31 -96 -31 q-37 0 -60.5 14 q-23.5 14 -34.5 34 q-11 20 -11 38 q0 19 10 34.5 q10 15.5 23 22.5 q0 -43 20.5 -69.5 q20.5 -26.5 59.5 -26.5 q54 0 103 52.5 q49 52.5 117 162.5 q-53 6 -56 20 q-2 5 2.5 17 q4.5 12 10.5 18 q15 -6 69 -13 q12 21 32 53 q172 285 222 364 q11 18 21 24 q10 6 22 6 q16 0 33 -5 q-21 -37 -23 -125 l-1 -49 q0 -102 8 -227 q9 -142 27.5 -214.5 q18.5 -72.5 61.5 -72.5 q21 0 48.5 17.5 q27.5 17.5 51.5 44.5 ZM457 283 q27 0 102 3 q-2 74 -3.5 163.5 q-1.5 89.5 -2.5 155.5 l0 33 q-115 -193 -212 -350 q65 -5 116 -5 Z" /><glyph glyph-name="Aogonek" unicode="&#x104;" d="M799 109 q4 -10 4 -19 q0 -23 -21 -45.5 q-21 -22.5 -50.5 -36.5 q-29.5 -14 -52.5 -14 q-13 0 -22 4 q-80 -37 -80 -95 q0 -26 15 -38 q15 -12 39 -12 q26 0 42 8 q2 -6 2 -9 q0 -14 -20.5 -23.5 q-20.5 -9.5 -47.5 -9.5 q-40 0 -61 20 q-21 20 -21 52 q0 42 33 78 q33 36 73 46 q-27 28 -41 80 q-14 52 -23 117 q-3 21 -11 27.5 q-8 6.5 -29 6.5 l-138 -1 q-30 0 -74 2 l-12 -19 q-52 -84 -86.5 -130.5 q-34.5 -46.5 -77.5 -77.5 q-43 -31 -96 -31 q-37 0 -60.5 14 q-23.5 14 -34.5 34 q-11 20 -11 38 q0 19 10 34.5 q10 15.5 23 22.5 q0 -43 20.5 -69.5 q20.5 -26.5 59.5 -26.5 q54 0 103 52.5 q49 52.5 117 162.5 q-53 6 -56 20 q-2 5 2.5 17 q4.5 12 10.5 18 q15 -6 69 -13 q12 21 32 53 q172 285 222 364 q11 18 21 24 q10 6 22 6 q16 0 33 -5 q-21 -37 -23 -125 l-1 -49 q0 -102 8 -227 q9 -142 27.5 -214.5 q18.5 -72.5 61.5 -72.5 q21 0 48.5 17.5 q27.5 17.5 51.5 44.5 ZM457 283 q27 0 102 3 q-2 74 -3.5 163.5 q-1.5 89.5 -2.5 155.5 l0 33 q-115 -193 -212 -350 q65 -5 116 -5 Z" /><glyph glyph-name="AE" unicode="æ" d="M1165 704 q11 0 9 -10 q-2 -12 -30 -70 l-11 1 q0 16 -2.5 21 q-2.5 5 -13.5 6 q-37 4 -361 4 q-9 0 -13.5 -4 q-4.5 -4 -6.5 -15 q-1 -4 -4 -21 q-3 -17 -8 -49 l-29 -164 l-6 -34 q297 0 353 16 l5 -5 q-13 -13 -17 -44 q-5 -7 -14 -7 l-335 1 q-17 -93 -26.5 -149.5 q-9.5 -56.5 -9.5 -82.5 q0 -43 30.5 -57 q30.5 -14 98.5 -14 q74 0 129.5 10.5 q55.5 10.5 95.5 26 q40 15.5 94 41.5 q3 2 3 -7 q-19 -18 -20.5 -37 q-1.5 -19 -1.5 -21 q-1 -12 -12.5 -18 q-11.5 -6 -33.5 -10 q-59 -12 -124.5 -18.5 q-65.5 -6.5 -121.5 -6.5 q-110 0 -152.5 22.5 q-42.5 22.5 -42.5 54.5 q0 33 44 266 l-273 0 q-303 -293 -346 -346 q-18 -23 -18 -50 q0 -15 6 -27 q-4 -4 -16 -10 q-50 54 -50 78 q0 18 16 36 q16 18 50 49 q5 5 185 174 q152 143 311.5 291.5 q159.5 148.5 192.5 174.5 q12 9 21.5 12.5 q9.5 3.5 22.5 3.5 q14 -17 26 -17 l193 2 q124 3 213 3 ZM402 372 q81 -3 236 -3 l12 67 l31 175 l5 30 q-109 -101 -284 -269 Z" /><glyph glyph-name="B" unicode="b" d="M465 371 q75 -8 123 -51 q48 -43 48 -112 q0 -54 -30.5 -105.5 q-30.5 -51.5 -93 -85.5 q-62.5 -34 -154.5 -34 q-65 0 -122 16.5 q-57 16.5 -88 40.5 q-7 -20 -17 -26.5 q-10 -6.5 -25 -6.5 q-7 0 -12.5 2 q-5.5 2 -15.5 6 q22 39 32 81 q126 521 126 561 q0 6 -3.5 8.5 q-3.5 2.5 -12.5 2.5 q-16 0 -64 -10 q-46 -10 -60 -10 q-30 0 -30 28 q0 10 1.5 21 q1.5 11 4.5 20 q9 -9 22 -11 q13 -2 52 -3 l98 -2 q4 0 12 -0.5 q8 -0.5 27 -0.5 q116 -3 183 -11 q67 -8 112 -37.5 q45 -29.5 45 -91.5 q0 -62 -43.5 -113.5 q-43.5 -51.5 -114.5 -75.5 ZM346 24 q69 0 120.5 24.5 q51.5 24.5 79 66 q27.5 41.5 27.5 91.5 q0 63 -44 99 q-44 36 -121 36 q-66 0 -98 -4 q-11 2 -12 24 l0 7 q0 17 7 23 q7 0 30 -2 q23 -2 41 -2 q80 0 132.5 42 q52.5 42 52.5 113 q0 68 -53 97.5 q-53 29.5 -150 29.5 q-34 0 -49 -6.5 q-15 -6.5 -24 -26 q-9 -19.5 -23 -72.5 q-51 -191 -104 -476 q80 -64 188 -64 Z" /><glyph glyph-name="C" unicode="c" d="M343 -17 q-73 0 -134 29.5 q-61 29.5 -97.5 90.5 q-36.5 61 -36.5 152 q0 116 58 222.5 q58 106.5 157.5 172.5 q99.5 66 217.5 66 q64 0 120 -19.5 q56 -19.5 78 -52.5 q-10 -26 -17.5 -65.5 q-7.5 -39.5 -8.5 -74.5 l-25 -4 q0 15 -1.5 37 q-1.5 22 -4.5 40 q-7 47 -39.5 72 q-32.5 25 -98.5 25 q-107 0 -193.5 -62 q-86.5 -62 -135.5 -159 q-49 -97 -49 -196 q0 -76 29.5 -126.5 q29.5 -50.5 79 -75 q49.5 -24.5 110.5 -24.5 q105 0 196 68.5 q91 68.5 138 195.5 q27 0 27 -37 q0 -52 -52 -117.5 q-52 -65.5 -137.5 -111.5 q-85.5 -46 -180.5 -46 Z" /><glyph glyph-name="Ccedilla" unicode="ç" d="M338 -17 q-31 -21 -31 -38 q0 -8 6.5 -13 q6.5 -5 19.5 -11 q17 -8 26 -16 q9 -8 9 -22 q0 -22 -22.5 -50 q-22.5 -28 -53 -48 q-30.5 -20 -52.5 -20 q-12 0 -19.5 5.5 q-7.5 5.5 -7.5 12.5 q33 9 58.5 25.5 q25.5 16.5 39.5 34.5 q14 18 14 30 q0 7 -6 12 q-6 5 -19 12 q-16 9 -24 16 q-8 7 -8 20 q0 25 33 53 q-99 12 -162.5 80 q-63.5 68 -63.5 189 q0 116 58 222.5 q58 106.5 157.5 172.5 q99.5 66 217.5 66 q64 0 120 -19.5 q56 -19.5 78 -52.5 q-10 -26 -17.5 -65.5 q-7.5 -39.5 -8.5 -74.5 l-25 -4 q0 15 -1.5 37 q-1.5 22 -4.5 40 q-7 47 -39.5 72 q-32.5 25 -98.5 25 q-107 0 -193.5 -62 q-86.5 -62 -135.5 -159 q-49 -97 -49 -196 q0 -76 29.5 -126.5 q29.5 -50.5 79 -75 q49.5 -24.5 110.5 -24.5 q105 0 196 68.5 q91 68.5 138 195.5 q27 0 27 -37 q0 -52 -52 -117.5 q-52 -65.5 -137.5 -111.5 q-85.5 -46 -180.5 -46 l-5 0 Z" /><glyph glyph-name="D" unicode="d" d="M406 -13 q-45 0 -79 7.5 q-34 7.5 -80 21.5 q-20 7 -40 12.5 q-20 5.5 -37 6.5 q-13 1 -19 3 q-6 2 -22 12 q10 13 15 21.5 q5 8.5 8 24.5 q18 80 61 299 q43 219 43 248 q0 19 -21 19 q-16 0 -61 -7 q-79 -11 -101 -11 q-22 0 -32.5 8 q-10.5 8 -10.5 29 q0 13 5 28 q19 -9 34 -12 q15 -3 50 -3 q26 0 68.5 2 q42.5 2 63.5 3 q100 6 141 6 q175 0 280 -76 q105 -76 105 -251 q0 -119 -49.5 -208 q-49.5 -89 -134 -136 q-84.5 -47 -187.5 -47 ZM406 30 q87 0 158.5 45.5 q71.5 45.5 113.5 126.5 q42 81 42 184 q0 154 -90.5 218 q-90.5 64 -233.5 64 q-42 0 -58 -6 q-16 -6 -20 -23 q-48 -239 -97 -492 q-7 -31 -7 -42 q0 -13 17 -24 q33 -23 80 -37 q47 -14 95 -14 Z" /><glyph glyph-name="Eth" unicode="ð" d="M392 705 q175 0 280 -76 q105 -76 105 -251 q0 -119 -49.5 -208 q-49.5 -89 -134 -136 q-84.5 -47 -187.5 -47 q-45 0 -79 7.5 q-34 7.5 -80 21.5 q-20 7 -40 12.5 q-20 5.5 -37 6.5 q-13 1 -19 3 q-6 2 -22 12 q10 13 15 21.5 q5 8.5 8 24.5 l53 259 q-46 0 -62 -1 l8 47 q35 0 63 -1 q42 220 42 243 q0 19 -21 19 q-16 0 -61 -7 q-79 -11 -101 -11 q-22 0 -32.5 8 q-10.5 8 -10.5 29 q0 13 5 28 q19 -9 34 -12 q15 -3 50 -3 q26 0 68.5 2 q42.5 2 63.5 3 q100 6 141 6 ZM406 30 q87 0 158.5 45.5 q71.5 45.5 113.5 126.5 q42 81 42 184 q0 154 -90.5 218 q-90.5 64 -233.5 64 q-42 0 -58 -6 q-16 -6 -20 -23 l-48 -240 q112 -2 171 -2 q44 0 60 1 l-8 -45 q-29 2 -128 2 l-103 0 l-41 -208 q-7 -31 -7 -42 q0 -13 17 -24 q33 -23 80 -37 q47 -14 95 -14 Z" /><glyph glyph-name="Dcroat" unicode="&#x110;" d="M392 705 q175 0 280 -76 q105 -76 105 -251 q0 -119 -49.5 -208 q-49.5 -89 -134 -136 q-84.5 -47 -187.5 -47 q-45 0 -79 7.5 q-34 7.5 -80 21.5 q-20 7 -40 12.5 q-20 5.5 -37 6.5 q-13 1 -19 3 q-6 2 -22 12 q10 13 15 21.5 q5 8.5 8 24.5 l53 259 l-31 0 q-53 0 -71 -1 l8 47 l103 -2 q42 220 42 244 q0 19 -21 19 q-16 0 -61 -7 q-79 -11 -101 -11 q-22 0 -32.5 8 q-10.5 8 -10.5 29 q0 13 5 28 q19 -9 34 -12 q15 -3 50 -3 q26 0 68.5 2 q42.5 2 63.5 3 q100 6 141 6 ZM406 30 q87 0 158.5 45.5 q71.5 45.5 113.5 126.5 q42 81 42 184 q0 154 -90.5 218 q-90.5 64 -233.5 64 q-42 0 -58 -6 q-16 -6 -20 -23 l-48 -241 q41 -1 121 -1 q52 0 70 1 l-8 -45 q-37 3 -111 3 l-80 -1 l-41 -208 q-7 -31 -7 -42 q0 -13 17 -24 q33 -23 80 -37 q47 -14 95 -14 Z" /><glyph glyph-name="E" unicode="e" d="M694 703 q6 0 11.5 -4.5 q5.5 -4.5 8.5 -10.5 q-2 -4 -14 -30.5 q-12 -26.5 -14 -43.5 l-10 1 q-4 15 -10 22 q-6 7 -22 10 q-29 6 -117 10.5 q-88 4.5 -141 4.5 q-25 0 -32.5 -3 q-7.5 -3 -12.5 -14 q-32 -86 -79 -250 l110 0 q99 0 145 3 q46 3 91 15 l6 -5 q-4 -8 -7 -19.5 q-3 -11.5 -5 -28.5 q-2 -11 -15 -11 l-337 0 q-50 -189 -50 -255 q0 -39 26 -50.5 q26 -11.5 90 -11.5 q250 0 344 88 q4 0 8 -6 q-8 -9 -13 -36.5 q-5 -27.5 -6 -33.5 q-3 -11 -13 -18.5 q-10 -7.5 -25 -10.5 q-73 -15 -135 -21.5 q-62 -6.5 -128 -6.5 q-118 0 -162 18.5 q-44 18.5 -44 56.5 q0 27 15.5 98.5 q15.5 71.5 43.5 188.5 l-25 0 q-20 0 -20 10 q0 8 11 22 q11 14 20 14 l26 0 l6 24 q5 21 21.5 90.5 q16.5 69.5 23 104.5 q6.5 35 3.5 41 q-3 5 -11 5 q-111 0 -161 -16 l-4 1 q-1 14 5 36.5 q6 22.5 11 27.5 q94 -7 190 -7 l397 1 Z" /><glyph glyph-name="Eogonek" unicode="&#x118;" d="M694 703 q6 0 11.5 -4.5 q5.5 -4.5 8.5 -10.5 q-2 -4 -14 -30.5 q-12 -26.5 -14 -43.5 l-10 1 q-4 15 -10 22 q-6 7 -22 10 q-29 6 -117 10.5 q-88 4.5 -141 4.5 q-25 0 -32.5 -3 q-7.5 -3 -12.5 -14 q-32 -86 -79 -250 l110 0 q99 0 145 3 q46 3 91 15 l6 -5 q-4 -8 -7 -19.5 q-3 -11.5 -5 -28.5 q-2 -11 -15 -11 l-337 0 q-50 -189 -50 -255 q0 -39 26 -50.5 q26 -11.5 90 -11.5 q250 0 344 88 q4 0 8 -6 q-8 -9 -13 -36.5 q-5 -27.5 -6 -33.5 q-3 -11 -13 -18.5 q-10 -7.5 -25 -10.5 l-14 -3 q-66 -35 -66 -88 q0 -26 15 -38 q15 -12 39 -12 q26 0 42 8 q2 -6 2 -9 q0 -14 -20.5 -23.5 q-20.5 -9.5 -47.5 -9.5 q-40 0 -61 20 q-21 20 -21 52 q0 24 11.5 46.5 q11.5 22.5 30.5 40.5 q-89 -12 -173 -12 q-118 0 -162 18.5 q-44 18.5 -44 56.5 q0 27 15.5 98.5 q15.5 71.5 43.5 188.5 l-25 0 q-20 0 -20 10 q0 8 11 22 q11 14 20 14 l26 0 l6 24 q5 21 21.5 90.5 q16.5 69.5 23 104.5 q6.5 35 3.5 41 q-3 5 -11 5 q-111 0 -161 -16 l-4 1 q-1 14 5 36.5 q6 22.5 11 27.5 q94 -7 190 -7 l397 1 Z" /><glyph glyph-name="F" unicode="f" d="M622 725 q6 -1 9 -6 q-8 -10 -11 -30.5 q-3 -20.5 -3 -23.5 q-3 -17 -15 -17 q-44 0 -174 8 q-108 6 -123 6 q-20 0 -25.5 -4 q-5.5 -4 -9.5 -17 q-10 -34 -59 -275 q68 -4 123 -4 q134 0 216 24 l4 -4 q-3 -6 -8 -27 q-5 -21 -5 -32 q-49 0 -96 1 l-243 1 q-57 -287 -57 -308 l1 -14 q-14 -7 -44 -7 q-10 0 -14.5 2.5 q-4.5 2.5 -4.5 12.5 q0 8 6 36 l63 291 q29 129 46.5 212.5 q17.5 83.5 17.5 97.5 q0 16 -25 16 l-31 -2 l-27 -1 q-12 0 -12 6 q0 5 3.5 17.5 q3.5 12.5 9.5 22.5 q117 -7 266 -7 q113 0 153.5 4 q40.5 4 68.5 21 Z" /><glyph glyph-name="G" unicode="g" d="M480 340 q95 0 155 3.5 q60 3.5 104 18.5 q3 -3 5 -17.5 q2 -14.5 0 -18.5 q-26 -7 -34.5 -15.5 q-8.5 -8.5 -14.5 -30.5 q-51 -177 -95.5 -304 q-44.5 -127 -99.5 -214 q-113 -176 -315 -176 q-65 0 -102.5 17 q-37.5 17 -48.5 43 l-6 15 q58 -35 140 -35 q148 0 253 120 q105 120 187 360 q-41 -56 -105.5 -91.5 q-64.5 -35.5 -153.5 -35.5 q-127 0 -195 76.5 q-68 76.5 -68 208.5 q0 115 51 218 q51 103 147.5 167 q96.5 64 225.5 64 q78 0 139 -22.5 q61 -22.5 101 -58.5 q-11 -30 -17 -61 q-6 -31 -10 -82 q-6 0 -15 -1.5 q-9 -1.5 -12 -3.5 q-4 54 -7 71 q-10 59 -60.5 85.5 q-50.5 26.5 -119.5 26.5 q-105 0 -187.5 -56 q-82.5 -56 -128 -149 q-45.5 -93 -45.5 -199 q0 -114 53.5 -176.5 q53.5 -62.5 154.5 -62.5 q86 0 151 42.5 q65 42.5 99 102.5 q34 60 34 108 q0 16 -6 22.5 q-6 6.5 -24 6.5 q-17 0 -93 -6 q-14 -1 -52 -4 q4 24 15 44 Z" /><glyph glyph-name="H" unicode="h" d="M679 41 q42 0 76.5 11 q34.5 11 58.5 27 q2 -4 2 -13 q0 -31 -49 -51.5 q-49 -20.5 -107 -20.5 q-55 0 -81.5 23.5 q-26.5 23.5 -26.5 77.5 q0 68 35 243 q-68 2 -169 2 l-180 -1 q-41 -146 -52 -190.5 q-11 -44.5 -26 -124.5 q-2 -11 -5 -13.5 q-3 -2.5 -13 -3.5 q-13 -1 -21.5 -3.5 q-8.5 -2.5 -23.5 -10.5 l-6 2 q19 49 31.5 91.5 q12.5 42.5 43.5 156.5 l27 96 l-5 0 q-10 0 -21 12.5 q-11 12.5 -11 26.5 q0 5 3 6.5 q3 1.5 13 1.5 l34 -1 l10 35 q28 101 38 143.5 q10 42.5 10 65.5 q0 20 -9 26.5 q-9 6.5 -29 6.5 q-18 0 -47 -2.5 q-29 -2.5 -46 -5.5 q-4 8 -7.5 15.5 q-3.5 7.5 -3.5 14.5 q0 12 12 12 q122 5 152 7.5 q30 2.5 36 2.5 q9 0 13 -2 q4 -2 4 -8 q0 -2 -2 -10 l-87 -303 q63 -3 181 -3 q74 0 166 2 q34 165 84 324 q6 20 18 29 q20 14 72.5 33 q52.5 19 79.5 19 q28 0 28 -27 q-25 0 -75 -19.5 q-50 -19.5 -65 -38.5 q-17 -21 -44 -115 q-27 -94 -50 -198 q-41 -188 -41 -283 q0 -23 5 -36.5 q5 -13.5 21 -21 q16 -7.5 49 -7.5 Z" /><glyph glyph-name="Hbar" unicode="&#x126;" d="M739 702 q-18 -22 -53 -145 l152 1 l-11 -45 l-153 0 l-29 -124 q-41 -188 -41 -283 q0 -23 5 -36.5 q5 -13.5 21 -21 q16 -7.5 49 -7.5 q42 0 76.5 11 q34.5 11 58.5 27 q2 -4 2 -13 q0 -31 -49 -51.5 q-49 -20.5 -107 -20.5 q-55 0 -81.5 23.5 q-26.5 23.5 -26.5 77.5 q0 68 35 243 q-68 2 -169 2 l-180 -1 q-41 -146 -52 -190.5 q-11 -44.5 -26 -124.5 q-2 -11 -5 -13.5 q-3 -2.5 -13 -3.5 q-13 -1 -21.5 -3.5 q-8.5 -2.5 -23.5 -10.5 l-6 2 q19 49 31.5 91.5 q12.5 42.5 43.5 156.5 l27 96 l-5 0 q-10 0 -21 12.5 q-11 12.5 -11 26.5 q0 5 3 6.5 q3 1.5 13 1.5 l34 -1 l34 124 l-160 -2 l8 47 l164 1 q12 50 12 74 q0 20 -9 26.5 q-9 6.5 -29 6.5 q-18 0 -47 -2.5 q-29 -2.5 -46 -5.5 q-4 8 -7.5 15.5 q-3.5 7.5 -3.5 14.5 q0 12 12 12 q122 5 152 7.5 q30 2.5 36 2.5 q9 0 13 -2 q4 -2 4 -8 q0 -2 -2 -10 l-38 -131 q83 0 169.5 0.5 q86.5 0.5 169.5 1.5 q28 102 43 149 q6 20 18 29 q20 14 72.5 33 q52.5 19 79.5 19 q28 0 28 -27 q-25 0 -75 -19.5 q-50 -19.5 -65 -38.5 ZM597 382 q15 70 30 130 l-341 -3 l-36 -126 q63 -3 181 -3 q74 0 166 2 Z" /><glyph glyph-name="I" unicode="i" d="M91 8 q31 3 36 24 q69 270 101 412.5 q32 142.5 32 181.5 q0 19 -9 25 q-9 6 -34 6 q-59 0 -94 -7 q0 43 23 43 q86 1 125.5 3 q39.5 2 83.5 8 q5 -2 7.5 -12 q2.5 -10 1.5 -18 q-17 -2 -31 -8.5 q-14 -6.5 -17 -17.5 q-29 -108 -86 -396 q-10 -46 -20.5 -100 q-10.5 -54 -23.5 -112 q-6 -25 -21.5 -35 q-15.5 -10 -44.5 -10 l-19 1 l-10 12 Z" /><glyph glyph-name="Iogonek" unicode="&#x12e;" d="M355 704 q5 -2 7.5 -12 q2.5 -10 1.5 -18 q-17 -2 -31 -8.5 q-14 -6.5 -17 -17.5 q-29 -108 -86 -396 q-10 -46 -20.5 -100 q-10.5 -54 -23.5 -112 q-4 -20 -15 -30 q-11 -10 -30 -13 q-77 -37 -77 -94 q0 -26 15 -38 q15 -12 39 -12 q26 0 42 8 q2 -6 2 -9 q0 -14 -20.5 -23.5 q-20.5 -9.5 -47.5 -9.5 q-40 0 -61 20 q-21 20 -21 52 q0 35 23.5 66.5 q23.5 31.5 57.5 48.5 l-2 2 q5 0 13 2 l5 3 q15 5 18 19 q69 270 101 412.5 q32 142.5 32 181.5 q0 19 -9 25 q-9 6 -34 6 q-59 0 -94 -7 q0 43 23 43 q86 1 125.5 3 q39.5 2 83.5 8 Z" /><glyph glyph-name="J" unicode="j" d="M30 -168 q-82 0 -166 33 q-13 49 -16 94 l16 4 q23 -48 63.5 -75 q40.5 -27 110.5 -27 q93 0 147.5 51.5 q54.5 51.5 93.5 159.5 q38 103 93.5 301.5 q55.5 198.5 63.5 273.5 l1 9 q0 17 -18 17 q-130 0 -223.5 -31.5 q-93.5 -31.5 -93.5 -105.5 q0 -25 11.5 -47 q11.5 -22 36.5 -36 q-6 -3 -19 -3 q-33 11 -54.5 38.5 q-21.5 27.5 -21.5 69.5 q0 66 69.5 100.5 q69.5 34.5 183 45.5 q113.5 11 282.5 11 q15 0 18 -36 q-11 0 -21 1 l-48 1 q-23 0 -33.5 -6.5 q-10.5 -6.5 -17.5 -25 q-7 -18.5 -17 -63.5 q-12 -60 -59.5 -244 q-47.5 -184 -83.5 -282 q-83 -228 -298 -228 Z" /><glyph glyph-name="K" unicode="k" d="M1386 -69 q5 -3 8.5 -11 q3.5 -8 3.5 -16 q0 -28 -35.5 -50.5 q-35.5 -22.5 -92 -35 q-56.5 -12.5 -116.5 -12.5 q-135 0 -302.5 65 q-167.5 65 -324 181 q-156.5 116 -258.5 260 q-37 -152 -66 -287 q-4 -16 -8.5 -20 q-4.5 -4 -16.5 -5 q-17 -1 -27 -3.5 q-10 -2.5 -17 -8.5 q-11 0 -11 7 q36 88 74.5 234 q38.5 146 67 278.5 q28.5 132.5 28.5 146.5 q0 3 -2.5 6.5 q-2.5 3.5 -8.5 3.5 q-18 0 -103 -5 q-54 -4 -68 -4 q-16 0 -21 2.5 q-5 2.5 -5 10.5 q0 15 7.5 36.5 q7.5 21.5 18.5 21.5 q2 -17 36 -22 q34 -5 90 -5 q44 0 81.5 2.5 q37.5 2.5 71.5 5.5 l55 5 q0 -15 -6 -42 l-71 -2 q-6 0 -11 -3.5 q-5 -3.5 -6 -9.5 q-31 -127 -72 -300 q49 36 184 145 q90 73 155 123.5 q65 50.5 132 94.5 l6 0 q20 -11 51 -21 l0 -8 q-23 4 -203.5 -129 q-180.5 -133 -296.5 -227 q110 -147 255 -257.5 q145 -110.5 298 -170 q153 -59.5 287 -59.5 q60 0 103.5 11.5 q43.5 11.5 72.5 29 q29 17.5 63 44.5 Z" /><glyph glyph-name="L" unicode="l" d="M579 47 q5 -19 5 -85 l-14 3 q-2 19 -7 25.5 q-5 6.5 -17 10.5 q-25 8 -86 12.5 q-61 4.5 -138 4.5 q-99 0 -183 -8 q-84 -8 -136 -23 q-7 0 -16 15.5 q-9 15.5 -9 26.5 q0 4 2 5.5 q2 1.5 7 2.5 q48 8 83.5 29.5 q35.5 21.5 73.5 97.5 q38 76 68 228 q36 182 56 280 q3 13 7.5 19 q4.5 6 13.5 9 q26 11 66 17.5 q40 6.5 82 6.5 q6 -1 11 -12 q5 -11 7 -22.5 q2 -11.5 0 -13.5 q-10 3 -31 4.5 q-21 1.5 -35 1.5 q-35 0 -50.5 -15 q-15.5 -15 -21.5 -42 q-15 -67 -27 -129 q-25 -120 -38 -171 q-29 -117 -65 -184 q-36 -67 -92 -97 q32 2 81 7 q49 5 77 7 q82 9 135.5 13.5 q53.5 4.5 97.5 4.5 q48 0 68 -6.5 q20 -6.5 25 -22.5 Z" /><glyph glyph-name="Lslash" unicode="&#x141;" d="M579 47 q5 -19 5 -85 l-14 3 q-2 19 -7 25.5 q-5 6.5 -17 10.5 q-25 8 -86 12.5 q-61 4.5 -138 4.5 q-99 0 -183 -8 q-84 -8 -136 -23 q-7 0 -16 15.5 q-9 15.5 -9 26.5 q0 4 2 5.5 q2 1.5 7 2.5 q47 8 81 28 q34 20 71 90 q37 70 67 209 q-61 -22 -114 -48 q-6 9 -15 20.5 q-9 11.5 -15 15.5 l4 4 q10 0 29 5.5 q19 5.5 48 15.5 l52 18 l19 6 q31 164 54 271 q3 13 7.5 19 q4.5 6 13.5 9 q26 11 66 17.5 q40 6.5 82 6.5 q6 -1 11 -12 q5 -11 7 -22.5 q2 -11.5 0 -13.5 q-10 3 -31 4.5 q-21 1.5 -35 1.5 q-35 0 -50.5 -15 q-15.5 -15 -21.5 -42 l-30 -143 q-4 -16 -13 -62 q89 26 128 36 q4 -12 20 -34 q-1 -6 -4 -6 q-49 0 -152 -32 l-14 -59 q-29 -117 -65 -184 q-36 -67 -92 -97 q32 2 81 7 q49 5 77 7 q82 9 135.5 13.5 q53.5 4.5 97.5 4.5 q48 0 68 -6.5 q20 -6.5 25 -22.5 Z" /><glyph glyph-name="M" unicode="m" d="M1182 180 q16 -9 16 -41 q0 -39 -19.5 -78.5 q-19.5 -39.5 -55 -65.5 q-35.5 -26 -82.5 -26 q-78 0 -119 72 q-41 72 -41 184 q0 67 14 144 q14 77 34 144 q-40 -58 -89.5 -137.5 q-49.5 -79.5 -170.5 -280.5 q-22 -37 -22 -53 q0 -5 1.5 -9.5 q1.5 -4.5 1.5 -7.5 q0 -5 -8 -7 q-30 -10 -39.5 -15 q-9.5 -5 -11.5 -5 q-6 0 -11 10 q5 3 7.5 10 q2.5 7 2.5 26 q0 49 -19 187.5 q-19 138.5 -39 258.5 q-64 -161 -119.5 -267.5 q-55.5 -106.5 -128 -175.5 q-72.5 -69 -163.5 -69 q-53 0 -91 23 q-38 23 -57.5 62.5 q-19.5 39.5 -19.5 86.5 q0 42 14 75.5 q14 33.5 35 52.5 q21 19 41 19 q10 0 16 -5 q-51 -54 -51 -128 q0 -61 31.5 -95 q31.5 -34 90.5 -34 q77 0 138 60 q61 60 114.5 167 q53.5 107 134.5 304 q-1 7 -2 15 q-1 8 -3 16 q-2 11 -6.5 43.5 q-4.5 32.5 -4.5 48.5 q0 19 10 27.5 q10 8.5 24 8.5 q16 0 31.5 -9.5 q15.5 -9.5 15.5 -34.5 q0 -6 -6 -52 q-8 -58 -9 -76 q8 -50 34 -230 l29 -200 q220 373 320 523 q43 64 66.5 89.5 q23.5 25.5 42.5 25.5 q17 0 31 -16.5 q14 -16.5 19 -34.5 q-27 0 -53 -23.5 q-26 -23.5 -48 -66.5 q-37 -72 -55 -175 q-18 -103 -18 -194 q0 -109 28 -171 q28 -62 86 -62 q50 0 84.5 44 q34.5 44 48.5 118 Z" /><glyph glyph-name="N" unicode="n" d="M833 805 q24 0 47 -13.5 q23 -13.5 30 -23.5 q-83 0 -133.5 -79.5 q-50.5 -79.5 -80.5 -210 q-30 -130.5 -73 -386.5 l-16 -94 q-19 -6 -44 -6 l-46 102 q-89 197 -136.5 298.5 q-47.5 101.5 -98.5 199.5 l-26 -99 q-45 -168 -67 -278.5 q-22 -110.5 -22 -229.5 l-5 0 q-27 0 -40 13 q-13 13 -13 50 q0 43 15.5 111.5 q15.5 68.5 48.5 190.5 q28 106 41.5 164 q13.5 58 13.5 91 q0 19 -8 26.5 q-8 7.5 -32 7.5 q-9 0 -37 -2 l-35 -1 q-13 0 -20.5 4.5 q-7.5 4.5 -7.5 19.5 q0 10 5 27 q27 -10 79 -10 q35 0 55.5 4 q20.5 4 47.5 13 q10 0 18 -16 q67 -134 231 -481 l52 -110 q49 330 109.5 524 q60.5 194 147.5 194 Z" /><glyph glyph-name="Eng" unicode="&#x14a;" d="M832 805 q25 0 47.5 -13 q22.5 -13 30.5 -24 q-79 0 -125 -60.5 q-46 -60.5 -71.5 -158 q-25.5 -97.5 -57.5 -281.5 q-30 -163 -39 -208 q-21 -101 -44 -162 q-23 -61 -69.5 -98.5 q-46.5 -37.5 -127.5 -37.5 q-32 0 -67.5 5.5 q-35.5 5.5 -59.5 14.5 q-7 25 -9.5 58 q-2.5 33 -3.5 40 l16 4 q19 -42 55.5 -67.5 q36.5 -25.5 82.5 -25.5 q73 0 108.5 61.5 q35.5 61.5 51.5 167.5 l-50 110 q-86 188 -128.5 279 q-42.5 91 -89.5 183 q-26 -97 -23 -87 q-46 -171 -68 -284.5 q-22 -113.5 -22 -235.5 q-34 7 -47 19.5 q-13 12.5 -13 41.5 q0 45 16 116.5 q16 71.5 48 188.5 q29 108 42 164.5 q13 56.5 13 89.5 q0 19 -8 26.5 q-8 7.5 -32 7.5 q-11 0 -37 -2 l-34 -1 q-15 0 -22 4.5 q-7 4.5 -7 19.5 q0 10 5 27 q27 -10 79 -10 q35 0 55.5 4 q20.5 4 47.5 13 q10 0 18 -16 q78 -156 242 -503 l38 -80 q50 333 110 521.5 q60 188.5 149 188.5 Z" /><glyph glyph-name="O" unicode="o" d="M389 -15 q-94 0 -162.5 37.5 q-68.5 37.5 -105 109 q-36.5 71.5 -36.5 169.5 q0 113 47.5 208.5 q47.5 95.5 136 152.5 q88.5 57 206.5 57 q140 0 219 -81.5 q79 -81.5 79 -229.5 q0 -112 -46 -209 q-46 -97 -133 -155.5 q-87 -58.5 -205 -58.5 ZM383 30 q98 0 172.5 50 q74.5 50 115 137 q40.5 87 40.5 193 q0 130 -61 198.5 q-61 68.5 -174 68.5 q-100 0 -174.5 -52.5 q-74.5 -52.5 -114.5 -140.5 q-40 -88 -40 -190 q0 -126 61.5 -195 q61.5 -69 174.5 -69 Z" /><glyph glyph-name="Ohorn" unicode="&#x1a0;" d="M862 658 q0 -28 -16 -50 q-16 -22 -40 -34 q-24 -12 -46 -12 q-5 0 -17 2 q30 -66 30 -156 q0 -112 -46 -209 q-46 -97 -133 -155.5 q-87 -58.5 -205 -58.5 q-94 0 -162.5 37.5 q-68.5 37.5 -105 109 q-36.5 71.5 -36.5 169.5 q0 113 47.5 208.5 q47.5 95.5 136 152.5 q88.5 57 206.5 57 q79 0 140.5 -27 q61.5 -27 99.5 -79 q16 -14 37 -14 q28 0 46 21.5 q18 21.5 18 59.5 q0 19 -6 49 q7 0 18.5 -6 q11.5 -6 17.5 -13 q7 -8 11.5 -22.5 q4.5 -14.5 4.5 -29.5 ZM383 30 q98 0 172.5 50 q74.5 50 115 137 q40.5 87 40.5 193 q0 130 -61 198.5 q-61 68.5 -174 68.5 q-100 0 -174.5 -52.5 q-74.5 -52.5 -114.5 -140.5 q-40 -88 -40 -190 q0 -126 61.5 -195 q61.5 -69 174.5 -69 Z" /><glyph glyph-name="Oslash" unicode="ø" d="M633 684 q68 -36 104 -106.5 q36 -70.5 36 -169.5 q0 -112 -46 -209 q-46 -97 -133 -155.5 q-87 -58.5 -205 -58.5 q-84 0 -147 30 l-109 -187 q-6 -9 -17 -9 q-12 0 -21.5 3 q-9.5 3 -11.5 9 l69 117 l52 89 q-58 40 -88.5 107.5 q-30.5 67.5 -30.5 156.5 q0 113 47.5 208.5 q47.5 95.5 136 152.5 q88.5 57 206.5 57 q65 0 118 -18 q27 48 105 180 q6 10 18 10 q9 0 19.5 -3 q10.5 -3 12.5 -7 q-39 -65 -67 -115 l-48 -82 ZM147 294 q0 -147 82 -215 l341 583 q-42 15 -94 15 q-100 0 -174.5 -52.5 q-74.5 -52.5 -114.5 -140.5 q-40 -88 -40 -190 ZM383 30 q98 0 172.5 50 q74.5 50 115 137 q40.5 87 40.5 193 q0 84 -26 143 q-26 59 -76 90 q-69 -118 -130 -223 q-61 -105 -111 -190 l-102 -175 q50 -25 117 -25 Z" /><glyph glyph-name="OE" unicode="&#x152;" d="M1183 119 q2 2 3 2 q4 0 5 -7 q-8 -9 -12.5 -33.5 q-4.5 -24.5 -5.5 -30.5 q-3 -12 -12.5 -18 q-9.5 -6 -25.5 -11 q-54 -17 -126.5 -25.5 q-72.5 -8.5 -141.5 -8.5 q-111 0 -153.5 22 q-42.5 22 -42.5 62 q0 12 5 47 q-51 -63 -124 -98 q-73 -35 -163 -35 q-94 0 -162.5 37.5 q-68.5 37.5 -105 109 q-36.5 71.5 -36.5 169.5 q0 113 47.5 208.5 q47.5 95.5 136 152.5 q88.5 57 206.5 57 q111 0 184.5 -52 q73.5 -52 99.5 -149 q24 99 32 137 q2 9 4.5 23.5 q2.5 14.5 8 19 q5.5 4.5 17.5 4.5 l367 -2 q6 0 11.5 -4.5 q5.5 -4.5 8.5 -10.5 q-5 -6 -16 -29 q-11 -23 -12 -37 l-10 1 q-4 15 -10 22 q-6 7 -22 10 q-56 10 -262 10 q-17 0 -22.5 -3.5 q-5.5 -3.5 -8.5 -13.5 q-19 -60 -60 -249 l120 0 q88 0 150.5 3.5 q62.5 3.5 96.5 13.5 l6 -5 q-3 -9 -6.5 -15 q-3.5 -6 -4.5 -13 q-1 -7 -1 -25 q0 -6 -13 -6 l-358 0 q-46 -221 -46 -263 q0 -30 31.5 -42 q31.5 -12 100.5 -12 q87 0 178 18.5 q91 18.5 144 68.5 ZM383 30 q98 0 172.5 50 q74.5 50 115 137 q40.5 87 40.5 193 q0 130 -61 198.5 q-61 68.5 -174 68.5 q-100 0 -174.5 -52.5 q-74.5 -52.5 -114.5 -140.5 q-40 -88 -40 -190 q0 -126 61.5 -195 q61.5 -69 174.5 -69 Z" /><glyph glyph-name="P" unicode="p" d="M158 -8 q-15 0 -21.5 5 q-6.5 5 -6.5 21 q0 50 73 342 q23 95 42 179 q19 84 19 105 q0 10 -4.5 13.5 q-4.5 3.5 -16.5 3.5 q-12 0 -68 -6 q-81 -9 -108 -9 q-22 0 -31.5 5 q-9.5 5 -9.5 19 q0 22 8 46 q24 -15 42 -18.5 q18 -3.5 54 -3.5 q68 0 182 12 q96 10 130 10 q102 0 161 -46 q59 -46 59 -140 q0 -64 -29 -118 q-29 -54 -89.5 -86.5 q-60.5 -32.5 -150.5 -32.5 q-48 0 -74 9.5 q-26 9.5 -26 27.5 q0 11 8 17 q12 -4 38 -7.5 q26 -3.5 52 -3.5 q63 0 112 24.5 q49 24.5 75.5 68 q26.5 43.5 26.5 99.5 q0 73 -47.5 107.5 q-47.5 34.5 -144.5 34.5 q-49 0 -70.5 -8.5 q-21.5 -8.5 -27.5 -27.5 q-10 -27 -41.5 -165.5 q-31.5 -138.5 -57.5 -272.5 q-26 -134 -26 -173 q0 -15 4 -27 q-16 -4 -36 -4 Z" /><glyph glyph-name="Thorn" unicode="þ" d="M386 546 q93 0 153 -43.5 q60 -43.5 60 -141.5 q0 -43 -19.5 -87.5 q-19.5 -44.5 -70.5 -77 q-51 -32.5 -138 -32.5 q-51 0 -104 15 q-3 19 -20 42 q6 6 9 7 q12 -8 45.5 -17.5 q33.5 -9.5 56.5 -9.5 q79 0 130 38 q51 38 51 119 q0 81 -44 115.5 q-44 34.5 -129 34.5 q-38 0 -77.5 -10.5 q-39.5 -10.5 -47.5 -36.5 q-15 -48 -31 -129 q-19 -90 -34 -177.5 q-15 -87.5 -15 -116.5 q0 -28 7 -46 q-16 -4 -32 -4 q-20 0 -27 9.5 q-7 9.5 -7 29.5 q0 12 5 47 q0 2 19 87 q34 149 64 297 q20 98 24 146 q2 20 2 26 q0 22 -12 29 q-12 7 -47 7 l-44 -1 q-11 -1 -30 -1 q-7 19 -7 36 l39 -1 q36 -2 58 -2 q17 0 51 2 l47 1 q12 0 15 -7 q-2 -13 -9 -40 q-18 -76 -26 -127 q62 20 135 20 Z" /><glyph glyph-name="Q" unicode="q" d="M846 -17 q5 -6 10.5 -11.5 q5.5 -5.5 8 -10 q2.5 -4.5 2.5 -10.5 q0 -23 -29.5 -44 q-29.5 -21 -78 -34 q-48.5 -13 -101.5 -13 q-164 0 -293 132 l-14 0 q-74 0 -132 26 q-58 26 -91 72 q-33 46 -33 106 q0 62 33.5 112 q33.5 50 86.5 64 q88 -224 182 -342 q90 11 154 68.5 q64 57.5 96.5 142.5 q32.5 85 32.5 177 q0 126 -61.5 196 q-61.5 70 -173.5 70 q-93 0 -160 -46.5 q-67 -46.5 -103 -115.5 q-36 -69 -44 -138 q-18 0 -27 9.5 q-9 9.5 -9 32.5 q0 50 35 117.5 q35 67.5 112 118.5 q77 51 195 51 q88 0 155.5 -32 q67.5 -32 106 -97.5 q38.5 -65.5 38.5 -161.5 q0 -97 -39.5 -187.5 q-39.5 -90.5 -112 -154 q-72.5 -63.5 -168.5 -81.5 q105 -113 230 -113 q62 0 112 26.5 q50 26.5 80 70.5 ZM141 199 q0 -76 55 -119.5 q55 -43.5 136 -50.5 q-87 105 -155 278 q-18 -21 -27 -49.5 q-9 -28.5 -9 -58.5 Z" /><glyph glyph-name="R" unicode="r" d="M1381 -132 q8 -6 8 -18 q0 -19 -18.5 -39.5 q-18.5 -20.5 -59.5 -35 q-41 -14.5 -105 -14.5 q-217 0 -424 163 q-207 163 -418 426 q0 7 3.5 9 q3.5 2 11.5 3 q124 10 202.5 53 q78.5 43 78.5 118 q0 71 -54.5 108.5 q-54.5 37.5 -163.5 37.5 q-25 0 -38 -4 q-13 -4 -18 -17 q-86 -233 -198 -654 q-22 2 -37.5 -8.5 q-15.5 -10.5 -27.5 -28.5 q-2 0 -6.5 2.5 q-4.5 2.5 -6.5 3.5 q148 406 214 674 l2 15 q0 6 -4 7.5 q-4 1.5 -14 1.5 q-52 0 -101.5 -25 q-49.5 -25 -80.5 -66 q-31 -41 -31 -87 q0 -40 30 -85 q-22 0 -40 9 q-42 22 -42 76 q0 65 53.5 115.5 q53.5 50.5 142.5 77.5 q89 27 194 27 q128 0 207.5 -40.5 q79.5 -40.5 79.5 -117.5 q0 -48 -32.5 -93.5 q-32.5 -45.5 -93.5 -80 q-61 -34.5 -144 -50.5 q93 -122 215 -241.5 q122 -119.5 266 -204 q144 -84.5 280 -84.5 q62 0 101 18 q39 18 69 49 Z" /><glyph glyph-name="S" unicode="s" d="M209 -12 q-58 0 -114 17 q-56 17 -66 37 q5 24 9 65.5 q4 41.5 4 63.5 q8 7 23 7 q0 -57 12.5 -89 q12.5 -32 41.5 -46.5 q29 -14.5 82 -14.5 q94 0 156.5 39.5 q62.5 39.5 62.5 112.5 q0 38 -22 75.5 q-22 37.5 -78 89.5 l-27 25 q-52 47 -76.5 81.5 q-24.5 34.5 -24.5 83.5 q0 48 24.5 87.5 q24.5 39.5 70 62 q45.5 22.5 104.5 22.5 q58 0 99 -20 q41 -20 53 -47 q0 -30 -9 -69 q-9 -39 -11 -46 q-13 0 -25 4 l3 20 q2 18 2 29 q0 46 -24.5 66.5 q-24.5 20.5 -76.5 20.5 q-73 0 -116.5 -33 q-43.5 -33 -43.5 -86 q0 -41 26 -74.5 q26 -33.5 80 -81.5 l21 -19 q64 -58 87.5 -94 q23.5 -36 23.5 -83 q0 -68 -41.5 -114.5 q-41.5 -46.5 -104 -69 q-62.5 -22.5 -125.5 -22.5 Z" /><glyph glyph-name="Scedilla" unicode="&#x15e;" d="M391 707 q58 0 99 -20 q41 -20 53 -47 q0 -30 -9 -69 q-9 -39 -11 -46 q-13 0 -25 4 l3 20 q2 18 2 29 q0 46 -24.5 66.5 q-24.5 20.5 -76.5 20.5 q-73 0 -116.5 -33 q-43.5 -33 -43.5 -86 q0 -41 26 -74.5 q26 -33.5 80 -81.5 l21 -19 q64 -58 87.5 -94 q23.5 -36 23.5 -84 q0 -64 -37 -108.5 q-37 -44.5 -93.5 -68 q-56.5 -23.5 -117.5 -27.5 q-17 -10 -28.5 -22 q-11.5 -12 -11.5 -22 q0 -8 6.5 -13 q6.5 -5 19.5 -11 q17 -8 26 -16 q9 -8 9 -22 q0 -22 -22.5 -50 q-22.5 -28 -53 -48 q-30.5 -20 -52.5 -20 q-12 0 -19.5 5.5 q-7.5 5.5 -7.5 12.5 q33 9 58.5 25.5 q25.5 16.5 39.5 34.5 q14 18 14 30 q0 7 -6 12 q-6 5 -19 12 q-16 9 -24 16 q-8 7 -8 20 q0 26 36 56 q-54 2 -102.5 18 q-48.5 16 -57.5 35 q5 24 9 65.5 q4 41.5 4 63.5 q8 7 23 7 q0 -57 12.5 -89 q12.5 -32 41.5 -46.5 q29 -14.5 82 -14.5 q94 0 156.5 39.5 q62.5 39.5 62.5 112.5 q0 38 -22 75.5 q-22 37.5 -78 89.5 l-27 25 q-52 47 -76.5 81.5 q-24.5 34.5 -24.5 83.5 q0 48 24.5 87.5 q24.5 39.5 70 62 q45.5 22.5 104.5 22.5 Z" /><glyph glyph-name="uni1E9E" unicode="&#x1e9e;" d="M466 381 q66 -8 108 -51 q42 -43 42 -117 q0 -59 -29 -110 q-29 -51 -85 -81.5 q-56 -30.5 -133 -30.5 q-46 0 -84.5 10.5 q-38.5 10.5 -61.5 28.5 q-23 18 -23 39 q0 20 15 31 q62 -64 156 -64 q86 0 136 50 q50 50 50 131 q0 58 -27 91.5 q-27 33.5 -75 33.5 q-22 0 -37 -7.5 q-15 -7.5 -36 -24.5 q-23 12 -23 29 q0 14 14 26 l66 56 q65 55 134 116 q-14 56 -57.5 89.5 q-43.5 33.5 -117.5 33.5 q-83 0 -130.5 -47.5 q-47.5 -47.5 -68.5 -153.5 q-32 -162 -49.5 -255.5 q-17.5 -93.5 -34.5 -199.5 q-21 -11 -46 -11 q-21 0 -31 8 q9 20 14 37 q5 17 11 44 q16 68 22 97 q23 97 62 285 q22 107 82.5 175 q60.5 68 170.5 68 q72 0 124.5 -29.5 q52.5 -29.5 80 -73.5 q27.5 -44 27.5 -86 l-83 -69 q-32 -24 -83 -68 Z" /><glyph glyph-name="uni018F" unicode="&#x18f;" d="M391 692 q108 0 168.5 -61.5 q60.5 -61.5 60.5 -185.5 q0 -113 -49.5 -218.5 q-49.5 -105.5 -135 -171 q-85.5 -65.5 -187.5 -65.5 q-85 0 -136 46 q-51 46 -51 123 q0 64 37 124.5 q37 60.5 114.5 100.5 q77.5 40 192.5 40 q85 0 155 -24 q1 12 1 36 q0 101 -43 157.5 q-43 56.5 -136 56.5 q-70 0 -129 -31.5 q-59 -31.5 -96 -81.5 q-9 1 -16 11 q-7 10 -7 22 q0 26 37 54.5 q37 28.5 96.5 48 q59.5 19.5 123.5 19.5 ZM246 32 q71 0 136.5 43 q65.5 43 111.5 118 q46 75 61 166 q-80 20 -150 20 q-85 0 -149 -28 q-64 -28 -98 -78.5 q-34 -50.5 -34 -114.5 q0 -57 29 -91.5 q29 -34.5 93 -34.5 Z" /><glyph glyph-name="T" unicode="t" d="M146 291 q-53 31 -90 91 q-37 60 -37 122 q0 60 37 109.5 q37 49.5 112.5 79 q75.5 29.5 185.5 29.5 q54 0 97 -6 q43 -6 114 -19 q85 -18 129 -18 q44 0 81.5 14.5 q37.5 14.5 58.5 46.5 q-11 -48 -49 -78 q-38 -30 -107 -30 q-32 0 -77 6 q-45 6 -119 18 q-72 12 -117.5 18 q-45.5 6 -76.5 6 q-57 0 -106 -21.5 q-49 -21.5 -79 -62 q-30 -40.5 -30 -94.5 q0 -56 34 -102.5 q34 -46.5 103 -95.5 l-4 -5 q-21 0 -33 -1.5 q-12 -1.5 -27 -6.5 ZM111 -15 q-42 0 -87 8.5 q-45 8.5 -71 20.5 q-11 30 -17 55 l9 10 q36 -35 71.5 -50 q35.5 -15 88.5 -15 q58 0 103 21 q45 21 82 78.5 q37 57.5 63 162.5 l13 54 q34 158 64 259 q16 19 33 29 q17 10 44 22 l9 -3 q-24 -32 -46 -109.5 q-22 -77.5 -47 -189.5 l-15 -64 q-72 -289 -297 -289 Z" /><glyph glyph-name="Tbar" unicode="&#x166;" d="M694 679 q44 0 81.5 14.5 q37.5 14.5 58.5 46.5 q-11 -48 -49 -78 q-38 -30 -107 -30 q-32 0 -77 6 q-45 6 -119 18 q-72 12 -117.5 18 q-45.5 6 -76.5 6 q-57 0 -106 -21.5 q-49 -21.5 -79 -62 q-30 -40.5 -30 -94.5 q0 -56 34 -102.5 q34 -46.5 103 -95.5 l-4 -5 q-21 0 -33 -1.5 q-12 -1.5 -27 -6.5 q-53 31 -90 91 q-37 60 -37 122 q0 60 37 109.5 q37 49.5 112.5 79 q75.5 29.5 185.5 29.5 q54 0 97 -6 q43 -6 114 -19 q85 -18 129 -18 ZM511 386 l61 1 l-8 -45 q-46 2 -96 2 l-44 0 q-13 -59 -16 -70 q-72 -289 -297 -289 q-42 0 -87 8.5 q-45 8.5 -71 20.5 q-11 30 -17 55 l9 10 q36 -35 71.5 -50 q35.5 -15 88.5 -15 q58 0 103 21 q45 21 82 78.5 q37 57.5 63 162.5 l16 68 l-84 0 q-53 0 -71 -1 l8 47 q54 0 157 -3 q24 110 51 202 q16 19 33 29 q17 10 44 22 l9 -3 q-35 -47 -82 -250 l77 -1 Z" /><glyph glyph-name="uni0162" unicode="&#x162;" d="M694 679 q44 0 81.5 14.5 q37.5 14.5 58.5 46.5 q-11 -48 -49 -78 q-38 -30 -107 -30 q-32 0 -77 6 q-45 6 -119 18 q-72 12 -117.5 18 q-45.5 6 -76.5 6 q-57 0 -106 -21.5 q-49 -21.5 -79 -62 q-30 -40.5 -30 -94.5 q0 -56 34 -102.5 q34 -46.5 103 -95.5 l-4 -5 q-21 0 -33 -1.5 q-12 -1.5 -27 -6.5 q-53 31 -90 91 q-37 60 -37 122 q0 60 37 109.5 q37 49.5 112.5 79 q75.5 29.5 185.5 29.5 q54 0 97 -6 q43 -6 114 -19 q85 -18 129 -18 ZM430 589 q16 19 33 29 q17 10 44 22 l9 -3 q-24 -32 -46 -109.5 q-22 -77.5 -47 -189.5 l-15 -64 q-72 -289 -297 -289 l-15 0 q-34 -22 -34 -40 q0 -8 6.5 -13 q6.5 -5 19.5 -11 q17 -8 26 -16 q9 -8 9 -22 q0 -22 -22.5 -50 q-22.5 -28 -53 -48 q-30.5 -20 -52.5 -20 q-12 0 -19.5 5.5 q-7.5 5.5 -7.5 12.5 q33 9 58.5 25.5 q25.5 16.5 39.5 34.5 q14 18 14 30 q0 7 -6 12 q-6 5 -19 12 q-16 9 -24 16 q-8 7 -8 20 q0 27 36 55 q-69 8 -106 26 q-11 30 -17 55 l9 10 q36 -35 71.5 -50 q35.5 -15 88.5 -15 q58 0 103 21 q45 21 82 78.5 q37 57.5 63 162.5 l13 54 q34 158 64 259 Z" /><glyph glyph-name="U" unicode="u" d="M892 103 q7 -5 7 -16 q0 -19 -26.5 -42 q-26.5 -23 -68 -38.5 q-41.5 -15.5 -84.5 -15.5 q-64 0 -98.5 38 q-34.5 38 -34.5 110 q0 36 7 74 q-55 -103 -140 -162 q-85 -59 -170 -59 q-68 0 -108 39.5 q-40 39.5 -40 116.5 q0 47 26 142 q26 95 71 239 l32 105 q6 23 -31 23 q-15 0 -49 -4 q-34 -4 -44 -4 q-19 0 -28 7 q-9 7 -9 23 q0 18 5 31 q10 -6 19 -8 q9 -2 28 -2 l124 2 q27 0 38 -7.5 q11 -7.5 11 -25.5 q0 -17 -12 -58.5 q-12 -41.5 -35 -110.5 q-40 -123 -61.5 -202 q-21.5 -79 -21.5 -130 q0 -62 23.5 -92.5 q23.5 -30.5 77.5 -30.5 q61 0 122.5 36.5 q61.5 36.5 109.5 97 q48 60.5 71 129.5 q40 120 82 265 l11 38 q14 47 20 64.5 q6 17.5 14.5 25.5 q8.5 8 23.5 8 q20 0 51 -9 q-12 -9 -18.5 -20.5 q-6.5 -11.5 -18.5 -38.5 q-37 -87 -63.5 -175.5 q-26.5 -88.5 -47.5 -188.5 q-19 -91 -19 -129 q0 -55 25 -82 q25 -27 80 -27 q87 0 149 64 Z" /><glyph glyph-name="Uhorn" unicode="&#x1af;" d="M768 641 q-37 -87 -63.5 -175.5 q-26.5 -88.5 -47.5 -188.5 q-19 -91 -19 -129 q0 -55 25 -82 q25 -27 80 -27 q87 0 149 64 q7 -5 7 -16 q0 -19 -26.5 -42 q-26.5 -23 -68 -38.5 q-41.5 -15.5 -84.5 -15.5 q-64 0 -98.5 38 q-34.5 38 -34.5 110 q0 36 7 74 q-55 -103 -140 -162 q-85 -59 -170 -59 q-68 0 -108 39.5 q-40 39.5 -40 116.5 q0 47 26 142 q26 95 71 239 l32 105 q6 23 -31 23 q-15 0 -49 -4 q-34 -4 -44 -4 q-19 0 -28 7 q-9 7 -9 23 q0 18 5 31 q10 -6 19 -8 q9 -2 28 -2 l124 2 q27 0 38 -7.5 q11 -7.5 11 -25.5 q0 -17 -12 -58.5 q-12 -41.5 -35 -110.5 q-40 -123 -61.5 -202 q-21.5 -79 -21.5 -130 q0 -62 23.5 -92.5 q23.5 -30.5 77.5 -30.5 q61 0 122.5 36.5 q61.5 36.5 109.5 97 q48 60.5 71 129.5 q40 120 82 265 l11 38 q14 47 20 64.5 q6 17.5 14.5 25.5 q8.5 8 23.5 8 q20 0 51 -9 q-12 -10 -21 -24 q16 -16 40 -16 q28 0 46 21.5 q18 21.5 18 59.5 q0 19 -6 49 q7 0 18.5 -6 q11.5 -6 17.5 -13 q7 -8 11.5 -22.5 q4.5 -14.5 4.5 -29.5 q0 -28 -16 -50 q-16 -22 -40 -34 q-24 -12 -46 -12 q-17 0 -35 7 q-18 7 -27 16 q0 -1 -2 -5 Z" /><glyph glyph-name="Uogonek" unicode="&#x172;" d="M788 1 q-87 -37 -87 -98 q0 -26 15 -38 q15 -12 39 -12 q26 0 42 8 q2 -6 2 -9 q0 -14 -20.5 -23.5 q-20.5 -9.5 -47.5 -9.5 q-40 0 -61 20 q-21 20 -21 52 q0 29 16 55.5 q16 26.5 42 44.5 q-58 5 -89 42.5 q-31 37.5 -31 105.5 q0 36 7 74 q-55 -103 -140 -162 q-85 -59 -170 -59 q-68 0 -108 39.5 q-40 39.5 -40 116.5 q0 47 26 142 q26 95 71 239 l32 105 q6 23 -31 23 q-15 0 -49 -4 q-34 -4 -44 -4 q-19 0 -28 7 q-9 7 -9 23 q0 18 5 31 q10 -6 19 -8 q9 -2 28 -2 l124 2 q27 0 38 -7.5 q11 -7.5 11 -25.5 q0 -17 -12 -58.5 q-12 -41.5 -35 -110.5 q-40 -123 -61.5 -202 q-21.5 -79 -21.5 -130 q0 -62 23.5 -92.5 q23.5 -30.5 77.5 -30.5 q61 0 122.5 36.5 q61.5 36.5 109.5 97 q48 60.5 71 129.5 q40 120 82 265 l11 38 q14 47 20 64.5 q6 17.5 14.5 25.5 q8.5 8 23.5 8 q20 0 51 -9 q-12 -9 -18.5 -20.5 q-6.5 -11.5 -18.5 -38.5 q-37 -87 -63.5 -175.5 q-26.5 -88.5 -47.5 -188.5 q-19 -91 -19 -129 q0 -55 25 -82 q25 -27 80 -27 q87 0 149 64 q7 -5 7 -16 q0 -21 -32.5 -46.5 q-32.5 -25.5 -78.5 -39.5 Z" /><glyph glyph-name="V" unicode="v" d="M757 829 q42 0 42 -49 q0 -24 -7.5 -47.5 q-7.5 -23.5 -28.5 -57.5 q-26 -44 -100 -155 q-109 -165 -179.5 -282.5 q-70.5 -117.5 -111.5 -222.5 q-5 -14 -8.5 -17 q-3.5 -3 -13.5 -4 q-34 -3 -47 -5 q-13 -2 -21 -9 q-6 3 -10 7 q14 67 14 246 l0 58 q0 140 -9 215 q-9 75 -39.5 115 q-30.5 40 -94.5 40 q-43 0 -81.5 -16.5 q-38.5 -16.5 -67.5 -46.5 q-11 6 -11 19 q0 22 29.5 43 q29.5 21 75 34.5 q45.5 13.5 90.5 13.5 q75 0 109 -44 q34 -44 43 -132.5 q9 -88.5 9 -272.5 q0 -73 -0.5 -99 q-0.5 -26 -0.5 -35 q-1 -10 -1 -35 l74 115 q146 225 232.5 373 q86.5 148 86.5 203 q0 24 -11 40 q2 1 13.5 4.5 q11.5 3.5 24.5 3.5 Z" /><glyph glyph-name="W" unicode="w" d="M1082 770 q17 0 29 -8.5 q12 -8.5 23 -23.5 q-20 -2 -26 -4 q-59 -21 -131.5 -135.5 q-72.5 -114.5 -139.5 -272.5 q-67 -158 -114 -311 q0 -1 -2 -6.5 q-2 -5.5 -5.5 -9 q-3.5 -3.5 -10.5 -5.5 q-10 -2 -18.5 -4.5 q-8.5 -2.5 -16 -6 q-7.5 -3.5 -13.5 -6.5 q-2 -1 -3 -1 q-6 0 -8 4 q-2 4 -4 16 q-16 141 -32.5 238 q-16.5 97 -40.5 211 l-18 91 q-61 -80 -137.5 -232 q-76.5 -152 -139.5 -295 q-3 -8 -5.5 -10.5 q-2.5 -2.5 -7.5 -3.5 q-25 -4 -33 -7 q-8 -3 -12.5 -8 q-4.5 -5 -11.5 -9 q-11 0 -8 14 q7 34 12.5 133 q5.5 99 5.5 205 q0 95 -4.5 176.5 q-4.5 81.5 -11.5 109.5 q-3 12 -9.5 17.5 q-6.5 5.5 -20.5 5.5 q-16 0 -52 -9 q-22 -4 -24 -4 q-9 0 -13.5 10 q-4.5 10 -4.5 22 q0 14 7 14 q77 12 162 40 q24 8 30 8 q7 0 7 -7 q0 -6 -2 -10 q-10 -25 -14.5 -44.5 q-4.5 -19.5 -6.5 -63.5 q-2 -50 -2 -165 q0 -198 2 -318 q14 26 77 144 q126 235 207 372 q11 11 55 11 q17 -152 38.5 -277.5 q21.5 -125.5 52.5 -276.5 q119 318 215.5 505 q96.5 187 179.5 187 Z" /><glyph glyph-name="X" unicode="x" d="M765 106 q9 -7 9 -20 q0 -19 -26.5 -42.5 q-26.5 -23.5 -66 -40 q-39.5 -16.5 -73.5 -16.5 q-49 0 -86.5 37.5 q-37.5 37.5 -69.5 116.5 q-21 54 -59 180 l-64 -61 q-14 -14 -84.5 -81 q-70.5 -67 -94.5 -94 q-27 -31 -41 -63.5 q-14 -32.5 -14 -84.5 q0 -21 3 -37 q-33 16 -47 34.5 q-14 18.5 -14 47.5 q0 46 27 84.5 q27 38.5 68 75.5 q135 123 247 229 q-7 26 -10 34 q-37 133 -50 169 q-18 48 -42.5 65.5 q-24.5 17.5 -63.5 17.5 q-40 0 -69 -14 q-29 -14 -61 -43 q-11 11 -11 23 q0 18 24.5 37 q24.5 19 61.5 31.5 q37 12.5 72 12.5 q54 0 90 -31.5 q36 -31.5 59 -92.5 q13 -36 49 -163 q205 194 287 293 q7 8 7 19 q0 16 -10 26 q3 4 14 4 q7 0 29 -27 q22 -27 22 -37 q0 -7 -8 -15 q-83 -83 -295 -283 q-10 -11 -32 -31 q41 -145 72 -216 q27 -61 55 -85 q28 -24 66 -24 q37 0 70.5 18 q33.5 18 59.5 47 Z" /><glyph glyph-name="Y" unicode="y" d="M903 712 q0 -12 -7 -21 q-17 7 -43 7 q-101 0 -201 -69 q-100 -69 -177.5 -183.5 q-77.5 -114.5 -115.5 -246.5 q-14 -47 -18.5 -84 q-4.5 -37 -6.5 -87 q-1 -14 -6 -21 q-5 -7 -16 -7 q-41 0 -54 -1.5 q-13 -1.5 -35 -12.5 q-5 7 -5 11 q41 51 71 155.5 q30 104.5 30 206.5 q0 79 -20 144.5 q-20 65.5 -60 104.5 q-40 39 -98 39 q-44 0 -75.5 -23 q-31.5 -23 -58.5 -66 q-8 7 -11.5 12.5 q-3.5 5.5 -3.5 17.5 q0 26 19.5 54.5 q19.5 28.5 55.5 47.5 q36 19 83 19 q101 0 158.5 -90.5 q57.5 -90.5 67.5 -228.5 q1 -11 1 -32 q44 89 122 181.5 q78 92.5 168.5 153.5 q90.5 61 169.5 61 q32 0 48 -10 q16 -10 18 -28 l0 -4 Z" /><glyph glyph-name="Z" unicode="z" d="M966 -37 q10 -5 16 -17.5 q6 -12.5 6 -28.5 q0 -36 -31.5 -63 q-31.5 -27 -97.5 -27 q-63 0 -128.5 16.5 q-65.5 16.5 -174.5 52.5 l-92 30 q-110 35 -211 55.5 q-101 20.5 -208 20.5 q-4 0 -8.5 10.5 q-4.5 10.5 -5.5 20.5 q0 17 8 17 q36 0 69 27 q29 24 91 90.5 q62 66.5 197 214.5 q190 208 253 272 q-33 0 -99 2 q-98 2 -142 2 q-107 0 -171.5 -8.5 q-64.5 -8.5 -78.5 -29.5 q-8 -12 -13.5 -27.5 q-5.5 -15.5 -7.5 -21.5 q-9 0 -18 9 q2 9 9 62 l3 27 q3 21 23 23 q90 7 278 7 l190 -1 q41 -1 98 -1 q14 0 17.5 -10 q3.5 -10 4.5 -28 q-23 -4 -43 -25 q-11 -12 -139 -145 q-229 -237 -357 -384 q-33 -37 -64 -59 q54 -10 110.5 -24.5 q56.5 -14.5 148.5 -40.5 l85 -24 q98 -28 177 -43 q79 -15 146 -15 q71 0 110.5 15 q39.5 15 49.5 49 Z" /><glyph glyph-name="a" unicode="a" d="M635 231 q13 0 13 -26 q0 -46 -40.5 -97 q-40.5 -51 -98 -85.5 q-57.5 -34.5 -105.5 -34.5 q-39 0 -60 24 q-21 24 -25 62 q-25 -36 -63 -59 q-38 -23 -68 -23 q-26 0 -51.5 17.5 q-25.5 17.5 -41.5 43 q-16 25.5 -17 48.5 l49 202 q6 24 30.5 51.5 q24.5 27.5 59.5 45.5 q35 18 71 18 q46 0 81 -31 q9 24 13.5 30 q4.5 6 13.5 7 l49 5 l3 -2 q-20 -16 -29 -50 q-31 -116 -42.5 -171 q-11.5 -55 -11.5 -97 q0 -42 11 -61.5 q11 -19.5 37 -19.5 q32 0 76.5 26 q44.5 26 84.5 72.5 q40 46.5 61 104.5 ZM192 39 q17 0 41.5 12 q24.5 12 46 34.5 q21.5 22.5 29.5 51.5 l19 82 q4 20 14 64.5 q10 44.5 16 68.5 q-28 28 -68 28 q-31 0 -56 -16.5 q-25 -16.5 -41 -40 q-16 -23.5 -20 -41.5 l-40 -178 q2 -25 20 -45 q18 -20 39 -20 Z" /><glyph glyph-name="uni0251" unicode="&#x251;" d="M459 427 q-20 -16 -29 -50 q-29 -104 -42 -165.5 q-13 -61.5 -13 -102.5 q0 -38 20.5 -61 q20.5 -23 51.5 -29 q0 -11 -9.5 -21 q-9.5 -10 -25.5 -10 q-18 0 -36 12.5 q-18 12.5 -30.5 34.5 q-12.5 22 -13.5 49 q-28 -40 -74 -66 q-46 -26 -77 -26 q-28 0 -53.5 17 q-25.5 17 -41.5 42.5 q-16 25.5 -18 49.5 q6 25 11 43.5 q5 18.5 8 31.5 q2 9 12 46.5 q10 37.5 18 80.5 q4 21 27.5 48.5 q23.5 27.5 60.5 47 q37 19.5 77 19.5 q23 0 49.5 -10 q26.5 -10 47.5 -24 q10 26 14 32.5 q4 6.5 14 7.5 l49 5 l3 -2 ZM320 137 q4 17 19 84 q25 108 30 128 q-18 13 -42 22 q-24 9 -42 9 q-35 0 -61.5 -17 q-26.5 -17 -41.5 -40 q-15 -23 -19 -41 q-9 -44 -21 -91 q-4 -20 -9 -41.5 q-5 -21.5 -10 -45.5 q2 -25 20.5 -45 q18.5 -20 35.5 -20 q20 0 51 12.5 q31 12.5 57 34.5 q26 22 33 51 Z" /><glyph glyph-name="aogonek" unicode="&#x105;" d="M419 -11 q-62 -36 -62 -86 q0 -26 15 -38 q15 -12 39 -12 q26 0 42 8 q2 -6 2 -9 q0 -14 -20.5 -23.5 q-20.5 -9.5 -47.5 -9.5 q-40 0 -61 20 q-21 20 -21 52 q0 30 17.5 58 q17.5 28 45.5 46 q-21 9 -33.5 30 q-12.5 21 -15.5 49 q-25 -36 -63 -59 q-38 -23 -68 -23 q-26 0 -51.5 17.5 q-25.5 17.5 -41.5 43 q-16 25.5 -17 48.5 l49 202 q6 24 30.5 51.5 q24.5 27.5 59.5 45.5 q35 18 71 18 q46 0 81 -31 q9 24 13.5 30 q4.5 6 13.5 7 l49 5 l3 -2 q-20 -16 -29 -50 q-31 -116 -42.5 -171 q-11.5 -55 -11.5 -97 q0 -42 11 -61.5 q11 -19.5 37 -19.5 q32 0 76.5 26 q44.5 26 84.5 72.5 q40 46.5 61 104.5 q13 0 13 -26 q0 -44 -36.5 -92.5 q-36.5 -48.5 -91 -83.5 q-54.5 -35 -101.5 -40 ZM192 39 q17 0 41.5 12 q24.5 12 46 34.5 q21.5 22.5 29.5 51.5 l19 82 q4 20 14 64.5 q10 44.5 16 68.5 q-28 28 -68 28 q-31 0 -56 -16.5 q-25 -16.5 -41 -40 q-16 -23.5 -20 -41.5 l-40 -178 q2 -25 20 -45 q18 -20 39 -20 Z" /><glyph glyph-name="ae" unicode="æ" d="M730 239 q7 -1 12.5 -5.5 q5.5 -4.5 5.5 -12.5 q0 -10 -3 -18.5 q-3 -8.5 -10 -19.5 q-49 -80 -130 -134 q-81 -54 -171 -54 q-31 0 -65 23.5 q-34 23.5 -52 53.5 q-26 -35 -63.5 -57.5 q-37.5 -22.5 -65.5 -22.5 q-28 0 -53 17 q-25 17 -40 42.5 q-15 25.5 -17 49.5 q18 81 42 211 q4 21 26.5 46 q22.5 25 57.5 42.5 q35 17.5 76 17.5 q37 0 83 -42 q7 24 13.5 35.5 q6.5 11.5 15.5 12.5 l49 5 l3 -2 q-19 -15 -28 -39 q18 16 34.5 24 q16.5 8 37.5 8 q21 0 45 -13 q24 -13 40 -32 q16 -19 16 -35 q0 -66 -58 -107.5 q-58 -41.5 -163 -42.5 q-13 -55 -16 -72 q1 -20 15.5 -38.5 q14.5 -18.5 35 -30 q20.5 -11.5 38.5 -11.5 q66 0 123 31 q57 31 99 77 q42 46 67 93 ZM305 137 q4 12 17 72 q7 28 15 62 q8 34 17 68 q-17 17 -39 29 q-22 12 -34 12 q-51 0 -78.5 -26.5 q-27.5 -26.5 -33.5 -56.5 q-4 -18 -26 -128 l-13 -65 q2 -25 20.5 -45 q18.5 -20 35.5 -20 q20 0 44.5 11.5 q24.5 11.5 45.5 33.5 q21 22 29 53 ZM376 225 q80 4 123.5 32 q43.5 28 43.5 68 q0 17 -22 35.5 q-22 18.5 -40 18.5 q-21 0 -48.5 -17 q-27.5 -17 -33.5 -41 l-23 -96 Z" /><glyph glyph-name="b" unicode="b" d="M605 1004 q-124 0 -221.5 -115 q-97.5 -115 -156.5 -355 q-18 -72 -48.5 -215.5 q-30.5 -143.5 -40.5 -214.5 q0 -26 21 -47 q21 -21 44 -21 q24 0 50.5 25.5 q26.5 25.5 44.5 69 q18 43.5 18 94.5 q0 40 -11 79.5 q-11 39.5 -25 61.5 q0 10 15 25.5 q15 15.5 25 17.5 q24 -41 41.5 -63.5 q17.5 -22.5 49.5 -38 q32 -15.5 82 -15.5 q45 0 79.5 13.5 q34.5 13.5 63.5 42.5 q5 -5 5 -12 q0 -20 -23.5 -39.5 q-23.5 -19.5 -62 -32 q-38.5 -12.5 -78.5 -12.5 q-37 0 -69.5 11.5 q-32.5 11.5 -55.5 31.5 q9 -31 9 -66 q0 -70 -23 -125 q-23 -55 -60 -85.5 q-37 -30.5 -79 -30.5 q-33 0 -59 17.5 q-26 17.5 -40.5 44.5 q-14.5 27 -14.5 53 q10 58 37 191.5 q27 133.5 58 251.5 q61 236 152 379 q91 143 241 143 q60 0 97.5 -22.5 q37.5 -22.5 46.5 -55.5 l0 -9 q-54 23 -112 23 Z" /><glyph glyph-name="c" unicode="c" d="M221 -5 q-52 0 -85 24.5 q-33 24.5 -48 54 q-15 29.5 -15 40.5 q30 113 52 224 q4 20 25.5 37.5 q21.5 17.5 50 28.5 q28.5 11 50.5 11 q22 0 45.5 -11 q23.5 -11 39.5 -28 q16 -17 16 -36 q0 -28 -27 -49 l-5 1 q-2 33 -23.5 56.5 q-21.5 23.5 -48.5 23.5 q-23 0 -50 -15.5 q-27 -15.5 -31 -35.5 q-16 -84 -25 -125 l-16 -75 q0 -13 11.5 -32.5 q11.5 -19.5 34.5 -34 q23 -14.5 57 -14.5 q36 0 85.5 17.5 q49.5 17.5 99.5 63 q50 45.5 81 121.5 q10 0 13 -7 q3 -7 3 -19 q0 -46 -46.5 -98 q-46.5 -52 -115 -87.5 q-68.5 -35.5 -128.5 -35.5 Z" /><glyph glyph-name="ccedilla" unicode="ç" d="M511 216 q0 -46 -46.5 -98 q-46.5 -52 -115 -87.5 q-68.5 -35.5 -128.5 -35.5 q-18 0 -33 3 q-21 -11 -38.5 -25.5 q-17.5 -14.5 -17.5 -27.5 q0 -8 6.5 -13 q6.5 -5 19.5 -11 q17 -8 26 -16 q9 -8 9 -22 q0 -22 -22.5 -50 q-22.5 -28 -53 -48 q-30.5 -20 -52.5 -20 q-12 0 -19.5 5.5 q-7.5 5.5 -7.5 12.5 q33 9 58.5 25.5 q25.5 16.5 39.5 34.5 q14 18 14 30 q0 7 -6 12 q-6 5 -19 12 q-16 9 -24 16 q-8 7 -8 20 q0 20 20 40.5 q20 20.5 45 34.5 q-29 13 -48 35 q-19 22 -28 43 q-9 21 -9 28 q30 113 52 224 q4 20 25.5 37.5 q21.5 17.5 50 28.5 q28.5 11 50.5 11 q22 0 45.5 -11 q23.5 -11 39.5 -28 q16 -17 16 -36 q0 -28 -27 -49 l-5 1 q-2 33 -23.5 56.5 q-21.5 23.5 -48.5 23.5 q-23 0 -50 -15.5 q-27 -15.5 -31 -35.5 q-16 -84 -25 -125 l-16 -75 q0 -13 11.5 -32.5 q11.5 -19.5 34.5 -34 q23 -14.5 57 -14.5 q36 0 85.5 17.5 q49.5 17.5 99.5 63 q50 45.5 81 121.5 q10 0 13 -7 q3 -7 3 -19 Z" /><glyph glyph-name="d" unicode="d" d="M790 1058 q58 0 95.5 -20.5 q37.5 -20.5 46.5 -53.5 l0 -9 q-57 28 -116 28 q-121 0 -213.5 -113 q-92.5 -113 -160.5 -356 q-29 -103 -60 -244.5 q-31 -141.5 -31 -195.5 q0 -25 9 -38.5 q9 -13.5 32 -13.5 q28 0 63 19.5 q35 19.5 69.5 58.5 q34.5 39 60.5 94 q14 0 14 -24 q0 -37 -34 -83 q-34 -46 -84 -79 q-50 -33 -96 -33 q-32 0 -52 17 q-20 17 -28 48 q-23 -29 -56.5 -48.5 q-33.5 -19.5 -63.5 -19.5 q-27 0 -54 17 q-27 17 -44 42.5 q-17 25.5 -17 49.5 q25 84 52 215 q4 22 28.5 47 q24.5 25 59.5 41.5 q35 16.5 68 16.5 q38 0 78 -22 q19 77 39 147 q52 180 109 292 q57 112 126.5 166 q69.5 54 159.5 54 ZM314 192 q12 68 33 164 q-34 22 -68 22 q-35 0 -67 -20.5 q-32 -20.5 -45 -57.5 q-7 -20 -23 -102 q-10 -50 -21 -94 q0 -23 22 -47 q22 -24 47 -24 q20 0 43.5 15.5 q23.5 15.5 44 45 q20.5 29.5 28.5 69.5 l6 29 Z" /><glyph glyph-name="eth" unicode="ð" d="M418 736 q8 0 14 -10.5 q6 -10.5 6 -19.5 q0 -5 -4 -6 q-1 0 -18.5 -0.5 q-17.5 -0.5 -127.5 -34.5 q42 -87 65.5 -181.5 q23.5 -94.5 23.5 -182.5 q0 -83 -21.5 -154 q-21.5 -71 -64 -114 q-42.5 -43 -103.5 -43 q-53 0 -87 33 q-34 33 -34 94 q0 54 27 114.5 q27 60.5 84.5 112 q57.5 51.5 142.5 74.5 q-21 122 -86 230 l-9 -3 q-49 -16 -74 -25 q-25 -9 -45 -19 q-10 0 -20.5 13 q-10.5 13 -10.5 18 l4 4 q9 0 25 4.5 q16 4.5 39 12.5 l68 22 l6 2 q-72 110 -177.5 182.5 q-105.5 72.5 -229.5 92.5 q55 31 112 31 q96 0 189 -80 q93 -80 161 -209 l145 42 ZM193 32 q41 0 72 36 q31 36 48.5 98.5 q17.5 62.5 17.5 138.5 q0 40 -4 72 q-61 -16 -107 -59.5 q-46 -43.5 -71 -98 q-25 -54.5 -25 -103.5 q0 -47 21 -65.5 q21 -18.5 48 -18.5 Z" /><glyph glyph-name="dcroat" unicode="&#x111;" d="M790 1058 q58 0 95.5 -20.5 q37.5 -20.5 46.5 -53.5 l0 -9 q-57 28 -116 28 q-99 0 -178.5 -74.5 q-79.5 -74.5 -141.5 -232.5 l80 -1 l64 1 l-8 -45 q-48 2 -104 2 l-48 0 q-21 -58 -38 -119 q-29 -103 -60 -244.5 q-31 -141.5 -31 -195.5 q0 -25 9 -38.5 q9 -13.5 32 -13.5 q28 0 63 19.5 q35 19.5 69.5 58.5 q34.5 39 60.5 94 q14 0 14 -24 q0 -37 -34 -83 q-34 -46 -84 -79 q-50 -33 -96 -33 q-32 0 -52 17 q-20 17 -28 48 q-23 -29 -56.5 -48.5 q-33.5 -19.5 -63.5 -19.5 q-27 0 -54 17 q-27 17 -44 42.5 q-17 25.5 -17 49.5 q25 84 52 215 q4 22 28.5 47 q24.5 25 59.5 41.5 q35 16.5 68 16.5 q38 0 78 -22 q19 77 39 147 q18 61 33 107 l-75 0 q-53 0 -71 -1 l8 47 l153 -2 q69 188 151.5 274.5 q82.5 86.5 195.5 86.5 ZM314 192 q12 68 33 164 q-34 22 -68 22 q-35 0 -67 -20.5 q-32 -20.5 -45 -57.5 q-7 -20 -23 -102 q-10 -50 -21 -94 q0 -23 22 -47 q22 -24 47 -24 q20 0 43.5 15.5 q23.5 15.5 44 45 q20.5 29.5 28.5 69.5 l6 29 Z" /><glyph glyph-name="e" unicode="e" d="M491 239 q18 -3 18 -20 q0 -40 -51.5 -93.5 q-51.5 -53.5 -121.5 -92 q-70 -38.5 -117 -38.5 q-45 0 -78 23.5 q-33 23.5 -50.5 52.5 q-17.5 29 -17.5 43 q16 57 35 158 l11 56 q4 20 29 41.5 q25 21.5 56 36 q31 14.5 50 14.5 q15 0 36.5 -9.5 q21.5 -9.5 38 -29.5 q16.5 -20 16.5 -51 q0 -36 -24 -68 q-24 -32 -71 -52 q-47 -20 -113 -20 l-14 -67 q0 -9 10.5 -30 q10.5 -21 34 -38 q23.5 -17 59.5 -17 q48 0 101 31.5 q53 31.5 97 78.5 q44 47 66 91 ZM246 379 q-12 0 -31 -10 q-19 -10 -34.5 -25 q-15.5 -15 -18.5 -28 q-10 -45 -18 -91 q77 3 116 30.5 q39 27.5 39 62.5 q0 25 -18 43 q-18 18 -35 18 Z" /><glyph glyph-name="eogonek" unicode="&#x119;" d="M509 219 q0 -33 -35.5 -75.5 q-35.5 -42.5 -89.5 -80 q-54 -37.5 -104 -55.5 l0 -1 q-101 -39 -101 -104 q0 -26 15 -38 q15 -12 39 -12 q26 0 42 8 q2 -6 2 -9 q0 -14 -20.5 -23.5 q-20.5 -9.5 -47.5 -9.5 q-40 0 -61 20 q-21 20 -21 52 q0 31 18.5 59.5 q18.5 28.5 47.5 46.5 q-37 7 -64 30 q-27 23 -41.5 49 q-14.5 26 -14.5 38 q16 57 35 158 l11 56 q4 20 29 41.5 q25 21.5 56 36 q31 14.5 50 14.5 q15 0 36.5 -9.5 q21.5 -9.5 38 -29.5 q16.5 -20 16.5 -51 q0 -36 -24 -68 q-24 -32 -71 -52 q-47 -20 -113 -20 l-14 -67 q0 -9 10.5 -30 q10.5 -21 34 -38 q23.5 -17 59.5 -17 q48 0 101 31.5 q53 31.5 97 78.5 q44 47 66 91 q18 -3 18 -20 ZM246 379 q-12 0 -31 -10 q-19 -10 -34.5 -25 q-15.5 -15 -18.5 -28 q-10 -45 -18 -91 q77 3 116 30.5 q39 27.5 39 62.5 q0 25 -18 43 q-18 18 -35 18 Z" /><glyph glyph-name="uni0259" unicode="&#x259;" d="M217 420 q61 0 94 -40.5 q33 -40.5 33 -112.5 q0 -69 -29 -133 q-29 -64 -79.5 -103.5 q-50.5 -39.5 -111.5 -39.5 q-55 0 -82 29.5 q-27 29.5 -27 68.5 q0 34 22.5 70.5 q22.5 36.5 68.5 61 q46 24.5 113 24.5 q40 0 74 -9 q1 9 1 27 q0 53 -22 81.5 q-22 28.5 -73 28.5 q-43 0 -72.5 -20 q-29.5 -20 -52.5 -57 q-6 1 -10 7 q-4 6 -4 15 q0 23 22.5 47 q22.5 24 59 39.5 q36.5 15.5 75.5 15.5 ZM127 35 q56 0 101 49 q45 49 60 120 q-28 5 -57 5 q-52 0 -90.5 -16.5 q-38.5 -16.5 -58 -43 q-19.5 -26.5 -19.5 -55.5 q0 -27 17 -43 q17 -16 47 -16 Z" /><glyph glyph-name="f" unicode="f" d="M639 936 q0 -23 -21 -35 q-20 17 -48 26 q-28 9 -57 9 q-58 0 -94 -44.5 q-36 -44.5 -70 -155.5 q-34 -111 -88 -349 l203 3 q2 -3 2 -9 q0 -11 -11.5 -20 q-11.5 -9 -22.5 -9 l-22 0 q-111 -2 -158 -4 q-42 -190 -77 -335 q-4 -12 -6.5 -23 q-2.5 -11 -4.5 -20 q-45 -179 -87 -294.5 q-42 -115.5 -100 -184 q-58 -68.5 -136 -68.5 q-63 0 -101.5 40.5 q-38.5 40.5 -54.5 89 q-16 48.5 -16 73.5 q0 17 6 30 q6 13 18 32 q12 16 17 26 q19 -120 50.5 -175.5 q31.5 -55.5 96.5 -55.5 q53 0 93 40 q40 40 75 130.5 q35 90.5 73 248.5 q35 148 79 340 l24 104 q-74 -2 -107.5 -8 q-33.5 -6 -50 -21.5 q-16.5 -15.5 -29.5 -50.5 l-13 4 q11 57 24 79 q13 22 38 27 q36 8 147 11 q47 207 75.5 306 q28.5 99 63.5 159.5 q35 60.5 92 98.5 q60 39 117 39 q37 0 59 -15 q22 -15 22 -39 Z" /><glyph glyph-name="g" unicode="g" d="M392 455 q12 -12 24 -20 q10 -8 13.5 -12.5 q3.5 -4.5 3.5 -12.5 q0 -8 -4 -20 q-20 -77 -53 -221 q-22 -98 -40 -168 q-52 -211 -106.5 -340 q-54.5 -129 -136 -197.5 q-81.5 -68.5 -203.5 -68.5 q-80 0 -135 27.5 q-55 27.5 -81 69.5 q-26 42 -26 86 q0 10 2 16.5 q2 6.5 10 19.5 q59 -161 232 -161 q108 0 180 63.5 q72 63.5 121 179 q49 115.5 97 304.5 l5 20 q2 8 4 15 q2 7 3 14 q-28 -27 -65 -42 q-37 -15 -62 -15 q-26 0 -50.5 17 q-24.5 17 -39.5 42.5 q-15 25.5 -15 49.5 q6 24 14 61 q8 37 12 57 l24 108 q5 21 32 45 q27 24 61.5 40 q34.5 16 59.5 16 q27 0 53 -20 q26 -20 46 -53 q6 28 11 66 l5 33 l4 1 ZM360 302 q-19 37 -43.5 59 q-24.5 22 -47.5 22 q-16 0 -39 -10.5 q-23 -10.5 -42 -28 q-19 -17.5 -24 -38.5 q-7 -30 -26 -134 l-12 -68 q0 -24 17.5 -45 q17.5 -21 40.5 -21 q17 0 48 12 q31 12 57 34.5 q26 22.5 33 52.5 l38 165 Z" /><glyph glyph-name="h" unicode="h" d="M601 1088 q86 0 136 -47.5 q50 -47.5 50 -133.5 l-7 -12 q-22 68 -69 100.5 q-47 32.5 -113 32.5 q-139 0 -236 -156.5 q-97 -156.5 -168 -451.5 l-26 -113 l-13 -58 q41 58 104 112.5 q63 54.5 95 54.5 q8 0 23.5 -15 q15.5 -15 15.5 -22 q-19 -55 -45 -161 q-26 -106 -26 -135 q0 -28 9 -40.5 q9 -12.5 37 -12.5 q50 0 97 38 q47 38 81.5 86.5 q34.5 48.5 52.5 85.5 q7 -2 11 -7 q4 -5 5 -15 l0 -3 q0 -12 -8 -28 q-46 -84 -118 -141.5 q-72 -57.5 -140 -57.5 q-35 0 -56 22 q-21 22 -21 62 q0 39 12.5 96 q12.5 57 33.5 134 q-1 -5 11 41 q-1 4 -5 7 q-4 3 -7 3 q-10 0 -47 -33 q-37 -33 -75 -79 q-38 -46 -57 -86 q-10 -40 -20 -100 q-1 -7 -2 -15 q-1 -8 -3 -16 q-3 -18 -5.5 -24.5 q-2.5 -6.5 -8.5 -6.5 q-12 0 -27 6 q-15 6 -15 15 q0 13 6 38 l87 369 q73 312 186 489.5 q113 177.5 265 177.5 Z" /><glyph glyph-name="hbar" unicode="&#x127;" d="M601 1088 q86 0 136 -47.5 q50 -47.5 50 -133.5 l-7 -12 q-22 68 -69 100.5 q-47 32.5 -113 32.5 q-118 0 -205 -113 q-87 -113 -153 -327 l102 -1 l81 1 l-8 -45 q-37 3 -109 3 l-79 -1 q-19 -70 -33 -125 l-26 -113 l-13 -58 q41 58 104 112.5 q63 54.5 95 54.5 q8 0 23.5 -15 q15.5 -15 15.5 -22 q-19 -55 -45 -161 q-26 -106 -26 -135 q0 -28 9 -40.5 q9 -12.5 37 -12.5 q50 0 97 38 q47 38 81.5 86.5 q34.5 48.5 52.5 85.5 q7 -2 11 -7 q4 -5 5 -15 l0 -3 q0 -12 -8 -28 q-46 -84 -118 -141.5 q-72 -57.5 -140 -57.5 q-35 0 -56 22 q-21 22 -21 62 q0 39 12.5 96 q12.5 57 33.5 134 q-1 -5 11 41 q-1 4 -5 7 q-4 3 -7 3 q-10 0 -47 -33 q-37 -33 -75 -79 q-38 -46 -57 -86 q-10 -40 -20 -100 q-1 -7 -2 -15 q-1 -8 -3 -16 q-3 -18 -5.5 -24.5 q-2.5 -6.5 -8.5 -6.5 q-12 0 -27 6 q-15 6 -15 15 q0 13 6 38 l87 369 q12 49 32 124 l-46 0 q-53 0 -71 -1 l8 47 l122 -2 q73 237 174.5 368 q101.5 131 231.5 131 Z" /><glyph glyph-name="dotlessi" unicode="&#x131;" d="M168 -7 q-35 0 -62.5 23.5 q-27.5 23.5 -27.5 69.5 q15 48 52 213 q18 81 22 97 q13 22 36 22 q15 0 15 -10 q-7 -25 -19.5 -79.5 q-12.5 -54.5 -19.5 -85.5 q-27 -124 -37 -159 q0 -23 13.5 -35.5 q13.5 -12.5 35.5 -12.5 q50 0 100.5 35.5 q50.5 35.5 89 82.5 q38.5 47 57.5 81 q6 -2 8 -6.5 q2 -4.5 2 -15.5 q0 -15 -10 -31 q-54 -85 -121 -137 q-67 -52 -134 -52 Z" /><glyph glyph-name="ij" unicode="&#x133;" d="M213 543 q-14 0 -22 9.5 q-8 9.5 -8 24.5 q0 20 13 36.5 q13 16.5 33 16.5 q16 0 23.5 -10 q7.5 -10 7.5 -24 q0 -20 -13.5 -36.5 q-13.5 -16.5 -33.5 -16.5 ZM506 630 q16 0 23.5 -10 q7.5 -10 7.5 -24 q0 -20 -13.5 -36.5 q-13.5 -16.5 -33.5 -16.5 q-14 0 -22 9.5 q-8 9.5 -8 24.5 q0 20 13 36.5 q13 16.5 33 16.5 ZM465 422 q9 0 16.5 -3 q7.5 -3 9.5 -8 l-5 -23 q-114 -506 -134 -589 q-20 -84 -49 -151.5 q-29 -67.5 -61 -105.5 q-32 -38 -62 -38 q-11 0 -18 5 q-7 5 -19 18 q-12 14 -21 22 q68 9 113.5 76.5 q45.5 67.5 75.5 191.5 l75 314 q-49 -64 -110 -101 q-61 -37 -117 -37 q-33 0 -62.5 22 q-29.5 22 -29.5 64 q0 24 42 201 l30 131 q3 4 11.5 6.5 q8.5 2.5 17.5 2.5 q7 0 13 -2.5 q6 -2.5 8 -5.5 q-20 -82 -46.5 -197.5 q-26.5 -115.5 -26.5 -128.5 q0 -25 15 -37.5 q15 -12.5 36 -12.5 q43 0 96 32 q53 32 94 82 q41 50 51 98 l35 163 q6 11 22 11 Z" /><glyph glyph-name="iogonek" unicode="&#x12f;" d="M214 543 q-14 0 -22 9.5 q-8 9.5 -8 24.5 q0 20 13 36.5 q13 16.5 33 16.5 q16 0 23.5 -10 q7.5 -10 7.5 -24 q0 -20 -13.5 -36.5 q-13.5 -16.5 -33.5 -16.5 ZM423 235 q6 -2 8 -6.5 q2 -4.5 2 -15.5 q0 -15 -10 -31 q-47 -74 -105.5 -124 q-58.5 -50 -118.5 -62 q-37 -19 -56 -41.5 q-19 -22.5 -19 -51.5 q0 -26 15 -38 q15 -12 39 -12 q26 0 42 8 q2 -6 2 -9 q0 -14 -20.5 -23.5 q-20.5 -9.5 -47.5 -9.5 q-40 0 -61 20 q-21 20 -21 52 q0 31 18.5 59.5 q18.5 28.5 47.5 47.5 q-26 8 -43 30 q-17 22 -17 58 q15 48 52 213 q18 81 22 97 q13 22 36 22 q15 0 15 -10 q-7 -25 -19.5 -79.5 q-12.5 -54.5 -19.5 -85.5 q-27 -124 -37 -159 q0 -23 13.5 -35.5 q13.5 -12.5 35.5 -12.5 q50 0 100.5 35.5 q50.5 35.5 89 82.5 q38.5 47 57.5 81 Z" /><glyph glyph-name="uni0237" unicode="&#x237;" d="M185 412 q20 -8 24 -20 q-15 -67 -76 -349 l-53 -244 q-19 -84 -47.5 -151.5 q-28.5 -67.5 -60.5 -105.5 q-32 -38 -62 -38 q-11 0 -18 5 q-7 5 -19 18 q-12 14 -21 22 q68 9 113 76.5 q45 67.5 74 191.5 q29 124 69 311 q40 187 47 237 q-59 -8 -80 -8 q-11 0 -16 7 q-5 7 -6 21 l40 7 q10 2 42 8 q32 6 50 12 Z" /><glyph glyph-name="k" unicode="k" d="M640 1108 q78 0 132 -47.5 q54 -47.5 54 -143.5 q0 -5 -4 -9 q-30 70 -79.5 100 q-49.5 30 -118.5 30 q-68 0 -138.5 -61 q-70.5 -61 -137.5 -174.5 q-67 -113.5 -125 -268.5 q-29 -77 -51 -168.5 q-22 -91.5 -55 -245.5 l-9 -41 q72 98 179 223 q107 125 123 125 q33 0 53 -20 q-69 -52 -169 -164 q17 -66 33.5 -109 q16.5 -43 43.5 -73.5 q27 -30.5 67 -30.5 q26 0 67.5 36 q41.5 36 77.5 94 q36 58 48 121 q9 0 15 -11.5 q6 -11.5 6 -30.5 q0 -33 -37 -94.5 q-37 -61.5 -89.5 -109 q-52.5 -47.5 -100.5 -47.5 q-61 0 -97.5 51.5 q-36.5 51.5 -72.5 158.5 q-90 -105 -148 -192 q-13 -20 -18 -20 q-8 0 -21.5 12.5 q-13.5 12.5 -14.5 21.5 q-1 20 20 120.5 q21 100.5 51.5 217.5 q30.5 117 55.5 188 q96 270 209.5 416 q113.5 146 250.5 146 Z" /><glyph glyph-name="kgreenlandic" unicode="&#x138;" d="M662 281 q8 0 13.5 -10.5 q5.5 -10.5 5.5 -27.5 q0 -42 -40.5 -103.5 q-40.5 -61.5 -100.5 -106.5 q-60 -45 -114 -45 q-44 0 -75 24 q-31 24 -54.5 72 q-23.5 48 -46.5 128 q-104 -116 -172 -216 q-7 -10 -14 -10 q-9 0 -23.5 12.5 q-14.5 12.5 -14.5 21.5 q0 14 23 85 l7 23 q22 68 76 229 l34 103 q18 0 32 -8 q14 -8 14 -29 q0 -14 -13.5 -53.5 q-13.5 -39.5 -42.5 -115.5 q-44 -119 -55 -149 q79 100 183.5 216 q104.5 116 119.5 116 q17 0 34 -5.5 q17 -5.5 26 -14.5 q-69 -49 -172 -159 q20 -94 58.5 -160 q38.5 -66 98.5 -66 q40 0 83 34 q43 34 78 91.5 q35 57.5 52 123.5 Z" /><glyph glyph-name="l" unicode="l" d="M494 280 q10 0 16 -9.5 q6 -9.5 6 -23.5 q0 -18 -10 -38 q-28 -59 -80 -108.5 q-52 -49.5 -112.5 -78.5 q-60.5 -29 -112.5 -29 q-106 0 -106 123 q0 86 47 276.5 q47 190.5 136 505.5 q19 65 41.5 96 q22.5 31 51.5 31 q21 0 40.5 -14.5 q19.5 -14.5 32.5 -44.5 q13 -30 13 -74 q0 -71 -33.5 -180 q-33.5 -109 -100.5 -230 q-67 -121 -161 -224 q-17 -88 -17 -131 q0 -48 19.5 -68.5 q19.5 -20.5 54.5 -20.5 q49 0 104.5 33 q55.5 33 101.5 89 q46 56 69 120 ZM304 835 q-84 -302 -127 -501 q74 93 127.5 203 q53.5 110 80 206 q26.5 96 26.5 151 q0 31 -9 53.5 q-9 22.5 -30 22.5 q-12 0 -28.5 -25 q-16.5 -25 -39.5 -110 Z" /><glyph glyph-name="lslash" unicode="&#x142;" d="M523 1017 q-44 0 -75 -18.5 q-31 -18.5 -56.5 -64 q-25.5 -45.5 -53.5 -129.5 q-66 -202 -99 -313 q62 20 146 42 q4 -12 20 -34 q-1 -6 -4 -6 q-27 0 -66 -8 q-39 -8 -108 -31 q-67 -232 -67 -318 q0 -54 23 -75 q23 -21 65 -21 q60 0 111.5 32 q51.5 32 88.5 86.5 q37 54.5 55 120.5 q11 0 18 -11 q7 -11 7 -30 q0 -51 -49 -109 q-49 -58 -120.5 -97.5 q-71.5 -39.5 -132.5 -39.5 q-58 0 -89.5 38.5 q-31.5 38.5 -31.5 110.5 q0 97 57 290 q-61 -22 -87 -38 q-6 9 -15 20.5 q-9 11.5 -15 15.5 l4 4 q10 0 27.5 5.5 q17.5 5.5 43.5 14.5 l54 18 q52 171 145 412 q21 56 65.5 95 q44.5 39 97 58.5 q52.5 19.5 100.5 19.5 q44 0 83.5 -13.5 q39.5 -13.5 39.5 -44.5 q0 -17 -12 -33 q-25 22 -75 36.5 q-50 14.5 -95 14.5 Z" /><glyph glyph-name="m" unicode="m" d="M774 231 q1 -31 -37.5 -88 q-38.5 -57 -94.5 -101 q-56 -44 -110 -44 q-38 0 -62.5 24.5 q-24.5 24.5 -24.5 74.5 q0 41 13.5 92.5 q13.5 51.5 36.5 122.5 q7 19 13 40 q0 3 -4 5.5 q-4 2.5 -8 2.5 q-13 0 -51.5 -37.5 q-38.5 -37.5 -78 -86 q-39.5 -48.5 -52.5 -73.5 q-10 -31 -33 -130 q-4 -17 -6.5 -23 q-2.5 -6 -8.5 -6 q-9 0 -20.5 11 q-11.5 11 -11.5 22 q0 11 10 48 q42 154 68 267 q-6 8 -15 8 q-15 0 -51 -37 q-36 -37 -75 -93.5 q-39 -56.5 -64 -111.5 q-15 -49 -27 -113 q-10 0 -26 7 q-16 7 -16 14 q0 8 10 45 l85 331 q2 9 5 13 q3 4 9 4 q6 0 20.5 -6 q14.5 -6 18.5 -10 l-9 -32 q-3 -12 -13.5 -49.5 q-10.5 -37.5 -19.5 -77.5 q31 54 64.5 89.5 q33.5 35.5 61.5 52 q28 16.5 43 16.5 q11 0 28 -12 q17 -12 17 -20 q-9 -55 -26 -124 q41 56 98 111.5 q57 55.5 87 55.5 q14 0 30 -11 q16 -11 17 -26 q-32 -99 -49.5 -163 q-17.5 -64 -17.5 -115 q0 -30 10 -43.5 q10 -13.5 36 -13.5 q61 0 118 66.5 q57 66.5 87 156.5 q11 0 18.5 -10 q7.5 -10 7.5 -23 Z" /><glyph glyph-name="n" unicode="n" d="M555 244 q10 0 14.5 -8.5 q4.5 -8.5 4.5 -19.5 q0 -36 -38 -91 q-38 -55 -96.5 -96 q-58.5 -41 -115.5 -41 q-36 0 -55.5 18 q-19.5 18 -19.5 55 q0 51 28 138.5 q28 87.5 51 145.5 q-4 6 -8 6 q-4 0 -9 -3 q-18 -11 -59 -49 q-41 -38 -80 -80 q-39 -42 -53 -68 q-16 -43 -20 -54.5 q-4 -11.5 -8 -37.5 l-9 -45 q-1 -3 -2 -7.5 q-1 -4.5 -2.5 -5.5 q-1.5 -1 -4.5 -1 q-9 0 -23.5 2 q-14.5 2 -14.5 6 q0 12 7 39 q7 27 14 49 q7 22 11 34 l9 28 q29 100 39.5 145.5 q10.5 45.5 20.5 101.5 q1 10 14 10 q9 0 20.5 -4.5 q11.5 -4.5 13.5 -12.5 q-4 -18 -14.5 -61 q-10.5 -43 -25.5 -95 q58 65 120.5 118 q62.5 53 83.5 53 q10 0 24 -10 q14 -10 17 -19 q-32 -86 -61 -187.5 q-29 -101.5 -29 -133.5 q0 -35 40 -35 q59 0 119.5 66 q60.5 66 96.5 150 Z" /><glyph glyph-name="eng" unicode="&#x14b;" d="M389 391 q0 -26 -47.5 -180 q-47.5 -154 -93.5 -288 q-64 -183 -129.5 -301 q-65.5 -118 -123.5 -118 q-14 0 -24.5 6.5 q-10.5 6.5 -24.5 20.5 q-3 3 -8.5 7.5 q-5.5 4.5 -12.5 10.5 q73 16 124.5 69 q51.5 53 86.5 130 q35 77 73 193 q49 150 85 269 q36 119 36 134 q0 4 -2.5 7 q-2.5 3 -6.5 3 q-3 0 -8 -3 q-72 -64 -117 -109.5 q-45 -45.5 -80 -100.5 q-8 -28 -19 -83 l-13 -58 q-7 0 -24.5 5 q-17.5 5 -20.5 8 q-1 20 23 96 l14 49 q14 52 27 122 q24 105 29 124 q1 4 2.5 6.5 q1.5 2.5 5.5 2.5 q8 0 21.5 -4.5 q13.5 -4.5 17.5 -8.5 l-8 -34 q-11 -53 -34 -145 q64 74 129 134.5 q65 60.5 88 60.5 q9 0 22 -8.5 q13 -8.5 13 -16.5 Z" /><glyph glyph-name="o" unicode="o" d="M611 353 q10 -3 10 -20 q0 -25 -20 -51.5 q-20 -26.5 -54.5 -43.5 q-34.5 -17 -75.5 -17 q-55 0 -97 30 q-6 -29 -15 -59 q-3 -11 -13 -50.5 q-10 -39.5 -14 -70.5 q-7 -16 -28 -34.5 q-21 -18.5 -50 -31.5 q-29 -13 -57 -13 q-31 0 -60 16 q-29 16 -47.5 43 q-18.5 27 -18.5 60 q14 42 23 79 q9 37 17 75 l10 50 q5 23 27 45.5 q22 22.5 53.5 37 q31.5 14.5 63.5 14.5 q12 0 34 -4 q3 23 10.5 32 q7.5 9 24.5 9 q10 0 23 -3 q-5 -28 -5 -48 q0 -58 35 -98 q35 -40 95 -40 q45 0 77.5 24 q32.5 24 51.5 69 ZM288 88 q8 40 23 91 q20 67 26 108 q-22 28 -30 68 q0 4 -1.5 6.5 q-1.5 2.5 -6.5 3.5 q-15 6 -34 6 q-37 0 -64 -20 q-27 -20 -34 -48 q-3 -12 -22 -94 q-9 -48 -22 -95 q0 -37 25 -57.5 q25 -20.5 53 -20.5 q24 0 51.5 17 q27.5 17 35.5 35 Z" /><glyph glyph-name="ohorn" unicode="&#x1a1;" d="M453 488 q24 0 38.5 -15 q14.5 -15 14.5 -48 q0 -29 -13 -53 q-13 -24 -34 -37.5 q-21 -13.5 -42 -13.5 q-12 0 -26 2 q-1 -26 -8.5 -59 q-7.5 -33 -22.5 -87 q-3 -13 -12.5 -48 q-9.5 -35 -12.5 -58 q-7 -16 -28 -34.5 q-21 -18.5 -51 -31.5 q-30 -13 -60 -13 q-30 0 -59.5 16 q-29.5 16 -49 43 q-19.5 27 -19.5 60 q23 71 32.5 106.5 q9.5 35.5 21.5 100.5 q4 20 26.5 44.5 q22.5 24.5 57.5 41 q35 16.5 75 16.5 q23 0 50.5 -16 q27.5 -16 44.5 -41 q16 -11 35 -11 q19 0 32 23 q13 23 13 61 q0 32 -9 50 q4 2 6 2 ZM286 88 q7 36 24 100 q25 88 28 131 q-6 20 -27.5 38 q-21.5 18 -40.5 18 q-37 0 -66 -22 q-29 -22 -33 -46 q-20 -116 -47 -193 q0 -38 23 -59.5 q23 -21.5 50 -21.5 q25 0 53.5 18.5 q28.5 18.5 35.5 36.5 Z" /><glyph glyph-name="oslash" unicode="ø" d="M611 353 q10 -3 10 -20 q0 -25 -20 -51.5 q-20 -26.5 -54.5 -43.5 q-34.5 -17 -75.5 -17 q-55 0 -97 30 q-6 -29 -15 -59 q-3 -11 -13 -50.5 q-10 -39.5 -14 -70.5 q-7 -16 -28 -34.5 q-21 -18.5 -50 -31.5 q-29 -13 -57 -13 q-23 0 -45.5 9 q-22.5 9 -40.5 25 q-79 -102 -123 -163 q-6 0 -15 11.5 q-9 11.5 -9 19.5 q28 38 54 72 q26 34 47 62 l21 28 q-15 27 -15 55 q14 42 23 79 q9 37 17 75 l10 50 q5 23 27 45.5 q22 22.5 53.5 37 q31.5 14.5 63.5 14.5 q12 0 34 -4 q3 23 10.5 32 q7.5 9 24.5 9 q10 0 23 -3 q-5 -27 -5 -45 l116 152 q7 0 15 -9 q8 -9 12 -22 q-50 -66 -135 -174 q12 -40 44 -64 q32 -24 78 -24 q45 0 77.5 24 q32.5 24 51.5 69 ZM123 105 l186 240 l-2 10 q0 4 -1.5 6.5 q-1.5 2.5 -6.5 3.5 q-15 6 -34 6 q-37 0 -64 -20 q-27 -20 -34 -48 q-3 -12 -22 -94 q-9 -48 -22 -95 l0 -9 ZM288 88 q8 40 23 91 q20 67 26 108 q-2 2 -12 17 l-185 -239 q12 -14 29 -21.5 q17 -7.5 32 -7.5 q24 0 51.5 17 q27.5 17 35.5 35 Z" /><glyph glyph-name="oe" unicode="&#x153;" d="M732 239 q18 -3 18 -20 q0 -40 -51.5 -93.5 q-51.5 -53.5 -121.5 -92 q-70 -38.5 -117 -38.5 q-40 0 -70.5 18.5 q-30.5 18.5 -50.5 46.5 q-17 -25 -54.5 -46.5 q-37.5 -21.5 -77.5 -21.5 q-34 0 -66 16 q-32 16 -52.5 43 q-20.5 27 -20.5 60 q22 70 30 101 q8 31 22 106 q4 20 27.5 44 q23.5 24 58.5 41 q35 17 71 17 q33 0 61 -15 q28 -15 46 -40 q23 22 56.5 38.5 q33.5 16.5 54.5 16.5 q15 0 36.5 -9.5 q21.5 -9.5 38 -29.5 q16.5 -20 16.5 -51 q0 -36 -24 -68 q-24 -32 -71 -52 q-47 -20 -113 -20 l-14 -67 q0 -9 10.5 -30 q10.5 -21 34 -38 q23.5 -17 59.5 -17 q48 0 101 31.5 q53 31.5 97 78.5 q44 47 66 91 ZM487 379 q-12 0 -31 -10 q-19 -10 -34.5 -25 q-15.5 -15 -18.5 -28 q-10 -45 -18 -91 q77 3 116 30.5 q39 27.5 39 62.5 q0 25 -18 43 q-18 18 -35 18 ZM206 33 q28 0 55.5 18 q27.5 18 34.5 37 q7 36 24 100 q25 88 28 131 q-7 22 -29 39 q-22 17 -51 17 q-22 0 -44 -10.5 q-22 -10.5 -37 -26.5 q-15 -16 -18 -31 q-14 -81 -22 -115 q-8 -34 -23 -78 q0 -38 26 -59.5 q26 -21.5 56 -21.5 Z" /><glyph glyph-name="p" unicode="p" d="M562 205 q15 -9 15 -30 q0 -12 -4.5 -21 q-4.5 -9 -12.5 -19 q-49 -59 -128 -90.5 q-79 -31.5 -147.5 -41 q-68.5 -9.5 -111.5 -9.5 q-26 0 -36 5 q-10 5 -10 20 q0 8 3 17 q28 -5 39 -5 q50 0 83 37.5 q33 37.5 51.5 90 q18.5 52.5 37.5 129.5 q3 9 7 27 q0 13 -20.5 32 q-20.5 19 -34.5 19 q-13 0 -41 -16.5 q-28 -16.5 -54.5 -48 q-26.5 -31.5 -38.5 -72.5 q-29 -102 -49.5 -190 q-20.5 -88 -45.5 -206 q-52 -244 -92 -400 q-7 -27 -18 -40.5 q-11 -13.5 -26 -19 q-15 -5.5 -49 -12.5 q-43 -8 -78 -18 l-11 5 q56 25 82 48 q26 23 39 56.5 q13 33.5 33 113.5 q128 503 228 925 q2 9 6 12.5 q4 3.5 10 5.5 q10 4 24 10.5 q14 6.5 19 7.5 q3 -1 9 -9 q-2 -7 -5 -11 q-8 -18 -40 -129 q-9 -30 -11 -37 q27 31 64.5 55 q37.5 24 59.5 24 q18 0 42 -16.5 q24 -16.5 41 -39.5 q17 -23 17 -42 l-12 -46 q-15 -61 -28.5 -102 q-13.5 -41 -39.5 -79 q-26 -38 -66 -61 q59 8 105 24 q46 16 94 50.5 q48 34.5 101 96.5 Z" /><glyph glyph-name="thorn" unicode="þ" d="M586 1068 q56 0 94 -20.5 q38 -20.5 47 -53.5 l0 -9 q-54 23 -111 23 q-122 0 -223.5 -117 q-101.5 -117 -159.5 -354 l-33 -137 q-5 -19 -16 -59 q27 31 64.5 55 q37.5 24 59.5 24 q18 0 42 -16.5 q24 -16.5 41 -39.5 q17 -23 17 -42 l-12 -46 q-15 -61 -28.5 -102 q-13.5 -41 -39.5 -79 q-26 -38 -66 -61 q60 9 106.5 24.5 q46.5 15.5 95.5 50 q49 34.5 102 96.5 q15 -9 15 -30 q0 -12 -4.5 -21 q-4.5 -9 -12.5 -19 q-67 -82 -182.5 -111.5 q-115.5 -29.5 -204.5 -29.5 q-29 0 -39.5 5 q-10.5 5 -10.5 20 q0 8 3 17 q28 -5 39 -5 q50 0 83 37.5 q33 37.5 51.5 90 q18.5 52.5 37.5 129.5 q3 9 7 27 q0 13 -20.5 32 q-20.5 19 -34.5 19 q-13 0 -41 -16.5 q-28 -16.5 -54.5 -48 q-26.5 -31.5 -38.5 -72.5 q-29 -101 -49 -186 q-20 -85 -47 -213 q-4 -20 -29 -137 q-25 -117 -62 -260 q-7 -27 -18 -40.5 q-11 -13.5 -26 -19 q-15 -5.5 -49 -12.5 q-43 -8 -78 -18 l-11 5 q56 25 82 48 q26 23 39 56.5 q13 33.5 33 113.5 q106 417 159 628.5 q53 211.5 87 351.5 q65 267 164 394.5 q99 127.5 232 127.5 Z" /><glyph glyph-name="q" unicode="q" d="M640 216 q0 -65 -94 -136.5 q-94 -71.5 -211 -128.5 q24 -36 36 -102 q12 -66 12 -150 q0 -69 -18 -129.5 q-18 -60.5 -53.5 -97.5 q-35.5 -37 -84.5 -37 q-13 0 -30.5 10.5 q-17.5 10.5 -30 29.5 q-12.5 19 -12.5 43 q0 73 135 521 q-23 -22 -49.5 -34.5 q-26.5 -12.5 -47.5 -12.5 q-30 0 -56 17.5 q-26 17.5 -42 44.5 q-16 27 -18 54 l9 40 q28 121 40 166 q7 25 30.5 49 q23.5 24 58 39.5 q34.5 15.5 72.5 15.5 q41 0 89 -27 q13 57 17 84 q7 0 24.5 -10 q17.5 -10 22.5 -17 q-7 -22 -14 -55 l-10 -40 q-31 -124 -77 -293 l-20 -72 q107 54 189.5 122.5 q82.5 68.5 116.5 143.5 q8 -6 12 -14 q4 -8 4 -24 ZM190 39 q19 0 44.5 12 q25.5 12 47 34.5 q21.5 22.5 28.5 51.5 l56 217 q-37 26 -77 26 q-96 0 -118 -83 q-16 -61 -31 -141 l-9 -45 q2 -29 20.5 -50.5 q18.5 -21.5 38.5 -21.5 ZM236 -518 q24 0 47.5 32 q23.5 32 39 85.5 q15.5 53.5 15.5 112.5 q0 72 -7.5 123 q-7.5 51 -29.5 90 q-57 -213 -76 -293 q-19 -80 -19 -114 q0 -17 8 -26.5 q8 -9.5 22 -9.5 Z" /><glyph glyph-name="r" unicode="r" d="M523 357 q4 -1 7 -6 q3 -5 3 -11 q0 -21 -19.5 -40.5 q-19.5 -19.5 -51 -31.5 q-31.5 -12 -63.5 -12 q-50 0 -85.5 26 q-35.5 26 -45.5 73 q-45 -5 -82.5 -57 q-37.5 -52 -52.5 -113 q-2 -10 -15 -61.5 q-13 -51.5 -25 -121.5 q-1 -3 -2.5 -4.5 q-1.5 -1.5 -6.5 -1.5 q-7 0 -21 6 q-14 6 -14 13 q0 14 5 37 q61 282 79 349 q2 9 4.5 12 q2.5 3 8.5 3 q4 0 17 -6.5 q13 -6.5 21 -13.5 l-18 -58 l-6 -20 q23 36 53 58 q30 22 64 22 q10 0 20 -2 q10 -2 14 -5 q0 -49 25.5 -72.5 q25.5 -23.5 71.5 -23.5 q41 0 68 14 q27 14 47 48 Z" /><glyph glyph-name="s" unicode="s" d="M126 -13 q-48 0 -81.5 23 q-33.5 23 -33.5 53 q0 16 9 26 q9 10 20 12 q11 -38 36 -57 q25 -19 61 -19 q45 0 72 25.5 q27 25.5 27 59.5 q0 25 -14.5 44 q-14.5 19 -43.5 44 q-32 28 -47.5 48.5 q-15.5 20.5 -15.5 49.5 q0 31 19.5 59 q19.5 28 50 45 q30.5 17 63.5 17 q29 0 53.5 -12.5 q24.5 -12.5 24.5 -33.5 q0 -20 -24 -42 q-13 23 -32 35.5 q-19 12.5 -40 12.5 q-32 0 -48.5 -23.5 q-16.5 -23.5 -16.5 -46.5 q0 -19 13 -34 q13 -15 41 -38 q34 -29 52 -52 q18 -23 18 -54 q0 -33 -21.5 -66 q-21.5 -33 -59 -54.5 q-37.5 -21.5 -82.5 -21.5 Z" /><glyph glyph-name="scedilla" unicode="&#x15f;" d="M248 417 q29 0 53.5 -12.5 q24.5 -12.5 24.5 -33.5 q0 -20 -24 -42 q-13 23 -32 35.5 q-19 12.5 -40 12.5 q-32 0 -48.5 -23.5 q-16.5 -23.5 -16.5 -46.5 q0 -19 13 -34 q13 -15 41 -38 q34 -29 52 -52 q18 -23 18 -54 q0 -31 -18.5 -61.5 q-18.5 -30.5 -51.5 -52.5 q-33 -22 -73 -27 q-39 -25 -39 -43 q0 -8 6.5 -13 q6.5 -5 19.5 -11 q17 -8 26 -16 q9 -8 9 -22 q0 -22 -22.5 -50 q-22.5 -28 -53 -48 q-30.5 -20 -52.5 -20 q-12 0 -19.5 5.5 q-7.5 5.5 -7.5 12.5 q33 9 58.5 25.5 q25.5 16.5 39.5 34.5 q14 18 14 30 q0 7 -6 12 q-6 5 -19 12 q-16 9 -24 16 q-8 7 -8 20 q0 27 36 55 q-40 6 -66.5 27.5 q-26.5 21.5 -26.5 47.5 q0 16 9 26 q9 10 20 12 q11 -38 36 -57 q25 -19 61 -19 q45 0 72 25.5 q27 25.5 27 59.5 q0 25 -14.5 44 q-14.5 19 -43.5 44 q-32 28 -47.5 48.5 q-15.5 20.5 -15.5 49.5 q0 31 19.5 59 q19.5 28 50 45 q30.5 17 63.5 17 Z" /><glyph glyph-name="germandbls" unicode="ß" d="M454 602 q0 -42 -23 -76.5 q-23 -34.5 -66 -78.5 q-30 -31 -44.5 -50.5 q-14.5 -19.5 -14.5 -38.5 q0 -15 9.5 -34 q9.5 -19 28.5 -47 q26 -39 39.5 -67 q13.5 -28 13.5 -57 q0 -37 -25.5 -74.5 q-25.5 -37.5 -78 -62 q-52.5 -24.5 -128.5 -24.5 q-41 0 -75 7 q-88 -304 -204 -452 q-116 -148 -273 -148 q-72 0 -112.5 27 q-40.5 27 -40.5 65 q0 6 2 18 q36 -27 68.5 -36.5 q32.5 -9.5 72.5 -9.5 q123 0 204.5 67.5 q81.5 67.5 134 184 q52.5 116.5 102.5 299.5 q-73 31 -73 101 q0 35 18 62.5 q18 27.5 49 27.5 q-13 -15 -20.5 -38 q-7.5 -23 -7.5 -42 q0 -41 47 -63 q32 119 80 330 q34 151 49 193 q24 64 66 96.5 q42 32.5 77 32.5 q21 0 50.5 -10.5 q29.5 -10.5 52 -35.5 q22.5 -25 22.5 -66 ZM339 141 q0 21 -10 41 q-10 20 -32 53 q-23 35 -34 56.5 q-11 21.5 -11 44.5 q0 29 18 56.5 q18 27.5 54 67.5 q35 38 53.5 65.5 q18.5 27.5 18.5 56.5 q0 34 -27 58.5 q-27 24.5 -59 24.5 q-23 0 -42 -20.5 q-19 -20.5 -34 -72.5 q-10 -34 -47 -190 q-48 -204 -84 -336 q38 -9 74 -9 q48 0 85 15 q37 15 57 39 q20 24 20 50 Z" /><glyph glyph-name="t" unicode="t" d="M457 166 q5 -7 5 -17 q0 -8 -3 -14 q-3 -6 -10 -15 q-26 -31 -72.5 -61.5 q-46.5 -30.5 -97.5 -49.5 q-51 -19 -89 -19 q-43 0 -71.5 26.5 q-28.5 26.5 -28.5 79.5 q0 67 48 252 l-106 -4 q-2 1 -5.5 3.5 q-3.5 2.5 -4.5 4.5 q3 5 11 20 q8 15 14 21 l103 -1 q33 122 76 251 q18 14 46 30.5 q28 16.5 34 16.5 q9 -4 11 -11 q-18 -7 -28 -18.5 q-10 -11.5 -20 -37.5 q-29 -74 -70 -231 l255 -1 l1 -16 q0 -8 -3 -11 q-3 -3 -14 -4 q-14 -1 -250 -10 q-46 -188 -46 -251 q0 -35 17 -51.5 q17 -16.5 52 -16.5 q102 0 246 135 Z" /><glyph glyph-name="tbar" unicode="&#x167;" d="M457 166 q5 -7 5 -17 q0 -8 -3 -14 q-3 -6 -10 -15 q-26 -31 -72.5 -61.5 q-46.5 -30.5 -97.5 -49.5 q-51 -19 -89 -19 q-43 0 -71.5 26.5 q-28.5 26.5 -28.5 79.5 q0 45 23 152 l-88 -5 q-9 0 -15 11 q0 6 5 16 q5 10 11 16 l97 1 q6 28 15 61 l-106 -4 q-2 1 -5.5 3.5 q-3.5 2.5 -4.5 4.5 q3 5 11 20 q8 15 14 21 l103 -1 q33 122 76 251 q18 14 46 30.5 q28 16.5 34 16.5 q9 -4 11 -11 q-18 -7 -28 -18.5 q-10 -11.5 -20 -37.5 q-29 -74 -70 -231 l255 -1 l1 -16 q0 -8 -3 -11 q-3 -3 -14 -4 q-14 -1 -250 -10 l-15 -63 l236 2 q7 -7 8 -10 q-1 -4 -4 -11.5 q-3 -7.5 -6 -8.5 q-89 0 -242 -9 q-23 -108 -23 -151 q0 -35 17 -51.5 q17 -16.5 52 -16.5 q102 0 246 135 Z" /><glyph glyph-name="uni0163" unicode="&#x163;" d="M457 166 q5 -7 5 -17 q0 -8 -3 -14 q-3 -6 -10 -15 q-26 -31 -72.5 -61.5 q-46.5 -30.5 -97.5 -49.5 q-51 -19 -89 -19 l-4 0 q-42 -25 -42 -45 q0 -8 6.5 -13 q6.5 -5 19.5 -11 q17 -8 26 -16 q9 -8 9 -22 q0 -22 -22.5 -50 q-22.5 -28 -53 -48 q-30.5 -20 -52.5 -20 q-12 0 -19.5 5.5 q-7.5 5.5 -7.5 12.5 q33 9 58.5 25.5 q25.5 16.5 39.5 34.5 q14 18 14 30 q0 7 -6 12 q-6 5 -19 12 q-16 9 -24 16 q-8 7 -8 20 q0 30 47 63 q-28 10 -45 35 q-17 25 -17 65 q0 67 48 252 l-106 -4 q-2 1 -5.5 3.5 q-3.5 2.5 -4.5 4.5 q3 5 11 20 q8 15 14 21 l103 -1 q33 122 76 251 q18 14 46 30.5 q28 16.5 34 16.5 q9 -4 11 -11 q-18 -7 -28 -18.5 q-10 -11.5 -20 -37.5 q-29 -74 -70 -231 l255 -1 l1 -16 q0 -8 -3 -11 q-3 -3 -14 -4 q-14 -1 -250 -10 q-46 -188 -46 -251 q0 -35 17 -51.5 q17 -16.5 52 -16.5 q102 0 246 135 Z" /><glyph glyph-name="u" unicode="u" d="M587 234 q15 -4 16 -18 q0 -24 -38 -79.5 q-38 -55.5 -94 -99.5 q-56 -44 -112 -44 q-38 0 -59.5 22.5 q-21.5 22.5 -21.5 60.5 q0 13 2 21 q-22 -36 -57.5 -67.5 q-35.5 -31.5 -69.5 -31.5 q-29 0 -57 23 q-28 23 -34 47 q-1 45 12.5 103 q13.5 58 61.5 225 q6 19 14 19 q8 0 21 -8 q13 -8 13 -16 q0 -4 -2.5 -11 q-2.5 -7 -3.5 -11 q-64 -216 -67 -286 q5 -13 21.5 -26.5 q16.5 -13.5 28.5 -13.5 q13 0 36 15.5 q23 15.5 49 51 q26 35.5 48 92.5 q26 69 58 202 q2 11 11 11 q8 0 21.5 -8.5 q13.5 -8.5 13.5 -19.5 q0 -9 -9 -36 q-9 -27 -11 -34 q-24 -70 -38.5 -123.5 q-14.5 -53.5 -14.5 -95.5 q0 -65 45 -65 q29 0 67 24.5 q38 24.5 77.5 70.5 q39.5 46 72.5 106 Z" /><glyph glyph-name="uhorn" unicode="&#x1b0;" d="M587 234 q15 -4 16 -18 q0 -24 -38 -79.5 q-38 -55.5 -94 -99.5 q-56 -44 -112 -44 q-38 0 -59.5 22.5 q-21.5 22.5 -21.5 60.5 q0 13 2 21 q-22 -36 -57.5 -67.5 q-35.5 -31.5 -69.5 -31.5 q-29 0 -57 23 q-28 23 -34 47 q-1 45 12.5 103 q13.5 58 61.5 225 q6 19 14 19 q8 0 21 -8 q13 -8 13 -16 q0 -4 -2.5 -11 q-2.5 -7 -3.5 -11 q-64 -216 -67 -286 q5 -13 21.5 -26.5 q16.5 -13.5 28.5 -13.5 q13 0 36 15.5 q23 15.5 49 51 q26 35.5 48 92.5 q26 69 58 202 q2 11 11 11 q8 0 21.5 -8.5 q13.5 -8.5 13.5 -19.5 q0 -1 -4 -21 q14 -9 31 -9 q28 0 46 21.5 q18 21.5 18 59.5 q0 19 -6 49 q7 0 18.5 -6 q11.5 -6 17.5 -13 q7 -8 11.5 -22.5 q4.5 -14.5 4.5 -29.5 q0 -28 -16 -50 q-16 -22 -40 -34 q-24 -12 -46 -12 q-25 0 -50 14 l-8 -23 q-23 -68 -36.5 -120 q-13.5 -52 -13.5 -93 q0 -65 45 -65 q29 0 67 24.5 q38 24.5 77.5 70.5 q39.5 46 72.5 106 Z" /><glyph glyph-name="uogonek" unicode="&#x173;" d="M353 -7 q-70 -36 -70 -90 q0 -26 15 -38 q15 -12 39 -12 q26 0 42 8 q2 -6 2 -9 q0 -14 -20.5 -23.5 q-20.5 -9.5 -47.5 -9.5 q-40 0 -61 20 q-21 20 -21 52 q0 35 23 66 q23 31 57 48 q-33 22 -33 71 q0 13 2 21 q-22 -36 -57.5 -67.5 q-35.5 -31.5 -69.5 -31.5 q-29 0 -57 23 q-28 23 -34 47 q-1 45 12.5 103 q13.5 58 61.5 225 q6 19 14 19 q8 0 21 -8 q13 -8 13 -16 q0 -4 -2.5 -11 q-2.5 -7 -3.5 -11 q-64 -216 -67 -286 q5 -13 21.5 -26.5 q16.5 -13.5 28.5 -13.5 q13 0 36 15.5 q23 15.5 49 51 q26 35.5 48 92.5 q26 69 58 202 q2 11 11 11 q8 0 21.5 -8.5 q13.5 -8.5 13.5 -19.5 q0 -9 -9 -36 q-9 -27 -11 -34 q-24 -70 -38.5 -123.5 q-14.5 -53.5 -14.5 -95.5 q0 -65 45 -65 q29 0 67 24.5 q38 24.5 77.5 70.5 q39.5 46 72.5 106 q15 -4 16 -18 q0 -24 -38 -79.5 q-38 -55.5 -94 -99.5 q-56 -44 -112 -44 l-6 0 Z" /><glyph glyph-name="v" unicode="v" d="M299 450 q59 -18 87 -44.5 q28 -26.5 28 -79.5 q0 -41 -19.5 -76.5 q-19.5 -35.5 -59.5 -76.5 q-40 -41 -133 -126 q-17 -15 -51 -47 l-41 0 q4 16 4 23 l-1 261 l0 35 q0 30 -4.5 38.5 q-4.5 8.5 -22.5 8.5 l-69 1 q0 13 7 20 q36 4 53.5 8.5 q17.5 4.5 31.5 10.5 q14 6 23 10 q23 -8 29 -29 q6 -21 6 -56 q0 -90 -3 -177 q0 -15 -2 -101 q114 119 155 180 q41 61 41 104 q0 65 -69 108 l10 5 Z" /><glyph glyph-name="w" unicode="w" d="M810 385 q7 -3 7 -17 q0 -42 -47 -69.5 q-47 -27.5 -109 -27.5 q-69 0 -117 39 q13 -37 13 -86 q0 -63 -22 -115 q-22 -52 -60 -81.5 q-38 -29.5 -84 -29.5 q-43 0 -67.5 23 q-24.5 23 -36.5 53 q-23 -41 -56.5 -61 q-33.5 -20 -64.5 -20 q-33 0 -57.5 20 q-24.5 20 -37 44 q-12.5 24 -12.5 35 q10 55 32 136 q22 81 39 136 q8 24 18 37.5 q10 13.5 31 13.5 q15 0 20 -12 q-26 -49 -53 -144.5 q-27 -95.5 -36 -160.5 q15 -62 61 -62 q32 0 64.5 29.5 q32.5 29.5 50.5 94.5 q8 32 20.5 90 q12.5 58 20.5 101 q25 0 34.5 -7 q9.5 -7 9.5 -24 q0 -19 -17 -81 q-15 -56 -18 -73 q-9 -45 -9 -74 q5 -17 23 -37 q18 -20 46 -20 q27 0 53.5 21.5 q26.5 21.5 44 64.5 q17.5 43 17.5 102 q0 47 -9.5 77.5 q-9.5 30.5 -25.5 61.5 q-9 18 -10 21 q4 10 13.5 20 q9.5 10 14.5 10 q4 0 11 -9.5 q7 -9.5 9 -11.5 q26 -36 57.5 -60.5 q31.5 -24.5 85.5 -24.5 q44 0 86 20 q42 20 67 58 Z" /><glyph glyph-name="x" unicode="x" d="M487 144 q5 -3 8 -10 q3 -7 3 -15 q0 -25 -28 -54.5 q-28 -29.5 -71.5 -50.5 q-43.5 -21 -87.5 -21 q-60 0 -103.5 39.5 q-43.5 39.5 -65.5 103.5 q-74 -89 -121 -180 q-47 -91 -56 -170 q-29 19 -42 32.5 q-13 13.5 -13 30.5 q0 21 24 63 q29 51 82 124 q53 73 113 145 q-9 42 -9 85 q0 45 5 82 q5 37 16 47 q4 4 13.5 7 q9.5 3 15.5 9 q4 0 7 -3.5 q3 -3.5 1 -6.5 q-10 -28 -14.5 -47.5 q-4.5 -19.5 -4.5 -50.5 q0 -43 7 -79 q72 80 135 133 q66 55 98 55 q10 0 10 -18 q0 -18 -5 -28 q-120 -73 -226 -189 q20 -64 57.5 -103 q37.5 -39 89.5 -39 q44 0 90.5 29 q46.5 29 71.5 80 Z" /><glyph glyph-name="y" unicode="y" d="M379 418 q13 0 29.5 -10.5 q16.5 -10.5 20.5 -23.5 q-12 -40 -23 -84 q-5 -17 -21 -74.5 q-16 -57.5 -42 -140.5 q-58 -183 -114.5 -305.5 q-56.5 -122.5 -154.5 -207.5 q-98 -85 -244 -85 q-73 0 -122 22 q-49 22 -72.5 57 q-23.5 35 -23.5 77 q0 14 3 21.5 q3 7.5 5 13.5 q31 -63 82.5 -95.5 q51.5 -32.5 136.5 -32.5 q114 0 197 58.5 q83 58.5 143 171 q60 112.5 108 286.5 q-30 -27 -68.5 -46.5 q-38.5 -19.5 -63.5 -19.5 q-19 0 -36.5 12 q-17.5 12 -29 30.5 q-11.5 18.5 -11.5 34.5 q27 123 51 225 q12 54 19 84 q4 16 11 22 q7 6 22 6 q13 0 26 -5 l-76 -320 q0 -15 12.5 -28 q12.5 -13 27.5 -13 q22 0 68 29 q46 29 62 50 q22 54 36 108 q14 54 32 137 l10 46 Z" /><glyph glyph-name="z" unicode="z" d="M1032 -56 q15 0 25 -18 q10 -18 10 -43 q0 -42 -29.5 -77.5 q-29.5 -35.5 -85 -56 q-55.5 -20.5 -130.5 -20.5 q-96 0 -197 33.5 q-101 33.5 -189.5 80.5 q-88.5 47 -219.5 125 q-52 32 -78 47 q-22 13 -38 13 q-15 0 -26.5 -8 q-11.5 -8 -30.5 -29 q-7 0 -21 15 q-14 15 -14 21 q90 70 156.5 134 q66.5 64 136.5 146 q-22 -9 -49 -15 q-27 -6 -51 -6 q-43 0 -69 20.5 q-26 20.5 -26 54.5 q0 25 13.5 45 q13.5 20 36.5 20 q7 0 13 -2.5 q6 -2.5 7 -6.5 q-6 -7 -10.5 -19 q-4.5 -12 -4.5 -27 q0 -44 55 -44 q40 0 80 21.5 q40 21.5 74 59.5 q16 0 24.5 -7 q8.5 -7 8.5 -19 q0 -13 -14 -33 q-36 -52 -124 -146 q-88 -94 -140 -136 q197 -129 380.5 -211.5 q183.5 -82.5 306.5 -82.5 q167 0 220 171 Z" /><glyph glyph-name="fi" unicode="&#xfb01;" d="M835 252 q22 0 22 -27 q0 -43 -44 -96.5 q-44 -53.5 -107.5 -91 q-63.5 -37.5 -117.5 -37.5 q-39 0 -68.5 22 q-29.5 22 -29.5 67 q0 32 12.5 82 q12.5 50 35.5 127 q15 45 15 52 q0 7 -11 7 q-12 0 -54 -6 q-14 -2 -81.5 -9.5 q-67.5 -7.5 -130.5 -10.5 q-4 -15 -5 -25 q-9 -39 -30 -134 q-21 -95 -36 -151 q-51 -196 -120 -326 q-69 -130 -145 -192.5 q-76 -62.5 -151 -62.5 q-63 0 -111.5 39.5 q-48.5 39.5 -75 100 q-26.5 60.5 -26.5 119.5 q0 46 16 70.5 q16 24.5 40 24.5 q14 0 24 -6 q-20 -32 -20 -77 q0 -53 22 -105 q22 -52 62 -85 q40 -33 91 -33 q60 0 119 49.5 q59 49.5 112.5 152 q53.5 102.5 93.5 255.5 q37 141 86 385 q-50 0 -109.5 5.5 q-59.5 5.5 -93.5 15.5 q-3 11 -3 20 q0 20 11 25 q13 -1 31 -6 q92 -19 173 -21 q47 229 127.5 384 q80.5 155 219.5 155 q53 0 84.5 -24 q31.5 -24 31.5 -61 q0 -26 -13.5 -39.5 q-13.5 -13.5 -29.5 -13.5 q-19 86 -103 86 q-70 0 -116.5 -57 q-46.5 -57 -78 -157 q-31.5 -100 -69.5 -273 q64 2 123 9 q59 7 135 19 q45 7 50 7 q9 0 16 -5.5 q7 -5.5 7 -14.5 q0 -9 -9.5 -38.5 q-9.5 -29.5 -12.5 -39.5 q-22 -67 -34.5 -115 q-12.5 -48 -12.5 -82 q0 -37 16 -51 q16 -14 43 -14 q45 0 91.5 32 q46.5 32 83.5 80.5 q37 48.5 55 95.5 ZM594 577 q0 20 13 36.5 q13 16.5 33 16.5 q16 0 23.5 -10 q7.5 -10 7.5 -24 q0 -20 -13.5 -36.5 q-13.5 -16.5 -33.5 -16.5 q-14 0 -22 9.5 q-8 9.5 -8 24.5 Z" /><glyph glyph-name="fl" unicode="&#xfb02;" d="M900 280 q10 0 16 -9.5 q6 -9.5 6 -25.5 q0 -52 -55 -111.5 q-55 -59.5 -133 -100 q-78 -40.5 -139 -40.5 q-52 0 -78 32 q-26 32 -26 92 q0 78 45 278 q-126 -55 -280 -61 l-3 -25 q-18 -131 -27 -191 q-9 -60 -16 -97 q-26 -142 -69.5 -269 q-43.5 -127 -149 -233 q-105.5 -106 -282.5 -106 q-108 0 -189.5 42 q-81.5 42 -119.5 114 q-13 25 -21 55 q56 -51 100 -80.5 q44 -29.5 100.5 -47 q56.5 -17.5 131.5 -17.5 q133 0 217.5 55 q84.5 55 132.5 155.5 q48 100.5 79 255.5 q16 81 45 285 l15 103 q-105 3 -205 18 q-2 17 2.5 29.5 q4.5 12.5 13.5 15.5 q5 -1 61.5 -10.5 q56.5 -9.5 132.5 -12.5 q17 117 37.5 205 q20.5 88 60.5 166.5 q40 78.5 103 125.5 q28 21 55.5 29.5 q27.5 8.5 63.5 8.5 q37 0 59.5 -10 q22.5 -10 39.5 -35 l21 -43 l14 50 l18 63 q36 127 107 127 q80 0 80 -156 q0 -150 -70 -276.5 q-70 -126.5 -201 -202.5 q-52 -246 -52 -308 q0 -40 21 -59.5 q21 -19.5 58 -19.5 q51 0 108 34 q57 34 103.5 90 q46.5 56 68.5 118 ZM701 867 q-42 -147 -95 -383 q102 74 157.5 183 q55.5 109 55.5 230 q0 109 -44 109 q-17 0 -33.5 -27.5 q-16.5 -27.5 -40.5 -111.5 ZM261 372 q161 6 287 75 q34 147 90 350 q-34 25 -80 42 q-46 17 -84 17 q-64 0 -103 -55.5 q-39 -55.5 -62 -154.5 q-23 -99 -48 -274 Z" /><glyph glyph-name="ordfeminine" unicode="ª" d="M538 462 q7 -3 7 -10 q0 -18 -22.5 -43.5 q-22.5 -25.5 -56.5 -43.5 q-34 -18 -65 -18 q-71 0 -66 103 q-25 -46 -58 -74 q-33 -28 -68 -28 q-33 0 -56 26 q-23 26 -23 76 q0 17 3 36 q9 54 36 103 q27 49 67 79 q40 30 86 30 q31 0 62 -11 l6 39 l11 4 q12 -26 37 -40 q-19 -47 -28.5 -81.5 q-9.5 -34.5 -18.5 -84.5 q-10 -55 -10 -81 q0 -27 10 -40 q10 -13 33 -13 q56 0 114 72 ZM228 399 q67 0 135 205 q7 20 13 45 q-13 5 -29 8 q-16 3 -27 3 q-45 0 -80 -46 q-35 -46 -48 -112 q-5 -21 -5 -45 q0 -30 11 -44 q11 -14 30 -14 Z" /><glyph glyph-name="ordmasculine" unicode="º" d="M222 351 q-47 0 -74.5 30 q-27.5 30 -27.5 85 q0 54 25.5 108.5 q25.5 54.5 69.5 89.5 q44 35 95 35 q45 0 75 -29 q30 -29 30 -87 q0 -53 -26 -107.5 q-26 -54.5 -70.5 -89.5 q-44.5 -35 -96.5 -35 ZM233 395 q40 0 69.5 27.5 q29.5 27.5 45.5 69 q16 41.5 16 82.5 q0 44 -18 62.5 q-18 18.5 -46 18.5 q-39 0 -68.5 -29.5 q-29.5 -29.5 -45.5 -73 q-16 -43.5 -16 -83.5 q0 -74 63 -74 Z" /><glyph glyph-name="uni207F" unicode="&#x207f;" d="M402 416 q10 -1 16 -9 q6 -8 6 -18 q0 -20 -24.5 -38 q-24.5 -18 -64.5 -18 q-35 0 -53.5 16.5 q-18.5 16.5 -18.5 55.5 q0 58 39 201 q0 7 -7 7 q-29 -16 -74.5 -59 q-45.5 -43 -64.5 -78 q-16 -52 -29 -116 q-4 -11 -7 -11 q-11 0 -27.5 5 q-16.5 5 -16.5 13 q0 6 14 48 q15 47 18 59 q15 62 26 134 q11 72 12 81 q1 9 10 9 q10 0 28.5 -7 q18.5 -7 18.5 -17 q0 -10 -36 -137 q59 66 112 115.5 q53 49.5 71 49.5 q8 0 20 -9 q12 -9 12 -16 q0 -4 -14 -43 q-22 -65 -36.5 -117.5 q-14.5 -52.5 -14.5 -94.5 q0 -26 7 -38 q7 -12 23 -12 q30 0 55 44 Z" /><glyph glyph-name="uni0394" unicode="&#x394;" d="M720 10 q0 -4 -3.5 -7 q-3.5 -3 -7.5 -3 l-682 0 q-11 0 -14.5 6.5 q-3.5 6.5 -3.5 18.5 l479 710 l51 54 q1 1 5 1 q5 0 9.5 -4 q4.5 -4 5.5 -11 l161 -765 ZM95 55 l561 -1 l-131 652 l-430 -651 Z" /><glyph glyph-name="uni03A9" unicode="&#x3a9;" d="M690 101 q15 0 15 -6 q-10 -24 -27.5 -51 q-17.5 -27 -28.5 -39 q-10 -10 -17.5 -12.5 q-7.5 -2.5 -30.5 -2.5 l-211 10 q-3 0 -6 1.5 q-3 1.5 -3 3.5 l12 23 q2 5 5 6.5 q3 1.5 9 2.5 q85 11 157 60 q72 49 114 121.5 q42 72.5 42 149.5 q0 55 -26 98.5 q-26 43.5 -74 68 q-48 24.5 -112 24.5 q-85 0 -161 -46.5 q-76 -46.5 -122 -121.5 q-46 -75 -46 -156 q0 -53 21.5 -97 q21.5 -44 55.5 -71.5 q34 -27.5 71 -34.5 q1 -3 -3 -11.5 q-4 -8.5 -11.5 -15.5 q-7.5 -7 -18.5 -7 l-157 4 q-25 0 -39.5 -14 q-14.5 -14 -23.5 -38 q-7 1 -15 4.5 q-8 3.5 -7 7.5 q8 30 23 52.5 q15 22.5 36 30.5 l52 -2 q11 -1 27 -2 q16 -1 34 -1 q-38 34 -65.5 84.5 q-27.5 50.5 -27.5 114.5 q0 93 55 176 q55 83 144.5 133.5 q89.5 50.5 187.5 50.5 q80 0 137 -30.5 q57 -30.5 86.5 -81.5 q29.5 -51 29.5 -112 q0 -68 -35.5 -137.5 q-35.5 -69.5 -95.5 -124.5 q-60 -55 -129 -81 q58 0 92 2 q25 1 40 17.5 q15 16.5 31 43.5 q4 6 16 6 Z" /><glyph glyph-name="uni03BC" unicode="&#x3bc;" d="M591 258 q9 -1 14.5 -9.5 q5.5 -8.5 5.5 -17.5 q-1 -25 -41 -86 q-40 -61 -99.5 -109 q-59.5 -48 -120.5 -48 q-42 0 -63.5 24 q-21.5 24 -21.5 65 q0 8 2 24 q-19 -37 -54 -70 q-35 -33 -75 -33 q-21 0 -41 22 q-7 -66 -7 -139 q0 -104 18 -192 q18 -88 56 -128 l-5 -7 q-12 13 -57 29 q-18 6 -22 8 q-25 34 -35 107 q-10 73 -10 151 q0 119 24.5 249.5 q24.5 130.5 76.5 297.5 q6 19 14 19 q8 0 24.5 -9.5 q16.5 -9.5 16.5 -18.5 q0 -3 -2.5 -9.5 q-2.5 -6.5 -3.5 -11.5 l-6 -20 q-35 -111 -50.5 -168.5 q-15.5 -57.5 -15.5 -99.5 q3 -15 14.5 -22.5 q11.5 -7.5 23.5 -7.5 q18 0 41.5 17 q23.5 17 48 52 q24.5 35 43.5 85 q26 69 58 202 q3 11 11 11 q11 0 23 -15 q12 -15 12 -29 q0 -8 -6.5 -28.5 q-6.5 -20.5 -15.5 -43.5 q-24 -66 -37.5 -114 q-13.5 -48 -13.5 -91 q0 -33 11 -46.5 q11 -13.5 36 -13.5 q56 0 114 56.5 q58 56.5 115 167.5 Z" /><glyph glyph-name="pi" unicode="&#x3c0;" d="M43 -108 q-4 0 -10 2 q-6 2 -7 5 q41 136 60 218 q19 82 34 169 l7 41 q1 5 6 28 q5 23 3 40 q-2 21 -13.5 35 q-11.5 14 -46.5 17 q-3 0 -6.5 8 q-3.5 8 -4.5 16 q0 6 7 6 q97 0 245 -4 q92 -3 174 -3 q63 0 87 2.5 q24 2.5 41 9.5 l2 0 q6 0 12 -17 q-13 -19 -28.5 -34 q-15.5 -15 -30.5 -16 l-31 -1 q-47 -174 -65.5 -271 q-18.5 -97 -18.5 -150 l1 -21 q1 -14 7 -20 q6 -6 21 -6 q12 0 31.5 2.5 q19.5 2.5 33.5 6.5 q3 0 6 -5 q3 -5 3 -8 l0 -4 q0 -11 -4 -14 q-28 -7 -74 -16.5 q-46 -9.5 -62 -9.5 q-11 0 -21 4.5 q-10 4.5 -11 12.5 q-1 2 -1 9 q0 11 5 36 q25 109 44 209 q31 154 53 251 l-287 0 q-34 -101 -63 -240 q-29 -139 -41 -265 q-1 -6 -8 -6 q-16 -1 -22 -2.5 q-6 -1.5 -14.5 -7 q-8.5 -5.5 -12.5 -7.5 Z" /><glyph glyph-name="uni0E01" unicode="&#xe01;" d="M298 490 q16 0 47.5 -21 q31.5 -21 55.5 -50 q24 -29 24 -52 q0 -14 -20 -109 q-20 -100 -30 -158.5 q-10 -58.5 -10 -99.5 l-55 0 q0 41 13 106 q13 65 36 163 q19 78 19 90 q0 13 -15 36 q-15 23 -40.5 40.5 q-25.5 17.5 -57.5 17.5 q-29 0 -73 -15.5 q-44 -15.5 -83 -39.5 q27 -10 34 -39 q16 15 27 15 q9 0 12 -9 q-44 -55 -62 -142.5 q-18 -87.5 -29 -222.5 l-55 0 q3 79 24 177 q21 98 60 155 q1 16 -14.5 30 q-15.5 14 -42.5 14 l-13 24 q56 46 115.5 68 q59.5 22 132.5 22 Z" /><glyph glyph-name="uni0E02" unicode="&#xe02;" d="M197 -4 q-33 0 -58.5 17 q-25.5 17 -39.5 39 q-14 22 -14 34 l23 110 q3 15 13 26.5 q10 11.5 31 30.5 q33 28 50.5 54 q17.5 26 17.5 69 q0 40 -16.5 59.5 q-16.5 19.5 -40.5 19.5 q-29 0 -48.5 -26.5 q-19.5 -26.5 -19.5 -67.5 q0 -44 23 -44 q12 0 19.5 15 q7.5 15 7.5 45 q0 30 -5 47 q42 -13 42 -64 q0 -37 -21.5 -61.5 q-21.5 -24.5 -45.5 -24.5 q-24 0 -41 24 q-17 24 -17 62 q0 53 33 91.5 q33 38.5 82 38.5 q42 0 67 -30 q25 -30 25 -81 q0 -46 -17.5 -75.5 q-17.5 -29.5 -50.5 -62.5 q-20 -20 -30.5 -33.5 q-10.5 -13.5 -13.5 -29.5 l-18 -91 q1 -6 10.5 -19 q9.5 -13 24.5 -23.5 q15 -10.5 33 -10.5 q27 0 53.5 16.5 q26.5 16.5 53.5 37.5 q-2 18 -2 30 q0 27 5.5 56.5 q5.5 29.5 17.5 86.5 q16 73 24 121.5 q8 48.5 9 102.5 l58 0 q-1 -48 -11.5 -99 q-10.5 -51 -28.5 -122 q-15 -62 -22 -95.5 q-7 -33.5 -7 -60.5 q0 -16 3 -28 q-35 -37 -77 -60.5 q-42 -23.5 -81 -23.5 Z" /><glyph glyph-name="uni0E03" unicode="&#xe03;" d="M415 485 q-1 -48 -11.5 -98 q-10.5 -50 -28.5 -122 q-15 -62 -22 -96 q-7 -34 -7 -61 q0 -16 3 -28 q-34 -34 -54 -50 q-20 -16 -42 -24 q-22 -8 -53 -8 q-34 0 -71.5 32.5 q-37.5 32.5 -51.5 69.5 q28 83 44.5 113.5 q16.5 30.5 46.5 56.5 q36 31 60 67 q24 36 24 64 q0 18 -12 27 l-78 -110 l-24 0 q-9 75 -17.5 101 q-8.5 26 -20.5 26 q-14 0 -14 -23 q0 -35 36 -90 q-3 -1 -8 -1 q-21 0 -38 21 q-13 16 -19 36 q-6 20 -6 36 q0 27 14.5 46.5 q14.5 19.5 35.5 19.5 q29 0 44 -37 q15 -37 16 -85 l73 117 l17 0 q21 -19 31 -37.5 q10 -18.5 10 -42.5 q0 -73 -96 -162 q-26 -24 -38 -48 q-12 -24 -37 -94 q13 -27 37 -46.5 q24 -19.5 54 -19.5 q36 0 91 52 q-2 18 -2 29 q0 27 5.5 58 q5.5 31 17.5 85 q15 66 23.5 118 q8.5 52 9.5 108 l58 0 Z" /><glyph glyph-name="uni0E04" unicode="&#xe04;" d="M322 491 q16 0 48 -22.5 q32 -22.5 57 -51.5 q25 -29 25 -50 q0 -16 -23 -108 q-24 -95 -36.5 -156.5 q-12.5 -61.5 -12.5 -102.5 l-49 0 q0 42 15 108 q15 66 39 153 q22 84 22 94 q0 15 -19 38 q-19 23 -43 41 q-24 18 -37 18 q-75 0 -114 -20.5 q-39 -20.5 -52.5 -61.5 q-13.5 -41 -13.5 -113 q0 -47 -3 -110 q15 40 35 79.5 q20 39.5 38 64.5 q39 52 79 52 q22 0 37 -14 q15 -14 15 -36 q0 -32 -29.5 -58.5 q-29.5 -26.5 -64.5 -26.5 q-16 0 -24 7 q39 12 57.5 32 q18.5 20 18.5 40 q0 14 -13 14 q-12 0 -22 -9.5 q-10 -9.5 -22 -25.5 q-61 -86 -85 -163 q-14 -44 -20 -103 q-15 -3 -32 -3 q-16 0 -31 3 q22 63 22 157 q0 29 -5 94 q-3 30 -3 53 q0 85 59 136 q59 51 187 51 Z" /><glyph glyph-name="uni0E05" unicode="&#xe05;" d="M395 490 q16 0 31 -19 q15 -19 25 -45.5 q10 -26.5 10 -48.5 q0 -13 -23 -103 q-23 -95 -37.5 -164 q-14.5 -69 -14.5 -110 l-48 0 q0 42 15 111 q15 69 39 158 q23 88 23 100 q0 29 -9 54.5 q-9 25.5 -22 25.5 q-11 0 -38.5 -22 q-27.5 -22 -59.5 -54 q-23 36 -40.5 57 q-17.5 21 -30.5 21 q-12 0 -33 -18 q-21 -18 -37.5 -49.5 q-16.5 -31.5 -16.5 -69.5 q0 -105 -3 -167 q13 36 30.5 72 q17.5 36 32.5 57 q38 52 79 52 q22 0 37 -14 q15 -14 15 -36 q0 -32 -29 -58.5 q-29 -26.5 -66 -26.5 q-15 0 -23 7 q39 12 57.5 32 q18.5 20 18.5 41 q0 13 -11 13 q-24 0 -46 -35 q-39 -61 -59.5 -107 q-20.5 -46 -29.5 -99 l-6 -45 q-15 -3 -32 -3 q-16 0 -31 3 q22 63 22 155 q0 58 -6 126 l-2 40 q0 32 22.5 72 q22.5 40 55.5 68.5 q33 28.5 64 28.5 q12 0 35 -20.5 q23 -20.5 39 -46.5 q24 28 52 47.5 q28 19.5 51 19.5 Z" /><glyph glyph-name="uni0E06" unicode="&#xe06;" d="M500 485 q-9 -60 -36.5 -178.5 q-27.5 -118.5 -34.5 -147.5 q-7 -24 -12 -49 q-13 -54 -39.5 -82 q-26.5 -28 -49.5 -28 l-13 0 q-19 73 -59 115.5 q-40 42.5 -83 57.5 q-7 -25 -16 -72 q-11 -54 -34 -80.5 q-23 -26.5 -50 -26.5 q-29 0 -47 28.5 q-18 28.5 -18 65.5 q0 36 21 66 q21 30 53.5 47.5 q32.5 17.5 64.5 18.5 q11 25 40 60 q-1 -1 22 25 q30 35 43.5 57 q13.5 22 13.5 51 q0 17 -6 24 l-78 -93 l-21 0 q-10 53 -19.5 75 q-9.5 22 -22.5 22 q-9 0 -13.5 -12 q-4.5 -12 -4.5 -25 q0 -30 29 -75 q-27 -3 -42 12 q-22 22 -22 59 q0 36 18.5 61 q18.5 25 46.5 25 q27 0 38 -24.5 q11 -24.5 16 -71.5 l80 101 l17 0 q26 -33 26 -67 q0 -39 -17 -68.5 q-17 -29.5 -51 -67.5 q-16 -18 -23 -27 q-22 -29 -31 -47 q48 -13 90.5 -54 q42.5 -41 63.5 -106 q15 13 20.5 26 q5.5 13 11.5 40 l11 52 q23 107 36 172 q13 65 24 141 l57 0 ZM116 103 q13 62 17 75 q-27 -4 -55 -26.5 q-28 -22.5 -28 -68.5 q0 -20 8 -33.5 q8 -13.5 23 -13.5 q13 0 19.5 13.5 q6.5 13.5 15.5 53.5 Z" /><glyph glyph-name="uni0E07" unicode="&#xe07;" d="M233 -3 q-49 0 -88 11 q1 4 2.5 13.5 q1.5 9.5 1.5 30.5 q0 128 -34 243.5 q-34 115.5 -123 169.5 q18 12 39 12 q84 0 119 -128.5 q35 -128.5 41 -303.5 q8 -9 43 -9 q14 0 25.5 2 q11.5 2 15.5 6 q1 39 12.5 83.5 q11.5 44.5 31.5 108.5 q20 66 30 105.5 q10 39.5 10 72.5 q0 42 -22 42 q-16 0 -27 -18 q-11 -18 -11 -47 q0 -20 5 -43.5 q5 -23.5 16 -37.5 q-28 5 -46.5 30 q-18.5 25 -18.5 58 q0 40 25.5 69.5 q25.5 29.5 58.5 29.5 q32 0 47.5 -28.5 q15.5 -28.5 15.5 -64.5 q0 -28 -9 -63.5 q-9 -35.5 -30 -103.5 q-22 -70 -35 -121.5 q-13 -51.5 -14 -96.5 q-19 -22 -81 -22 Z" /><glyph glyph-name="uni0E08" unicode="&#xe08;" d="M284 490 q14 0 43 -22 q29 -22 52 -51 q23 -29 23 -49 q0 -18 -24 -97 q-22 -80 -35 -132 q-13 -52 -18 -100 q-2 -28 -2 -39 q-24 -3 -42 -3 q-17 0 -31 3 q9 29 9 81 q0 86 -19 152.5 q-19 66.5 -52 66.5 q-15 0 -15 -16 q0 -19 18 -43 q18 -24 48 -37 q-7 -5 -20 -5 q-30 0 -54.5 26.5 q-24.5 26.5 -24.5 62.5 q0 23 12 35 q12 12 34 12 q50 0 74.5 -57 q24.5 -57 31.5 -163 l1 -13 q12 71 47 190 q15 52 15 60 q0 10 -12 33 q-12 23 -36.5 41.5 q-24.5 18.5 -61.5 18.5 q-37 0 -74.5 -21 q-37.5 -21 -62.5 -63 q-25 -42 -25 -103 q0 -36 8 -66.5 q8 -30.5 22 -62.5 l-5 -10 l-16 20 q-24 28 -33 45 q-18 39 -18 85 q0 69 33.5 119 q33.5 50 89.5 76 q56 26 120 26 Z" /><glyph glyph-name="uni0E09" unicode="&#xe09;" d="M369 200 q29 -9 48 -30.5 q19 -21.5 19 -52.5 q0 -28 -14.5 -57 q-14.5 -29 -38.5 -48 q-24 -19 -49 -19 q-47 0 -47 84 q0 22 17 78 q-47 -16 -86.5 -57 q-39.5 -41 -69.5 -99 q-3 -1 -11 -1 q-9 0 -20 2.5 q-11 2.5 -17 5.5 q67 170 67 236 q0 24 -14 24 q-14 0 -21 -21.5 q-7 -21.5 -7 -49.5 q0 -25 6 -45 q-17 8 -27.5 25 q-10.5 17 -10.5 40 q0 37 20 65 q20 28 51 28 q44 0 44 -58 q0 -31 -10.5 -70 q-10.5 -39 -29.5 -89 q29 39 69.5 68 q40.5 29 80.5 40 q20 59 65 172 q0 6 -17.5 27 q-17.5 21 -44.5 38.5 q-27 17.5 -58 17.5 q-52 0 -102.5 -38 q-50.5 -38 -82 -96 q-31.5 -58 -31.5 -114 q0 -53 25 -117 l-5 -10 l-19 23 q-4 5 -13.5 17 q-9.5 12 -15.5 23 q-14 34 -14 78 q0 64 41.5 128 q41.5 64 105 105.5 q63.5 41.5 123.5 41.5 q37 0 74 -23 q37 -23 61 -52 q24 -29 23 -43 q-33 -76 -64 -177 ZM350 41 q15 0 26 24 q11 24 11 46 q0 32 -30 45 q-13 -45 -16 -64 q-4 -18 -4 -30 q0 -21 13 -21 Z" /><glyph glyph-name="uni0E0A" unicode="&#xe0a;" d="M816 868 q0 -131 -119 -244 q-119 -113 -327 -206 q16 -9 28.5 -25.5 q12.5 -16.5 12.5 -38.5 q0 -14 -6.5 -41.5 q-6.5 -27.5 -14.5 -57.5 q-14 -50 -21.5 -85.5 q-7.5 -35.5 -7.5 -61.5 q0 -16 3 -28 q-38 -39 -80 -61.5 q-42 -22.5 -79 -22.5 q-32 0 -56.5 15.5 q-24.5 15.5 -38.5 36 q-14 20.5 -16 34.5 l22 114 q3 15 12.5 25.5 q9.5 10.5 30.5 29.5 q34 28 52 55 q18 27 18 73 q0 71 -55 71 q-37 0 -52.5 -25.5 q-15.5 -25.5 -15.5 -60.5 q0 -22 5.5 -34 q5.5 -12 15.5 -12 q12 0 18.5 19 q6.5 19 6.5 46 q0 29 -7 46 q45 -12 45 -65 q0 -38 -19 -64.5 q-19 -26.5 -45 -26.5 q-27 0 -45.5 28.5 q-18.5 28.5 -18.5 61.5 q0 26 13 55.5 q13 29.5 39 50.5 q26 21 63 21 q43 0 69 -29 q26 -29 26 -83 q0 -45 -17 -74 q-17 -29 -48 -60 q-19 -18 -30.5 -33 q-11.5 -15 -15.5 -33 q-4 -13 -11 -55 l-8 -40 q0 -5 9 -17 q9 -12 24.5 -22 q15.5 -10 34.5 -10 q41 0 107 54 q-2 16 -2 22 q0 13 8 48 q8 35 18 73 q3 11 14 57 q11 46 11 63 q0 39 -61 69 l5 5 q195 80 315.5 195 q120.5 115 120.5 247 q0 57 -23.5 104 q-23.5 47 -68.5 74 q47 2 83.5 -19.5 q36.5 -21.5 57.5 -62 q21 -40.5 21 -95.5 Z" /><glyph glyph-name="uni0E0B" unicode="&#xe0b;" d="M816 868 q0 -130 -117.5 -242.5 q-117.5 -112.5 -322.5 -204.5 q15 -9 26 -26.5 q11 -17.5 11 -39.5 q0 -18 -9 -51 q-9 -33 -11 -42 q-31 -99 -31 -154 q0 -16 3 -28 q-31 -42 -76.5 -63 q-45.5 -21 -80.5 -21 q-30 0 -55 14 q-25 14 -40.5 34 q-15.5 20 -17.5 38 q22 115 22 114 q5 23 21 46 q16 23 42 51 q25 27 39 51 q14 24 14 55 q0 27 -10 38 l-67 -93 l-21 0 q-8 54 -17 75.5 q-9 21.5 -22 21.5 q-16 0 -16 -27 q0 -19 8.5 -43.5 q8.5 -24.5 22.5 -41.5 q-25 -3 -43 12 q-29 25 -29 64 q0 35 18 58 q18 23 46 23 q29 0 40 -24 q11 -24 16 -69 l65 98 l17 0 q17 -21 24.5 -39 q7.5 -18 7.5 -49 q0 -42 -17.5 -73 q-17.5 -31 -44.5 -64 q-37 -46 -48 -91 l-19 -92 q5 -17 25.5 -32 q20.5 -15 44.5 -15 q21 0 54 15.5 q33 15.5 50 36.5 q-1 7 -1 22 q0 21 9 61.5 q9 40.5 19 79.5 q22 79 22 101 q0 22 -16.5 40 q-16.5 18 -40.5 27 l0 6 q195 80 315.5 195 q120.5 115 120.5 247 q0 57 -23.5 104 q-23.5 47 -68.5 74 q72 0 117 -47.5 q45 -47.5 45 -129.5 Z" /><glyph glyph-name="uni0E0C" unicode="&#xe0c;" d="M685 485 q-69 -316 -84 -375 q-13 -53 -38.5 -81.5 q-25.5 -28.5 -49.5 -28.5 l-18 0 q-21 78 -52 122.5 q-31 44.5 -64 57.5 l-8 -37 l-10 -42 q-14 -55 -32 -81 q-18 -26 -46 -26 q-32 0 -51 29.5 q-19 29.5 -19 63.5 q0 32 18.5 60.5 q18.5 28.5 48 47 q29.5 18.5 61.5 23.5 l29 153 q3 15 -10.5 34.5 q-13.5 19.5 -37.5 33.5 q-24 14 -52 14 q-32 0 -80 -18.5 q-48 -18.5 -85 -47.5 q29 -10 41 -35 l4 4 q18 18 32 18 q11 0 12 -9 q-51 -59 -88 -149.5 q-37 -90.5 -37 -151.5 q0 -14 2.5 -20.5 q2.5 -6.5 9.5 -6.5 q18 0 29 32.5 q11 32.5 11 61.5 q0 19 -9 50 q47 -15 47 -71 q0 -27 -11.5 -54 q-11.5 -27 -31 -44.5 q-19.5 -17.5 -43.5 -17.5 q-49 0 -49 73 q0 57 28.5 131 q28.5 74 70.5 128 q-7 15 -22.5 26.5 q-15.5 11.5 -37.5 11.5 l-12 24 q52 46 116 74 q64 28 109 28 q35 0 68 -16.5 q33 -16.5 53.5 -41 q20.5 -24.5 20.5 -44.5 q0 -22 -31 -171 q43 -10 79 -51.5 q36 -41.5 58 -111.5 q15 13 20.5 26 q5.5 13 11.5 40 q22 100 42 215 q20 108 30 150 l57 0 ZM334 183 q-31 -8 -55 -32.5 q-24 -24.5 -24 -61.5 q0 -21 7.5 -37 q7.5 -16 22.5 -16 q12 0 18 13.5 q6 13.5 15 53.5 l16 80 Z" /><glyph glyph-name="uni0E0D" unicode="&#xe0d;" d="M678 485 q-7 -31 -20 -79 q-28 -108 -45 -187 q-17 -79 -25 -156 q-5 -53 -7 -117 q-3 -66 -6.5 -102 q-3.5 -36 -12.5 -70 q-18 -69 -56.5 -105 q-38.5 -36 -86.5 -36 q-47 0 -79 30.5 q-32 30.5 -32 81.5 q0 27 9 53 q9 26 23.5 42.5 q14.5 16.5 29.5 16.5 q16 0 29 -18.5 q13 -18.5 13 -45.5 q0 -25 -11 -43.5 q-11 -18.5 -27 -20.5 q9 27 9 52 q0 15 -3 24.5 q-3 9.5 -8 9.5 q-8 0 -15 -23 q-7 -23 -7 -45 q0 -31 17 -54.5 q17 -23.5 49 -23.5 q32 0 57 27 q25 27 38 76 q9 34 13.5 81 q4.5 47 8.5 113 l5 73 q-33 -19 -65.5 -32 q-32.5 -13 -52.5 -13 q-23 0 -51.5 15.5 q-28.5 15.5 -48.5 38.5 q-20 23 -20 44 q17 51 48 157 q31 106 31 123 q0 35 -32 58 q-32 23 -68 23 q-31 0 -75 -18.5 q-44 -18.5 -80 -47.5 q31 -11 42 -35 l4 4 q18 18 32 18 q11 0 12 -9 q-52 -61 -88.5 -149.5 q-36.5 -88.5 -36.5 -156.5 q0 -22 13 -22 q17 0 28 32 q11 32 11 61 q0 20 -9 51 q23 -7 35 -25.5 q12 -18.5 12 -43.5 q0 -27 -11 -54.5 q-11 -27.5 -30.5 -45.5 q-19.5 -18 -44.5 -18 q-25 0 -37 19 q-12 19 -12 53 q0 57 28.5 131.5 q28.5 74.5 70.5 128.5 q-7 15 -22.5 26.5 q-15.5 11.5 -37.5 11.5 l-12 24 q51 45 113 73.5 q62 28.5 106 28.5 q31 0 63.5 -15 q32.5 -15 53.5 -40.5 q21 -25.5 21 -56.5 q0 -21 -29.5 -121 q-29.5 -100 -50.5 -160 q3 -8 16.5 -22.5 q13.5 -14.5 31.5 -25.5 q18 -11 34 -11 q17 0 49.5 13 q32.5 13 63.5 33 q10 80 44 226 q15 65 23 104 q8 39 10 71 l58 0 Z" /><glyph glyph-name="uni0E0E" unicode="&#xe0e;" d="M328 491 q15 0 43 -20 q28 -20 49.5 -48.5 q21.5 -28.5 21.5 -51.5 q0 -17 -15 -84 q-26 -119 -36 -203 q-8 -73 -18.5 -132.5 q-10.5 -59.5 -32.5 -115.5 q-66 -168 -205 -168 q-50 0 -98 25 q-61 -30 -118 -30 q-45 0 -70.5 19.5 q-25.5 19.5 -25.5 49.5 q0 29 22.5 47 q22.5 18 53.5 18 q24 0 45.5 -10.5 q21.5 -10.5 53.5 -31.5 l38 -24 q72 46 119 130.5 q47 84.5 47 178.5 q0 29 -5 69 q24 -33 34 -56 q10 -23 10 -62 q0 -87 -47 -159 q-47 -72 -119 -118 q30 -10 60 -10 q61 0 100.5 37.5 q39.5 37.5 63.5 103.5 q17 48 26 102.5 q9 54.5 19 137.5 q11 85 39 211 q14 61 14 70 q0 16 -16 37 q-16 21 -36 36.5 q-20 15.5 -30 15.5 q-52 0 -91 -15.5 q-39 -15.5 -84 -45.5 q22 -4 30.5 -23.5 q8.5 -19.5 8.5 -56.5 q0 -55 -16 -132 q-16 -77 -46.5 -133.5 q-30.5 -56.5 -73.5 -56.5 q-22 0 -39.5 15.5 q-17.5 15.5 -17.5 46.5 q0 37 23 62 q23 25 54 25 q12 0 24 -7 q-60 -34 -60 -79 q0 -24 16 -24 q27 0 47 49.5 q20 49.5 31 117.5 q11 68 11 118 q0 28 -8 41.5 q-8 13.5 -34 13.5 l-13 23 q66 50 122 73.5 q56 23.5 129 23.5 ZM-82 -306 q41 0 85 19 q-7 5 -29 21 q-22 16 -40.5 23.5 q-18.5 7.5 -36.5 7.5 q-40 0 -40 -32 q0 -39 61 -39 Z" /><glyph glyph-name="uni0E0F" unicode="&#xe0f;" d="M307 490 q36 0 69.5 -16.5 q33.5 -16.5 54.5 -42 q21 -25.5 21 -49.5 l-1 -8 l-16 -65 q-23 -92 -33 -137 q-11 -52 -16 -126 q-1 -8 -4.5 -50.5 q-3.5 -42.5 -13.5 -86.5 q-18 -80 -50 -138.5 q-32 -58.5 -71 -110.5 l-17 -24 l-26 0 l-38 73 l-94 -72 l-18 0 q-15 33 -27 54 q-52 -30 -98 -30 q-33 0 -57 14.5 q-24 14.5 -24 44.5 q0 32 27.5 55.5 q27.5 23.5 63.5 23.5 q55 0 99 -64 q50 38 94 101.5 q44 63.5 70 134.5 q26 71 26 130 q0 14 -2 36 q17 -14 25.5 -40.5 q8.5 -26.5 8.5 -55.5 q0 -55 -28.5 -118.5 q-28.5 -63.5 -75.5 -120.5 q-47 -57 -101 -94 q10 -17 17 -32 l109 79 l37 -66 q36 50 61 97 q25 47 42 117 q13 58 19 142 q1 9 4.5 49.5 q3.5 40.5 12.5 82.5 q7 36 29 118 q18 72 18 76 q2 16 -14 35.5 q-16 19.5 -42 33 q-26 13.5 -53 13.5 q-32 0 -78.5 -19 q-46.5 -19 -86.5 -47 q48 -10 48 -93 q0 -58 -21 -129 q-21 -71 -55.5 -120.5 q-34.5 -49.5 -73.5 -49.5 q-20 0 -30.5 14 q-10.5 14 -10.5 38 q0 29 13.5 52 q13.5 23 33 36 q19.5 13 34.5 13 q13 0 20 -7 q-26 -13 -43 -37 q-17 -24 -17 -50 q0 -19 12 -19 q20 0 42 49 q22 49 37 114 q15 65 15 104 q0 63 -45 63 l-12 25 q47 39 114.5 69.5 q67.5 30.5 115.5 30.5 ZM-64 -305 q35 0 74 22 q-36 48 -76 48 q-21 0 -32.5 -12 q-11.5 -12 -11.5 -27 q0 -14 12 -22.5 q12 -8.5 34 -8.5 Z" /><glyph glyph-name="uni0E10" unicode="&#xe10;" d="M405 527 q12 -9 19.5 -24.5 q7.5 -15.5 7.5 -32.5 q0 -32 -24.5 -57 q-24.5 -25 -66.5 -25 q-25 0 -44 8.5 q-19 8.5 -45 24.5 q-22 13 -35.5 19.5 q-13.5 6.5 -28.5 6.5 q-26 0 -44 -18 q-18 -18 -28 -44 q91 -15 161 -43 q70 -28 70 -74 q0 -15 -10.5 -43.5 q-10.5 -28.5 -31.5 -77.5 q-24 -55 -37 -90 q-13 -35 -15 -58 q-16 -3 -31 -3 q-11 0 -28 3 q11 24 15 49 q4 24 4 55 q0 57 -15 97.5 q-15 40.5 -43 40.5 q-20 0 -20 -20 q0 -20 15.5 -41.5 q15.5 -21.5 42.5 -32.5 q-12 -5 -22 -5 q-29 0 -49.5 21 q-20.5 21 -20.5 52 q0 26 15 44.5 q15 18.5 42 18.5 q42 0 65.5 -43.5 q23.5 -43.5 23.5 -125.5 l0 -3 q6 19 29 80 q9 22 15.5 41 q6.5 19 6.5 26 q0 41 -68 65 q-68 24 -175 39 q15 59 55 95 q40 36 87 36 q19 0 34.5 -5.5 q15.5 -5.5 37.5 -17.5 q22 -11 35.5 -16.5 q13.5 -5.5 30.5 -5.5 q29 0 45.5 19.5 q16.5 19.5 24.5 64.5 ZM370 118 q0 20 -4 64 q35 -52 35 -119 q0 -78 -35.5 -138 q-35.5 -60 -103.5 -117 q-7 -45 -20.5 -90.5 q-13.5 -45.5 -28.5 -74.5 l-29 0 l-31 36 l-47 -37 l-11 0 q-8 19 -20 37 q-59 -28 -98 -28 q-28 0 -47 16 q-19 16 -19 40 q0 30 22 45.5 q22 15.5 53 15.5 q27 0 53 -14.5 q26 -14.5 48 -42.5 q71 39 143 109 q3 25 3 48 q0 58 -19 58 q-7 0 -12 -8 q-5 -8 -5 -22 q0 -25 21 -65 q-24 7 -37.5 25 q-13.5 18 -13.5 43 q0 28 12.5 45 q12.5 17 36.5 17 q57 0 52 -102 q52 59 77 121 q25 62 25 138 ZM195 -326 q17 43 28 102 q-69 -54 -123 -83 l10 -17 l48 36 l37 -38 ZM-12 -320 q33 0 72 18 q-35 39 -71 39 q-17 0 -28 -8.5 q-11 -8.5 -11 -23.5 q0 -25 38 -25 Z" /><glyph glyph-name="uni0E11" unicode="&#xe11;" d="M415 490 q18 0 38 -16.5 q20 -16.5 34 -41.5 q14 -25 14 -48 q0 -23 -22 -135 q-17 -88 -27 -148.5 q-10 -60.5 -10 -100.5 l-54 0 q0 40 11 102.5 q11 62.5 31 150.5 q24 109 24 128 q0 21 -13.5 39.5 q-13.5 18.5 -28.5 18.5 q-30 0 -90.5 -88 q-60.5 -88 -114 -197 q-53.5 -109 -60.5 -154 q-15 -3 -32 -3 q-17 0 -32 3 q21 40 31 109 q5 74 13 113.5 q8 39.5 28 65.5 q5 7 21 26 q16 19 26.5 41 q10.5 22 10.5 44 q0 21 -12 28 l-57 -89 l-24 0 q-11 60 -21 83.5 q-10 23.5 -22 23.5 q-14 0 -14 -23 q0 -35 36 -90 q-19 -4 -35.5 9.5 q-16.5 13.5 -26 36.5 q-9.5 23 -9.5 46 q0 27 14.5 46.5 q14.5 19.5 35.5 19.5 q28 0 44 -32 q16 -32 20 -71 l53 98 l17 0 q21 -20 31 -37.5 q10 -17.5 10 -44.5 q0 -29 -11 -50.5 q-11 -21.5 -33 -48.5 q-8 -10 -22 -30 q-14 -23 -19.5 -50.5 q-5.5 -27.5 -8.5 -81.5 q27 60 74 142 q47 82 97 144 q50 62 85 62 Z" /><glyph glyph-name="uni0E12" unicode="&#xe12;" d="M701 485 q-6 -47 -79 -370 q-11 -51 -30 -83 q-19 -32 -44 -32 l-26 0 q-37 146 -107 175 q-6 -26 -13 -70 q-8 -51 -21 -81 q-13 -30 -45 -30 q-32 0 -50 32 q-18 32 -18 73 q0 58 34.5 86.5 q34.5 28.5 75.5 33.5 l16 71 q6 24 10 44 q4 20 4 32 q0 21 -9 39 q-9 18 -22.5 29 q-13.5 11 -23.5 11 q-23 0 -84 -69 q-18 29 -40 50.5 q-22 21.5 -35 21.5 q-12 0 -33.5 -17 q-21.5 -17 -38 -48.5 q-16.5 -31.5 -16.5 -73.5 q0 -17 6 -69 q9 -85 8 -125 q0 -12 -2 -38 q11 24 28 44 q17 20 43 46 q34 33 50 56 q16 23 16 52 q0 27 -16 27 q-13 0 -23.5 -14 q-10.5 -14 -10.5 -43 q0 -23 5 -43 q-17 4 -27 22 q-10 18 -10 41 q0 33 20 57 q20 24 50 24 q25 0 39.5 -17.5 q14.5 -17.5 14.5 -50.5 q0 -39 -18.5 -67.5 q-18.5 -28.5 -58.5 -69.5 q-43 -43 -63 -72.5 q-20 -29.5 -27 -68.5 q-9 -3 -33 -3 q-25 0 -39 3 q18 60 18 124 q0 44 -11 121 q-8 52 -8 69 q0 44 22 85 q22 41 53.5 66 q31.5 25 58.5 25 q19 0 41 -14 q22 -14 41 -44 q17 22 43 40 q26 18 46 18 q19 0 42 -17 q23 -17 39 -44.5 q16 -27.5 16 -57.5 q0 -15 -4.5 -35 q-4.5 -20 -11.5 -44 q-13 -44 -20 -78 q38 -14 70.5 -56 q32.5 -42 50.5 -109 q15 16 20.5 29 q5.5 13 12.5 47 q33 148 45.5 208.5 q12.5 60.5 17.5 97.5 q2 20 7 54 l54 0 ZM371 182 q-30 -3 -45 -25.5 q-15 -22.5 -15 -60.5 q0 -27 6.5 -41 q6.5 -14 16.5 -14 q12 0 16 14 q4 14 9 52 l12 75 Z" /><glyph glyph-name="uni0E13" unicode="&#xe13;" d="M610 230 q28 -9 51.5 -37.5 q23.5 -28.5 23.5 -59.5 q0 -27 -18.5 -60.5 q-18.5 -33.5 -47 -56.5 q-28.5 -23 -56.5 -23 q-23 0 -35 16 q-12 16 -12 44 q0 24 7.5 50.5 q7.5 26.5 23.5 71.5 q-42 -21 -89 -63.5 q-47 -42.5 -106 -111.5 l-12 0 q-16 17 -26 45 q-10 28 -10 62 q0 56 24.5 135.5 q24.5 79.5 53.5 128.5 q4 10 -10 30 q-14 20 -40 36 q-26 16 -57 16 q-33 0 -83 -18.5 q-50 -18.5 -87 -47.5 q28 -10 42 -34 l3 3 q18 18 32 18 q12 0 12 -9 q-51 -58 -88 -148.5 q-37 -90.5 -37 -151.5 q0 -14 3 -21 q3 -7 11 -7 q17 0 27 30 q10 30 10 64 q0 26 -8 50 q24 -7 36 -26.5 q12 -19.5 12 -44.5 q0 -25 -11 -52 q-11 -27 -31 -45.5 q-20 -18.5 -45 -18.5 q-49 0 -49 73 q0 57 28.5 130.5 q28.5 73.5 70.5 128.5 q-6 15 -22 26.5 q-16 11.5 -38 11.5 l-12 24 q49 43 117.5 72.5 q68.5 29.5 116.5 29.5 q36 0 69.5 -18 q33.5 -18 54 -42.5 q20.5 -24.5 20.5 -41.5 q0 -9 -7.5 -28 q-7.5 -19 -16.5 -41 q-27 -62 -42.5 -111.5 q-15.5 -49.5 -15.5 -99.5 q0 -34 10 -50 q57 63 105 104 q48 41 100 59 q44 144 64 264 l49 0 q-13 -75 -27.5 -130 q-14.5 -55 -37.5 -125 ZM637 128 q3 17 -7.5 34 q-10.5 17 -32.5 26 q-17 -51 -25 -78 q-8 -27 -8 -45 q0 -24 16 -24 q20 0 36.5 32 q16.5 32 20.5 55 Z" /><glyph glyph-name="uni0E14" unicode="&#xe14;" d="M272 490 q49 0 86 -21.5 q37 -21.5 56.5 -50.5 q19.5 -29 19.5 -47 q0 -11 -22 -105 q-50 -198 -50 -266 l-49 0 q0 42 14 112 q14 70 37 164 q19 79 19 90 q0 12 -14 32 q-14 20 -42 35 q-28 15 -68 15 q-69 0 -111 -47 q-42 -47 -42 -130 q0 -23 3 -49 q3 -63 3 -71 q0 -41 -5 -77 q11 23 26.5 42 q15.5 19 43.5 49 q34 35 51 60 q17 25 17 54 q0 27 -16 27 q-13 0 -23.5 -14 q-10.5 -14 -10.5 -43 q0 -23 5 -43 q-17 4 -27 22 q-10 18 -10 41 q0 33 20 57 q20 24 50 24 q25 0 39.5 -17.5 q14.5 -17.5 14.5 -50.5 q0 -40 -20 -70.5 q-20 -30.5 -60 -71.5 q-38 -40 -59 -70.5 q-21 -30.5 -28 -69.5 q-9 -3 -33 -3 q-25 0 -39 3 q22 75 22 148 q-1 47 -8 90 q-1 10 -3 30 q-2 20 -2 33 q0 63 34 105.5 q34 42.5 84 63 q50 20.5 97 20.5 Z" /><glyph glyph-name="uni0E15" unicode="&#xe15;" d="M362 490 q19 0 42 -17.5 q23 -17.5 39 -44 q16 -26.5 16 -51.5 q0 -16 -8 -51 q-8 -35 -15 -60.5 q-7 -25.5 -10 -37.5 q-24 -90 -36 -138 q-12 -48 -15 -90 l-49 0 q7 70 51 233 q31 113 31 138 q0 25 -18.5 49.5 q-18.5 24.5 -35.5 24.5 q-14 0 -35 -18 q-21 -18 -50 -51 q-17 28 -39.5 50 q-22.5 22 -34.5 22 q-12 0 -33.5 -16.5 q-21.5 -16.5 -38.5 -48.5 q-17 -32 -17 -77 q0 -16 6 -64 q1 -10 4.5 -44 q3.5 -34 3.5 -68 q0 -24 -3 -53 q11 23 27 41.5 q16 18.5 44 46.5 q34 34 50.5 57.5 q16.5 23.5 16.5 52.5 q0 27 -16 27 q-13 0 -23.5 -14 q-10.5 -14 -10.5 -43 q0 -23 5 -43 q-17 4 -27 22 q-10 18 -10 41 q0 33 20 57 q20 24 50 24 q25 0 39.5 -17.5 q14.5 -17.5 14.5 -50.5 q0 -40 -20 -70 q-20 -30 -60 -70 q-38 -39 -59 -69 q-21 -30 -28 -69 q-9 -3 -33 -3 q-25 0 -39 3 q19 64 19 127 q0 47 -12 115 q-8 52 -8 70 q0 46 22 87 q22 41 53.5 66 q31.5 25 58.5 25 q19 0 41 -14 q22 -14 41 -44 q17 23 43 40.5 q26 17.5 46 17.5 Z" /><glyph glyph-name="uni0E16" unicode="&#xe16;" d="M302 490 q14 0 41.5 -21 q27.5 -21 49 -49 q21.5 -28 21.5 -49 q0 -18 -19 -108 q-19 -97 -29.5 -159.5 q-10.5 -62.5 -10.5 -103.5 l-55 0 q0 41 12.5 103 q12.5 62 37.5 171 q20 84 20 92 q0 12 -16 33 q-16 21 -36 37.5 q-20 16.5 -31 16.5 q-92 0 -178 -55 q30 -12 34 -39 q17 15 27 15 q8 0 11 -9 q-47 -58 -69.5 -124 q-22.5 -66 -22.5 -146 q0 -29 4.5 -43.5 q4.5 -14.5 16.5 -14.5 q17 0 25 23.5 q8 23.5 8 50.5 q0 40 -23 70 q34 -7 50.5 -29.5 q16.5 -22.5 16.5 -53.5 q0 -39 -23.5 -71.5 q-23.5 -32.5 -54.5 -32.5 q-29 0 -47.5 30.5 q-18.5 30.5 -18.5 91.5 q0 59 19 115.5 q19 56.5 58 102.5 q-1 16 -16 29.5 q-15 13.5 -41 13.5 l-14 23 q56 46 117.5 68 q61.5 22 135.5 22 Z" /><glyph glyph-name="uni0E17" unicode="&#xe17;" d="M393 493 q21 0 41.5 -14.5 q20.5 -14.5 34 -37.5 q13.5 -23 13.5 -46 q0 -15 -7 -56 q-7 -41 -16 -87 q-38 -186 -38 -252 l-54 0 q0 41 12 105 q12 64 32 151 q25 105 25 129 q0 21 -14.5 40.5 q-14.5 19.5 -30.5 19.5 q-32 0 -88.5 -82.5 q-56.5 -82.5 -106.5 -191 q-50 -108.5 -63 -171.5 q-15 -3 -31 -3 q-17 0 -32 3 q26 123 29 142 q2 20 10 67 q9 49 27 110 q10 31 14.5 51.5 q4.5 20.5 4.5 40.5 q0 38 -18 38 q-14 0 -23 -19 q-9 -19 -9 -47 q0 -42 17 -73 q-59 15 -59 75 q0 43 23.5 74 q23.5 31 57.5 31 q27 0 41 -21.5 q14 -21.5 14 -57.5 q0 -21 -4.5 -43 q-4.5 -22 -15.5 -66 q-3 -13 -9.5 -40 q-6.5 -27 -11.5 -51 q-4 -16 -9 -46 q27 68 68.5 144.5 q41.5 76.5 89 130 q47.5 53.5 86.5 53.5 Z" /><glyph glyph-name="uni0E18" unicode="&#xe18;" d="M193 -4 q-28 0 -49.5 12 q-21.5 12 -49.5 34 q-3 2 -13 10 q-10 8 -18 12.5 q-8 4.5 -15 5.5 q14 19 47 199 q3 17 18.5 29 q15.5 12 34.5 12 q9 0 16 -3 q-15 -15 -21 -48 q-4 -18 -5 -28 q-13 -67 -21.5 -103.5 q-8.5 -36.5 -15.5 -43.5 q7 -3 21 -15 q20 -16 35.5 -25 q15.5 -9 32.5 -9 q20 0 52 13.5 q32 13.5 56 40.5 q0 41 17 100 q11 40 11 59 q0 13 -5.5 20.5 q-5.5 7.5 -21.5 16.5 q-40 22 -108.5 43 q-68.5 21 -120.5 29 q14 61 51.5 96.5 q37.5 35.5 80.5 35.5 q23 0 44.5 -9.5 q21.5 -9.5 51.5 -27.5 q4 -2 20.5 -11.5 q16.5 -9.5 29.5 -14 q13 -4.5 24 -4.5 q24 0 37.5 21.5 q13.5 21.5 21.5 64.5 l8 -4 q19 -28 19 -56 q0 -33 -24.5 -55.5 q-24.5 -22.5 -59.5 -22.5 q-24 0 -45.5 10.5 q-21.5 10.5 -52.5 30.5 q-23 17 -39 25 q-16 8 -31 8 q-25 0 -45.5 -20 q-20.5 -20 -27.5 -41 q40 -6 102 -27 q62 -21 99 -42 q47 -27 47 -57 q0 -14 -13 -62 q-1 -5 -10.5 -41 q-9.5 -36 -9.5 -62 q0 -11 1 -16 q-36 -40 -78.5 -60 q-42.5 -20 -77.5 -20 Z" /><glyph glyph-name="uni0E19" unicode="&#xe19;" d="M368 214 q30 -12 52 -34.5 q22 -22.5 22 -52.5 q0 -27 -15.5 -58.5 q-15.5 -31.5 -40.5 -53.5 q-25 -22 -50 -22 q-24 0 -40.5 16 q-16.5 16 -16.5 44 q0 22 7.5 49 q7.5 27 23.5 74 q-43 -17 -82 -54 q-39 -37 -113 -122 l-23 0 q-24 33 -38 59.5 q-14 26.5 -23 57.5 q50 70 75.5 109.5 q25.5 39.5 45.5 89.5 q20 50 20 100 q0 34 -18 34 q-18 0 -29.5 -28.5 q-11.5 -28.5 -11.5 -59.5 q0 -38 13 -55 q-55 10 -55 62 q0 29 11.5 57.5 q11.5 28.5 32 46.5 q20.5 18 45.5 18 q27 0 42 -21 q15 -21 15 -55 q0 -67 -39 -144.5 q-39 -77.5 -93 -148.5 q4 -16 9 -28 q5 -12 10 -21 q5 -9 9 -16 q60 70 106.5 108.5 q46.5 38.5 103.5 51.5 q31 97 70 268 l49 0 q-29 -134 -74 -271 ZM342 41 q18 0 36 26.5 q18 26.5 18 48.5 q0 34 -42 56 q-14 -44 -21 -69 q-7 -25 -7 -40 q0 -22 16 -22 Z" /><glyph glyph-name="uni0E1A" unicode="&#xe1a;" d="M207 -4 q-14 0 -48.5 21.5 q-34.5 21.5 -62 50 q-27.5 28.5 -27.5 49.5 q0 7 7.5 25 q7.5 18 17.5 40 q31 66 50 120 q19 54 19 101 q0 16 -5.5 34.5 q-5.5 18.5 -15.5 18.5 q-18 0 -28.5 -25.5 q-10.5 -25.5 -10.5 -51.5 q0 -39 24 -69 q-31 5 -49 26.5 q-18 21.5 -18 54.5 q0 26 11.5 50.5 q11.5 24.5 31 40 q19.5 15.5 39.5 15.5 q32 0 48 -33 q16 -33 16 -71 q0 -80 -86 -275 q0 -7 22 -26.5 q22 -19.5 48 -36 q26 -16.5 35 -16.5 q39 0 78 12.5 q39 12.5 69 34.5 l-1 14 l1 15 q1 37 8 78.5 q7 41.5 21 108.5 q9 45 18 93.5 q9 48.5 13 89.5 l55 0 q-3 -34 -12.5 -80 q-9.5 -46 -20.5 -91 q-18 -81 -26.5 -127 q-8.5 -46 -8.5 -85 q0 -11 2 -29 q-42 -43 -91.5 -60 q-49.5 -17 -122.5 -17 Z" /><glyph glyph-name="uni0E1B" unicode="&#xe1b;" d="M207 -4 q-14 0 -48.5 22 q-34.5 22 -62 49.5 q-27.5 27.5 -27.5 45.5 q0 15 30 79 q30 68 47 116.5 q17 48.5 17 89.5 q0 21 -5 39.5 q-5 18.5 -18 18.5 q-15 0 -26 -25 q-11 -25 -11 -54 q0 -37 24 -67 q-29 5 -48 25.5 q-19 20.5 -19 54.5 q0 27 11.5 52 q11.5 25 30.5 40 q19 15 40 15 q32 0 48 -33 q16 -33 16 -71 q0 -80 -86 -275 q0 -7 22 -26.5 q22 -19.5 48 -36 q26 -16.5 35 -16.5 q40 0 84 12.5 q44 12.5 72 34.5 q3 161 29 302 q37 204 109 355.5 q72 151.5 167 232.5 q95 81 201 81 q49 0 95 -17.5 q46 -17.5 75 -49.5 q-61 18 -118 18 q-181 0 -301 -171.5 q-120 -171.5 -174 -446.5 q-30 -152 -36 -317 q-42 -43 -94.5 -60 q-52.5 -17 -126.5 -17 Z" /><glyph glyph-name="uni0E1C" unicode="&#xe1c;" d="M499 485 q-9 -59 -37 -169 q-24 -98 -35.5 -161 q-11.5 -63 -11.5 -126 q0 -19 1 -29 q-22 -2 -35 -2 q-12 0 -32 2 q3 11 3 24 q0 31 -13 73 q-13 42 -31.5 79 q-18.5 37 -34.5 53 q-50 -39 -87 -109 q-37 -70 -43 -120 q-14 -3 -27 -3 q-11 0 -32 3 q3 33 3 61 q0 43 -7 94 q-6 56 -6 89 q0 73 19.5 129.5 q19.5 56.5 53 87.5 q33.5 31 72.5 31 q25 0 41 -13.5 q16 -13.5 16 -43.5 q0 -28 -13 -53 q-13 -25 -34 -40 q-21 -15 -43 -15 q-15 0 -34 11 q81 43 81 94 q0 21 -17 21 q-20 0 -42.5 -23 q-22.5 -23 -38 -70 q-15.5 -47 -15.5 -114 q0 -59 4 -175 q16 63 60 122 q44 59 100 98 q40 -44 64 -91.5 q24 -47.5 31 -105.5 q6 56 30 175 q15 75 23 126.5 q8 51.5 8 89.5 l59 0 Z" /><glyph glyph-name="uni0E1D" unicode="&#xe1d;" d="M916 1048 q86 0 169 -58 q-24 9 -60 12.5 q-36 3.5 -63 3.5 q-169 0 -292 -160 q-123 -160 -192 -404 q-64 -226 -62 -442 q-22 -2 -34 -2 q-13 0 -33 2 q2 14 2 22 q0 50 -26.5 115.5 q-26.5 65.5 -51.5 91.5 q-50 -39 -87 -109 q-37 -70 -43 -120 q-10 -2 -29 -2 q-6 0 -30 2 q3 29 3 56 q0 46 -7 104 q-6 60 -6 90 q0 69 20 124 q20 55 53.5 86.5 q33.5 31.5 72.5 31.5 q25 0 40.5 -13.5 q15.5 -13.5 15.5 -43.5 q0 -28 -13.5 -53 q-13.5 -25 -34.5 -40.5 q-21 -15.5 -42 -15.5 q-16 0 -34 12 q81 43 81 94 q0 21 -17 21 q-21 0 -44.5 -24.5 q-23.5 -24.5 -38.5 -74 q-15 -49.5 -13 -118.5 l4 -164 q17 63 60.5 121.5 q43.5 58.5 99.5 97.5 q40 -44 64 -92 q24 -48 32 -107 q13 181 56 352 q47 183 121.5 319.5 q74.5 136.5 167 210.5 q92.5 74 191.5 74 Z" /><glyph glyph-name="uni0E1E" unicode="&#xe1e;" d="M562 485 q-2 -7 -31 -106 q-24 -78 -40 -138.5 q-16 -60.5 -28 -128.5 q-10 -57 -9 -112 q-6 -3 -29 -3 q-22 0 -36 3 l5 20 q9 45 12 64.5 q3 19.5 3 47.5 q0 134 -71 261 q-52 -44 -100 -116 q-48 -72 -79 -150 q-12 -30 -18.5 -57 q-6.5 -27 -10.5 -70 q-12 -3 -34 -3 q-20 0 -32 3 q17 35 38 105.5 q21 70.5 35 140.5 q19 97 19 159 q0 29 -4.5 40 q-4.5 11 -15.5 11 q-29 0 -29 -60 q0 -51 22 -83 q-29 8 -44.5 30 q-15.5 22 -15.5 56 q0 40 21 69 q21 29 53 29 q31 0 43.5 -26.5 q12.5 -26.5 12.5 -61.5 q0 -58 -26 -172 q31 64 78.5 124 q47.5 60 99.5 101 q36 -55 59.5 -120.5 q23.5 -65.5 31.5 -134.5 q5 36 15.5 78.5 q10.5 42.5 21.5 81.5 q4 18 13.5 54.5 q9.5 36.5 14.5 63.5 l55 0 Z" /><glyph glyph-name="uni0E1F" unicode="&#xe1f;" d="M956 1043 q85 0 166 -53 q-58 18 -112 18 q-130 0 -233 -96 q-103 -96 -172.5 -252 q-69.5 -156 -108.5 -344 q-34 -159 -42 -316 q-6 -3 -29 -3 q-22 0 -36 3 l5 24 q9 37 12 58 q3 21 3 50 q0 73 -19.5 141.5 q-19.5 68.5 -55.5 128.5 q-49 -43 -94.5 -117 q-45.5 -74 -80.5 -160 q-12 -31 -18 -54.5 q-6 -23.5 -11 -70.5 q-12 -3 -35 -3 q-19 0 -31 3 q18 37 39.5 113 q21.5 76 37 158.5 q15.5 82.5 15.5 139.5 q0 21 -3.5 33 q-3.5 12 -14.5 12 q-15 0 -25 -23.5 q-10 -23.5 -10 -50.5 q0 -39 24 -69 q-32 7 -49.5 28.5 q-17.5 21.5 -17.5 55.5 q0 38 24 69 q24 31 55 31 q32 0 44.5 -31 q12.5 -31 12.5 -69 q0 -51 -22 -159 q31 66 75 124.5 q44 58.5 95 99.5 q36 -51 60 -113 q24 -62 34 -129 q9 61 16 97 q43 228 120 392 q77 164 176 249 q99 85 206 85 Z" /><glyph glyph-name="uni0E20" unicode="&#xe20;" d="M320 490 q15 0 43.5 -21 q28.5 -21 50.5 -49 q22 -28 22 -49 q0 -11 -8 -51.5 q-8 -40.5 -11 -56.5 q-41 -196 -41 -263 l-55 0 q0 41 13 107.5 q13 66.5 36 166.5 q19 79 19 92 q0 12 -16.5 33 q-16.5 21 -37 37 q-20.5 16 -30.5 16 q-52 0 -93 -13.5 q-41 -13.5 -87 -41.5 q23 -8 34 -36.5 q11 -28.5 11 -61.5 q0 -43 -13.5 -115.5 q-13.5 -72.5 -44 -130.5 q-30.5 -58 -78.5 -58 q-24 0 -39 16 q-15 16 -15 47 q0 42 25.5 69.5 q25.5 27.5 65.5 27.5 l12 -1 q-25 -12 -43.5 -39.5 q-18.5 -27.5 -18.5 -54.5 q0 -25 15 -25 q24 0 44.5 52.5 q20.5 52.5 33 121 q12.5 68.5 12.5 103.5 q0 25 -9 44 q-9 19 -33 19 l-14 25 q63 48 119 69 q56 21 131 21 Z" /><glyph glyph-name="uni0E21" unicode="&#xe21;" d="M494 485 q0 -19 -17 -97 q-17 -78 -63 -273 q-27 -115 -73 -115 l-26 0 q-19 70 -51 113.5 q-32 43.5 -71 60.5 l-13 -69 q-10 -57 -21.5 -84 q-11.5 -27 -40.5 -27 q-24 0 -43 20 q-19 20 -29 49 q-10 29 -10 54 q0 35 18.5 58 q18.5 23 45.5 34 q27 11 52 11 l6 0 q2 8 19 74 q19 75 23 107 q1 5 1 14 q0 19 -6.5 27.5 q-6.5 8.5 -15.5 8.5 q-17 0 -28 -26 q-11 -26 -11 -54 q0 -36 23 -66 q-29 5 -48 27 q-19 22 -19 55 q0 40 26 72.5 q26 32.5 59 32.5 q32 0 48 -22 q16 -22 16 -57 q0 -14 -3 -31 q-6 -31 -15 -62 q-13 -44 -27 -110 q43 -18 80.5 -62 q37.5 -44 56.5 -107 q14 15 19.5 29.5 q5.5 14.5 12.5 54.5 q8 46 30 136 q19 80 28.5 128 q9.5 48 12.5 96 l54 0 ZM137 107 q7 50 13 78 l-6 0 q-32 0 -48.5 -17.5 q-16.5 -17.5 -16.5 -46.5 q0 -25 9 -52.5 q9 -27.5 25 -27.5 q10 0 14.5 13.5 q4.5 13.5 9.5 52.5 Z" /><glyph glyph-name="uni0E22" unicode="&#xe22;" d="M466 485 q-2 -46 -11.5 -95 q-9.5 -49 -27.5 -122 q-15 -58 -22.5 -95 q-7.5 -37 -7.5 -65 q0 -15 3 -29 q-37 -40 -93.5 -61.5 q-56.5 -21.5 -99.5 -21.5 q-39 0 -73 19 q-34 19 -54 49.5 q-20 30.5 -20 63.5 q0 35 20.5 71.5 q20.5 36.5 57.5 53.5 q-44 28 -44 92 q0 39 16 73 q16 34 42.5 53.5 q26.5 19.5 54.5 19.5 q47 0 47 -54 q0 -40 -24.5 -68 q-24.5 -28 -66.5 -32 q52 52 52 98 q0 8 -2.5 12 q-2.5 4 -9.5 4 q-12 0 -27 -12 q-15 -12 -26 -35 q-11 -23 -11 -55 q0 -45 22.5 -67.5 q22.5 -22.5 59.5 -22.5 q41 0 72 24 l0 -8 q0 -8 -1 -12 q-4 -16 -21.5 -28.5 q-17.5 -12.5 -40.5 -12.5 q-14 0 -27 3 q-16 2 -22 2 q-29 0 -50 -26.5 q-21 -26.5 -21 -65.5 q0 -35 17.5 -57 q17.5 -22 40 -31.5 q22.5 -9.5 40.5 -9.5 q24 0 69 14 q45 14 70 35 q-2 18 -2 29 q0 26 6 56 q6 30 19 85 q17 71 26.5 122.5 q9.5 51.5 10.5 106.5 l59 0 Z" /><glyph glyph-name="uni0E23" unicode="&#xe23;" d="M150 -2 q-25 0 -40.5 16.5 q-15.5 16.5 -15.5 44.5 q0 35 22 61.5 q22 26.5 54 26.5 q15 0 24 -8 q-27 -13 -43 -33 q-16 -20 -16 -44 q0 -24 17 -24 q30 0 47 73 q7 31 16.5 84.5 q9.5 53.5 9.5 65.5 q0 19 -30.5 43.5 q-30.5 24.5 -74 45 q-43.5 20.5 -79.5 27.5 q14 56 53 84 q39 28 79 28 q22 0 40 -7.5 q18 -7.5 48 -24.5 q24 -14 38 -20 q14 -6 28 -6 q19 0 29.5 15 q10.5 15 11.5 53 l5 -2 q30 -20 30 -52 q0 -30 -20 -47 q-20 -17 -52 -17 q-24 0 -44 9 q-20 9 -47 27 q-22 15 -38 23 q-16 8 -34 8 q-23 0 -40.5 -14 q-17.5 -14 -27.5 -37 q56 -16 112.5 -52 q56.5 -36 56.5 -77 q0 -32 -29 -166 q-10 -47 -33.5 -75.5 q-23.5 -28.5 -56.5 -28.5 Z" /><glyph glyph-name="uni0E24" unicode="&#xe24;" d="M287 490 q35 0 67.5 -17 q32.5 -17 52 -42 q19.5 -25 19.5 -48 q0 -5 -14.5 -83 q-14.5 -78 -24.5 -125 q-55 -253 -170.5 -393.5 q-115.5 -140.5 -277.5 -140.5 q-100 0 -177 53 q52 -5 92 -5 q154 0 250.5 57.5 q96.5 57.5 146.5 153.5 q50 96 78 231 q48 229 48 242 q0 27 -17.5 45 q-17.5 18 -41.5 26.5 q-24 8.5 -44 8.5 q-31 0 -80.5 -18.5 q-49.5 -18.5 -85.5 -47.5 q36 -12 42 -41 l11 12 q14 16 27 16 q8 0 9 -9 q-50 -58 -84.5 -147.5 q-34.5 -89.5 -34.5 -158.5 q0 -22 13 -22 q16 0 27 32.5 q11 32.5 11 61.5 q0 23 -8 50 q24 -7 35.5 -25.5 q11.5 -18.5 11.5 -44.5 q0 -26 -11 -53.5 q-11 -27.5 -30.5 -45.5 q-19.5 -18 -43.5 -18 q-25 0 -37 19 q-12 19 -12 53 q0 57 26 124.5 q26 67.5 68 125.5 q-1 16 -19 32 q-18 16 -44 16 l-11 24 q48 43 116.5 72.5 q68.5 29.5 116.5 29.5 Z" /><glyph glyph-name="uni0E25" unicode="&#xe25;" d="M297 491 q16 0 49 -22.5 q33 -22.5 60.5 -54.5 q27.5 -32 33.5 -57 q-28 -45 -51 -209 q-12 -90 -15 -148 q-34 -3 -40 -3 q-19 0 -36 3 q7 16 11.5 43.5 q4.5 27.5 4.5 58.5 q0 63 -18.5 116.5 q-18.5 53.5 -57.5 74.5 q-63 -23 -90.5 -67 q-27.5 -44 -29.5 -123 q0 -20 6 -41.5 q6 -21.5 16 -21.5 q21 0 21 36 q0 22 -7 47.5 q-7 25.5 -15 36.5 q27 -6 42 -30 q15 -24 15 -58 q0 -30 -16 -53 q-16 -23 -42 -23 q-33 0 -48 32 q-15 32 -15 78 q0 83 47 147.5 q47 64.5 125 81.5 q45 -21 71 -65 q26 -44 30 -120 q9 87 17 131 q8 44 26 78 q-7 20 -46 54 q-39 34 -62 38 q-69 -8 -117.5 -45.5 q-48.5 -37.5 -73 -92 q-24.5 -54.5 -24.5 -112.5 q-18 30 -24 79 q0 30 21 76.5 q21 46.5 77 87 q56 40.5 155 47.5 Z" /><glyph glyph-name="uni0E26" unicode="&#xe26;" d="M326 490 q19 0 48 -21 q29 -21 50 -51 q21 -30 21 -55 q0 -24 -34 -190 l-17 -88 q-24 -122 -95 -225 q-71 -103 -171.5 -163.5 q-100.5 -60.5 -207.5 -60.5 q-98 0 -179 53 q53 -5 92 -5 q229 0 353.5 112.5 q124.5 112.5 160.5 289.5 q5 24 9.5 46 q4.5 22 8.5 41 q13 60 24 116.5 q11 56.5 11 72.5 q0 16 -15.5 38 q-15.5 22 -36.5 38 q-21 16 -36 16 q-47 0 -89 -17.5 q-42 -17.5 -87 -47.5 q24 -6 32 -33.5 q8 -27.5 8 -64.5 q0 -41 -14 -113 q-14 -72 -44 -128.5 q-30 -56.5 -74 -56.5 q-19 0 -36.5 15 q-17.5 15 -17.5 48 q0 35 24 60.5 q24 25.5 54 25.5 q12 0 22 -7 q-29 -16 -44.5 -35 q-15.5 -19 -15.5 -46 q0 -13 5 -17.5 q5 -4.5 14 -4.5 q24 0 43.5 52 q19.5 52 31 117.5 q11.5 65.5 11.5 95.5 q0 74 -41 74 l-14 23 q66 49 121.5 72.5 q55.5 23.5 124.5 23.5 Z" /><glyph glyph-name="uni0E27" unicode="&#xe27;" d="M235 -4 q-30 0 -46 20.5 q-16 20.5 -16 52.5 q0 37 21.5 66 q21.5 29 49.5 29 q9 0 16 -3 q-23 -18 -34.5 -42.5 q-11.5 -24.5 -11.5 -48.5 q0 -33 21 -33 q17 0 24.5 19.5 q7.5 19.5 11.5 60.5 q6 55 14.5 93.5 q8.5 38.5 23.5 95.5 q14 51 14 64 q0 20 -13 37 q-13 17 -29 27.5 q-16 10.5 -21 10.5 q-159 0 -195 -187 q-9 -49 -9 -115 l-7 6 q-12 43 -19 89 q2 26 4 39 q15 109 77 161 q62 52 165 52 q11 0 33.5 -17 q22.5 -17 40.5 -43.5 q18 -26.5 18 -53.5 q0 -9 -3 -20.5 q-3 -11.5 -7 -25.5 q-12 -42 -22.5 -86.5 q-10.5 -44.5 -20.5 -122.5 q-7 -54 -23 -89.5 q-16 -35.5 -57 -35.5 Z" /><glyph glyph-name="uni0E28" unicode="&#xe28;" d="M869 901 q0 -74 -53 -159.5 q-53 -85.5 -156 -167.5 q-103 -82 -245 -144 q37 -39 37 -63 q0 -16 -23 -108 q-24 -95 -36.5 -156.5 q-12.5 -61.5 -12.5 -102.5 l-49 0 q0 42 15 108 q15 66 39 153 q22 84 22 94 q0 15 -19 38 q-19 23 -43 41 q-24 18 -37 18 q-75 0 -114 -20.5 q-39 -20.5 -52.5 -61.5 q-13.5 -41 -13.5 -113 q0 -47 -3 -110 q15 40 35 79.5 q20 39.5 38 64.5 q39 52 79 52 q22 0 37 -14 q15 -14 15 -36 q0 -32 -29.5 -58.5 q-29.5 -26.5 -64.5 -26.5 q-16 0 -24 7 q39 12 57.5 32 q18.5 20 18.5 40 q0 14 -13 14 q-12 0 -22 -9.5 q-10 -9.5 -22 -25.5 q-61 -86 -85 -163 q-14 -44 -20 -103 q-15 -3 -32 -3 q-16 0 -31 3 q22 63 22 157 q0 29 -5 94 q-3 30 -3 53 q0 85 59 136 q59 51 187 51 q10 0 28 -9.5 q18 -9.5 37 -25.5 q122 61 219.5 139 q97.5 78 152.5 158 q55 80 55 147 q0 48 -31 100 q-31 52 -106 88 q52 -2 96 -26.5 q44 -24.5 70 -66.5 q26 -42 26 -94 Z" /><glyph glyph-name="uni0E29" unicode="&#xe29;" d="M598 426 q0 -33 -20 -67.5 q-20 -34.5 -55 -59.5 q-35 -25 -79 -32 q-23 -70 -33 -105 q-10 -35 -10 -68 q0 -10 1 -15 q-34 -36 -81 -59.5 q-47 -23.5 -97 -23.5 q-64 0 -102 36 q-38 36 -53 80 q2 8 20 48 q34 78 54 137 q20 59 20 108 q0 45 -22 45 q-17 0 -27.5 -26 q-10.5 -26 -10.5 -53 q0 -37 24 -67 q-32 5 -49.5 27 q-17.5 22 -17.5 53 q0 27 12.5 51.5 q12.5 24.5 33 40 q20.5 15.5 41.5 15.5 q32 0 45.5 -32 q13.5 -32 13.5 -68 q0 -86 -84 -273 q7 -27 38.5 -53.5 q31.5 -26.5 63.5 -26.5 q26 0 66 16 q40 16 63 39 q-1 5 -1 16 q0 28 7.5 56 q7.5 28 24.5 76 l9 25 q-74 9 -74 87 q0 46 24.5 83 q24.5 37 65.5 37 q31 0 46.5 -21.5 q15.5 -21.5 15.5 -57.5 q0 -38 -17 -94 q45 14 75 64.5 q30 50.5 40 120.5 q14 -7 21.5 -22.5 q7.5 -15.5 7.5 -36.5 ZM361 360 q0 -28 9 -44.5 q9 -16.5 33 -20.5 q17 54 17 96 q0 20 -4.5 29 q-4.5 9 -16.5 9 q-19 0 -28.5 -19 q-9.5 -19 -9.5 -50 Z" /><glyph glyph-name="uni0E2A" unicode="&#xe2a;" d="M857 902 q0 -111 -118 -238.5 q-118 -127.5 -335 -246.5 q30 -33 36 -60 q-28 -45 -51 -209 q-12 -90 -15 -148 q-34 -3 -40 -3 q-19 0 -36 3 q7 16 11.5 43.5 q4.5 27.5 4.5 58.5 q0 63 -18.5 116.5 q-18.5 53.5 -57.5 74.5 q-63 -23 -90.5 -67 q-27.5 -44 -29.5 -123 q0 -20 6 -41.5 q6 -21.5 16 -21.5 q21 0 21 36 q0 22 -7 47.5 q-7 25.5 -15 36.5 q27 -6 42 -30 q15 -24 15 -58 q0 -30 -16 -53 q-16 -23 -42 -23 q-33 0 -48 32 q-15 32 -15 78 q0 83 47 147.5 q47 64.5 125 81.5 q45 -21 71 -65 q26 -44 30 -120 q9 87 17 131 q8 44 26 78 q-7 20 -46 54 q-39 34 -62 38 q-69 -8 -117.5 -45.5 q-48.5 -37.5 -73 -92 q-24.5 -54.5 -24.5 -112.5 q-18 30 -24 79 q0 30 21 76.5 q21 46.5 77 87 q56 40.5 155 47.5 q12 0 34 -13 q22 -13 45 -33 q208 124 317 245 q109 121 109 224 q0 55 -17.5 91.5 q-17.5 36.5 -65.5 72.5 q138 -21 138 -176 Z" /><glyph glyph-name="uni0E2B" unicode="&#xe2b;" d="M498 405 q0 -33 -18 -53.5 q-18 -20.5 -46 -29.5 q18 -9 31 -32 q13 -23 9 -36 l-7 -23 q-22 -79 -34 -132 q-12 -53 -12 -99 l-54 0 q0 29 8 66 q8 37 24 93 q9 31 16 60.5 q7 29.5 7 44.5 q0 38 -41 38 q-48 0 -102 -47 q-54 -47 -97.5 -118 q-43.5 -71 -60.5 -137 q-15 -3 -26 -3 q-16 0 -24 5 q0 11 20 74 q30 96 50 178 q20 82 20 147 q0 55 -21 55 q-15 0 -23 -25 q-8 -25 -8 -52 q0 -39 24 -69 q-30 6 -49 27 q-19 21 -19 56 q0 39 23 71.5 q23 32.5 54 32.5 q28 0 44.5 -29.5 q16.5 -29.5 16.5 -83.5 q0 -36 -7 -83 q-7 -47 -19 -92 q41 60 93 92.5 q52 32.5 87 32.5 q-37 23 -37 65 q0 38 28.5 65 q28.5 27 68.5 27 q37 0 59 -24.5 q22 -24.5 22 -61.5 ZM400 343 q26 5 40.5 20 q14.5 15 14.5 39 q0 21 -11 33.5 q-11 12.5 -31 12.5 q-21 0 -34.5 -14 q-13.5 -14 -13.5 -35 q0 -17 9 -32 q9 -15 26 -24 Z" /><glyph glyph-name="uni0E2C" unicode="&#xe2c;" d="M709 640 q0 -68 -44 -129 q-44 -61 -108 -87 q-12 -46 -37 -126 q-33 -110 -49.5 -176 q-16.5 -66 -16.5 -122 q-18 -3 -37 -3 q-10 0 -28 3 q15 68 15 110 q0 60 -24.5 127.5 q-24.5 67.5 -58.5 107.5 q-89 -71 -168 -237 q-17 -45 -23 -108 q-19 -3 -37 -3 q-18 0 -29 3 q17 38 39 108.5 q22 70.5 37.5 151 q15.5 80.5 15.5 146.5 q0 27 -3.5 38.5 q-3.5 11.5 -13.5 11.5 q-17 0 -26.5 -24 q-9.5 -24 -9.5 -51 q0 -38 24 -68 q-32 7 -49.5 28.5 q-17.5 21.5 -17.5 55.5 q0 38 24 69 q24 31 56 31 q31 0 43 -31 q12 -31 12 -72 q0 -36 -7.5 -85 q-7.5 -49 -18.5 -93 q34 58 72 104 q38 46 87 74 q41 -37 69 -99 q28 -62 37 -115 q15 72 46 164 l20 67 l-2 0 q-45 -2 -71.5 17.5 q-26.5 19.5 -26.5 56.5 q0 28 15.5 57.5 q15.5 29.5 39 49 q23.5 19.5 47.5 19.5 q29 0 49 -28 q20 -28 20 -71 q0 -24 -6 -54 q42 27 68.5 82 q26.5 55 26.5 104 q0 41 -20 73.5 q-20 32.5 -54 52.5 q56 3 89.5 -34 q33.5 -37 33.5 -96 ZM508 440 q10 43 10 72 q0 27 -7 40.5 q-7 13.5 -19 13.5 q-16 0 -31 -20.5 q-15 -20.5 -15 -47.5 q0 -24 14.5 -41 q14.5 -17 45.5 -17 l2 0 Z" /><glyph glyph-name="uni0E2D" unicode="&#xe2d;" d="M233 -4 q-39 0 -72.5 19 q-33.5 19 -54 55 q-20.5 36 -20.5 86 q0 45 20.5 83 q20.5 38 54 60.5 q33.5 22.5 68.5 22.5 q17 0 27.5 -9.5 q10.5 -9.5 10.5 -29.5 q0 -21 -12.5 -46.5 q-12.5 -25.5 -32.5 -39.5 q-8 -6 -21 -10.5 q-13 -4.5 -24 -4.5 q-8 0 -14 3 q36 22 50.5 46.5 q14.5 24.5 14.5 44.5 q0 11 -9 11 q-14 0 -34.5 -17.5 q-20.5 -17.5 -35.5 -47.5 q-15 -30 -15 -65 q0 -51 28.5 -84.5 q28.5 -33.5 70.5 -33.5 q14 0 49 20 q35 20 37 29 q6 69 32 184 q2 8 9.5 44 q7.5 36 7.5 53 q0 11 -16.5 30 q-16.5 19 -37 33.5 q-20.5 14.5 -31.5 14.5 q-62 0 -114 -31.5 q-52 -31.5 -86 -87.5 q-34 -56 -41 -126 l-3 0 q-1 6 -7 30.5 q-6 24.5 -6 46.5 q6 46 37 95 q31 49 90.5 82.5 q59.5 33.5 144.5 33.5 q15 0 45 -21 q30 -21 53.5 -49 q23.5 -28 23.5 -51 q0 -17 -8.5 -54 q-8.5 -37 -10.5 -44 q-17 -73 -25.5 -116 q-8.5 -43 -10.5 -87 q-6 -13 -31.5 -30 q-25.5 -17 -54.5 -29.5 q-29 -12.5 -46 -12.5 Z" /><glyph glyph-name="uni0E2E" unicode="&#xe2e;" d="M530 511 q0 -52 -33.5 -91.5 q-33.5 -39.5 -88.5 -64.5 l0 -7 q0 -17 -5 -44 q-5 -27 -12 -56 q-13 -59 -19.5 -97 q-6.5 -38 -8.5 -83 q0 -5 -23 -23.5 q-23 -18.5 -55.5 -33.5 q-32.5 -15 -64.5 -15 q-31 0 -65 15.5 q-34 15.5 -57.5 47 q-23.5 31.5 -23.5 77.5 q0 40 18.5 75 q18.5 35 48.5 55.5 q30 20.5 61 20.5 q40 0 40 -39 q0 -23 -13 -46.5 q-13 -23.5 -34 -39 q-21 -15.5 -43 -15.5 q-8 0 -14 3 q33 23 49 46.5 q16 23.5 16 42.5 q0 14 -9 14 q-10 0 -28 -13.5 q-18 -13.5 -32 -38.5 q-14 -25 -14 -58 q0 -37 17.5 -62 q17.5 -25 41 -37 q23.5 -12 43.5 -12 q18 0 40.5 10.5 q22.5 10.5 40 23.5 q17.5 13 17.5 16 q7 78 29 171 q2 9 8 38 q6 29 7 48 q-59 -17 -118 -17 q-80 0 -108.5 26 q-28.5 26 -28.5 53 q0 20 15.5 41 q15.5 21 46 35 q30.5 14 73.5 14 q59 0 98.5 -26 q39.5 -26 55.5 -67 q38 24 60 59.5 q22 35.5 22 78.5 q0 57 -40 92 l13 0 q38 -11 57.5 -44 q19.5 -33 19.5 -73 ZM161 406 q0 -19 19 -34.5 q19 -15.5 71 -15.5 q56 0 109 22 q-9 36 -40 56 q-31 20 -78 20 q-40 0 -60.5 -14 q-20.5 -14 -20.5 -34 Z" /><glyph glyph-name="uni0E30" unicode="&#xe30;" d="M141 256 q-36 0 -59 21.5 q-23 21.5 -23 59.5 q0 27 12 49 q12 22 30 35 q18 13 35 13 q14 0 21.5 -10.5 q7.5 -10.5 7.5 -28.5 q0 -34 -14 -54.5 q-14 -20.5 -32 -25.5 q7 16 12 33.5 q5 17.5 5 28.5 q0 17 -11 17 q-11 0 -20.5 -16 q-9.5 -16 -9.5 -36 q0 -24 12.5 -37 q12.5 -13 37.5 -13 q50 0 88 45 q38 45 66 135 l5 -10 q6 -26 6 -42 q0 -16 -2 -25 q-6 -32 -29 -64 q-23 -32 -59.5 -53.5 q-36.5 -21.5 -78.5 -21.5 ZM95 0 q-36 0 -59 21.5 q-23 21.5 -23 59.5 q0 27 12 49 q12 22 30 35 q18 13 35 13 q14 0 21.5 -10.5 q7.5 -10.5 7.5 -28.5 q0 -34 -14 -54.5 q-14 -20.5 -32 -25.5 q7 16 12 33.5 q5 17.5 5 28.5 q0 17 -11 17 q-11 0 -20.5 -16 q-9.5 -16 -9.5 -36 q0 -24 12.5 -37 q12.5 -13 37.5 -13 q50 0 88 45 q38 45 66 135 l5 -10 q6 -26 6 -42 q0 -16 -2 -25 q-6 -32 -29 -64 q-23 -32 -59.5 -53.5 q-36.5 -21.5 -78.5 -21.5 Z" /><glyph glyph-name="uni0E32" unicode="&#xe32;" d="M185 0 q3 48 19.5 115 q16.5 67 43.5 167 q22 74 22 86 q0 9 -9.5 29 q-9.5 20 -27.5 36.5 q-18 16.5 -43 16.5 q-27 0 -56 -22 q-29 -22 -53.5 -64.5 q-24.5 -42.5 -36.5 -101.5 l-6 5 q-5 33 -5 76 q18 61 64.5 104 q46.5 43 95.5 43 q36 0 64 -22.5 q28 -22.5 44 -52 q16 -29.5 16 -45.5 q0 -10 -9.5 -49.5 q-9.5 -39.5 -12.5 -51.5 q-24 -98 -37 -162.5 q-13 -64.5 -13 -106.5 l-60 0 Z" /><glyph glyph-name="uni0E40" unicode="&#xe40;" d="M95 1 q-27 0 -42.5 21 q-15.5 21 -15.5 57 q0 16 11 61 q11 45 24 94 q4 17 18.5 74 q14.5 57 19.5 89 q7 56 7 88 l48 0 q0 -40 -8 -90 q-13 -70 -42 -165 q-18 -66 -25.5 -96.5 q-7.5 -30.5 -7.5 -52.5 q0 -37 20 -37 q15 0 21.5 18.5 q6.5 18.5 6.5 45.5 q0 20 -3.5 34.5 q-3.5 14.5 -11.5 34.5 q25 -8 39 -29.5 q14 -21.5 14 -53.5 q0 -41 -21 -67 q-21 -26 -52 -26 Z" /><glyph glyph-name="uni0E42" unicode="&#xe42;" d="M148 -9 q-29 0 -46.5 21 q-17.5 21 -17.5 56 q0 31 13.5 79.5 q13.5 48.5 39.5 126.5 q33 102 51 170.5 q18 68.5 18 121.5 q0 74 -38 138 q-38 64 -90 112 q-52 48 -131 110 q-72 55 -105 88.5 q-33 33.5 -33 63.5 q0 29 30 48 q30 19 77 19 q114 0 221.5 -118 q107.5 -118 200.5 -310 q-40 0 -68 14 q-75 171 -173 272.5 q-98 101.5 -196 101.5 q-48 0 -48 -25 q0 -20 27 -45 q27 -25 88 -71 q83 -63 140 -115.5 q57 -52.5 99.5 -123 q42.5 -70.5 42.5 -151.5 q0 -56 -18 -125.5 q-18 -69.5 -53 -178.5 q-26 -80 -38.5 -125.5 q-12.5 -45.5 -12.5 -73.5 q0 -37 21 -37 q28 0 28 64 q0 21 -3.5 35.5 q-3.5 14.5 -11.5 33.5 q53 -17 53 -85 q0 -41 -18 -66 q-18 -25 -49 -25 Z" /><glyph glyph-name="uni0E43" unicode="&#xe43;" d="M139 -9 q-29 0 -46.5 21 q-17.5 21 -17.5 58 q0 32 12 79 q12 47 42 151 q49 167 77 290 q28 123 28 240 q0 97 -22 154.5 q-22 57.5 -61 57.5 q-25 0 -45.5 -24.5 q-20.5 -24.5 -32.5 -68.5 q-12 -44 -12 -99 q0 -86 28.5 -165 q28.5 -79 77.5 -139 q-32 2 -53 12.5 q-21 10.5 -37 33.5 q-30 42 -46 110 q-16 68 -16 140 q0 77 18 133 q18 56 49.5 85.5 q31.5 29.5 70.5 29.5 q54 0 91 -60 q37 -60 37 -196 q0 -127 -29.5 -255.5 q-29.5 -128.5 -81.5 -300.5 q-28 -90 -39.5 -135 q-11.5 -45 -11.5 -72 q0 -37 21 -37 q14 0 20.5 18.5 q6.5 18.5 6.5 45.5 q0 20 -3.5 35 q-3.5 15 -10.5 34 q53 -18 53 -86 q0 -40 -18 -65 q-18 -25 -49 -25 Z" /><glyph glyph-name="uni0E44" unicode="&#xe44;" d="M163 167 q53 -17 53 -85 q0 -41 -18 -66 q-18 -25 -49 -25 q-29 0 -46.5 21.5 q-17.5 21.5 -17.5 54.5 q0 23 10 62 q10 39 36 134 q43 152 68.5 261 q25.5 109 28.5 203 q-15 -42 -41.5 -72.5 q-26.5 -30.5 -52.5 -30.5 q-27 0 -43.5 32.5 q-16.5 32.5 -37.5 105.5 q-26 87 -53 150 q-27 63 -79 121 q-52 58 -133 87 q23 24 64 24 q59 0 104 -54 q45 -54 73.5 -126 q28.5 -72 59.5 -173 q22 -69 34 -98.5 q12 -29.5 23 -29.5 q12 0 29 31.5 q17 31.5 29 73.5 q12 42 12 67 q28 0 47 -17 q3 -27 3 -60 q0 -98 -26.5 -222.5 q-26.5 -124.5 -70.5 -286.5 q-4 -14 -16.5 -62 q-12.5 -48 -18 -75.5 q-5.5 -27.5 -5.5 -39.5 q0 -38 21 -38 q28 0 28 64 q0 21 -3.5 35.5 q-3.5 14.5 -11.5 33.5 Z" /><glyph glyph-name="uni0E45" unicode="&#xe45;" d="M-191 -344 q-101 0 -181 53 q53 -5 91 -5 q157 0 267.5 55 q110.5 55 170.5 146 q60 91 74 201 q11 72 27 150 q2 10 10.5 55 q8.5 45 8.5 60 q0 12 -12.5 31.5 q-12.5 19.5 -28 34.5 q-15.5 15 -25.5 15 q-29 0 -64.5 -20 q-35.5 -20 -68 -61.5 q-32.5 -41.5 -51.5 -101.5 l-4 0 l4 74 q22 56 73.5 102 q51.5 46 123.5 46 q14 0 38.5 -20 q24.5 -20 43.5 -48 q19 -28 19 -51 q-2 -13 -5 -29 q-3 -16 -6 -32 q-27 -140 -33 -206 q-15 -123 -86 -226 q-71 -103 -175 -163 q-104 -60 -211 -60 Z" /><glyph glyph-name="uni210A" unicode="&#x210a;" d="M565 -247 q-83 36 -152.5 47.5 q-69.5 11.5 -138.5 11.5 l-13 0 q-59 -105 -141 -173 q-82 -68 -174 -68 q-55 0 -83.5 24.5 q-28.5 24.5 -28.5 65.5 q0 58 55 104.5 q55 46.5 148.5 73.5 q93.5 27 204.5 28 q31 66 48 133 l12 49 q-28 -27 -65 -42 q-37 -15 -62 -15 q-26 0 -50.5 17 q-24.5 17 -39.5 42.5 q-15 25.5 -15 49.5 q6 24 14 61 q8 37 12 57 l24 108 q5 21 32 45 q27 24 61.5 40 q34.5 16 59.5 16 q27 0 53 -20 q26 -20 46 -53 q6 28 11 66 l5 33 l4 1 q12 -12 24 -20 q10 -8 13.5 -12.5 q3.5 -4.5 3.5 -12.5 q0 -8 -4 -20 q-28 -107 -73 -305 l-20 -84 q-16 -67 -47 -135 q177 -8 259 -83 q9 -8 13 -14.5 q4 -6.5 4 -15.5 ZM184 38 q17 0 48 12 q31 12 57 34.5 q26 22.5 33 52.5 l38 165 q-19 37 -43.5 59 q-24.5 22 -47.5 22 q-16 0 -39 -10.5 q-23 -10.5 -42 -28 q-19 -17.5 -24 -38.5 q-7 -30 -26 -134 l-12 -68 q0 -24 17.5 -45 q17.5 -21 40.5 -21 ZM-45 -379 q77 0 142.5 52.5 q65.5 52.5 114.5 137.5 q-145 -8 -234 -46 q-89 -38 -89 -97 q0 -24 15.5 -35.5 q15.5 -11.5 50.5 -11.5 Z" /><glyph glyph-name="zero" unicode="0" d="M191 -15 q-66 0 -102 55 q-36 55 -36 162 q0 121 43 216 q43 95 106 147 q63 52 119 52 q8 0 19 4 q11 4 21 4 q42 0 69.5 -48.5 q27.5 -48.5 31.5 -140.5 l1 -30 q0 -113 -38.5 -209.5 q-38.5 -96.5 -101 -154 q-62.5 -57.5 -132.5 -57.5 ZM205 32 q56 0 101 51.5 q45 51.5 70 139.5 q25 88 25 193 q0 174 -73 174 q-53 0 -101.5 -53.5 q-48.5 -53.5 -79 -144.5 q-30.5 -91 -30.5 -197 q0 -88 22 -125.5 q22 -37.5 66 -37.5 Z" /><glyph glyph-name="one" unicode="1" d="M360 623 q10 0 7 -11 q-63 -211 -102 -355.5 q-39 -144.5 -39 -199.5 q0 -45 4 -53 q-21 -9 -43 -9 q-12 0 -18 6 q-6 6 -6 27 q0 56 41 202 q41 146 103 341 l-32 -19 q-112 -63 -153 -85 q-7 0 -16.5 6.5 q-9.5 6.5 -12.5 13.5 q99 51 162 89 q63 38 69 42 q11 1 20 3 q9 2 16 2 Z" /><glyph glyph-name="two" unicode="2" d="M295 65 q67 0 91.5 -4 q24.5 -4 24.5 -20 q0 -12 -8 -29.5 q-8 -17.5 -9 -19.5 q-40 14 -156 14 q-81 0 -168 -9 l-24 -2 q-9 8 -15.5 19.5 q-6.5 11.5 -6.5 17.5 q-1 6 8.5 14 q9.5 8 13.5 12 q62 63 134.5 141 q72.5 78 103.5 114 q87 101 87 180 q0 82 -85 82 q-48 0 -80 -26 q-32 -26 -57 -82 q-7 2 -11 11 q-4 9 -4 20 q0 27 22.5 57 q22.5 30 61 49.5 q38.5 19.5 82.5 19.5 q55 0 96.5 -31 q41.5 -31 41.5 -89 q0 -50 -31 -102.5 q-31 -52.5 -82 -108.5 l-222 -242 q44 7 97.5 10.5 q53.5 3.5 94.5 3.5 Z" /><glyph glyph-name="three" unicode="3" d="M288 327 q47 -11 84.5 -47.5 q37.5 -36.5 37.5 -104.5 q0 -54 -26.5 -98 q-26.5 -44 -75.5 -70 q-49 -26 -114 -26 q-41 0 -75.5 10.5 q-34.5 10.5 -54 27.5 q-19.5 17 -19.5 36 q0 13 8 24.5 q8 11.5 20 11.5 q40 -58 130 -58 q78 0 113 38.5 q35 38.5 35 94.5 q0 66 -44 100 q-44 34 -108 34 q-10 0 -15.5 5 q-5.5 5 -5.5 18 q0 20 13 21 q175 20 175 137 q0 94 -105 94 q-35 0 -68 -10 q-33 -10 -57 -30 q-6 6 -6 15 q0 18 20 34 q20 16 52 26 q32 10 66 10 q67 0 110 -39 q43 -39 43 -101 q0 -63 -41.5 -101 q-41.5 -38 -91.5 -52 Z" /><glyph glyph-name="four" unicode="4" d="M443 208 q0 -13 -4 -26 q-4 -13 -7 -16 q-30 13 -104 16 l-3 -15 q-22 -113 -22 -167 q-24 -6 -42 -6 q-14 0 -19 4 q-5 4 -5 13 q0 19 23 129 l9 43 q-60 0 -154 -4 q-57 -3 -89 -3 q-4 17 -4 41 q3 3 11 7.5 q8 4.5 17 12.5 q38 33 152.5 162.5 q114.5 129.5 141.5 166.5 q10 14 14.5 24.5 q4.5 10.5 6.5 15 q2 4.5 8 7.5 q43 20 48 20 q8 0 8 -9 q0 -8 -13 -62 q-13 -54 -17 -71 q-39 -155 -63 -269 q63 3 85 3 q14 0 18 -3.5 q4 -3.5 4 -13.5 ZM78 212 q15 1 48.5 2.5 q33.5 1.5 89.5 3.5 q21 0 61 2 q30 136 69 297 q-61 -71 -146.5 -169.5 q-85.5 -98.5 -121.5 -135.5 Z" /><glyph glyph-name="five" unicode="5" d="M303 550 q-47 0 -85 8 q-14 -29 -27.5 -80 q-13.5 -51 -13.5 -72 q0 -21 16 -35 q16 -14 50 -33 q35 -20 58 -38 q23 -18 39.5 -48 q16.5 -30 16.5 -74 q0 -53 -26 -98 q-26 -45 -74 -72 q-48 -27 -109 -27 q-55 0 -90.5 20.5 q-35.5 20.5 -35.5 51.5 q0 16 8.5 27 q8.5 11 19.5 11 q20 -29 43 -43.5 q23 -14.5 64 -14.5 q68 0 104.5 38.5 q36.5 38.5 36.5 96.5 q0 65 -38.5 98 q-38.5 33 -71 46.5 q-32.5 13.5 -39.5 16.5 q-17 8 -23.5 18.5 q-6.5 10.5 -6.5 23.5 q0 9 1 14 q6 37 35.5 126.5 q29.5 89.5 46.5 110.5 q17 -8 48.5 -14 q31.5 -6 64.5 -6 q51 0 89.5 14.5 q38.5 14.5 59.5 37.5 q5 -7 5 -16 q0 -21 -17 -41.5 q-17 -20.5 -54 -33.5 q-37 -13 -95 -13 Z" /><glyph glyph-name="six" unicode="6" d="M389 626 q41 0 59.5 -15 q18.5 -15 18.5 -33 q0 -14 -5 -21.5 q-5 -7.5 -14 -12.5 q-15 15 -32 22.5 q-17 7.5 -43 7.5 q-85 0 -147.5 -75 q-62.5 -75 -100.5 -211 q23 24 57 39.5 q34 15.5 74 15.5 q48 0 83 -23 q35 -23 53.5 -59 q18.5 -36 18.5 -76 q0 -49 -27.5 -95 q-27.5 -46 -74.5 -74 q-47 -28 -104 -28 q-72 0 -117 47.5 q-45 47.5 -45 135.5 q0 93 49 200.5 q49 107.5 129 181 q80 73.5 168 73.5 ZM233 303 q-55 0 -87 -44 q-32 -44 -32 -105 q0 -58 30 -91.5 q30 -33.5 79 -33.5 q53 0 89 39 q36 39 36 105 q0 65 -34.5 97.5 q-34.5 32.5 -80.5 32.5 Z" /><glyph glyph-name="seven" unicode="7" d="M453 624 q11 0 23.5 -9 q12.5 -9 13.5 -18 q-1 -7 -7.5 -14 q-6.5 -7 -20.5 -18 q-166 -302 -223 -442 q-10 -25 -14.5 -41 q-4.5 -16 -4.5 -31 q0 -19 6.5 -33 q6.5 -14 20.5 -26 q-7 -1 -13.5 -3.5 q-6.5 -2.5 -12.5 -4.5 q-30 -12 -43 -12 q-14 0 -25.5 11.5 q-11.5 11.5 -11.5 30.5 q0 35 40 117 q53 107 238 432 l-141 -1 q-59 0 -83 -3 q-24 -3 -37.5 -14.5 q-13.5 -11.5 -25.5 -41.5 l-9 6 q0 5 -2 18 q-2 13 -2 24 q0 37 21.5 52.5 q21.5 15.5 55.5 15.5 q14 0 72 -6 q88 -9 121 -9 q26 0 40.5 4 q14.5 4 23.5 16 Z" /><glyph glyph-name="eight" unicode="8" d="M451 513 q0 -59 -39 -97.5 q-39 -38.5 -113 -80.5 q47 -47 72 -85 q25 -38 25 -84 q0 -49 -30.5 -88.5 q-30.5 -39.5 -78.5 -62 q-48 -22.5 -97 -22.5 q-69 0 -102.5 41.5 q-33.5 41.5 -33.5 96.5 q0 66 42 109.5 q42 43.5 120 88.5 q-32 34 -49.5 65 q-17.5 31 -17.5 67 q0 47 29 85 q29 38 72.5 60 q43.5 22 84.5 22 q48 0 82 -30.5 q34 -30.5 34 -84.5 ZM272 360 q61 35 93.5 67.5 q32.5 32.5 32.5 76.5 q0 33 -20 55 q-20 22 -59 22 q-47 0 -83 -29.5 q-36 -29.5 -36 -71.5 q0 -30 18.5 -57.5 q18.5 -27.5 53.5 -62.5 ZM332 158 q0 38 -22 68.5 q-22 30.5 -68 76.5 q-62 -37 -96 -74.5 q-34 -37.5 -34 -91.5 q0 -49 27.5 -75.5 q27.5 -26.5 71.5 -26.5 l1 0 q37 0 64 18.5 q27 18.5 41.5 47 q14.5 28.5 14.5 57.5 Z" /><glyph glyph-name="nine" unicode="9" d="M285 626 q73 0 117.5 -47 q44.5 -47 44.5 -136 q0 -94 -49.5 -201.5 q-49.5 -107.5 -129 -180.5 q-79.5 -73 -164.5 -73 q-31 0 -49 9.5 q-18 9.5 -25 21 q-7 11.5 -7 20.5 q0 14 5 21.5 q5 7.5 14 12.5 q18 -17 33.5 -25 q15.5 -8 43.5 -8 q84 0 146.5 76 q62.5 76 99.5 210 q-23 -24 -57 -39.5 q-34 -15.5 -74 -15.5 q-48 0 -83 23 q-35 23 -53.5 59 q-18.5 36 -18.5 76 q0 49 27 94.5 q27 45.5 74.5 74 q47.5 28.5 104.5 28.5 ZM257 311 q55 0 87 44 q32 44 32 105 q0 58 -30 91.5 q-30 33.5 -79 33.5 q-53 0 -89 -39 q-36 -39 -36 -105 q0 -65 34.5 -97.5 q34.5 -32.5 80.5 -32.5 Z" /><glyph glyph-name="uni2080" unicode="&#x2080;" d="M186 -12 q-63 0 -98 45.5 q-35 45.5 -35 128.5 q0 66 26 124 q26 58 71.5 93 q45.5 35 100.5 35 q59 0 93 -43.5 q34 -43.5 34 -127.5 q0 -67 -24 -125.5 q-24 -58.5 -67.5 -94 q-43.5 -35.5 -100.5 -35.5 ZM191 40 q58 0 93.5 58 q35.5 58 35.5 152 q0 61 -17 89.5 q-17 28.5 -54 28.5 q-39 0 -70 -28 q-31 -28 -49 -76 q-18 -48 -18 -106 q0 -118 79 -118 Z" /><glyph glyph-name="uni2081" unicode="&#x2081;" d="M310 445 q8 0 5 -9 q-46 -154 -72 -254 q-26 -100 -26 -151 q0 -19 3 -28 q-15 -7 -40 -7 q-15 0 -21.5 6.5 q-6.5 6.5 -6.5 23.5 q0 41 27 132.5 q27 91.5 70 219.5 q-46 -27 -113 -58 q-8 0 -14.5 9 q-6.5 9 -10.5 18 q108 54 157 92 q11 1 22.5 3 q11.5 2 19.5 3 Z" /><glyph glyph-name="uni2082" unicode="&#x2082;" d="M218 51 q50 0 66 -3 q16 -3 16 -17 q0 -8 -3 -20.5 q-3 -12.5 -9 -18.5 q-27 10 -111 10 q-63 0 -96.5 -4 q-33.5 -4 -40.5 -4 q-7 6 -11.5 14.5 q-4.5 8.5 -4.5 12.5 q-1 5 7 11 q8 6 9 7 q135 131 170 170 q62 67 62 120 q0 30 -15 43.5 q-15 13.5 -46 13.5 q-34 0 -52.5 -17.5 q-18.5 -17.5 -33.5 -57.5 q-10 1 -16 9.5 q-6 8.5 -6 20.5 q0 20 16.5 42.5 q16.5 22.5 46 37.5 q29.5 15 65.5 15 q47 0 78 -26 q31 -26 31 -69 q0 -67 -81 -146 l-156 -152 q51 8 115 8 Z" /><glyph glyph-name="uni2083" unicode="&#x2083;" d="M223 232 q36 -9 64.5 -36 q28.5 -27 28.5 -76 q0 -60 -45 -99.5 q-45 -39.5 -114 -39.5 q-51 0 -83.5 21 q-32.5 21 -32.5 52 q0 19 11 29 q11 10 25 10 q8 -35 25.5 -55 q17.5 -20 51.5 -20 q41 0 70.5 28.5 q29.5 28.5 29.5 80.5 q0 76 -72 76 q-11 0 -25.5 -2 q-14.5 -2 -22.5 -2 q-30 0 -30 36 q62 0 111 29 q49 29 49 77 q0 27 -17 40.5 q-17 13.5 -47 13.5 q-47 0 -88 -31 q-6 6 -6 16 q0 24 31.5 40.5 q31.5 16.5 75.5 16.5 q51 0 81 -24 q30 -24 30 -68 q0 -47 -31 -74.5 q-31 -27.5 -70 -38.5 Z" /><glyph glyph-name="uni2084" unicode="&#x2084;" d="M345 117 q-20 9 -77 11 q-16 -85 -15 -130 q-15 -4 -36 -4 q-28 0 -29 9 q-3 13 21 126 q-10 0 -103 -3 q-16 -1 -42 -2 q-26 -1 -36 0 q-6 27 -6 43 q3 3 8.5 6 q5.5 3 11.5 8 q30 25 110 110.5 q80 85.5 101 116.5 q6 9 11 20.5 q5 11.5 10 13.5 q10 2 27 4.5 q17 2.5 28 3.5 q7 0 7 -6 q0 -6 -19 -89 q-31 -136 -41 -184 l53 2 q11 0 15 -3.5 q4 -3.5 4 -14.5 q0 -12 -3 -38 ZM217 169 q23 103 42 183 q-39 -44 -88.5 -96.5 q-49.5 -52.5 -87.5 -91.5 l134 5 Z" /><glyph glyph-name="uni2085" unicode="&#x2085;" d="M249 377 q-33 0 -61 7 q-13 -23 -24 -50 q-11 -27 -11 -41 q0 -13 11 -22.5 q11 -9.5 34 -23.5 q39 -22 61 -45.5 q22 -23.5 22 -67.5 q0 -40 -20.5 -75 q-20.5 -35 -57 -56.5 q-36.5 -21.5 -80.5 -21.5 q-44 0 -72.5 19.5 q-28.5 19.5 -28.5 42.5 q0 11 6 19 q6 8 14 8 q14 -21 33.5 -31.5 q19.5 -10.5 50.5 -10.5 q49 0 71 25 q22 25 22 64 q0 37 -14.5 60.5 q-14.5 23.5 -36 36 q-21.5 12.5 -55.5 26.5 q-22 8 -22 30 q0 7 1 10 q5 26 29.5 86 q24.5 60 36.5 73 q11 -5 42.5 -9.5 q31.5 -4.5 57.5 -4.5 q39 0 66 10.5 q27 10.5 41 26.5 q3 -4 3 -13 q0 -32 -29.5 -52 q-29.5 -20 -89.5 -20 Z" /><glyph glyph-name="uni2086" unicode="&#x2086;" d="M290 444 q29 0 42.5 -11 q13.5 -11 13.5 -26 q0 -9 -4 -19 q-4 -10 -10 -13 q-10 11 -22 16.5 q-12 5.5 -31 5.5 q-57 0 -96.5 -47 q-39.5 -47 -65.5 -134 q35 26 78 26 q51 0 81 -34.5 q30 -34.5 30 -79.5 q0 -35 -19.5 -67.5 q-19.5 -32.5 -53.5 -52.5 q-34 -20 -75 -20 q-51 0 -83 33.5 q-32 33.5 -32 96.5 q0 67 35 144 q35 77 92 129.5 q57 52.5 120 52.5 ZM179 203 q-38 0 -56.5 -28.5 q-18.5 -28.5 -18.5 -66.5 q0 -37 17.5 -59 q17.5 -22 50.5 -22 q36 0 57.5 25.5 q21.5 25.5 21.5 67.5 q0 41 -20.5 62 q-20.5 21 -51.5 21 Z" /><glyph glyph-name="uni2087" unicode="&#x2087;" d="M334 445 q8 0 21.5 -6.5 q13.5 -6.5 14.5 -12.5 q-1 -5 -7 -11 q-6 -6 -13 -12 q-32 -59 -57.5 -114.5 q-25.5 -55.5 -91.5 -208.5 q-14 -31 -14 -53 q0 -24 19 -41 l-20 -5 q-36 -9 -46 -9 q-10 0 -17.5 8 q-7.5 8 -7.5 21 q0 13 8 36.5 q8 23.5 20 48.5 q92 190 156 305 l-90 0 q-46 0 -66 -2.5 q-20 -2.5 -30 -11 q-10 -8.5 -19 -29.5 l-6 5 q-3 24 -3 39 q0 49 55 49 q10 0 56 -4 q60 -6 91 -6 q20 0 30 3 q10 3 17 11 Z" /><glyph glyph-name="uni2088" unicode="&#x2088;" d="M238 238 q35 -33 53.5 -60.5 q18.5 -27.5 18.5 -62.5 q0 -53 -41 -87.5 q-41 -34.5 -107 -34.5 q-47 0 -79 28 q-32 28 -32 71 q0 44 27.5 77 q27.5 33 76.5 65 q-24 23 -37.5 46.5 q-13.5 23.5 -13.5 52.5 q0 29 18 55.5 q18 26.5 49.5 42.5 q31.5 16 68.5 16 q34 0 64.5 -23 q30.5 -23 30.5 -61 q0 -41 -25 -69 q-25 -28 -72 -56 ZM161 341 q0 -19 11.5 -36.5 q11.5 -17.5 33.5 -38.5 q39 24 59.5 44 q20.5 20 20.5 44 q0 26 -15 42.5 q-15 16.5 -38 16.5 q-34 0 -53 -20 q-19 -20 -19 -52 ZM169 23 q38 0 56.5 26.5 q18.5 26.5 18.5 61.5 q0 26 -15 47.5 q-15 21.5 -44 48.5 q-40 -26 -61.5 -52 q-21.5 -26 -21.5 -63 q0 -32 18 -50.5 q18 -18.5 49 -18.5 Z" /><glyph glyph-name="uni2089" unicode="&#x2089;" d="M226 444 q51 0 83 -33.5 q32 -33.5 32 -96.5 q0 -67 -35 -144 q-35 -77 -92 -129.5 q-57 -52.5 -120 -52.5 q-29 0 -42.5 11 q-13.5 11 -13.5 26 q0 9 4 19 q4 10 10 13 q10 -11 22 -16.5 q12 -5.5 31 -5.5 q57 0 96.5 47 q39.5 47 65.5 134 q-35 -26 -78 -26 q-51 0 -81 34.5 q-30 34.5 -30 79.5 q0 35 19.5 67.5 q19.5 32.5 53.5 52.5 q34 20 75 20 ZM205 229 q38 0 56.5 28.5 q18.5 28.5 18.5 66.5 q0 37 -17.5 59 q-17.5 22 -50.5 22 q-36 0 -57.5 -25.5 q-21.5 -25.5 -21.5 -67.5 q0 -41 20.5 -62 q20.5 -21 51.5 -21 Z" /><glyph glyph-name="fraction" unicode="&#x2044;" d="M-235 -118 q-7 5 -19.5 8.5 q-12.5 3.5 -25.5 5.5 l118 143 q208 250 337.5 410.5 q129.5 160.5 264.5 340.5 q11 15 26 15 q9 0 22 -4.5 q13 -4.5 19 -5.5 l-367 -451 q-143 -177 -237 -292.5 q-94 -115.5 -138 -169.5 Z" /><glyph glyph-name="uni0E50" unicode="&#xe50;" d="M240 -10 q-88 0 -139 53.5 q-51 53.5 -51 144.5 q0 69 29.5 122.5 q29.5 53.5 80.5 83.5 q51 30 113 30 q79 0 132 -49.5 q53 -49.5 53 -147.5 q0 -67 -26 -121 q-26 -54 -75.5 -85 q-49.5 -31 -116.5 -31 ZM240 34 q46 0 84 22.5 q38 22.5 60 66 q22 43.5 22 104.5 q0 79 -37 116.5 q-37 37.5 -96 37.5 q-48 0 -87 -23.5 q-39 -23.5 -62 -67.5 q-23 -44 -23 -101 q0 -75 38.5 -115 q38.5 -40 100.5 -40 Z" /><glyph glyph-name="uni0E51" unicode="&#xe51;" d="M138 -95 q-63 0 -127 16 l-71 52 q80 -27 162 -27 q100 0 174.5 34.5 q74.5 34.5 114.5 97.5 q40 63 40 147 q0 80 -35.5 118.5 q-35.5 38.5 -97.5 38.5 q-51 0 -91 -24.5 q-40 -24.5 -63 -67 q-23 -42.5 -23 -94.5 q0 -53 23 -82 q23 -29 59 -29 q31 0 52 22 q21 22 21 69 q0 20 -4 34 q-4 14 -14 14 q-12 0 -21.5 -24 q-9.5 -24 -9.5 -53 q0 -17 5 -34 q-18 3 -30 22 q-12 19 -12 44 q0 35 22.5 61.5 q22.5 26.5 48.5 26.5 q25 0 41 -26.5 q16 -26.5 16 -63.5 q0 -55 -33.5 -93.5 q-33.5 -38.5 -84.5 -38.5 q-32 0 -61.5 17 q-29.5 17 -48 52 q-18.5 35 -18.5 84 q0 61 28.5 113 q28.5 52 81.5 83 q53 31 121 31 q82 0 132 -47.5 q50 -47.5 50 -147.5 q0 -85 -39 -159.5 q-39 -74.5 -117 -120 q-78 -45.5 -191 -45.5 Z" /><glyph glyph-name="uni0E52" unicode="&#xe52;" d="M457 420 q22 0 41 -22.5 q19 -22.5 19 -54.5 q0 -25 -25 -127 q-25 -102 -38 -126 q-16 -31 -58 -53 q-42 -22 -88 -33 q-46 -11 -73 -11 q-34 0 -76.5 20 q-42.5 20 -71 55.5 q-28.5 35.5 -26.5 78.5 q22 82 59.5 261.5 q37.5 179.5 37.5 220.5 q0 56 -30 84.5 q-30 28.5 -104 28.5 q-20 0 -75 -5 q16 26 39 40.5 q23 14.5 68 14.5 q82 0 115.5 -47.5 q33.5 -47.5 33.5 -117.5 q0 -42 -33 -198 q-33 -156 -61 -274 q-2 -30 21.5 -57.5 q23.5 -27.5 56 -45 q32.5 -17.5 54.5 -17.5 q19 0 58 11 q39 11 74.5 31.5 q35.5 20.5 45.5 49.5 q9 27 28.5 108.5 q19.5 81.5 19.5 102.5 q0 36 -23 36 q-15 0 -34.5 -15 q-19.5 -15 -49.5 -45 q-13 31 -25 46 q-12 15 -30 15 q-23 0 -39.5 -21.5 q-16.5 -21.5 -25 -52 q-8.5 -30.5 -8.5 -56.5 q0 -30 15 -30 q14 0 24 27.5 q10 27.5 10 52.5 l-1 21 q31 -11 31 -46 q0 -35 -23 -64.5 q-23 -29.5 -51 -29.5 q-21 0 -34 18 q-13 18 -13 51 q0 38 16.5 79 q16.5 41 45.5 68.5 q29 27.5 63 27.5 q21 0 34.5 -12 q13.5 -12 24.5 -34 q19 18 41 32 q22 14 40 14 Z" /><glyph glyph-name="uni0E53" unicode="&#xe53;" d="M402 418 q37 0 58 -39 q21 -39 21 -100 q0 -67 -24 -144 q-24 -77 -57 -135 l-53 -10 q40 79 65 152 q25 73 25 140 q0 83 -43 83 q-34 0 -62.5 -52.5 q-28.5 -52.5 -53.5 -168.5 q-8 -4 -21 -4 q-14 0 -22 6 q3 23 3 54 q0 69 -13.5 113.5 q-13.5 44.5 -40.5 44.5 q-21 0 -41.5 -28 q-20.5 -28 -33 -76 q-12.5 -48 -12.5 -104 q0 -52 11 -82.5 q11 -30.5 30 -30.5 q16 0 16 23 q0 38 -43 84 q6 3 16 3 q26 0 45.5 -25.5 q19.5 -25.5 19.5 -57.5 q0 -27 -15.5 -47.5 q-15.5 -20.5 -42.5 -20.5 q-39 0 -60 44 q-21 44 -21 114 q0 71 20 129 q20 58 53 91 q33 33 69 33 q39 0 57 -38 q18 -38 20 -108 q18 80 55.5 118.5 q37.5 38.5 74.5 38.5 Z" /><glyph glyph-name="uni0E54" unicode="&#xe54;" d="M305 375 q-64 0 -112.5 -31 q-48.5 -31 -74.5 -83.5 q-26 -52.5 -26 -116.5 q0 -104 103 -104 q23 0 77 6 q-29 11 -46 38.5 q-17 27.5 -17 62.5 q0 35 15.5 66 q15.5 31 42 49 q26.5 18 57.5 18 q23 0 35.5 -13 q12.5 -13 12.5 -34 q0 -26 -13 -46 q-13 -20 -33 -31.5 q-20 -11.5 -40 -11.5 q-11 0 -15 3 q59 35 59 78 q0 13 -14 13 q-27 0 -43.5 -30.5 q-16.5 -30.5 -16.5 -62.5 q0 -70 97 -81 q46 -5 70.5 -12 q24.5 -7 59.5 -27 l-43 -35 q-30 32 -92 32 q-28 0 -54 -6 q-26 -6 -31 -7 q-27 -7 -46 -10.5 q-19 -3.5 -40 -3.5 q-72 0 -105 41.5 q-33 41.5 -33 105.5 q0 76 35.5 139.5 q35.5 63.5 97.5 100.5 q62 37 139 37 l35 -1 q22 -2 36 -2 q104 0 153 62.5 q49 62.5 49 176.5 q0 26 -3 47 q59 -33 59 -99 q0 -66 -35.5 -118.5 q-35.5 -52.5 -95.5 -82 q-60 -29.5 -131 -29.5 l-38 1 q-13 1 -35 1 Z" /><glyph glyph-name="uni0E55" unicode="&#xe55;" d="M307 343 q-65 -20 -107.5 -41 q-42.5 -21 -70.5 -58.5 q-28 -37.5 -28 -97.5 q0 -56 26 -81 q26 -25 77 -25 q37 0 73 9 q-34 14 -55.5 44.5 q-21.5 30.5 -21.5 69.5 q0 32 15 59 q15 27 38.5 42.5 q23.5 15.5 48.5 15.5 q26 0 41 -15 q15 -15 15 -38 q0 -31 -26 -57 q-26 -26 -59 -26 q-9 0 -15 3 q30 17 44 36.5 q14 19.5 14 37.5 q0 10 -4 13.5 q-4 3.5 -11 3.5 q-24 0 -40 -22.5 q-16 -22.5 -16 -54.5 q0 -43 31.5 -68 q31.5 -25 86.5 -29 q38 -3 60.5 -8 q22.5 -5 50.5 -21 l-17 -42 q-18 15 -46.5 22 q-28.5 7 -56.5 7 q-21 0 -39 -3.5 q-18 -3.5 -43 -10.5 q-18 -5 -39 -9 q-21 -4 -41 -4 q-63 0 -103.5 37 q-40.5 37 -40.5 118 q0 68 29.5 111 q29.5 43 78 68 q48.5 25 123.5 48 q-15 26 -15 57 q0 41 29 72.5 q29 31.5 73 31.5 q37 0 57 -22 q20 -22 20 -57 q0 -37 -22.5 -59.5 q-22.5 -22.5 -60.5 -38.5 q26 -11 68 -11 q70 0 126 32.5 q56 32.5 88 92.5 q32 60 32 139 q0 80 -39 136 q50 -28 72.5 -68 q22.5 -40 22.5 -94 q0 -79 -41 -143.5 q-41 -64.5 -110 -100.5 q-69 -36 -149 -36 q-77 0 -122 35 l-1 0 ZM363 499 q-24 0 -41 -16.5 q-17 -16.5 -17 -46.5 q0 -29 15 -47 q41 13 61.5 28.5 q20.5 15.5 20.5 43.5 q0 38 -39 38 Z" /><glyph glyph-name="uni0E56" unicode="&#xe56;" d="M276 420 q40 0 73 -19.5 q33 -19.5 53.5 -59.5 q20.5 -40 20.5 -98 q0 -61 -23 -118 q-23 -57 -71.5 -94 q-48.5 -37 -120.5 -37 q-56 0 -85 29.5 q-29 29.5 -29 76.5 q0 46 25 77.5 q25 31.5 59 31.5 q23 0 37 -14 q14 -14 14 -40 q0 -32 -21.5 -52.5 q-21.5 -20.5 -52.5 -20.5 q34 39 34 75 q0 20 -13 20 q-15 0 -28.5 -22.5 q-13.5 -22.5 -13.5 -52.5 q0 -33 19 -51.5 q19 -18.5 58 -18.5 q54 0 91 32.5 q37 32.5 55 82 q18 49.5 18 98.5 q0 65 -31 96.5 q-31 31.5 -78 31.5 q-43 0 -75.5 -25.5 q-32.5 -25.5 -54.5 -68.5 l-35 0 q-4 146 -54 237 q-50 91 -125 130.5 q-75 39.5 -161 39.5 q-39 0 -67 -4 q35 50 119 50 q90 0 163 -54.5 q73 -54.5 115.5 -144 q42.5 -89.5 43.5 -189.5 q22 31 59 53.5 q37 22.5 82 22.5 Z" /><glyph glyph-name="uni0E57" unicode="&#xe57;" d="M440 750 q87 -5 134 -74 q47 -69 47 -204 q0 -174 -70 -292 q-70 -118 -166 -180 l-54 0 q32 59 53.5 141.5 q21.5 82.5 21.5 142.5 q0 40 -10.5 62 q-10.5 22 -31.5 22 q-29 0 -53 -44.5 q-24 -44.5 -39 -117.5 q-6 -3 -16 -3 q-10 0 -19 3 q3 26 3 49 q0 116 -51 116 q-23 0 -43.5 -23 q-20.5 -23 -33 -66 q-12.5 -43 -12.5 -101 q0 -60 13 -102 q13 -42 29 -42 q7 0 11 7 q4 7 4 18 q0 19 -11 42.5 q-11 23.5 -25 39.5 q5 2 14 2 q26 0 43 -28 q17 -28 17 -61 q0 -29 -14 -45.5 q-14 -16.5 -36 -16.5 q-39 0 -63 50.5 q-24 50.5 -24 133.5 q0 71 18 126 q18 55 48.5 85 q30.5 30 66.5 30 q35 0 54 -27.5 q19 -27.5 25 -75.5 q15 44 44 74 q29 30 60 30 q35 0 55.5 -39 q20.5 -39 20.5 -101 q0 -54 -14.5 -117.5 q-14.5 -63.5 -40.5 -110.5 q63 51 117.5 155.5 q54.5 104.5 54.5 263.5 q0 96 -28 165 q-28 69 -99 113 Z" /><glyph glyph-name="uni0E58" unicode="&#xe58;" d="M309 355 q-61 -15 -103 -33.5 q-42 -18.5 -73.5 -59 q-31.5 -40.5 -31.5 -108.5 q0 -51 17.5 -82 q17.5 -31 40.5 -31 q20 0 37 25 q17 25 34 72 l15 -4 q1 -3 11.5 -30 q10.5 -27 29 -46 q18.5 -19 38.5 -19 q24 0 39.5 22.5 q15.5 22.5 22.5 52.5 q7 30 7 52 q0 17 -4.5 25 q-4.5 8 -10.5 8 q-12 0 -20.5 -23 q-8.5 -23 -8.5 -62 l1 -21 q-11 5 -20.5 23.5 q-9.5 18.5 -9.5 42.5 q0 32 16.5 58 q16.5 26 45.5 26 q25 0 39.5 -22.5 q14.5 -22.5 14.5 -60.5 q0 -37 -13 -74 q-13 -37 -38 -62 q-25 -25 -59 -25 q-31 0 -55 19 q-24 19 -35 45 q-14 -32 -36.5 -50 q-22.5 -18 -47.5 -18 q-22 0 -46 14.5 q-24 14.5 -41 49.5 q-17 35 -17 94 q0 80 33 127 q33 47 81 68.5 q48 21.5 124 42.5 q115 31 187.5 90 q72.5 59 72.5 179 q0 41 -8 82 q29 -14 45 -39.5 q16 -25.5 16 -76.5 q0 -88 -49 -144.5 q-49 -56.5 -110 -82.5 q-61 -26 -131 -44 Z" /><glyph glyph-name="uni0E59" unicode="&#xe59;" d="M360 420 q-31 -3 -51.5 -15.5 q-20.5 -12.5 -20.5 -47.5 q0 -46 42 -95 q65 -77 96 -109.5 q31 -32.5 52 -40.5 q-9 -13 -21.5 -21.5 q-12.5 -8.5 -22.5 -8.5 q-17 0 -36.5 20 q-19.5 20 -53.5 64 q-12 16 -38 48 q-25 29 -42.5 40.5 q-17.5 11.5 -43.5 11.5 q-33 0 -62 -16.5 q-29 -16.5 -46.5 -47.5 q-17.5 -31 -17.5 -74 q0 -46 21.5 -72 q21.5 -26 57.5 -26 q40 0 59.5 29.5 q19.5 29.5 19.5 77.5 q0 10 -2 15.5 q-2 5.5 -10 5.5 q-15 0 -25.5 -19 q-10.5 -19 -10.5 -56 q0 -15 1 -24 q-13 7 -21.5 21 q-8.5 14 -8.5 34 q0 31 19.5 59.5 q19.5 28.5 50.5 28.5 q26 0 37.5 -19.5 q11.5 -19.5 11.5 -48.5 q0 -33 -13.5 -65.5 q-13.5 -32.5 -42 -54.5 q-28.5 -22 -70.5 -22 q-54 0 -88.5 38 q-34.5 38 -34.5 103 q0 53 24 93.5 q24 40.5 63.5 62.5 q39.5 22 83.5 22 q19 0 35 -4 q-13 23 -13 53 q0 38 25 64.5 q25 26.5 89 36.5 q5 1 13 2 q8 1 18 2 q69 8 120.5 24.5 q51.5 16.5 92 64.5 q40.5 48 40.5 139 q0 32 -7 57 q29 -26 40.5 -49.5 q11.5 -23.5 11.5 -56.5 q0 -84 -54.5 -131.5 q-54.5 -47.5 -121 -65 q-66.5 -17.5 -145.5 -27.5 Z" /><glyph glyph-name="period" unicode="." d="M65 -10 q-21 0 -33.5 13.5 q-12.5 13.5 -12.5 37.5 q0 28 16 47 q16 19 42 19 q21 0 33.5 -13 q12.5 -13 12.5 -37 q0 -28 -16 -47.5 q-16 -19.5 -42 -19.5 Z" /><glyph glyph-name="comma" unicode="," d="M-64 -185 q-9 0 -12 7 q61 84 104.5 152.5 q43.5 68.5 88.5 158.5 q15 -6 26 -16.5 q11 -10.5 11 -21.5 q0 -10 -9 -23 q-60 -84 -100 -137.5 q-40 -53.5 -87 -107.5 q-10 -12 -22 -12 Z" /><glyph glyph-name="exclam" unicode="!" d="M200 210 q-10 0 -18 2.5 q-8 2.5 -8 6.5 l33 189 q6 37 21.5 128.5 q15.5 91.5 23.5 127.5 q7 35 14 45.5 q7 10.5 24 10.5 q29 0 52 -15 q-11 -9 -15 -16 q-4 -7 -8 -24 q-28 -110 -52 -219 q-24 -109 -50 -231 q-2 -5 -17 -5 ZM161 -10 q-21 0 -33.5 13.5 q-12.5 13.5 -12.5 37.5 q0 28 16 47 q16 19 42 19 q21 0 33.5 -13 q12.5 -13 12.5 -37 q0 -28 -16 -47.5 q-16 -19.5 -42 -19.5 Z" /><glyph glyph-name="exclamdown" unicode="¡" d="M235 428 q21 0 33.5 -13.5 q12.5 -13.5 12.5 -37.5 q0 -28 -16 -47 q-16 -19 -42 -19 q-21 0 -33.5 13 q-12.5 13 -12.5 37 q0 28 16 47.5 q16 19.5 42 19.5 ZM196 208 q10 0 18 -2.5 q8 -2.5 8 -6.5 l-33 -189 q-6 -37 -21.5 -128.5 q-15.5 -91.5 -23.5 -127.5 q-7 -35 -14 -45.5 q-7 -10.5 -24 -10.5 q-29 0 -52 15 q11 9 15 16 q4 7 8 24 q28 110 52 219 q24 109 50 231 q3 5 17 5 Z" /><glyph glyph-name="question" unicode="?" d="M202 159 q-6 2 -21.5 7 q-15.5 5 -21.5 9 q-7 18 -7 41 q0 40 12 67.5 q12 27.5 36.5 52.5 q24.5 25 82.5 73 q48 40 70 74 q22 34 22 84 q0 55 -27 83.5 q-27 28.5 -75 28.5 q-62 0 -99 -45.5 q-37 -45.5 -37 -117.5 q0 -19 2 -39.5 q2 -20.5 5 -32.5 q-27 0 -41 26 q-14 26 -14 63 q0 49 24 89.5 q24 40.5 66.5 64 q42.5 23.5 97.5 23.5 q70 0 109 -39 q39 -39 39 -108 q0 -45 -16 -78 q-16 -33 -38.5 -55 q-22.5 -22 -57.5 -49 q-45 -34 -66 -55.5 q-21 -21.5 -31.5 -49 q-10.5 -27.5 -12.5 -73.5 q-1 -13 -1 -44 ZM162 -11 q-20 0 -31.5 12.5 q-11.5 12.5 -11.5 33.5 q0 23 14.5 39 q14.5 16 37.5 16 q20 0 31 -12.5 q11 -12.5 11 -32.5 q0 -24 -14.5 -40 q-14.5 -16 -36.5 -16 Z" /><glyph glyph-name="questiondown" unicode="¿" d="M266 476 q20 0 31.5 -12.5 q11.5 -12.5 11.5 -33.5 q0 -23 -14.5 -39 q-14.5 -16 -37.5 -16 q-20 0 -31 12.5 q-11 12.5 -11 32.5 q0 24 14.5 40 q14.5 16 36.5 16 ZM226 306 q6 -2 21.5 -7 q15.5 -5 21.5 -9 q7 -17 7 -41 q0 -40 -12 -67.5 q-12 -27.5 -36.5 -52.5 q-24.5 -25 -82.5 -73 q-48 -40 -70 -74 q-22 -34 -22 -84 q0 -55 27 -83.5 q27 -28.5 75 -28.5 q62 0 99 45.5 q37 45.5 37 117.5 q0 19 -2 39.5 q-2 20.5 -5 32.5 q27 0 41 -26 q14 -26 14 -63 q0 -49 -24 -89.5 q-24 -40.5 -66.5 -64 q-42.5 -23.5 -97.5 -23.5 q-70 0 -109 39 q-39 39 -39 108 q0 45 16 78 q16 33 38.5 55 q22.5 22 57.5 49 q45 34 66 55.5 q21 21.5 31.5 49 q10.5 27.5 12.5 73.5 q1 13 1 44 Z" /><glyph glyph-name="bullet" unicode="&#x2022;" d="M344 177 q-52 0 -80.5 28 q-28.5 28 -28.5 78 q0 56 34.5 89.5 q34.5 33.5 92.5 33.5 q51 0 78.5 -27.5 q27.5 -27.5 27.5 -78.5 q0 -58 -34.5 -90.5 q-34.5 -32.5 -89.5 -32.5 Z" /><glyph glyph-name="asterisk" unicode="*" d="M403 628 q4 1 9 1 q6 0 6 -6 q0 -10 -12.5 -19.5 q-12.5 -9.5 -32.5 -16.5 l-69 -23 l73 -89 q3 -4 3 -7 q0 -6 -16 -6 q-10 0 -18.5 5.5 q-8.5 5.5 -23.5 21.5 q-37 41 -42 47 l-35 -103 q-2 -5 -6.5 -6 q-4.5 -1 -8.5 3 q-7 8 -7 24 q0 17 7 38 l17 54 q-76 -24 -94 -28 q-3 -1 -9 -1 q-5 0 -5 4 q0 12 9.5 20.5 q9.5 8.5 33.5 17.5 l61 21 q-54 63 -70 89 q-3 5 -3 8 q0 6 14 6 q13 0 23 -7 q10 -7 25 -25 l35 -42 l33 97 q3 6 6 6 q7 0 11 -8 q4 -8 4 -22 q0 -19 -7 -41 l-14 -42 q74 22 103 29 Z" /><glyph glyph-name="numbersign" unicode="#" d="M590 417 q-88 3 -116 4 q-26 -112 -38 -168 q55 1 127 5 l-10 -44 q-30 2 -124 4 l-6 -27 q-30 -139 -40 -191 l-50 0 q29 117 52 218 l-68 0 l-58 0 q-19 -85 -46 -218 l-50 0 l46 188 l7 29 q-74 0 -120 -3 l10 44 q85 -4 118 -5 q7 28 25 109 l14 60 q-13 0 -20 -1 l-110 -4 l9 44 l33 -1 q54 -3 95 -3 q7 30 16 73.5 q9 43.5 14 68.5 l15 71 l50 0 q-29 -109 -53 -213 l49 0 q54 0 78 1 l46 212 l50 0 q-20 -79 -52 -212 q27 0 39 1 q37 0 77 2 l-9 -44 ZM432 422 q-31 1 -79 1 l-48 0 q-21 -87 -39 -171 q19 -1 60 -1 q45 0 67 1 l39 170 Z" /><glyph glyph-name="slash" unicode="/" d="M16 -181 q-12 0 -21.5 3 q-9.5 3 -11.5 9 l615 1050 q6 10 18 10 q9 0 19.5 -3 q10.5 -3 12.5 -7 l-615 -1053 q-6 -9 -17 -9 Z" /><glyph glyph-name="backslash" unicode="\" d="M414 -178 q-11 0 -13 9 q-155 693 -195 868 q-8 40 -39 175 q4 6 15 11.5 q11 5.5 18 5.5 q8 0 9 -9 q166 -748 235 -1040 q-1 -7 -10.5 -13.5 q-9.5 -6.5 -19.5 -6.5 Z" /><glyph glyph-name="uni208D" unicode="&#x208d;" d="M99 -32 q-17 0 -28.5 10.5 q-11.5 10.5 -25.5 33.5 q-35 57 -35 166 q0 81 20.5 142 q20.5 61 63.5 112 q21 25 37.5 35.5 q16.5 10.5 32.5 10.5 q13 0 27 -10 q-64 -58 -97 -128 q-33 -70 -33 -165 q0 -64 15.5 -111 q15.5 -47 46.5 -86 q-10 -10 -24 -10 Z" /><glyph glyph-name="uni208E" unicode="&#x208e;" d="M74 478 q17 0 28.5 -10.5 q11.5 -10.5 25.5 -33.5 q35 -57 35 -166 q0 -80 -20.5 -141.5 q-20.5 -61.5 -63.5 -112.5 q-21 -25 -37.5 -35.5 q-16.5 -10.5 -32.5 -10.5 q-13 0 -27 10 q64 58 97 128 q33 70 33 165 q0 64 -15.5 111 q-15.5 47 -46.5 86 q10 10 24 10 Z" /><glyph glyph-name="parenleft" unicode="(" d="M325 -120 q-50 0 -96.5 51 q-46.5 51 -75.5 143.5 q-29 92.5 -29 211.5 q0 167 55 307 q55 140 133 221.5 q78 81.5 140 81.5 q17 0 24.5 -6 q7.5 -6 7.5 -15 q-90 -44 -157 -130.5 q-67 -86.5 -102.5 -203.5 q-35.5 -117 -35.5 -251 q0 -150 43 -253.5 q43 -103.5 126 -139.5 q-7 -17 -33 -17 Z" /><glyph glyph-name="parenright" unicode=")" d="M231 896 q50 0 96.5 -51 q46.5 -51 75.5 -143.5 q29 -92.5 29 -211.5 q0 -167 -55 -307 q-55 -140 -133 -221.5 q-78 -81.5 -140 -81.5 q-17 0 -24.5 6 q-7.5 6 -7.5 15 q90 44 157 130.5 q67 86.5 102.5 203.5 q35.5 117 35.5 251 q0 150 -43 253.5 q-43 103.5 -126 139.5 q7 17 33 17 Z" /><glyph glyph-name="braceleft" unicode="{" d="M466 891 q33 0 46.5 -9.5 q13.5 -9.5 12.5 -33.5 q-24 6 -54 6 q-37 0 -54.5 -11.5 q-17.5 -11.5 -35.5 -42.5 q-15 -26 -26.5 -56 q-11.5 -30 -28.5 -81 q-26 -78 -48 -126 q-22 -48 -57 -81 q-21 -19 -44 -30 q85 -27 85 -117 q0 -30 -7.5 -66 q-7.5 -36 -21.5 -91 q-17 -65 -25 -105.5 q-8 -40.5 -8 -78.5 q0 -59 23.5 -85 q23.5 -26 72.5 -26 q19 0 31 3 q3 -9 3 -16 q0 -25 -45 -25 q-41 0 -75.5 22.5 q-34.5 22.5 -54 59.5 q-19.5 37 -19.5 79 q0 32 10.5 74 q10.5 42 29.5 104 q18 60 27.5 98 q9.5 38 9.5 66 q0 75 -77 75 l-57 -2 q-27 0 -27 33 q0 12 4 21 q15 -4 49 -4 q30 0 43 4 q13 4 26 16 q32 28 50.5 72.5 q18.5 44.5 39.5 120.5 q15 53 27 89.5 q12 36.5 29 70.5 q20 38 59.5 55.5 q39.5 17.5 86.5 17.5 Z" /><glyph glyph-name="braceright" unicode="}" d="M413 424 q5 -5 5 -17 q0 -29 -23 -31 q-26 -2 -42.5 -8 q-16.5 -6 -34.5 -28 q-25 -29 -38.5 -77 q-13.5 -48 -28.5 -129 q-12 -62 -21.5 -100 q-9.5 -38 -23.5 -66 q-17 -33 -49.5 -68 q-32.5 -35 -72 -58.5 q-39.5 -23.5 -74.5 -23.5 q-39 0 -42 32 q57 5 89 15 q32 10 51.5 30.5 q19.5 20.5 35.5 59.5 q14 34 23.5 69.5 q9.5 35.5 25.5 102.5 q16 74 30 120.5 q14 46.5 38 84.5 q24 38 60 55 q-32 17 -50.5 47.5 q-18.5 30.5 -18.5 70.5 q0 25 6 49 q6 24 20 65 q14 42 21.5 70.5 q7.5 28.5 7.5 58.5 q0 47 -20.5 73 q-20.5 26 -57.5 26 q-31 0 -39 -2 q-2 34 33 34 q31 0 63 -24 q32 -24 53.5 -62 q21.5 -38 21.5 -77 q0 -28 -8.5 -59.5 q-8.5 -31.5 -24.5 -79.5 q-13 -40 -20 -66 q-7 -26 -7 -46 q0 -26 13 -36 q13 -10 35 -10 q17 0 39 3 l25 2 Z" /><glyph glyph-name="bracketleft" unicode="[" d="M516 837 q4 -10 4 -22 q0 -18 -16 -18 l-170 1 l-27 -124 q-58 -264 -92.5 -432.5 q-34.5 -168.5 -60.5 -329.5 q82 2 218 2 l1 -22 q0 -22 -14 -22 l-277 0 q0 14 2 26 q2 12 6 28 l6 23 q34 141 88 393.5 q54 252.5 96 459.5 q4 20 4 37 q34 -4 118 -4 q26 0 114 4 Z" /><glyph glyph-name="bracketright" unicode="]" d="M518 837 q0 -14 -2 -26 q-2 -12 -6 -28 l-6 -23 q-34 -141 -88 -393.5 q-54 -252.5 -96 -459.5 q-4 -20 -4 -37 q-34 4 -118 4 q-26 0 -114 -4 q-4 10 -4 22 q0 18 16 18 l170 -1 l27 124 q58 264 92.5 432.5 q34.5 168.5 60.5 329.5 q-82 -2 -218 -2 l-1 22 q0 22 14 22 l277 0 Z" /><glyph glyph-name="uni207E" unicode="&#x207e;" d="M124 745 q17 0 28.5 -10.5 q11.5 -10.5 25.5 -33.5 q35 -57 35 -166 q0 -80 -20.5 -141.5 q-20.5 -61.5 -63.5 -112.5 q-21 -25 -37.5 -35.5 q-16.5 -10.5 -32.5 -10.5 q-13 0 -27 10 q64 58 97 128 q33 70 33 165 q0 64 -15.5 111 q-15.5 47 -46.5 86 q10 10 24 10 Z" /><glyph glyph-name="hyphen" unicode="-" d="M75 239 q42 0 74 -1 q100 -2 165 -2 q51 0 71 1 l-11 -45 q-23 2 -91 2 l-136 -1 q-62 0 -80 -1 l8 47 Z" /><glyph glyph-name="uni00AD" unicode="­" d="M45 239 q41 0 73 -1 q94 -2 158 -2 q49 0 69 1 l-11 -45 q-23 2 -88 2 l-129 -1 q-62 0 -80 -1 l8 47 Z" /><glyph glyph-name="endash" unicode="&#x2013;" d="M45 239 q49 0 97 -1 q192 -2 341 -2 q82 0 102 1 l-11 -45 q-23 2 -172 2 l-285 -1 q-62 0 -80 -1 l8 47 Z" /><glyph glyph-name="emdash" unicode="&#x2014;" d="M75 239 l116 -1 q132 0 292 -1 q160 -1 307 -1 q125 0 145 1 l-11 -45 q-23 2 -285 2 l-492 -1 q-62 0 -80 -1 l8 47 Z" /><glyph glyph-name="figuredash" unicode="&#x2012;" d="M52 279 q38 0 69 -1 q112 -2 216 -2 q75 0 111 1 l-11 -45 q-86 2 -194 2 q-155 0 -199 -2 l8 47 Z" /><glyph glyph-name="uni2015" unicode="&#x2015;" d="M52 279 l106 -1 q121 0 279 -1 q158 -1 319 -1 q140 0 176 1 l-11 -45 q-86 2 -400 2 q-433 0 -477 -2 l8 47 Z" /><glyph glyph-name="uni2010" unicode="&#x2010;" d="M75 239 q44 0 82 -1 q128 -2 218 -2 q60 0 80 1 l-11 -45 q-23 2 -116 2 l-181 -1 q-62 0 -80 -1 l8 47 Z" /><glyph glyph-name="underscore" unicode="_" d="M24 0 l328 -1 q123 0 151 1 l-8 -45 q-32 2 -89 2 q-63 0 -189 -2 l-122 -1 q-62 0 -80 -1 l9 47 Z" /><glyph glyph-name="quotesinglbase" unicode="&#x201a;" d="M108 -141 q-15 0 -33 16 l18 21 q51 59 77 100 q26 41 26 84 q0 32 -14 50.5 q-14 18.5 -34 31.5 q-9 5 -9 9 q0 7 11 27 q11 20 19 20 q8 0 24.5 -13.5 q16.5 -13.5 30 -39 q13.5 -25.5 13.5 -61.5 q0 -51 -28.5 -109.5 q-28.5 -58.5 -73.5 -115.5 q-8 -11 -14 -15.5 q-6 -4.5 -13 -4.5 Z" /><glyph glyph-name="quotedblbase" unicode="&#x201e;" d="M108 -141 q-15 0 -33 16 l18 21 q51 59 77 100 q26 41 26 84 q0 32 -14 50.5 q-14 18.5 -34 31.5 q-9 5 -9 9 q0 7 11 27 q11 20 19 20 q8 0 24.5 -13.5 q16.5 -13.5 30 -39 q13.5 -25.5 13.5 -61.5 q0 -51 -28.5 -109.5 q-28.5 -58.5 -73.5 -115.5 q-8 -11 -14 -15.5 q-6 -4.5 -13 -4.5 ZM274 -141 q-15 0 -33 16 q44 57 73 108 q29 51 29 97 q0 32 -14 50 q-14 18 -35 32 q-9 5 -9 9 q0 7 11.5 27 q11.5 20 18.5 20 q8 0 24.5 -13 q16.5 -13 30 -39 q13.5 -26 13.5 -65 q0 -52 -23 -106 q-23 -54 -59 -116 q-11 -20 -27 -20 Z" /><glyph glyph-name="quotedblleft" unicode="&#x201c;" d="M206 764 q15 0 33 -16 q-44 -57 -73 -108 q-29 -51 -29 -97 q0 -32 14 -50 q14 -18 35 -32 q9 -5 9 -9 q0 -7 -11.5 -27 q-11.5 -20 -18.5 -20 q-8 0 -24.5 13 q-16.5 13 -30 39 q-13.5 26 -13.5 65 q0 52 23 106 q23 54 59 116 q11 20 27 20 ZM372 764 q15 0 33 -16 l-18 -21 q-51 -59 -77 -100 q-26 -41 -26 -84 q0 -32 14 -50.5 q14 -18.5 34 -31.5 q9 -5 9 -9 q0 -7 -11 -27 q-11 -20 -19 -20 q-8 0 -24.5 13.5 q-16.5 13.5 -30 39 q-13.5 25.5 -13.5 61.5 q0 51 28.5 109.5 q28.5 58.5 73.5 115.5 q8 11 14 15.5 q6 4.5 13 4.5 Z" /><glyph glyph-name="quoteright" unicode="&#x2019;" d="M296 765 q15 0 33 -16 l-18 -21 q-51 -59 -77 -100 q-26 -41 -26 -84 q0 -32 14 -50.5 q14 -18.5 34 -31.5 q9 -5 9 -9 q0 -7 -11 -27 q-11 -20 -19 -20 q-8 0 -24.5 13.5 q-16.5 13.5 -30 39 q-13.5 25.5 -13.5 61.5 q0 51 28.5 109.5 q28.5 58.5 73.5 115.5 q8 11 14 15.5 q6 4.5 13 4.5 Z" /><glyph glyph-name="guillemotleft" unicode="«" d="M188 259 q78 -114 141 -192 q7 -9 7 -13 q0 -3 -3 -4.5 q-3 -1.5 -8 -2.5 q-33 -9 -43 -14 q-7 0 -11 10 q-15 28 -82 125 q-12 19 -36 54.5 q-24 35.5 -24 38.5 q1 7 6.5 12 q5.5 5 7.5 7 l193 187 q5 5 8 5 q4 0 19 -6.5 q15 -6.5 25 -13.5 q0 -5 -12 -16 q-92 -82 -121.5 -110 q-29.5 -28 -66.5 -67 ZM502 462 q4 0 19 -6.5 q15 -6.5 25 -13.5 q0 -4 -12 -16 q-121 -103 -191 -168 q62 -89 144 -191 q7 -9 7 -13 q0 -3 -3 -4.5 q-3 -1.5 -8 -2.5 q-32 -9 -43 -14 q-5 0 -7.5 4.5 q-2.5 4.5 -3.5 5.5 q-22 38 -94 141 q-51 73 -51 77 q1 8 14 19 q63 53 103.5 90 q40.5 37 92.5 87 q5 5 8 5 Z" /><glyph glyph-name="guillemotright" unicode="»" d="M374 244 q-1 -8 -14 -19 q-63 -53 -103.5 -90 q-40.5 -37 -92.5 -87 q-5 -5 -8 -5 q-4 0 -19 6.5 q-15 6.5 -25 13.5 q0 4 12 16 q121 103 191 168 q-62 89 -144 191 q-7 9 -7 13 q0 3 3 4.5 q3 1.5 8 2.5 q32 9 43 14 q5 0 7.5 -4.5 q2.5 -4.5 3.5 -5.5 q22 -38 94 -141 q51 -73 51 -77 ZM387 462 q15 -28 82 -125 q12 -19 36 -54.5 q24 -35.5 24 -38.5 q-1 -7 -6.5 -12 q-5.5 -5 -7.5 -7 l-193 -187 q-5 -5 -8 -5 q-4 0 -19 6.5 q-15 6.5 -25 13.5 q0 6 12 16 q92 82 121.5 110 q29.5 28 66.5 67 q-78 114 -141 192 q-7 9 -7 13 q0 3 3 4.5 q3 1.5 8 2.5 q33 9 43 14 q7 0 11 -10 Z" /><glyph glyph-name="guilsinglleft" unicode="&#x2039;" d="M344 472 q6 0 34 -20 q0 -4 -5.5 -9.5 q-5.5 -5.5 -6.5 -6.5 q-97 -94 -124 -122 q-27 -28 -34 -35 q-5 -6 -20 -21 q27 -39 68 -95.5 q41 -56.5 73 -95.5 q7 -9 7 -13 q0 -3 -3 -4.5 q-3 -1.5 -8 -2.5 q-33 -9 -43 -14 q-5 0 -7.5 4 q-2.5 4 -3.5 6 q-25 38 -66 97 q-74 108 -75 114 q1 7 6.5 12 q5.5 5 7.5 7 l192 194 q5 5 8 5 Z" /><glyph glyph-name="guilsinglright" unicode="&#x203a;" d="M237 442 q25 -38 66 -97 q74 -108 75 -114 q-1 -7 -6.5 -12 q-5.5 -5 -7.5 -7 l-192 -194 q-5 -5 -8 -5 q-6 0 -34 20 q0 4 5.5 9.5 q5.5 5.5 6.5 6.5 q97 94 124 122 q27 28 34 35 q5 6 20 21 q-27 39 -68 95.5 q-41 56.5 -73 95.5 q-7 9 -7 13 q0 3 3 4.5 q3 1.5 8 2.5 q33 9 43 14 q5 0 7.5 -4 q2.5 -4 3.5 -6 Z" /><glyph glyph-name="quotedbl" unicode="&quot;" d="M167 476 q-1 -4 -9 -4 q-8 0 -15 4.5 q-7 4.5 -7 11.5 q0 4 3 8 q33 49 76 119 q79 126 120 182 q12 17 28 17 q11 0 21 -7 q10 -7 10 -17 q0 -6 -6 -14 q-91 -114 -127.5 -163.5 q-36.5 -49.5 -93.5 -136.5 ZM303 470 q-4 -4 -11 -4 q-8 0 -14 6 q-6 6 -2 14 l85 134 q52 86 103 165 q9 15 28 15 q12 0 22.5 -6 q10.5 -6 10.5 -15 q0 -6 -4 -11 l-22 -28 q-54 -71 -100 -133.5 q-46 -62.5 -96 -136.5 Z" /><glyph glyph-name="quotesingle" unicode="&#39;" d="M167 459 q-5 -7 -14 -7 q-6 0 -11 3.5 q-5 3.5 -5 9.5 q0 5 2 8 q149 285 165 308 q11 15 25 15 q13 0 28 -8 q15 -8 14 -17 l-92 -140 l-112 -172 Z" /><glyph glyph-name="uni0E5A" unicode="&#xe5a;" d="M396 453 q19 0 27 -3 q-27 -215 -73.5 -358 q-46.5 -143 -144 -228.5 q-97.5 -85.5 -263.5 -85.5 q-75 0 -160 19 q199 6 317.5 63.5 q118.5 57.5 181.5 178.5 q63 121 89 328 q-21 -24 -57 -32 q-40 -236 -178 -363 q-138 -127 -382 -127 q-80 0 -177 13 q216 11 360.5 60 q144.5 49 230 152.5 q85.5 103.5 107.5 276.5 q-27 -52 -69 -78.5 q-42 -26.5 -89 -26.5 q-49 0 -72 26 q-23 26 -23 64 q0 34 17 65.5 q17 31.5 45 51 q28 19.5 58 19.5 q39 0 39 -37 q0 -22 -12 -45 q-12 -23 -31.5 -38.5 q-19.5 -15.5 -40.5 -15.5 q-8 0 -16 4 q61 39 61 85 q0 13 -9 13 q-12 0 -28.5 -12.5 q-16.5 -12.5 -28.5 -35.5 q-12 -23 -12 -53 q0 -27 12.5 -41 q12.5 -14 42.5 -14 q59 0 101.5 51 q42.5 51 62.5 123 q6 1 17 1 q19 0 27 -3 q-2 -28 -8 -82 q50 16 61 84 q6 1 17 1 Z" /><glyph glyph-name="uni0E4F" unicode="&#xe4f;" d="M267 35 q-59 0 -105.5 25 q-46.5 25 -72 70 q-25.5 45 -25.5 103 q0 66 32.5 120.5 q32.5 54.5 88 85.5 q55.5 31 123.5 31 q62 0 107.5 -25.5 q45.5 -25.5 70 -71 q24.5 -45.5 24.5 -102.5 q0 -67 -32.5 -121 q-32.5 -54 -88 -84.5 q-55.5 -30.5 -122.5 -30.5 ZM270 81 q53 0 96 23.5 q43 23.5 68 66.5 q25 43 25 97 q0 72 -42 114 q-42 42 -113 42 q-53 0 -96 -24 q-43 -24 -67 -67 q-24 -43 -24 -97 q0 -70 40.5 -112.5 q40.5 -42.5 112.5 -42.5 ZM282 150 q-43 0 -70 26.5 q-27 26.5 -27 68.5 q0 47 32.5 80 q32.5 33 78.5 33 q41 0 68.5 -26.5 q27.5 -26.5 27.5 -71.5 q0 -48 -31.5 -79 q-31.5 -31 -78.5 -31 ZM285 193 q30 0 46.5 19.5 q16.5 19.5 16.5 47.5 q0 27 -14.5 40.5 q-14.5 13.5 -38.5 13.5 q-30 0 -47.5 -19.5 q-17.5 -19.5 -17.5 -47.5 q0 -26 15 -40 q15 -14 40 -14 Z" /><glyph glyph-name="uni0E5B" unicode="&#xe5b;" d="M228 39 q-64 0 -107 41.5 q-43 41.5 -43 123.5 q0 68 30 134.5 q30 66.5 82.5 108.5 q52.5 42 114.5 42 q51 0 76.5 -28.5 q25.5 -28.5 25.5 -77.5 q0 -46 -21.5 -96 q-21.5 -50 -56.5 -83.5 q-35 -33.5 -74 -33.5 q-46 0 -46 48 q0 29 15.5 54 q15.5 25 40 40.5 q24.5 15.5 49.5 15.5 q14 0 24 -5 q-36 -17 -59.5 -42.5 q-23.5 -25.5 -23.5 -52.5 q0 -15 13 -15 q22 0 43.5 28 q21.5 28 35 68 q13.5 40 13.5 72 q0 63 -60 63 q-50 0 -88.5 -37.5 q-38.5 -37.5 -60 -93.5 q-21.5 -56 -21.5 -109 q0 -64 30 -91 q30 -27 73 -27 q48 0 84.5 29 q36.5 29 61 68.5 q24.5 39.5 55.5 101.5 q28 57 46 84 q18 27 40 27 q25 0 33.5 -33.5 q8.5 -33.5 11.5 -93.5 q2 -38 5 -56 q3 -18 12 -18 q8 0 16 17 q8 17 19 51 q16 51 32 81.5 q16 30.5 39 30.5 q20 0 29.5 -22 q9.5 -22 16.5 -60 q5 -23 8.5 -33.5 q3.5 -10.5 9.5 -10.5 q5 0 11 9 q6 9 17 30 q14 29 26 45.5 q12 16.5 25 16.5 q11 0 19.5 -12 q8.5 -12 17.5 -33 q13 -32 22 -32 q6 0 21 17 q13 15 26 24.5 q13 9.5 30 9.5 q11 0 49 -9 l39 -9 l-13 -17 q-23 -1 -39.5 -0.5 q-16.5 0.5 -19.5 0.5 q-19 0 -32 -9 q-13 -9 -28 -25 q-13 -13 -20.5 -18.5 q-7.5 -5.5 -17.5 -5.5 q-15 0 -24 12.5 q-9 12.5 -19 33.5 q-9 22 -15 22 q-7 0 -21 -32 q-16 -32 -28.5 -49 q-12.5 -17 -30.5 -17 q-19 0 -27.5 20.5 q-8.5 20.5 -16.5 58.5 q-4 22 -7.5 33 q-3.5 11 -9.5 11 q-7 0 -12.5 -13 q-5.5 -13 -15.5 -44 q-19 -57 -36.5 -89 q-17.5 -32 -45.5 -32 q-30 0 -39 34.5 q-9 34.5 -11 93.5 q-2 34 -4 47.5 q-2 13.5 -9 13.5 q-7 0 -15.5 -14.5 q-8.5 -14.5 -22.5 -47.5 q-32 -66 -60.5 -113 q-28.5 -47 -76 -84 q-47.5 -37 -110.5 -37 Z" /><glyph glyph-name="uni0E46" unicode="&#xe46;" d="M267 476 q30 0 45.5 -27.5 q15.5 -27.5 15.5 -87.5 q0 -178 -61.5 -340.5 q-61.5 -162.5 -175.5 -263.5 q-114 -101 -264 -101 q-92 0 -169 51 q50 -5 90 -5 q171 0 291 85 q120 85 181.5 234 q61.5 149 61.5 340 q0 37 -6 54.5 q-6 17.5 -21 17.5 q-18 0 -35.5 -22 q-17.5 -22 -28.5 -55 l-4 0 q-5 36 -18.5 57 q-13.5 21 -31.5 21 q-26 0 -42 -37.5 q-16 -37.5 -16 -77.5 q0 -21 5.5 -34.5 q5.5 -13.5 15.5 -13.5 q9 0 14 11 q5 11 5 29 q0 36 -18 64 q26 -6 38.5 -26 q12.5 -20 12.5 -48 q0 -31 -17.5 -51 q-17.5 -20 -36.5 -20 q-21 0 -38.5 27 q-17.5 27 -17.5 69 q0 35 13 70 q13 35 36 57.5 q23 22.5 53 22.5 q41 0 53 -51 q10 23 28.5 37 q18.5 14 41.5 14 Z" /><glyph glyph-name="uni0E2F" unicode="&#xe2f;" d="M376 450 q-56 -261 -108.5 -421 q-52.5 -160 -149.5 -267 q-97 -107 -253 -107 q-50 0 -89.5 12.5 q-39.5 12.5 -80.5 39.5 q35 -4 75 -4 q175 0 280 80 q105 80 161 216.5 q56 136.5 104 357.5 q-28 -55 -71.5 -85 q-43.5 -30 -94.5 -30 q-42 0 -64.5 20.5 q-22.5 20.5 -22.5 59.5 q0 37 19 71 q19 34 49 54.5 q30 20.5 61 20.5 q37 0 37 -36 q0 -24 -14 -47 q-14 -23 -35.5 -37.5 q-21.5 -14.5 -43.5 -14.5 q-9 0 -15 3 q29 17 48.5 42.5 q19.5 25.5 19.5 45.5 q0 10 -9 10 q-18 0 -35.5 -18.5 q-17.5 -18.5 -29 -44.5 q-11.5 -26 -11.5 -48 q0 -45 55 -45 q105 0 173 174 l45 -2 Z" /><glyph glyph-name="uni2007" unicode="&#x2007;" d="" /><glyph glyph-name="uni00A0" unicode=" " d="" /><glyph glyph-name="uni0E3F" unicode="&#xe3f;" d="M436 373 q67 -12 119.5 -53 q52.5 -41 52.5 -114 q0 -52 -30.5 -103.5 q-30.5 -51.5 -93 -85.5 q-62.5 -34 -154.5 -34 q-13 0 -41 2 l-55 -238 q-17 -1 -44 -8 l59 251 q-39 7 -71.5 20.5 q-32.5 13.5 -54.5 29.5 q-6 -23 -15.5 -33 q-9.5 -10 -29.5 -10 q-6 0 -11.5 2 q-5.5 2 -15.5 6 q12 21 19 38 q7 17 13 43 q14 56 74 336 q12 53 25 116.5 q13 63.5 26 119.5 q-4 7 -7.5 20 q-3.5 13 -3.5 22 q20 3 63 5 q43 2 79 2 q44 0 76 -4 l43 193 q8 -3 21.5 -5 q13.5 -2 24.5 -2 q-14 -56 -46 -192 q148 -29 148 -134 q0 -58 -43.5 -110.5 q-43.5 -52.5 -126.5 -79.5 ZM133 87 q55 -44 125 -57 l74 313 q-61 -2 -79 -4 q0 20 -10 52 q19 -2 99 -4 l64 279 q-36 2 -56 2 q-66 0 -99 -4 q-20 -99 -30 -139 q-51 -250 -88 -438 ZM544 552 q0 85 -95 107 q-38 -155 -65 -271 q42 5 78.5 27 q36.5 22 59 58 q22.5 36 22.5 79 ZM319 24 q68 0 119.5 24.5 q51.5 24.5 79 66.5 q27.5 42 27.5 95 q0 65 -43 99 q-43 34 -121 34 l-7 0 l-75 -318 q6 -1 20 -1 Z" /><glyph glyph-name="uni20B5" unicode="&#x20b5;" d="M686 295 q27 0 27 -37 q0 -52 -52 -117.5 q-52 -65.5 -137.5 -111.5 q-85.5 -46 -180.5 -46 l-4 0 l-55 -236 q-17 -1 -44 -8 l58 247 q-98 13 -160.5 81 q-62.5 68 -62.5 188 q0 109 52 210.5 q52 101.5 141.5 169 q89.5 67.5 198.5 79.5 q2 8 25 112 q6 24 16 70 q8 -3 21.5 -5 q13.5 -2 24.5 -2 l-42 -173 q63 -1 118 -20 q55 -19 76 -52 q-10 -26 -17.5 -65.5 q-7.5 -39.5 -8.5 -74.5 l-25 -4 q0 15 -1.5 37 q-1.5 22 -4.5 40 q-7 47 -39.5 72 q-32.5 25 -98.5 25 l-9 0 l-152 -643 l2 0 q105 0 196 68.5 q91 68.5 138 195.5 ZM133 257 q0 -99 49 -155 q49 -56 128 -68 l5 21 q111 476 142 615 q-93 -15 -167.5 -79 q-74.5 -64 -115.5 -154 q-41 -90 -41 -180 Z" /><glyph glyph-name="cent" unicode="¢" d="M454 444 q-24 95 -108 101 q-36 -156 -94 -420 l7 0 q65 0 106.5 35.5 q41.5 35.5 69.5 106.5 q33 0 33 -35 q0 -39 -23.5 -74 q-23.5 -35 -72 -57 q-48.5 -22 -119.5 -22 l-10 0 l-15 -70 l-34 -162 q-17 -1 -44 -8 l52 246 q-61 16 -96.5 66 q-35.5 50 -35.5 118 q0 141 63 228 q63 87 180 96 q26 116 45 203 q8 -3 21.5 -5 q13.5 -2 24.5 -2 l-35 -145 l-12 -51 q51 -6 93 -34 q42 -28 51 -72 q0 -10 -9.5 -19.5 q-9.5 -9.5 -21 -16.5 q-11.5 -7 -16.5 -7 ZM132 274 q0 -54 21 -90.5 q21 -36.5 59 -50.5 l90 410 q-50 -9 -88.5 -47.5 q-38.5 -38.5 -60 -97 q-21.5 -58.5 -21.5 -124.5 Z" /><glyph glyph-name="colonmonetary" unicode="&#x20a1;" d="M454 444 q-14 58 -52 83 q-49 -214 -88 -394 q41 12 70 45.5 q29 33.5 51 88.5 q33 0 33 -35 q0 -53 -42 -96 q-42 -43 -123 -54 l-49 -235 q-17 -1 -44 -8 l51 240 l-8 0 q-26 0 -49 6 l-34 -161 q-11 -57 -16 -77 q-17 -1 -44 -8 l55 260 q-45 23 -70 68.5 q-25 45.5 -25 101.5 q0 127 52 211.5 q52 84.5 150 106.5 l46 209 q8 -3 21.5 -5 q13.5 -2 24.5 -2 l-15 -64 l-31 -132 q6 1 20 1 q17 0 35 -3 l45 205 q8 -3 21.5 -5 q13.5 -2 24.5 -2 l-50 -210 q34 -14 57.5 -37.5 q23.5 -23.5 29.5 -54.5 q0 -10 -9.5 -19.5 q-9.5 -9.5 -21 -16.5 q-11.5 -7 -16.5 -7 ZM271 125 q39 183 91 418 q-13 3 -30 3 q-10 0 -26 -2 q-28 -119 -85 -378 q-4 -22 -7 -34 q20 -7 45 -7 l12 0 ZM132 274 q0 -40 11.5 -70.5 q11.5 -30.5 33.5 -49.5 l82 374 q-58 -29 -92.5 -99 q-34.5 -70 -34.5 -155 Z" /><glyph glyph-name="currency" unicode="¤" d="M27 102 l87 73 q-31 44 -31 107 q0 27 4 48 q7 42 27.5 82 q20.5 40 52.5 72 l-59 73 l44 39 l63 -75 q76 55 161 55 q42 0 79.5 -14 q37.5 -14 64.5 -41 l88 75 l32 -39 l-88 -73 q31 -40 31 -106 q0 -16 -4 -48 q-6 -42 -26.5 -82.5 q-20.5 -40.5 -53.5 -72.5 l60 -73 l-44 -39 l-63 75 q-76 -55 -161 -55 q-42 0 -79 14 q-37 14 -65 41 l-88 -75 l-32 39 ZM299 132 q52 0 100.5 27 q48.5 27 82.5 72.5 q34 45.5 44 98.5 q3 18 3 34 q0 46 -20.5 83.5 q-20.5 37.5 -57.5 59 q-37 21.5 -83 21.5 q-53 0 -102 -27 q-49 -27 -83 -72.5 q-34 -45.5 -42 -98.5 q-3 -18 -3 -34 q0 -46 20.5 -83.5 q20.5 -37.5 57 -59 q36.5 -21.5 83.5 -21.5 Z" /><glyph glyph-name="dollar" unicode="$" d="M429 701 q40 -8 70 -25 q30 -17 37 -34 q0 -34 -11 -87 q-8 -6 -19 -6 q0 41 -21.5 68 q-21.5 27 -67.5 36 l-64 -271 l8 -7 q46 -37 70 -62 q24 -25 36.5 -54 q12.5 -29 12.5 -69 q0 -65 -31.5 -110 q-31.5 -45 -81.5 -67 q-50 -22 -107 -25 l-56 -241 q-17 -1 -44 -8 l59 250 q-45 4 -85 17.5 q-40 13.5 -55 28.5 q3 37 5 45 l4 65 q0 5 7.5 9 q7.5 4 18.5 4 q0 -54 29.5 -87 q29.5 -33 85.5 -38 l74 316 q-46 37 -70.5 62 q-24.5 25 -39.5 54.5 q-15 29.5 -15 68.5 q0 48 24.5 87.5 q24.5 39.5 69 62.5 q44.5 23 101.5 23 l13 0 l42 189 q8 -3 21.5 -5 q13.5 -2 24.5 -2 l-45 -188 ZM238 545 q0 -39 19.5 -68.5 q19.5 -29.5 60.5 -65.5 l56 245 q-66 -1 -101 -30 q-35 -29 -35 -81 ZM412 174 q0 41 -16.5 74.5 q-16.5 33.5 -57.5 70.5 l-67 -286 q63 5 102 41 q39 36 39 100 Z" /><glyph glyph-name="dong" unicode="&#x20ab;" d="M790 1058 q58 0 95.5 -20.5 q37.5 -20.5 46.5 -53.5 l0 -9 q-57 28 -116 28 q-102 0 -183.5 -79.5 q-81.5 -79.5 -144.5 -248.5 q53 0 72 1 l-8 -45 q-38 2 -79 2 q-14 -39 -31 -99 q-29 -103 -60 -244.5 q-31 -141.5 -31 -195.5 q0 -25 9 -38.5 q9 -13.5 32 -13.5 q28 0 63 19.5 q35 19.5 69.5 58.5 q34.5 39 60.5 94 q14 0 14 -24 q0 -37 -34 -83 q-34 -46 -84 -79 q-50 -33 -96 -33 q-32 0 -52 17 q-20 17 -28 48 q-23 -29 -56.5 -48.5 q-33.5 -19.5 -63.5 -19.5 q-27 0 -54 17 q-27 17 -44 42.5 q-17 25.5 -17 49.5 q25 84 52 215 q4 22 28.5 47 q24.5 25 59.5 41.5 q35 16.5 68 16.5 q38 0 78 -22 q19 77 39 147 q14 47 27 87 l-149 0 q-53 0 -71 -1 l8 47 q34 0 61 -1 q92 -2 165 -2 q70 199 154 290.5 q84 91.5 200 91.5 ZM314 192 q12 68 33 164 q-34 22 -68 22 q-35 0 -67 -20.5 q-32 -20.5 -45 -57.5 q-7 -20 -23 -102 q-10 -50 -21 -94 q0 -23 22 -47 q22 -24 47 -24 q20 0 43.5 15.5 q23.5 15.5 44 45 q20.5 29.5 28.5 69.5 l6 29 ZM133 -95 q180 -3 201 -3 q48 0 65 1 l-8 -45 q-28 2 -127 2 l-152 0 q-53 0 -71 -1 l8 47 l84 -1 Z" /><glyph glyph-name="Euro" unicode="&#x20ac;" d="M493 718 q69 0 136 -25 q67 -25 100 -79 q-19 -27 -34 -62 l-6 0 q-29 63 -81 90.5 q-52 27.5 -124 27.5 q-101 0 -171.5 -61 q-70.5 -61 -103.5 -164 q148 -2 222 -2 q59 0 77 1 l-8 -45 q-42 3 -150 3 l-152 -1 q-7 -28 -10 -65 q150 -2 224 -2 q59 0 76 1 l-8 -45 q-41 3 -149 3 l-146 -1 l0 -16 q0 -111 56 -172.5 q56 -61.5 160 -61.5 q80 0 138 35 q58 35 113 102 l9 -5 q-1 -13 -1 -31 q0 -18 1 -31 q-44 -51 -114.5 -84.5 q-70.5 -33.5 -154.5 -33.5 q-84 0 -145.5 36 q-61.5 36 -94 100.5 q-32.5 64.5 -32.5 149.5 l0 12 q-88 0 -101 -1 l8 47 q49 0 96 -1 q3 36 10 64 q-83 0 -95 -1 l8 47 l99 -1 q39 124 130 198 q91 74 218 74 Z" /><glyph glyph-name="florin" unicode="&#x192;" d="M550 794 q27 0 45 -6 q18 -6 33 -24 q-13 -20 -15 -36 l-7 -3 q-10 10 -32.5 17.5 q-22.5 7.5 -54.5 7.5 q-44 0 -68.5 -18.5 q-24.5 -18.5 -40.5 -60 q-16 -41.5 -35 -125.5 l-7 -32 q-13 -65 -29 -137 q18 0 27 -1 q37 -1 83.5 -2 q46.5 -1 53.5 0 l-7 -37 q-77 5 -165 5 q-37 -160 -62 -238 q-100 -315 -272 -315 q-40 0 -72 14.5 q-32 14.5 -32 41.5 q0 17 12.5 28 q12.5 11 28.5 15 q16 -27 37 -41 q21 -14 55 -14 q67 0 110.5 61 q43.5 61 75.5 196 l29 125 l30 126 q-76 -1 -167 -5 l8 47 l168 -4 q25 95 50 178 q28 93 51 140.5 q23 47.5 62 72 q39 24.5 107 24.5 Z" /><glyph glyph-name="uni20B2" unicode="&#x20b2;" d="M700 347 q3 -8 4 -18.5 q1 -10.5 0 -17.5 q-26 -7 -33 -14.5 q-7 -7.5 -11 -26.5 q-18 -82 -44 -141 q-26 -59 -89.5 -104.5 q-63.5 -45.5 -175.5 -45.5 q-15 0 -23 1 l-54 -233 q-17 -1 -44 -8 l58 245 q-113 17 -169 94.5 q-56 77.5 -56 197.5 q0 117 49.5 214.5 q49.5 97.5 139 156.5 q89.5 59 205.5 65 l23 104 l18 80 q8 -3 21.5 -5 q13.5 -2 24.5 -2 l-43 -176 q60 -3 112 -19.5 q52 -16.5 83 -42.5 q1 -28 -2 -70 q-3 -42 -8 -72 q-14 1 -35 -5 q0 76 -37.5 117.5 q-37.5 41.5 -123.5 45.5 l-80 -340 l43 0 q86 0 148 3.5 q62 3.5 99 16.5 ZM123 274 q0 -102 44.5 -168 q44.5 -66 130.5 -79 l10 44 q87 371 138 595 q-103 -8 -176 -66 q-73 -58 -110 -145 q-37 -87 -37 -181 ZM339 24 q72 0 132 32 q60 32 95 85.5 q35 53.5 35 115.5 q0 24 -6.5 30.5 q-6.5 6.5 -24.5 6.5 q-27 0 -74 -2 q-47 -2 -96 -5 l-61 -263 Z" /><glyph glyph-name="lira" unicode="&#x20a4;" d="M564 112 q22 0 33.5 -8.5 q11.5 -8.5 11.5 -27.5 q0 -17 -18 -36 q-18 -19 -48.5 -32 q-30.5 -13 -64.5 -13 q-49 0 -84.5 16.5 q-35.5 16.5 -78.5 46.5 q-35 24 -57 35 q-22 11 -48 11 q-25 0 -48.5 -14 q-23.5 -14 -59.5 -43 q-29 -24 -47 -35.5 q-18 -11.5 -35 -11.5 q-4 32 -19 53 q4 7 4 14 q62 5 94.5 23 q32.5 18 55 66.5 q22.5 48.5 46.5 152.5 l-54 0 q-52 0 -70 -1 l8 47 q28 0 49 -1 l76 -2 q4 20 7 30 q2 14 4 21 l3 15 l-50 0 q-52 0 -70 -1 l8 47 l123 -3 q32 116 94.5 185.5 q62.5 69.5 171.5 69.5 q44 0 71 -10 q27 -10 27 -29 q0 -8 -7 -24 q-7 -16 -15 -26 q-7 15 -39.5 27 q-32.5 12 -78.5 12 q-44 0 -73.5 -18.5 q-29.5 -18.5 -51 -63 q-21.5 -44.5 -39.5 -125.5 q82 -2 116 -2 l43 1 l-11 -45 q-70 4 -157 4 l-5 -25 l-8 -42 q78 -2 111 -2 l43 1 l-11 -45 q-68 4 -153 4 q-17 -67 -38.5 -108 q-21.5 -41 -56.5 -84 q32 19 56 26.5 q24 7.5 50 7.5 q26 0 52.5 -16.5 q26.5 -16.5 63.5 -47.5 q39 -31 61 -44.5 q22 -13.5 43 -13.5 q20 0 37 20.5 q17 20.5 33 63.5 Z" /><glyph glyph-name="uni20BA" unicode="&#x20ba;" d="M564 112 q21 0 33 -8.5 q12 -8.5 12 -24.5 q0 -20 -18 -39.5 q-18 -19.5 -49 -32 q-31 -12.5 -69 -12.5 q-45 0 -80 16 q-35 16 -79 47 q-35 24 -56.5 35 q-21.5 11 -44.5 11 q-28 0 -53 -15 q-25 -15 -60 -44 q-28 -23 -45.5 -34 q-17.5 -11 -34.5 -11 q-4 32 -19 53 q4 7 4 14 q62 6 93.5 21.5 q31.5 15.5 51.5 56 q20 40.5 41 127.5 q-43 -15 -58 -21.5 q-15 -6.5 -17 -7.5 q-13 22 -25 31 l4 4 q10 0 29 5.5 q19 5.5 47 15.5 l29 10 l15 69 q-81 -28 -104 -40 q-13 22 -25 31 l4 4 q10 0 29 5.5 q19 5.5 48 15.5 l52 18 l4 1 q21 88 51.5 153 q30.5 65 86 107.5 q55.5 42.5 142.5 42.5 q42 0 69 -10 q27 -10 27 -28 q0 -9 -7 -25 q-7 -16 -15 -26 q-7 15 -40 27 q-33 12 -77 12 q-54 0 -83.5 -22.5 q-29.5 -22.5 -47.5 -68.5 q-18 -46 -39 -140 q69 20 136 38 q5 -15 15 -29 q-1 -6 -4 -6 q-31 -3 -59.5 -9.5 q-28.5 -6.5 -94.5 -27.5 l-2 -9 l-14 -61 q53 16 164 47 q5 -15 15 -29 q-1 -6 -4 -6 q-34 -3 -67.5 -11 q-33.5 -8 -115.5 -36 q-15 -61 -32.5 -94.5 q-17.5 -33.5 -58.5 -85.5 q58 34 99 34 q31 0 60.5 -17.5 q29.5 -17.5 68.5 -50.5 q33 -27 54.5 -40.5 q21.5 -13.5 41.5 -13.5 q22 0 38.5 20.5 q16.5 20.5 33.5 63.5 Z" /><glyph glyph-name="uni20A6" unicode="&#x20a6;" d="M828 399 q-34 3 -131 3 q-6 -28 -13 -68 l57 0 q59 0 76 1 l-8 -45 q-35 3 -133 3 l-49 -295 q-19 -6 -44 -6 l-69 152 l-68 149 q-77 -1 -221 -1 q-38 -165 -38 -307 l-5 0 q-26 12 -35 17.5 q-9 5.5 -13.5 15 q-4.5 9.5 -4.5 29.5 q0 38 12.5 97 q12.5 59 35.5 148 l-8 0 q-77 0 -93 -0.5 q-16 -0.5 -20 -0.5 l9 47 l124 -1 q14 51 17 64 l-17 0 q-78 0 -94 -0.5 q-16 -0.5 -19 -0.5 l8 47 l134 -1 q30 118 30 159 q0 19 -8 26.5 q-8 7.5 -32 7.5 q-11 0 -37 -2 l-34 -1 q-15 0 -22 4.5 q-7 4.5 -7 19.5 q0 10 5 27 q27 -10 79 -10 q35 0 55.5 4 q20.5 4 47.5 13 q9 0 18 -16 q56 -102 118 -233 l230 -2 q16 74 35 139 q3 10 15.5 51.5 q12.5 41.5 22 53 q9.5 11.5 22.5 11.5 q9 0 20.5 -3.5 q11.5 -3.5 17.5 -7.5 q-51 -74 -88 -244 l54 0 q59 0 76 1 l-8 -45 ZM263 446 l112 -1 q-39 83 -73 147 l-39 -146 ZM482 335 q110 0 156 -1 l14 68 l-201 0 l12 -27 q9 -17 19 -40 ZM426 336 l-30 65 l-145 0 l-16 -64 l191 -1 ZM599 107 q20 126 31 186 l-129 0 l95 -206 l3 20 Z" /><glyph glyph-name="peseta" unicode="&#x20a7;" d="M749 459 l-102 3 q-12 -84 -74 -138 q-62 -54 -170 -54 q-45 0 -78.5 9.5 q-33.5 9.5 -33.5 31.5 q0 5 2 9.5 q2 4.5 4 6.5 q11 -3 43.5 -7 q32.5 -4 58.5 -4 q79 0 128 38 q49 38 59 108 l-327 -1 q-89 -336 -97 -383 q-3 -17 -4.5 -34.5 q-1.5 -17.5 -0.5 -26.5 l4 -25 q-16 -4 -31 -4 q-23 0 -32 8 q-9 8 -9 27 q0 17 4 37 q11 63 105 401 l-2 0 q-80 0 -97.5 -0.5 q-17.5 -0.5 -22.5 -0.5 l8 47 l126 -1 l23 85 q8 30 8 45 q0 9 -4 13 q-4 4 -16 4 l-56 -2 q-17 0 -24.5 6 q-7.5 6 -7.5 19 q0 9 3.5 17.5 q3.5 8.5 5.5 12.5 q55 -12 91 -12 q14 0 40 2 q26 2 42 3 q61 7 104 7 q108 0 169.5 -53.5 q61.5 -53.5 61.5 -149.5 l31 0 q59 0 76 1 l-8 -45 ZM271 506 l318 -3 q-1 87 -51 123 q-50 36 -137 36 q-46 0 -69.5 -10 q-23.5 -10 -30.5 -34 l-30 -112 Z" /><glyph glyph-name="uni20B1" unicode="&#x20b1;" d="M777 505 q-36 3 -127 3 l0 -6 q0 -28 -4 -49 l46 0 q59 0 76 1 l-8 -45 q-36 3 -126 3 q-24 -65 -82 -103.5 q-58 -38.5 -149 -38.5 q-45 0 -78.5 9.5 q-33.5 9.5 -33.5 31.5 q0 5 2 9.5 q2 4.5 4 6.5 q11 -3 43.5 -7 q32.5 -4 58.5 -4 q63 0 107.5 24.5 q44.5 24.5 65.5 71.5 l-326 -1 q-75 -291 -84 -333 q-3 -17 -4.5 -34.5 q-1.5 -17.5 -0.5 -26.5 l4 -25 q-16 -4 -31 -4 q-23 0 -32 8 q-9 8 -9 27 q0 17 4 37 q9 53 91 351 q-85 0 -97 -1 l9 47 l100 -1 l14 51 q-93 0 -106 -1 l9 47 l110 -1 l10 39 q8 30 8 45 q0 9 -4 13 q-4 4 -16 4 l-56 -2 q-17 0 -24.5 6 q-7.5 6 -7.5 19 q0 9 3.5 17.5 q3.5 8.5 5.5 12.5 q55 -12 91 -12 q14 0 40 2 q26 2 42 3 q61 7 104 7 q94 0 153 -41 q59 -41 74 -116 l63 0 q59 0 76 1 l-8 -45 ZM283 552 q188 -2 301 -2 q-25 112 -183 112 q-46 0 -69.5 -10 q-23.5 -10 -30.5 -34 l-18 -66 ZM585 453 q4 20 4 47 l0 8 l-318 -1 l-13 -51 l327 -3 Z" /><glyph glyph-name="uni20BD" unicode="&#x20bd;" d="M209 296 l-17 -90 l125 -1 q49 0 66 1 l-8 -45 q-41 3 -134 3 l-56 0 l-14 -76 q-4 -21 -6 -46.5 q-2 -25.5 -1 -39.5 q-26 -4 -46 -4 q-13 0 -17.5 3.5 q-4.5 3.5 -4.5 16.5 q0 13 5 42 l5 26 q4 25 14 77 l-37 0 q-52 0 -71 -1 l9 47 l108 -2 q4 22 17 88 l-109 0 q4 13 5 25 l6 26 q17 -3 108 -3 q38 187 59 304 q-64 -8 -102 -15 q0 12 -1 20.5 q-1 8.5 -1 13.5 q0 10 7.5 15 q7.5 5 28.5 8 q41 6 98 11.5 q57 5.5 104 5.5 q128 0 192.5 -47.5 q64.5 -47.5 64.5 -145.5 q0 -106 -74 -161 q-74 -55 -210 -56 l-113 0 ZM278 654 q-26 -127 -61 -312 l100 0 q226 0 226 165 q0 150 -197 150 q-32 0 -68 -3 Z" /><glyph glyph-name="uni20B9" unicode="&#x20b9;" d="M558 58 q3 -15 3 -18 q0 -21 -25.5 -34 q-25.5 -13 -78.5 -13 q-122 0 -215 74 q-93 74 -168 224 q-5 10 -5 22 q0 5 4 7 q4 2 16 3 l24 1 q59 2 108 10.5 q49 8.5 95 41.5 q46 33 64 100 l-30 0 l-25 0 q-21 -1 -166 -1 q-52 0 -71 -1 l9 47 q34 0 65 -1 q120 -2 226 -2 q10 138 -187 138 q-65 0 -99 -3 q0 6 0.5 14 q0.5 8 2.5 16 q2 9 8.5 13 q6.5 4 19.5 4 l426 0 q-10 -31 -12 -45 l-172 1 q34 -20 53.5 -55 q19.5 -35 15.5 -84 q74 0 95 1 l-8 -45 l-94 2 q-19 -75 -90 -128 q-71 -53 -207 -62 q55 -122 144 -182.5 q89 -60.5 184 -60.5 q46 0 90 16 Z" /><glyph glyph-name="sterling" unicode="£" d="M544 716 q49 0 77 -10 q28 -10 28 -28 q0 -9 -7 -25 q-7 -16 -15 -26 q-9 16 -41 27.5 q-32 11.5 -87 11.5 q-74 0 -112.5 -25 q-38.5 -25 -58.5 -75 q-20 -50 -43 -155 q73 -3 132 -3 q21 0 31 0.5 q10 0.5 19 0.5 l-11 -45 q-38 3 -180 5 q-17 -77 -28.5 -114.5 q-11.5 -37.5 -28 -66 q-16.5 -28.5 -51.5 -72.5 q58 34 99 34 q31 0 60.5 -17.5 q29.5 -17.5 68.5 -50.5 q33 -27 54.5 -40.5 q21.5 -13.5 41.5 -13.5 q22 0 38.5 20.5 q16.5 20.5 33.5 63.5 q21 0 33 -8.5 q12 -8.5 12 -24.5 q0 -20 -18 -39.5 q-18 -19.5 -49 -32 q-31 -12.5 -69 -12.5 q-45 0 -80 16 q-35 16 -79 47 q-35 24 -56.5 35 q-21.5 11 -44.5 11 q-28 0 -53 -15 q-25 -15 -60 -44 q-28 -23 -45.5 -34 q-17.5 -11 -34.5 -11 q-4 32 -19 53 q4 7 4 14 q72 6 104.5 27.5 q32.5 21.5 52.5 77.5 q20 56 51 197 l-26 0 q-52 0 -70 -1 l8 47 q30 0 98 -3 q21 91 55.5 157 q34.5 66 99 106.5 q64.5 40.5 166.5 40.5 Z" /><glyph glyph-name="yen" unicode="¥" d="M767 758 q15 0 40.5 -9 q25.5 -9 25.5 -15 q0 -4 -6.5 -9.5 q-6.5 -5.5 -7.5 -6.5 q-305 -284 -376 -355 l101 0 q59 0 76 1 l-8 -45 q-41 3 -142 3 l-66 0 q-7 -24 -17 -67 q49 -1 138 -1 q59 0 76 1 l-8 -45 q-40 3 -141 3 q-51 0 -74 -1 q-9 -40 -14 -70 q-8 -46 -8 -64 q0 -20 8.5 -27 q8.5 -7 30.5 -8 q69 -3 77 -5 q6 -1 6 -18 q0 -8 -2 -20 q-94 4 -156 4 q-131 0 -161 -4 q-3 17 -2 25 q2 15 15 15 q55 0 94 4 q21 2 30 11.5 q9 9.5 17 41 q8 31.5 22 115.5 q-30 -1 -105 -1 q-61 0 -76.5 -0.5 q-15.5 -0.5 -21.5 -0.5 l8 47 l202 -2 q6 44 8 66 q-23 -1 -75 -1 q-81 0 -99.5 -0.5 q-18.5 -0.5 -24.5 -0.5 l9 47 l193 -2 q1 16 1 46 q0 29 -1 41 q-9 228 -149 228 q-53 0 -89 -30 q-36 -30 -53 -78 q-11 2 -20 10.5 q-9 8.5 -10 18.5 q23 48 69.5 82 q46.5 34 119.5 34 q95 0 141.5 -59 q46.5 -59 49.5 -150 q2 -64 -3 -135 q173 189 336 376 q8 10 22 10 Z" /><glyph glyph-name="uni2219" unicode="&#x2219;" d="M147 270 q-29 0 -45.5 17 q-16.5 17 -16.5 48 q0 38 24 63 q24 25 61 25 q29 0 45 -16.5 q16 -16.5 16 -47.5 q0 -38 -23.5 -63.5 q-23.5 -25.5 -60.5 -25.5 Z" /><glyph glyph-name="uni2215" unicode="&#x2215;" d="M269 706 l46 0 l-435 -706 l-46 0 l435 706 Z" /><glyph glyph-name="plus" unicode="+" d="M175 24 q23 88 39 181 q-134 0 -182 -3 l7 41 q29 -2 120 -2 q23 -1 64 -1 q17 79 33 180 l44 0 q-17 -73 -27 -125 q-11 -55 -11 -55 q140 0 185 1 l-6 -42 q-62 5 -186 5 q-16 -77 -30 -180 l-50 0 Z" /><glyph glyph-name="minus" unicode="&#x2212;" d="M425 198 q-71 5 -286 5 q-72 0 -90 -1 l7 42 l306 -1 l74 0 l-11 -45 Z" /><glyph glyph-name="multiply" unicode="×" d="M453 382 q-51 -39 -187 -155 q73 -101 126 -169 l-43 -19 q-49 67 -115 161 q-127 -109 -175 -156 l-32 25 q17 13 32 27 q106 88 156 131 q-92 128 -126 170 l45 14 l113 -157 q137 119 176 156 l30 -19 l0 -9 Z" /><glyph glyph-name="divide" unicode="÷" d="M254 327 q-13 0 -20.5 7 q-7.5 7 -7.5 20 q0 17 11.5 29 q11.5 12 28.5 12 q13 0 19.5 -7.5 q6.5 -7.5 6.5 -20.5 q0 -17 -10.5 -28.5 q-10.5 -11.5 -27.5 -11.5 ZM423 199 q-58 4 -287 4 q-72 0 -90 -1 l7 41 l306 -1 l74 0 l-10 -43 ZM206 54 q-13 0 -20.5 7 q-7.5 7 -7.5 20 q0 17 11.5 29 q11.5 12 28.5 12 q13 0 19.5 -7.5 q6.5 -7.5 6.5 -20.5 q0 -17 -10.5 -28.5 q-10.5 -11.5 -27.5 -11.5 Z" /><glyph glyph-name="equal" unicode="=" d="M437 268 q-73 5 -279 5 q-77 0 -96 -1 l9 47 l100 -2 q182 -5 232 -5 l45 1 l-11 -45 ZM408 118 q-71 5 -279 5 q-77 0 -95 -1 l8 47 l100 -2 q183 -5 232 -5 l45 1 l-11 -45 Z" /><glyph glyph-name="notequal" unicode="&#x2260;" d="M442 265 q-60 2 -149 2 l-76 -108 q165 0 213 1 l-6 -41 q-36 3 -164 3 q-24 1 -69 1 q-61 -89 -79 -113 l-47 3 l80 111 l-11 0 q-67 0 -85.5 -0.5 q-18.5 -0.5 -24.5 -0.5 l11 39 q26 -2 105 -2 q10 -1 30 -1 l77 108 l-187 0 l9 40 q42 -4 168 -4 l36 0 q62 87 81 112 l46 -3 q-19 -22 -81 -109 q108 0 129 1 l-6 -39 Z" /><glyph glyph-name="greater" unicode="&gt;" d="M432 207 q-106 -35 -384 -174 l-17 54 q160 68 337 147 q-44 23 -200 95 l-80 37 l20 49 q71 -37 276 -131 q14 -6 26 -11.5 q12 -5.5 21 -9.5 l1 -56 Z" /><glyph glyph-name="less" unicode="&lt;" d="M449 361 q-38 -16 -158 -63 l-179 -72 q59 -32 145.5 -77 q86.5 -45 134.5 -67 l-20 -49 q-76 39 -171 86.5 q-95 47.5 -161 76.5 l15 56 q123 48 377 163 l17 -54 Z" /><glyph glyph-name="greaterequal" unicode="&#x2265;" d="M50 147 q40 17 219 84 q66 23 106 39 q-43 14 -131 46 q-99 37 -142 50 l10 44 q28 -12 88.5 -34 q60.5 -22 84.5 -31 q91 -31 150 -55 l-2 -42 q-17 -7 -82 -32 q-218 -85 -297 -118 l-4 49 ZM43 35 q39 2 132 2 q94 0 166 -2 l30 0 l-3 -40 q-63 7 -157 7 q-94 0 -180 -8 l12 41 Z" /><glyph glyph-name="lessequal" unicode="&#x2264;" d="M384 94 q-41 26 -154 75 q-113 49 -163 64 l6 41 q95 47 349 138 l28 -32 q-214 -74 -322 -124 q59 -22 183 -81 l93 -43 l-20 -38 ZM383 -1 q-79 6 -224 6 q-83 0 -140 -3 l10 41 q63 -5 361 -5 l-7 -39 Z" /><glyph glyph-name="plusminus" unicode="±" d="M183 102 q16 43 37 152 q-133 0 -161 -3 l12 50 q91 -8 156 -6 q18 102 23 157 l58 0 q-15 -36 -36 -156 q51 0 75 -1 q18 0 42 -0.5 q24 -0.5 50 0.5 l-11 -49 q-31 5 -68 6.5 q-37 1.5 -96 1.5 q-19 -100 -23 -152 l-58 0 ZM383 -5 q-61 5 -230 5 l-131 -2 l11 48 q24 -2 125.5 -4 q101.5 -2 182.5 -2 q33 0 51 2 l-9 -47 Z" /><glyph glyph-name="approxequal" unicode="&#x2248;" d="M318 229 q-21 0 -42 5 q-21 5 -49 15 q-47 17 -70 17 q-38 0 -76 -27 l-10 39 q20 16 45.5 24 q25.5 8 47.5 8 q18 0 36 -4.5 q18 -4.5 45 -13.5 q51 -19 80 -19 q19 0 39 10.5 q20 10.5 37 29.5 l15 -34 q-12 -20 -38.5 -35 q-26.5 -15 -59.5 -15 ZM297 91 q-16 0 -36.5 5.5 q-20.5 5.5 -41.5 12.5 q-30 10 -50 15 q-20 5 -39 5 q-45 0 -75 -36 l-10 38 q15 20 42 31.5 q27 11.5 48 11.5 q21 0 41.5 -5 q20.5 -5 47.5 -15 q6 -2 31 -9.5 q25 -7.5 45 -7.5 q21 0 43 8.5 q22 8.5 35 23.5 l19 -35 q-45 -43 -100 -43 Z" /><glyph glyph-name="asciitilde" unicode="~" d="M338 140 q-27 0 -49.5 11 q-22.5 11 -51.5 32 q-32 21 -52 31 q-20 10 -45 10 q-29 0 -49.5 -21.5 q-20.5 -21.5 -25.5 -51.5 l-43 30 q8 36 42 66.5 q34 30.5 80 30.5 q32 0 59 -13 q27 -13 63 -37 q27 -18 42.5 -26 q15.5 -8 30.5 -8 q29 0 48 18 q19 18 33 54 l41 -31 q-17 -43 -49 -69 q-32 -26 -74 -26 Z" /><glyph glyph-name="logicalnot" unicode="¬" d="M332 132 q8 61 28 114 q-29 6 -219 6 q-30 0 -66 -2 l16 48 l82 -2 q140 -5 178 -5 q31 0 51 2 l7 -6 q-11 -37 -21.5 -84.5 q-10.5 -47.5 -12.5 -71.5 l-43 1 Z" /><glyph glyph-name="asciicircum" unicode="^" d="M440 396 q-9 27 -23 64.5 q-14 37.5 -21 56.5 l-48 134 q-23 -34 -144 -209 l-38 -54 l-52 14 q119 147 223 306 l45 0 q19 -65 40 -120.5 q21 -55.5 55 -141.5 q12 -28 17 -42 l-54 -8 Z" /><glyph glyph-name="infinity" unicode="&#x221e;" d="M222 63 q-55 0 -94.5 35 q-39.5 35 -39.5 98 q0 44 20.5 83.5 q20.5 39.5 56.5 63.5 q36 24 81 24 q53 0 95.5 -32.5 q42.5 -32.5 66.5 -83.5 q44 54 89 85 q45 31 95 31 q57 0 93.5 -38 q36.5 -38 36.5 -95 q0 -44 -21.5 -83.5 q-21.5 -39.5 -59 -63.5 q-37.5 -24 -82.5 -24 q-52 0 -92.5 32.5 q-40.5 32.5 -64.5 83.5 q-46 -56 -87.5 -86 q-41.5 -30 -92.5 -30 ZM227 110 q40 0 73.5 24.5 q33.5 24.5 80.5 80.5 q-26 53 -57.5 79 q-31.5 26 -75.5 26 q-53 0 -82 -34.5 q-29 -34.5 -29 -83.5 q0 -47 25.5 -69.5 q25.5 -22.5 64.5 -22.5 ZM556 110 q54 0 85.5 36.5 q31.5 36.5 31.5 88.5 q0 40 -20 62.5 q-20 22.5 -60 22.5 q-41 0 -80 -26 q-39 -26 -84 -79 q26 -53 55 -79 q29 -26 72 -26 Z" /><glyph glyph-name="integral" unicode="&#x222b;" d="M-3 -211 q-40 0 -72 14.5 q-32 14.5 -32 41.5 q0 17 12.5 28 q12.5 11 28.5 15 q16 -27 37 -41 q21 -14 55 -14 q67 0 110.5 61 q43.5 61 75.5 196 l26 112 q30 130 46.5 194.5 q16.5 64.5 45.5 160.5 q28 93 51 140.5 q23 47.5 62 72 q39 24.5 107 24.5 q27 0 45 -6 q18 -6 33 -24 q-13 -20 -15 -36 l-7 -3 q-10 10 -32.5 17.5 q-22.5 7.5 -54.5 7.5 q-44 0 -68.5 -18.5 q-24.5 -18.5 -40.5 -60 q-16 -41.5 -35 -125.5 q-1 -2 -1.5 -7.5 q-0.5 -5.5 -3.5 -15.5 q-55 -273 -101 -419 q-100 -315 -272 -315 Z" /><glyph glyph-name="product" unicode="&#x220f;" d="M821 718 q9 -5 11 -15 q-12 -19 -33.5 -39 q-21.5 -20 -43.5 -28 l-34 0 q-95 -326 -154 -633 q-17 -90 -17 -118 q0 -17 5.5 -23.5 q5.5 -6.5 21.5 -6.5 q16 0 40.5 6 q24.5 6 39.5 13 q5 -8 5 -18 q0 -10 -7 -16 q-7 -6 -26 -12 q-27 -8 -66 -15.5 q-39 -7.5 -56 -7.5 q-18 0 -28 8.5 q-10 8.5 -10 25.5 q0 19 9 57 q9 38 28 106 q41 152 121 496 q13 52 33 138 l-367 0 q-45 -139 -109.5 -399.5 q-64.5 -260.5 -88.5 -410.5 q-1 -8 -10 -8 q-19 -2 -23.5 -3 q-4.5 -1 -13.5 -6 l-20 -11 q-5 0 -12 2.5 q-7 2.5 -7 6.5 l8 29 q144 495 185 685 q8 38 12.5 60.5 q4.5 22.5 4.5 33.5 q0 24 -15.5 34.5 q-15.5 10.5 -58.5 13.5 q-4 0 -9.5 9.5 q-5.5 9.5 -5.5 16.5 q0 10 12 10 l552 1 q94 0 127 18 Z" /><glyph glyph-name="summation" unicode="&#x2211;" d="M785 -18 q4 4 13.5 8 q9.5 4 19.5 4 q10 0 18 -4 q-7 -15 -18 -43.5 q-11 -28.5 -18 -45.5 q-26 -65 -29 -72 q-4 -11 -11 -14 q-7 -3 -25 -3 q-20 0 -38 1 q-29 0 -107 1 q-78 1 -174 1 q-231 0 -263 -6 q-21 -4 -27 -27 q-31 0 -51 18 q4 35 34 76 l165 220 q151 199 184 247 q-96 181 -230 409 q18 15 49 25 q41 -8 120 -8 q65 0 182 5 q130 4 155 4 q15 0 18 -1.5 q3 -1.5 5 -8.5 q4 -14 10 -67 q6 -53 6 -80 q-17 -5 -23 -5 q-16 0 -19 13 q-7 42 -12.5 58.5 q-5.5 16.5 -17.5 22.5 q-12 6 -40 7 q-175 4 -338 4 q46 -90 105 -198 q59 -108 105 -185 q-30 -42 -134 -178 q-155 -201 -213 -291 q419 0 523 10 q28 6 48.5 36 q20.5 30 27.5 67 Z" /><glyph glyph-name="radical" unicode="&#x221a;" d="M531 709 q34 0 62 6 q-65 -125 -193 -382 q-49 -100 -167 -334 l-51 0 l-37 158 q-33 139 -43 185 l-34 -51 l-33 -49 q-15 16 -45 16 l106 162 l46 0 q23 -111 48 -223 l27 -122 q46 96 137 275 q100 196 177 359 Z" /><glyph glyph-name="partialdiff" unicode="&#x2202;" d="M308 -13 q-56 0 -91 33 q-35 33 -35 97 q0 64 36 128.5 q36 64.5 91.5 105.5 q55.5 41 110.5 41 q23 0 32 -8 q9 -8 9 -23 q-59 -7 -107 -41 q-48 -34 -75 -84.5 q-27 -50.5 -27 -105.5 q0 -42 17.5 -65 q17.5 -23 49.5 -23 q47 0 94 48 q47 48 77.5 130.5 q30.5 82.5 30.5 179.5 q0 88 -25 168 q-25 80 -72.5 129.5 q-47.5 49.5 -109.5 49.5 q-40 0 -59.5 -21 q-19.5 -21 -19.5 -54 q0 -31 17 -42 q-5 -10 -8 -13 q-14 4 -35 17 q-21 13 -25 21 q0 18 4 35 q8 41 38 69.5 q30 28.5 90 28.5 q76 0 135 -50.5 q59 -50.5 91.5 -136.5 q32.5 -86 32.5 -189 q0 -106 -33.5 -204 q-33.5 -98 -94.5 -159.5 q-61 -61.5 -139 -61.5 Z" /><glyph glyph-name="arrowup" unicode="&#x2191;" d="M222 445 q-29 -23 -94 -55 l0 38 q70 61 106 133 l22 0 q35 -70 107 -133 l0 -38 q-59 27 -94 55 l0 -475 l-47 0 l0 475 Z" /><glyph glyph-name="arrowright" unicode="&#x2192;" d="M614 48 q26 59 55 95 l-471 0 l0 46 l471 0 q-31 40 -55 95 l40 0 q62 -74 131 -109 l0 -19 q-69 -34 -131 -108 l-40 0 Z" /><glyph glyph-name="arrowdown" unicode="&#x2193;" d="M234 -30 q-37 74 -106 133 l0 38 q71 -36 94 -56 l0 476 l47 0 l0 -476 q32 26 94 56 l0 -38 q-70 -60 -107 -133 l-22 0 Z" /><glyph glyph-name="arrowleft" unicode="&#x2190;" d="M328 48 q-60 74 -130 108 l0 19 q71 37 130 109 l41 0 q-31 -63 -55 -95 l471 0 l0 -46 l-471 0 q26 -32 55 -95 l-41 0 Z" /><glyph glyph-name="uni25C6" unicode="&#x25c6;" d="M485 62 q-119 151 -264 268 q149 122 264 269 q118 -149 266 -269 q-144 -115 -266 -268 Z" /><glyph glyph-name="lozenge" unicode="&#x25ca;" d="M65 211 l184 210 l44 0 l116 -210 l-184 -211 l-44 0 l-116 211 ZM359 211 l-91 174 l-153 -174 l91 -174 l153 174 Z" /><glyph glyph-name="filledbox" unicode="&#x25a0;" d="M57 119 q8 130 8 242 q0 114 -8 242 q112 -7 240 -7 q128 0 240 7 q-7 -112 -7 -242 q0 -129 7 -242 q-128 8 -240 8 q-112 0 -240 -8 Z" /><glyph glyph-name="triagup" unicode="&#x25b2;" d="M196 0 q157 272 290 588 q133 -316 290 -588 l-580 0 Z" /><glyph glyph-name="uni25B6" unicode="&#x25b6;" d="M196 586 q279 -164 581 -294 q-302 -130 -581 -294 l0 588 Z" /><glyph glyph-name="triagdn" unicode="&#x25bc;" d="M486 -5 q-135 319 -290 589 l580 0 q-155 -270 -290 -589 Z" /><glyph glyph-name="uni25C0" unicode="&#x25c0;" d="M776 -2 q-279 164 -581 294 q302 130 581 294 l0 -588 Z" /><glyph glyph-name="uni25B3" unicode="&#x25b3;" d="M196 0 q157 272 290 588 q133 -316 290 -588 l-580 0 ZM679 57 q-41 69 -74.5 142 q-33.5 73 -85.5 192 q-10 26 -18.5 45.5 q-8.5 19.5 -14.5 32.5 q-8 -18 -17.5 -39.5 q-9.5 -21.5 -20.5 -46.5 q-45 -105 -80.5 -181 q-35.5 -76 -76.5 -145 l388 0 Z" /><glyph glyph-name="uni25B7" unicode="&#x25b7;" d="M196 586 q279 -164 581 -294 q-302 -130 -581 -294 l0 588 ZM256 94 q70 42 143 77.5 q73 35.5 188 86.5 l76 34 l-77 34 q-112 49 -186 84 q-74 35 -144 77 l0 -393 Z" /><glyph glyph-name="uni25BD" unicode="&#x25bd;" d="M486 0 q-133 316 -290 588 l580 0 q-157 -272 -290 -588 ZM486 119 q6 13 14.5 32.5 q8.5 19.5 18.5 45.5 q52 119 85.5 192 q33.5 73 74.5 142 l-388 0 q41 -69 76.5 -145 q35.5 -76 80.5 -181 q11 -25 20.5 -46.5 q9.5 -21.5 17.5 -39.5 Z" /><glyph glyph-name="uni25C1" unicode="&#x25c1;" d="M777 -2 q-279 164 -581 294 q302 130 581 294 l0 -588 ZM717 487 q-70 -42 -144 -77 q-74 -35 -186 -84 l-77 -34 l76 -34 q115 -51 188 -86.5 q73 -35.5 143 -77.5 l0 393 Z" /><glyph glyph-name="uniF8FF" unicode="&#xf8ff;" d="M90 712 l409 0 l0 -712 l-409 0 l0 712 ZM443 54 l0 603 l-297 0 l0 -603 l297 0 Z" /><glyph glyph-name="at" unicode="@" d="M546 94 q-42 0 -62 25.5 q-20 25.5 -20 68.5 l0 3 q-28 -42 -63 -72 q-35 -30 -65 -30 q-29 0 -52.5 26.5 q-23.5 26.5 -23.5 59.5 q0 43 33.5 101.5 q33.5 58.5 83 101 q49.5 42.5 92.5 42.5 q21 0 36 -10.5 q15 -10.5 20 -24.5 q11 19 26 19 q7 0 15 -3.5 q8 -3.5 11 -8.5 q-23 -36 -49 -91.5 q-26 -55.5 -26 -105.5 q0 -31 13 -46.5 q13 -15.5 35 -15.5 q31 0 64.5 26.5 q33.5 26.5 56 71 q22.5 44.5 22.5 94.5 q0 57 -29.5 100 q-29.5 43 -79.5 66 q-50 23 -109 23 q-85 0 -161 -46.5 q-76 -46.5 -122 -122 q-46 -75.5 -46 -156.5 q0 -66 30 -118 q30 -52 85 -81 q55 -29 129 -29 q51 0 97.5 14.5 q46.5 14.5 81.5 43.5 q9 -7 9 -17 q0 -21 -28 -40 q-28 -19 -73.5 -30.5 q-45.5 -11.5 -95.5 -11.5 q-84 0 -148 33.5 q-64 33.5 -99 92.5 q-35 59 -35 134 q0 94 53 182 q53 88 142.5 143 q89.5 55 191.5 55 q78 0 136.5 -32.5 q58.5 -32.5 89.5 -85.5 q31 -53 31 -113 q0 -59 -28.5 -113.5 q-28.5 -54.5 -74 -88 q-45.5 -33.5 -94.5 -33.5 ZM342 135 q25 0 57.5 35.5 q32.5 35.5 62.5 85.5 q30 50 47 92 q0 11 -14.5 20.5 q-14.5 9.5 -28.5 9.5 q-25 0 -62 -38 q-37 -38 -65.5 -86.5 q-28.5 -48.5 -28.5 -75.5 q0 -15 8 -29 q8 -14 24 -14 Z" /><glyph glyph-name="ampersand" unicode="&amp;" d="M899 313 q20 0 37 -25 q17 -25 17 -61 q0 -39 -23.5 -77 q-23.5 -38 -66.5 -62.5 q-43 -24.5 -99 -24.5 q-65 0 -125 34 q-78 -54 -173 -54 q-83 0 -136 40.5 q-53 40.5 -53 112.5 q0 68 40 125 q40 57 112 119 q-4 24 -4 55 q0 45 11 89 q-83 -21 -150.5 -78.5 q-67.5 -57.5 -106 -138.5 q-38.5 -81 -38.5 -168 q0 -81 37.5 -141.5 q37.5 -60.5 105 -93 q67.5 -32.5 154.5 -32.5 q70 0 138 22.5 q68 22.5 122 70.5 q8 -14 5 -27 q-7 -30 -49.5 -55.5 q-42.5 -25.5 -105 -40.5 q-62.5 -15 -125.5 -15 q-94 0 -170 36.5 q-76 36.5 -120 105.5 q-44 69 -44 161 q0 107 46.5 199.5 q46.5 92.5 128.5 153.5 q82 61 184 77 q18 42 47 67 q29 25 68 25 q29 0 45 -19 q16 -19 16 -52 q0 -16 -3 -31 q79 -25 122.5 -86 q43.5 -61 43.5 -142 q0 -73 -29 -139.5 q-29 -66.5 -81 -114.5 q46 -22 92 -22 q58 0 92.5 34 q34.5 34 34.5 88 q0 46 -37 78 q30 7 40 7 ZM558 680 q-42 0 -67 -56 q8 1 24 1 q36 0 67 -6 q2 16 2 26 q0 35 -26 35 ZM467 505 q0 -21 1 -32 l18 15 q36 30 57 52.5 q21 22.5 31 49.5 q-27 5 -53 5 q-21 0 -42 -3 q-12 -43 -12 -87 ZM748 380 q0 74 -36 126 q-36 52 -100 75 q-13 -30 -36 -55 q-23 -25 -64 -61 l-22 -20 l-16 -15 q15 -87 61 -164.5 q46 -77.5 110 -119.5 q48 41 75.5 103 q27.5 62 27.5 131 ZM484 84 q67 0 123 34 q-62 45 -107 119 q-45 74 -63 157 q-47 -48 -73.5 -94 q-26.5 -46 -26.5 -95 q0 -57 41.5 -89 q41.5 -32 105.5 -32 Z" /><glyph glyph-name="paragraph" unicode="¶" d="M747 648 q0 -5 -1 -8 q-20 3 -58 3 q-57 0 -83 -1 l-114 -478 l-28 -112 q-25 -97 -41.5 -166 q-16.5 -69 -26.5 -134 l-74 -10 q48 167 67 237 q19 70 49 192 l115 470 q-60 -2 -89 -4 l-117 -448 l-34 -127 q-58 -207 -85 -332 l-75 -9 q37 97 64.5 191 q27.5 94 62.5 228 l16 60 l31 118 q-22 -2 -34 -2 q-84 0 -139 39.5 q-55 39.5 -55 116.5 q0 102 125.5 158 q125.5 56 342.5 67 l21 87 l54 12 l-23 -97 q21 1 63 1 q23 0 42.5 -12.5 q19.5 -12.5 23.5 -34.5 l0 -5 ZM410 632 q-116 -13 -175 -51 q-59 -38 -59 -111 q0 -57 26 -84 q26 -27 86 -27 q30 0 50 4 l72 269 Z" /><glyph glyph-name="section" unicode="§" d="M257 560 q0 -31 22.5 -58.5 q22.5 -27.5 69.5 -68.5 q39 -33 64 -58.5 q25 -25.5 42.5 -59 q17.5 -33.5 17.5 -72.5 q0 -39 -18.5 -68 q-18.5 -29 -57.5 -60 q6 -21 6 -41 q0 -38 -20.5 -75 q-20.5 -37 -64 -61.5 q-43.5 -24.5 -107.5 -24.5 q-88 0 -134.5 46.5 q-46.5 46.5 -46.5 119.5 q0 43 16 58.5 q16 15.5 51 15.5 q-9 -15 -9 -47 q0 -145 138 -145 q65 0 95.5 29 q30.5 29 30.5 69 q0 41 -27.5 76 q-27.5 35 -84.5 88 q-56 51 -85 88.5 q-29 37.5 -29 79.5 q0 32 19.5 65.5 q19.5 33.5 65.5 56.5 q-4 20 -4 30 q0 36 22.5 73.5 q22.5 37.5 61.5 61.5 q39 24 88 24 q39 0 73 -14 q34 -14 34 -35 q0 -16 -14.5 -45 q-14.5 -29 -26.5 -29 q-5 0 -9 3 q7 12 7 21 q0 15 -25 26.5 q-25 11.5 -55 11.5 q-41 0 -73.5 -21.5 q-32.5 -21.5 -32.5 -59.5 ZM381 153 q31 21 31 64 q0 45 -27 82.5 q-27 37.5 -79 87.5 q-58 56 -78 89 q-52 -19 -52 -58 q0 -29 22.5 -57.5 q22.5 -28.5 73.5 -79.5 q43 -42 67.5 -69.5 q24.5 -27.5 41.5 -58.5 Z" /><glyph glyph-name="copyright" unicode="©" d="M412 -6 q-98 0 -174.5 41 q-76.5 41 -119.5 114.5 q-43 73.5 -43 168.5 q0 110 57 203.5 q57 93.5 154.5 149 q97.5 55.5 213.5 55.5 q100 0 174 -42 q74 -42 113.5 -116 q39.5 -74 39.5 -168 q0 -114 -56.5 -207 q-56.5 -93 -151.5 -146 q-95 -53 -207 -53 ZM415 36 q100 0 182.5 48.5 q82.5 48.5 129.5 132 q47 83.5 47 184.5 q0 83 -33 148 q-33 65 -96.5 102 q-63.5 37 -150.5 37 q-103 0 -186.5 -51 q-83.5 -51 -131 -136.5 q-47.5 -85.5 -47.5 -184.5 q0 -87 37.5 -150.5 q37.5 -63.5 102.5 -96.5 q65 -33 146 -33 ZM418 134 q-76 0 -123 49.5 q-47 49.5 -47 140.5 q0 72 30.5 133 q30.5 61 83.5 96.5 q53 35.5 119 35.5 q45 0 80.5 -16.5 q35.5 -16.5 54.5 -40.5 q19 -24 19 -46 q0 -23 -17.5 -32 q-17.5 -9 -34.5 -9 q-5 43 -32 68.5 q-27 25.5 -75 25.5 q-49 0 -86.5 -26.5 q-37.5 -26.5 -58 -73.5 q-20.5 -47 -20.5 -106 q0 -66 28.5 -105 q28.5 -39 90.5 -39 q57 0 92.5 29.5 q35.5 29.5 55.5 71.5 q25 -11 25 -41 q0 -30 -27.5 -56.5 q-27.5 -26.5 -70.5 -42.5 q-43 -16 -87 -16 Z" /><glyph glyph-name="registered" unicode="®" d="M380 766 q109 0 165.5 -58 q56.5 -58 56.5 -158 q0 -82 -37 -146.5 q-37 -64.5 -101 -100.5 q-64 -36 -142 -36 q-72 0 -124 30 q-52 30 -79 80.5 q-27 50.5 -27 108.5 q0 64 31.5 128.5 q31.5 64.5 96.5 108 q65 43.5 160 43.5 ZM324 298 q70 0 125.5 32 q55.5 32 87 88.5 q31.5 56.5 31.5 128.5 q0 87 -47 137.5 q-47 50.5 -141 50.5 q-73 0 -130.5 -31.5 q-57.5 -31.5 -89.5 -87 q-32 -55.5 -32 -126.5 q0 -92 54 -142 q54 -50 142 -50 ZM463 605 q0 -48 -37.5 -74.5 q-37.5 -26.5 -83.5 -26.5 l114 -134 l-50 0 l-116 147 l-25 -147 l-45 0 l55 306 q47 12 87 12 q47 0 74 -22 q27 -22 27 -61 ZM292 531 q62 -1 96 17.5 q34 18.5 34 55.5 q0 28 -19 40 q-19 12 -44 12 q-22 0 -47 -5 l-20 -120 Z" /><glyph glyph-name="uni2117" unicode="&#x2117;" d="M437 -6 q-98 0 -169.5 41.5 q-71.5 41.5 -109.5 114.5 q-38 73 -38 167 q0 112 52 205.5 q52 93.5 144.5 148.5 q92.5 55 207.5 55 q100 0 169 -41.5 q69 -41.5 104 -114.5 q35 -73 35 -167 q0 -116 -51.5 -209.5 q-51.5 -93.5 -141.5 -146.5 q-90 -53 -202 -53 ZM440 36 q100 0 180 48.5 q80 48.5 124.5 132.5 q44.5 84 44.5 186 q0 83 -31 147.5 q-31 64.5 -91.5 101 q-60.5 36.5 -147.5 36.5 q-103 0 -184 -51 q-81 -51 -126 -136 q-45 -85 -45 -185 q0 -88 35 -151 q35 -63 97.5 -96 q62.5 -33 143.5 -33 ZM357 152 q-19 0 -27.5 7.5 q-8.5 7.5 -8.5 22.5 q0 18 9.5 59.5 q9.5 41.5 28.5 110.5 q13 50 24.5 96.5 q11.5 46.5 11.5 62.5 q0 8 -4 11.5 q-4 3.5 -16 3.5 q-9 0 -21 -3 q-5 12 -5 17 q0 19 26 25 q18 4 57 8.5 q39 4.5 69 4.5 q76 0 127.5 -32 q51.5 -32 51.5 -104 q0 -68 -46.5 -111.5 q-46.5 -43.5 -117.5 -43.5 q-33 0 -53 9.5 q-20 9.5 -20 24.5 q0 10 6 16 q33 -10 60 -10 q48 0 78.5 29 q30.5 29 30.5 87 q0 53 -27.5 75.5 q-27.5 22.5 -78.5 22.5 q-32 0 -44 -7.5 q-12 -7.5 -16 -26.5 l-8 -37 q-58 -255 -58 -272 q0 -13 1 -24.5 q1 -11.5 1 -16.5 q-12 -5 -31 -5 Z" /><glyph glyph-name="trademark" unicode="&#x2122;" d="M180 411 q14 46 37 148.5 q23 102.5 29 159.5 l-38 0 q-61 0 -93 -3 l10 47 q51 -3 131 -3 q93 0 159 4 l-6 -45 q-30 2 -44 2 l-70 -1 q-4 -28 -23 -121 q-25 -127 -33 -188 l-59 0 ZM491 759 l53 0 l71 -271 l129 275 l54 0 l41 -352 l-54 0 l-31 283 l-126 -281 l-47 -2 l-69 283 l-75 -283 l-42 0 l96 348 Z" /><glyph glyph-name="degree" unicode="°" d="M227 494 q-43 0 -69 23 q-26 23 -26 67 q0 52 36 86.5 q36 34.5 91 34.5 q44 0 70 -24 q26 -24 26 -67 q0 -52 -37 -86 q-37 -34 -91 -34 ZM233 532 q36 0 57.5 21.5 q21.5 21.5 21.5 55.5 q0 28 -15 43 q-15 15 -43 15 q-35 0 -56.5 -22.5 q-21.5 -22.5 -21.5 -57.5 q0 -55 57 -55 Z" /><glyph glyph-name="minute" unicode="&#x2032;" d="M157 420 q10 40 27 138 l8 50 l3 20 q9 51 12 72 l59 0 q-6 -37 -17 -87 q-28 -148 -35 -193 l-57 0 Z" /><glyph glyph-name="second" unicode="&#x2033;" d="M137 420 q10 40 27 138 l8 50 l3 20 q9 51 12 72 l59 0 q-6 -37 -17 -87 q-28 -148 -35 -193 l-57 0 ZM277 420 q10 40 27 138 l8 50 l3 20 q9 51 12 72 l59 0 q-6 -37 -17 -87 q-28 -148 -35 -193 l-57 0 Z" /><glyph glyph-name="bar" unicode="|" d="M357 1100 l50 0 l-272 -1540 l-50 0 l272 1540 Z" /><glyph glyph-name="brokenbar" unicode="¦" d="M357 1100 l50 0 l-115 -650 l-50 0 l115 650 ZM200 210 l50 0 l-115 -650 l-50 0 l115 650 Z" /><glyph glyph-name="uni2113" unicode="&#x2113;" d="M504 280 q10 0 16 -9.5 q6 -9.5 6 -23.5 q0 -52 -54.5 -112 q-54.5 -60 -131.5 -101 q-77 -41 -137 -41 q-56 0 -82 31.5 q-26 31.5 -26 95.5 q0 51 54.5 294.5 q54.5 243.5 93.5 373.5 q40 137 100 137 q19 0 38 -13.5 q19 -13.5 32.5 -44.5 q13.5 -31 13.5 -81 q0 -103 -62.5 -240.5 q-62.5 -137.5 -199.5 -284.5 q-20 -107 -20 -133 q0 -47 18.5 -68.5 q18.5 -21.5 57.5 -21.5 q53 0 111 34.5 q58 34.5 104.5 90.5 q46.5 56 67.5 117 ZM274 735 q-43 -156 -94 -397 q103 129 152 248 q49 119 49 204 q0 37 -9.5 58.5 q-9.5 21.5 -29.5 21.5 q-13 0 -28.5 -25 q-15.5 -25 -39.5 -110 Z" /><glyph glyph-name="dagger" unicode="&#x2020;" d="M446 412 q-63 9 -158 12 q-47 -221 -80 -405 q-33 -184 -33 -246 q0 -17 3 -23 q-15 1 -39 1 q-24 0 -39 -1 q64 323 78 388 l57 286 l-2 0 l-154 -1 q2 10 4.5 21.5 q2.5 11.5 6.5 24.5 q59 -8 152 -9 l58 295 q11 -7 31 -7 q22 0 33 2 q-28 -108 -68 -290 l161 0 q3 9 -11 -48 Z" /><glyph glyph-name="daggerdbl" unicode="&#x2021;" d="M447 417 q-78 6 -153 7 q-30 -143 -68 -344 q102 0 164 3 l-6 -25 q-2 -14 -4 -21 q-56 5 -161 7 q-40 -226 -40 -278 q0 -10 2 -16 q-15 1 -39 1 q-24 0 -39 -1 l8 41 q29 138 50 253 q-29 0 -71 -2 q-54 -2 -78 -2 q6 34 11 46 q66 -5 146 -6 l69 344 q-31 0 -77 -2 q-56 -2 -82 -2 q6 34 11 46 q71 -5 155 -6 l58 295 q11 -7 31 -7 q22 0 33 2 q-19 -70 -65 -290 q97 0 155 3 l-6 -25 q-2 -14 -4 -21 Z" /><glyph glyph-name="estimated" unicode="&#x212e;" d="M496 -18 q-107 0 -193 47.5 q-86 47.5 -134.5 129.5 q-48.5 82 -48.5 181 q0 98 48 180 q48 82 133.5 129.5 q85.5 47.5 193.5 47.5 q107 0 193.5 -47.5 q86.5 -47.5 135.5 -131 q49 -83.5 49 -188.5 l-582 0 q-15 0 -21 -6.5 q-6 -6.5 -6 -19.5 l1 -173 q0 -22 6.5 -33.5 q6.5 -11.5 28.5 -27.5 q39 -29 86 -47.5 q47 -18.5 110 -18.5 q77 0 142 30.5 q65 30.5 114 86.5 l37 0 q-59 -67 -130 -103 q-71 -36 -163 -36 ZM702 350 q15 0 20.5 6.5 q5.5 6.5 5.5 19.5 l-1 158 q0 28 -2.5 41.5 q-2.5 13.5 -11 24 q-8.5 10.5 -29.5 23.5 q-42 27 -85.5 40 q-43.5 13 -103.5 13 q-59 0 -101.5 -13 q-42.5 -13 -84.5 -41 q-30 -20 -38.5 -36.5 q-8.5 -16.5 -7.5 -55.5 l2 -154 q0 -26 25 -26 l412 0 Z" /><glyph glyph-name="uni2120" unicode="&#x2120;" d="M241 411 q-77 0 -124 58 l33 31 q21 -28 47.5 -39.5 q26.5 -11.5 59.5 -11.5 q31 0 48.5 18 q17.5 18 17.5 46 q0 19 -14.5 31 q-14.5 12 -46.5 29 q-40 20 -62 40 q-22 20 -22 55 q0 42 33.5 70.5 q33.5 28.5 83.5 28.5 q35 0 59 -15.5 q24 -15.5 38 -35.5 l-22 -31 q-17 21 -36 34 q-19 13 -48 13 q-30 0 -46 -16 q-16 -16 -16 -41 q0 -22 16.5 -36 q16.5 -14 48.5 -31 q37 -19 56 -36.5 q19 -17.5 19 -46.5 q0 -50 -31.5 -82 q-31.5 -32 -91.5 -32 ZM491 759 l53 0 l71 -271 l129 275 l54 0 l41 -352 l-54 0 l-31 283 l-126 -281 l-47 -2 l-69 283 l-75 -283 l-42 0 l96 348 Z" /><glyph glyph-name="uni02BC" unicode="&#x2bc;" d="M106 486 q-12 0 -16 8 q38 21 64 54 q26 33 33 77 q2 14 2 18 q0 30 -24 37 q3 11 11.5 18 q8.5 7 20.5 7 q16 0 27 -12 q11 -12 11 -36 q0 -39 -23 -78.5 q-23 -39.5 -54 -66 q-31 -26.5 -52 -26.5 Z" /><glyph glyph-name="uni02BB" unicode="&#x2bb;" d="M177 484 q-20 0 -34 18 q-14 18 -14 50 q0 36 17 71 q17 35 41 57.5 q24 22.5 43 22.5 q11 0 17 -8 q-74 -47 -74 -128 q0 -25 7.5 -39 q7.5 -14 24.5 -19 q-2 -11 -9 -18 q-7 -7 -19 -7 Z" /><glyph glyph-name="uni02BF" unicode="&#x2bf;" d="M64 566 q-57 0 -87.5 25.5 q-30.5 25.5 -30.5 66.5 q0 43 28 67.5 q28 24.5 90 24.5 l0 -31 q-32 -1 -47.5 -18.5 q-15.5 -17.5 -15.5 -42.5 q0 -24 15.5 -41.5 q15.5 -17.5 47.5 -18.5 l0 -32 Z" /><glyph glyph-name="uni02BE" unicode="&#x2be;" d="M-56 560 q32 0 48 24 q16 24 16 61 q0 44 -45 44 l8 27 q38 0 58.5 -17 q20.5 -17 20.5 -50 q0 -52 -30 -84 q-30 -32 -84 -32 l8 27 Z" /><glyph glyph-name="uni02CC" unicode="&#x2cc;" d="M-109 -240 q8 35 20 98 q1 10 5 30 q11 56 12 72 l58 0 l-11 -53 q-18 -80 -27 -147 l-57 0 Z" /></font>
</defs>
</svg>
